<svg height="512pt" viewBox="-21 0 512 512" width="512pt" xmlns="http://www.w3.org/2000/svg"><path d="m112.441406 269.230469h245.089844c18.535156 0 33.613281-15.082031 33.613281-33.617188v-165.667969c0-18.535156-15.078125-33.613281-33.613281-33.613281h-15.085938v-26.332031c0-5.523438-4.480468-10-10-10-5.523437 0-10 4.476562-10 10v26.332031h-174.917968v-26.332031c0-5.523438-4.476563-10-10-10-5.519532 0-10 4.476562-10 10v26.332031h-15.085938c-18.535156 0-33.613281 15.078125-33.613281 33.613281v165.667969c0 18.535157 15.078125 33.617188 33.613281 33.617188zm-13.613281-199.285157c0-7.507812 6.105469-13.613281 13.613281-13.613281h245.089844c7.503906 0 13.613281 6.105469 13.613281 13.613281v165.667969c0 7.507813-6.109375 13.617188-13.613281 13.617188h-245.089844c-7.507812 0-13.613281-6.109375-13.613281-13.617188zm0 0"/><path d="m136.644531 228.65625h20.300781.085938 158.480469.082031 17.730469c8.941406 0 16.210937-7.273438 16.210937-16.210938v-119.332031c0-.078125 0-.15625 0-.234375 0-.011718 0-.019531 0-.027344-.140625-8.695312-7.164062-15.75-15.847656-15.941406-.015625 0-.03125 0-.046875 0-.105469-.003906-.207031-.003906-.3125-.003906h-96.714844c-5.523437 0-10 4.476562-10 10s4.476563 10 10 10h50.441407c-.703126 2.734375-1.070313 5.574219-1.070313 8.46875 0 18.675781 15.195313 33.867188 33.867187 33.867188 3.324219 0 6.582032-.488282 9.683594-1.417969v70.832031h-3.457031c-.050781-12.324219-2.972656-21.449219-8.726563-27.207031-3.519531-3.523438-9.832031-7.496094-19.894531-6.390625-13.0625 1.429687-15.535156-3.652344-20.476562-13.769532-4.273438-8.753906-10.128907-20.746093-25.800781-22.304687-6.65625-.660156-16.089844.746094-23.1875 11.195313-3.957032 5.828124-6.179688 12.894531-8.332032 19.726562-1.445312 4.605469-4.144531 13.183594-6.128906 14.300781-.007812 0-.511719.089844-1.75-.285156-4.097656-1.230469-5.328125-9.210937-6.621094-20.351563-.953125-8.242187-1.941406-16.765624-5.429687-23.96875-4.789063-9.878906-13.347657-15.101562-24.746094-15.101562-6.648437 0-12.609375 2.75-17.226563 7.953125-8.246093 9.289063-12.324218 26.609375-12.476562 52.953125-.050781 8.8125.363281 17.042969.804688 23.246094h-5.652344v-111.746094h16.179687c5.519531 0 10-4.480469 10-10 0-5.523438-4.480469-10-10-10h-19.96875c-8.9375 0-16.210937 7.269531-16.210937 16.207031v119.332031c0 8.9375 7.273437 16.210938 16.210937 16.210938zm183.207031-109.417969c-7.644531 0-13.867187-6.21875-13.867187-13.867187 0-3.101563 1.027344-6.0625 2.886719-8.464844h20.664062v18.386719c-2.566406 2.507812-6.03125 3.945312-9.683594 3.945312zm-147.136718 26.496094c1.09375-1.234375 1.746094-1.234375 2.269531-1.234375 6.167969 0 8.144531 2.660156 10.3125 21.371094 1.566406 13.542968 3.71875 32.09375 20.726563 37.207031 9.78125 2.9375 18.425781.15625 24.332031-7.828125 4.003906-5.410156 6.230469-12.492188 8.386719-19.34375 1.714843-5.453125 3.488281-11.09375 5.792968-14.484375 1.777344-2.621094 2.953125-2.703125 4.667969-2.53125 4.003906.394531 5.6875 2.738281 9.808594 11.171875 5.410156 11.082031 13.578125 27.832031 40.621093 24.878906 2.644532-.285156 3.316407.386719 3.570313.644532 1.476563 1.476562 2.855469 5.679687 2.882813 13.070312h-139.996094c-1.886719-23.515625-1.070313-54.257812 6.625-62.921875zm0 0"/><path d="m459.972656 492h-39.625v-99.339844c8.386719-7.246094 13.257813-17.75 13.257813-29.058594 0-21.214843-17.257813-38.472656-38.46875-38.472656-21.207031 0-38.460938 17.257813-38.460938 38.472656 0 8.960938 3.058594 17.421876 8.507813 24.15625-32.054688 12.839844-68.183594 12.839844-100.238282 0 5.449219-6.730468 8.507813-15.191406 8.507813-24.15625 0-21.214843-17.257813-38.472656-38.46875-38.472656s-38.46875 17.257813-38.46875 38.472656c0 8.964844 3.0625 17.425782 8.507813 24.15625-32.054688 12.839844-68.179688 12.839844-100.238282 0 5.449219-6.734374 8.511719-15.195312 8.511719-24.15625 0-21.214843-17.257813-38.472656-38.460937-38.472656-21.214844 0-38.472657 17.257813-38.472657 38.472656 0 11.316407 4.875 21.824219 13.261719 29.0625v99.335938h-39.625c-5.523438 0-10 4.476562-10 10s4.476562 10 10 10h449.972656c5.523438 0 10-4.476562 10-10s-4.476562-10-10-10zm-64.835937-146.871094c10.183593 0 18.46875 8.285156 18.46875 18.472656 0 6.363282-3.214844 12.199219-8.628907 15.621094-2.195312 1.398438-4.65625 2.300782-7.234374 2.664063-.859376.125-1.726563.183593-2.605469.183593-.546875 0-1.09375-.023437-1.632813-.070312-.21875-.019531-.433594-.042969-.648437-.070312-.109375-.011719-.214844-.027344-.324219-.042969-2.574219-.363281-5.039062-1.265625-7.242188-2.664063-5.394531-3.417968-8.613281-9.257812-8.613281-15.621094 0-10.1875 8.28125-18.472656 18.460938-18.472656zm-80.074219 72.25c18.625 0 37.253906-3.339844 54.875-10.011718v84.632812h-109.742188v-84.628906c17.617188 6.671875 36.242188 10.007812 54.867188 10.007812zm-80.078125-72.25c10.1875 0 18.472656 8.285156 18.472656 18.472656 0 6.363282-3.21875 12.199219-8.617187 15.613282-2.945313 1.867187-6.351563 2.855468-9.851563 2.855468-.328125 0-.65625-.007812-.984375-.027343-.117187-.003907-.234375-.011719-.351562-.019531-.199219-.015626-.394532-.035157-.589844-.054688-.027344 0-.050781-.003906-.074219-.007812-2.792969-.300782-5.476562-1.238282-7.867187-2.753907-5.386719-3.40625-8.601563-9.242187-8.601563-15.605469-.003906-10.1875 8.28125-18.472656 18.464844-18.472656zm-25.207031 62.242188v84.628906h-109.742188v-84.632812c17.621094 6.675781 36.246094 10.011718 54.875 10.011718 18.621094 0 37.246094-3.335937 54.867188-10.007812zm-134.941406-62.242188c10.179687 0 18.460937 8.285156 18.460937 18.472656 0 6.363282-3.21875 12.203126-8.617187 15.625-2.933594 1.859376-6.339844 2.84375-9.84375 2.84375-.4375 0-.875-.015624-1.3125-.046874-3.042969-.210938-5.96875-1.171876-8.550782-2.8125-5.390625-3.410157-8.605468-9.242188-8.605468-15.609376 0-10.1875 8.285156-18.472656 18.46875-18.472656zm-5.210938 146.871094v-90.28125c.03125.003906.058594.007812.089844.011719.019531.003906.039062.003906.058594.007812.085937.011719.175781.023438.265624.035157.027344.003906.058594.007812.089844.011718.074219.007813.144532.015625.21875.023438.054688.007812.105469.011718.160156.019531.046876.003906.09375.011719.140626.015625.082031.007812.164062.015625.242187.027344.015625 0 .03125 0 .046875.003906 1.289062.128906 2.589844.195312 3.898438.195312 1.296874 0 2.589843-.0625 3.871093-.191406.03125-.003906.058594-.007812.089844-.011718.066406-.007813.136719-.015626.207031-.019532.054688-.007812.105469-.011718.15625-.019531.054688-.007813.105469-.011719.15625-.019531.066406-.007813.132813-.015625.203125-.023438.035157-.003906.074219-.007812.113281-.011718.082032-.011719.167969-.023438.253907-.035157.019531-.003906.042969-.003906.0625-.007812.027343-.003907.058593-.007813.085937-.011719v90.28125zm160.152344 0v-90.28125c.148437.019531.296875.039062.449218.058594h.007813c.105469.011718.207031.023437.3125.035156.015625.003906.03125.003906.050781.007812.085938.007813.175782.019532.265625.027344.03125.003906.058594.007813.089844.011719.070313.007813.144531.015625.21875.023437.050781.003907.097656.007813.144531.011719.054688.003907.105469.011719.15625.015625.066406.003906.132813.011719.199219.019532.035156 0 .070313.003906.109375.007812.082031.007812.167969.011719.25.019531.011719 0 .023438 0 .03125.003907.96875.070312 1.945312.109374 2.921875.109374.984375 0 1.960937-.039062 2.933594-.109374.003906 0 .011719-.003907.015625-.003907.089844-.007812.175781-.011719.265625-.019531.035156-.003906.066406-.003906.101562-.007812.0625-.003907.128907-.011719.195313-.019532.054687-.003906.105468-.007812.160156-.015625.046875-.003906.097656-.007812.144531-.011719.070313-.007812.140625-.015624.210938-.023437.035156-.003906.074219-.007813.109375-.011719.078125-.007812.160156-.015625.242187-.027344.023438 0 .046875-.003906.074219-.007812.09375-.007812.191406-.019531.285156-.035156l.035156-.003906c.097657-.011719.199219-.023438.296876-.039063.011718 0 .027343 0 .039062-.003906.035156-.003907.066406-.007813.101562-.011719v90.28125zm160.160156 0v-90.28125c.03125.003906.0625.007812.09375.015625l.035156.003906c.09375.011719.191406.023438.285156.035157.027344.003906.050782.007812.078126.007812.078124.011719.15625.019531.234374.03125.046876.003906.09375.007812.140626.015625.054687.003906.105468.011719.160156.015625.070312.007812.140625.015625.210937.023438.027344.003906.058594.003906.089844.007812.09375.011719.1875.019531.28125.027344h.011719c1.183594.113281 2.378906.167968 3.578125.167968 1.089843 0 2.175781-.046874 3.257812-.136718.007813 0 .011719 0 .019531-.003906.089844-.003907.179688-.015626.269532-.023438.03125-.003906.0625-.003906.09375-.007812.070312-.007813.140625-.011719.210937-.019532.046875-.007812.097657-.011718.144531-.015625.054688-.007812.113282-.011719.171876-.019531.058593-.003906.117187-.011719.175781-.019531.046875-.003907.09375-.007813.140625-.015625.070312-.007813.144531-.015625.214844-.027344.035156-.003906.070312-.007812.101562-.011719.078125-.007812.15625-.019531.234375-.03125.035156-.003906.070313-.007812.105469-.011719.023437-.003906.042968-.007812.066406-.007812v90.28125zm0 0"/><path d="m196.628906 96.265625h-.023437c-5.523438 0-10-4.480469-10-10 0-5.523437 4.476562-10 10-10 5.523437 0 10.011719 4.476563 10.011719 10 0 5.519531-4.464844 10-9.988282 10zm0 0"/></svg>