<svg height="512pt" viewBox="0 0 512 512" width="512pt" xmlns="http://www.w3.org/2000/svg"><path d="m503.464844 512h-494.929688c-4.710937 0-8.535156-3.8125-8.535156-8.535156v-494.929688c0-4.722656 3.824219-8.535156 8.535156-8.535156h494.929688c4.710937 0 8.535156 3.8125 8.535156 8.535156v494.929688c0 4.722656-3.824219 8.535156-8.535156 8.535156zm-486.398438-17.066406h477.867188v-477.867188h-477.867188zm0 0"/><path d="m59.726562 452.265625c-1.28125 0-2.585937-.289063-3.816406-.894531-4.214844-2.109375-5.921875-7.238282-3.8125-11.453125l68.265625-136.53125c2.105469-4.214844 7.234375-5.90625 11.449219-3.816407 4.21875 2.109376 5.925781 7.238282 3.816406 11.453126l-68.265625 136.53125c-1.496093 2.988281-4.507812 4.710937-7.636719 4.710937zm0 0"/><path d="m196.273438 452.265625c-3.128907 0-6.140626-1.722656-7.636719-4.71875l-68.265625-136.53125c-2.109375-4.214844-.402344-9.34375 3.816406-11.453125 4.203125-2.089844 9.332031-.410156 11.449219 3.816406l68.265625 136.53125c2.109375 4.214844.402344 9.34375-3.8125 11.453125-1.230469.613281-2.535156.902344-3.816406.902344zm0 0"/><path d="m187.734375 401.066406h-119.46875c-4.710937 0-8.53125-3.8125-8.53125-8.53125 0-4.722656 3.820313-8.535156 8.53125-8.535156h119.46875c4.710937 0 8.53125 3.8125 8.53125 8.535156 0 4.71875-3.820313 8.53125-8.53125 8.53125zm0 0"/><path d="m440.628906 452.265625h-7.757812c-41.0625 0-74.472656-34.449219-74.472656-76.800781 0-42.347656 33.410156-76.796875 74.472656-76.796875h7.757812c4.445313 0 8.882813.410156 13.207032 1.226562 4.632812.871094 7.679687 5.324219 6.820312 9.960938-.863281 4.632812-5.351562 7.667969-9.960938 6.808593-3.292968-.613281-6.679687-.929687-10.066406-.929687h-7.757812c-31.652344 0-57.40625 26.800781-57.40625 59.730469 0 32.933594 25.753906 59.734375 57.40625 59.734375h7.757812c3.386719 0 6.773438-.316407 10.066406-.921875 4.636719-.886719 9.089844 2.175781 9.960938 6.8125.867188 4.632812-2.1875 9.085937-6.820312 9.957031-4.324219.808594-8.769532 1.21875-13.207032 1.21875zm0 0"/><path d="m273.066406 384h-34.132812c-4.710938 0-8.535156-3.8125-8.535156-8.535156v-68.265625c0-4.71875 3.824218-8.53125 8.535156-8.53125h34.132812c23.527344 0 42.667969 19.140625 42.667969 42.664062 0 23.527344-19.140625 42.667969-42.667969 42.667969zm-25.601562-17.066406h25.601562c14.113282 0 25.601563-11.484375 25.601563-25.601563 0-14.113281-11.488281-25.597656-25.601563-25.597656h-25.601562zm0 0"/><path d="m290.132812 452.265625h-51.199218c-4.710938 0-8.535156-3.8125-8.535156-8.53125v-68.269531c0-4.71875 3.824218-8.53125 8.535156-8.53125h51.199218c23.527344 0 42.667969 19.140625 42.667969 42.667968 0 23.523438-19.140625 42.664063-42.667969 42.664063zm-42.667968-17.066406h42.667968c14.113282 0 25.601563-11.484375 25.601563-25.597657 0-14.117187-11.488281-25.601562-25.601563-25.601562h-42.667968zm0 0"/><path d="m238.933594 230.398438c-2.183594 0-4.371094-.835938-6.035156-2.5l-68.265626-68.265626c-3.335937-3.335937-3.335937-8.730468 0-12.066406 3.328126-3.335937 8.738282-3.335937 12.066407 0l68.265625 68.265625c3.339844 3.339844 3.339844 8.730469 0 12.066407-1.664063 1.664062-3.847656 2.5-6.03125 2.5zm0 0"/><path d="m238.933594 230.398438c-2.183594 0-4.371094-.835938-6.035156-2.5-3.335938-3.335938-3.335938-8.726563 0-12.066407l136.535156-136.53125c3.328125-3.335937 8.738281-3.335937 12.066406 0 3.335938 3.335938 3.335938 8.730469 0 12.066407l-136.535156 136.53125c-1.664063 1.664062-3.847656 2.5-6.03125 2.5zm0 0"/></svg>