<?xml version="1.0" encoding="iso-8859-1"?>
<!-- Generator: Adobe Illustrator 19.0.0, SVG Export Plug-In . SVG Version: 6.00 Build 0)  -->
<svg xmlns="http://www.w3.org/2000/svg" xmlns:xlink="http://www.w3.org/1999/xlink" version="1.1" id="Layer_1" x="0px" y="0px" viewBox="0 0 512 512" style="enable-background:new 0 0 512 512;" xml:space="preserve" width="512" height="512">
<g>
	<rect x="216.5" y="329" width="16" height="15"/>
	<rect x="248.5" y="329" width="16" height="15"/>
	<rect x="280.5" y="329" width="16" height="15"/>
	<path d="M511.5,376v-47h-112v-17h24v-47h-80v-41h24v-47h-23.825c-3.606-43-37.175-76.569-80.175-80.175V72h64V9h-64V0h-15v96.825   c-42,3.606-75.569,37.175-79.175,80.175H144.5v47h24v41h-80v47h24v17H0.5v47h16v89h-16v47h511v-47h-16v-89H511.5z M496.5,344v17   h-97v-17H496.5z M431.5,465v-89h17v89H431.5z M399.5,376h17v89h-17V376z M328.5,265h-17v-41h17V265z M232.5,224v41h-17v-41H232.5z    M247.5,224h17v41h-17V224z M279.5,224h17v41h-17V224z M312.5,24v33h-49V24H312.5z M256.5,112c37.444,0,68.347,28,72.112,65   H184.387C188.153,140,219.056,112,256.5,112z M159.5,192h193v17h-193V192z M183.5,224h17v41h-17V224z M103.5,280h305v17h-305V280z    M384.5,312v153h-65v-57h24v-47h-175v47h24v57h-65V312H384.5z M183.5,393v-17h145v17H183.5z M224.5,408v57h-17v-57H224.5z    M239.5,408h33v57h-33V408z M287.5,408h17v57h-17V408z M80.5,376v72h15v-72h17v89h-49v-89H80.5z M15.5,344h97v17h-97V344z    M31.5,376h17v89h-17V376z M496.5,497h-481v-17h481V497z M480.5,465h-17v-89h17V465z"/>
</g>















</svg>
