<svg height="512pt" viewBox="-8 0 512 512" width="512pt" xmlns="http://www.w3.org/2000/svg"><path d="m487.5 225c-4.144531 0-7.5 3.355469-7.5 7.5v52.5h-30.808594c9.746094-9.535156 15.808594-22.820312 15.808594-37.5v-100c0-15.164062-12.335938-27.5-27.5-27.5h-50c-15.164062 0-27.5 12.335938-27.5 27.5v62.5h-225v-62.5c0-15.164062-12.335938-27.5-27.5-27.5h-50c-15.164062 0-27.5 12.335938-27.5 27.5v100c0 14.679688 6.0625 27.964844 15.808594 37.5h-30.808594v-52.5c0-4.144531-3.359375-7.5-7.5-7.5s-7.5 3.355469-7.5 7.5v272c0 4.144531 3.359375 7.5 7.5 7.5s7.5-3.355469 7.5-7.5v-52.5h105v52.5c0 4.144531 3.359375 7.5 7.5 7.5s7.5-3.355469 7.5-7.5v-249.5h90v216.394531l-20.730469 20.730469c-2.460937 2.460938-8.289062 4.875-11.769531 4.875h-20c-4.140625 0-7.5 3.355469-7.5 7.5s3.359375 7.5 7.5 7.5h150c4.144531 0 7.5-3.355469 7.5-7.5s-3.355469-7.5-7.5-7.5h-20c-3.542969 0-9.261719-2.367188-11.769531-4.875l-20.730469-20.730469v-216.394531h90v249.5c0 4.144531 3.355469 7.5 7.5 7.5s7.5-3.355469 7.5-7.5v-52.5h105v52.5c0 4.144531 3.355469 7.5 7.5 7.5s7.5-3.355469 7.5-7.5v-272c0-4.144531-3.355469-7.5-7.5-7.5zm-7.5 75v15h-105v-15zm-105-152.5c0-6.894531 5.605469-12.5 12.5-12.5h50c6.894531 0 12.5 5.605469 12.5 12.5v100c0 20.679688-16.820312 37.5-37.5 37.5h-37.5zm-317.5-12.5h50c6.894531 0 12.5 5.605469 12.5 12.5v92.5h-75v-92.5c0-6.894531 5.605469-12.5 12.5-12.5zm62.5 165v15h-105v-15zm-105 137v-107h105v107zm105-152h-37.5c-18.109375 0-33.261719-12.902344-36.746094-30h74.246094zm154.394531 212h-53.789062l15-15h23.789062zm-19.394531-30h-15v-212h15zm-120-227v-15h225v15zm240 197v-107h105v107zm0 0"/><path d="m166.5 400c0 3.183594 2.011719 6.023438 5.015625 7.078125l28.5 10c.824219.285156 1.660156.425781 2.484375.425781 3.097656 0 5.992188-1.933594 7.078125-5.019531 1.371094-3.910156-.6875-8.191406-4.59375-9.5625l-23.484375-8.238281v-102.183594c0-4.144531-3.359375-7.5-7.5-7.5h-16.5c-4.140625 0-7.5 3.355469-7.5 7.5s3.359375 7.5 7.5 7.5h9zm0 0"/><path d="m337.5 285h-16.5c-4.144531 0-7.5 3.355469-7.5 7.5v102.183594l-23.484375 8.238281c-3.90625 1.371094-5.964844 5.652344-4.59375 9.5625 1.085937 3.085937 3.980469 5.019531 7.078125 5.019531.824219 0 1.660156-.136718 2.484375-.425781l28.5-10c3.003906-1.054687 5.015625-3.894531 5.015625-7.078125v-100h9c4.144531 0 7.5-3.355469 7.5-7.5s-3.355469-7.5-7.5-7.5zm0 0"/><path d="m82.5 105c28.949219 0 52.5-23.550781 52.5-52.5s-23.550781-52.5-52.5-52.5-52.5 23.550781-52.5 52.5 23.550781 52.5 52.5 52.5zm0-90c20.679688 0 37.5 16.820312 37.5 37.5s-16.820312 37.5-37.5 37.5-37.5-16.820312-37.5-37.5 16.820312-37.5 37.5-37.5zm0 0"/><path d="m352.5 105.488281h120c12.40625 0 22.5-10.09375 22.5-22.5 0-7.410156-3.578125-14.179687-9.523438-18.355469-3.597656-9.417968-11.496093-16.386718-20.90625-18.75-3.269531-25.832031-25.363281-45.882812-52.070312-45.882812-26.871094 0-49.078125 20.296875-52.128906 46.359375-9.414063 2.3125-17.273438 9.09375-20.835938 18.265625-5.953125 4.171875-9.535156 10.949219-9.535156 18.363281 0 12.40625 10.09375 22.5 22.5 22.5zm119.480469-33.925781.875 3.242188 3 1.503906c2.554687 1.285156 4.144531 3.84375 4.144531 6.679687 0 4.136719-3.363281 7.5-7.5 7.5h-23.820312c7.925781-7.550781 13.496093-17.542969 15.492187-28.761719 3.699219 1.984376 6.640625 5.523438 7.808594 9.835938zm-22.828125-26.984375c-20.15625-2-38.582032-11.210937-52.296875-26.144531 4.761719-2.199219 10.0625-3.433594 15.644531-3.433594 17.960938 0 33.003906 12.695312 36.652344 29.578125zm-64.453125-17.21875c16.691406 18.804687 39.574219 30.246094 64.605469 32.300781-3.351563 17.265625-18.574219 30.339844-36.804688 30.339844-20.679688 0-37.5-16.820312-37.5-37.5 0-9.664062 3.675781-18.484375 9.699219-25.140625zm-35.554688 48.949219 3.003907-1.503906.875-3.242188c1.148437-4.25 4.085937-7.65625 7.863281-9.519531 2.046875 11.089843 7.585937 20.964843 15.433593 28.445312h-23.820312c-4.136719 0-7.5-3.363281-7.5-7.5 0-2.835937 1.589844-5.394531 4.144531-6.679687zm0 0"/><path d="m187.5 195h120c4.144531 0 7.5-3.355469 7.5-7.5v-150c0-4.140625-3.355469-7.5-7.5-7.5s-115.859375 0-120 0-7.5 3.359375-7.5 7.5v150c0 4.144531 3.359375 7.5 7.5 7.5zm112.5-150v135h-105v-135zm0 0"/><path d="m277.5 135h-60c-4.140625 0-7.5 3.355469-7.5 7.5s3.359375 7.5 7.5 7.5h60c4.144531 0 7.5-3.355469 7.5-7.5s-3.355469-7.5-7.5-7.5zm0 0"/><path d="m217.5 120h60c4.144531 0 7.5-3.355469 7.5-7.5s-3.355469-7.5-7.5-7.5h-60c-4.140625 0-7.5 3.355469-7.5 7.5s3.359375 7.5 7.5 7.5zm0 0"/><path d="m217.5 90h60c4.144531 0 7.5-3.355469 7.5-7.5s-3.355469-7.5-7.5-7.5h-60c-4.140625 0-7.5 3.355469-7.5 7.5s3.359375 7.5 7.5 7.5zm0 0"/></svg>