<svg height="512" viewBox="0 0 64 64" width="512" xmlns="http://www.w3.org/2000/svg"><g id="Typewriter-2" data-name="Typewriter"><path d="m60 11h-56a2 2 0 0 0 -2 2v18a2 2 0 0 0 2 2h2v7a1 1 0 0 0 .143.515l2.857 4.762v.723h-1a1 1 0 0 0 -1 1v6a1 1 0 0 0 1 1v7a1 1 0 0 0 1 1h14a1 1 0 0 0 1-1v-7a1 1 0 0 0 1-1v-6a1 1 0 0 0 -1-1v-.586l3.707-3.707a1 1 0 0 0 .293-.707v-8h8v8a1 1 0 0 0 .293.707l3.707 3.707v.586a1 1 0 0 0 -1 1v6a1 1 0 0 0 1 1v7a1 1 0 0 0 1 1h14a1 1 0 0 0 1-1v-7a1 1 0 0 0 1-1v-6a1 1 0 0 0 -1-1h-1v-.723l2.857-4.762a1 1 0 0 0 .143-.515v-7h2a2 2 0 0 0 2-2v-18a2 2 0 0 0 -2-2zm-51 37h14v4h-14zm13 12h-12v-6h12zm4-19.414-3.707 3.707a1 1 0 0 0 -.293.707v1h-11v-1a1 1 0 0 0 -.143-.515l-2.857-4.762v-9.723a1 1 0 0 1 2 0v3a1 1 0 0 0 2 0v-7a1 1 0 0 1 2 0v7a1 1 0 0 0 2 0v-8a1 1 0 0 1 2 0v8a1 1 0 0 0 2 0v-7a1 1 0 0 1 2 0v11a1 1 0 0 0 2 0v-6a1 1 0 0 1 2 0zm2-9.586a2.981 2.981 0 0 0 -.78-2h9.56a2.981 2.981 0 0 0 -.78 2zm27 17v4h-14v-4zm-1 12h-12v-6h12zm2-20.277-2.857 4.762a1 1 0 0 0 -.143.515v1h-11v-1a1 1 0 0 0 -.293-.707l-3.707-3.707v-9.586a1 1 0 0 1 2 0v6a1 1 0 0 0 2 0v-11a1 1 0 0 1 2 0v7a1 1 0 0 0 2 0v-8a1 1 0 0 1 2 0v8a1 1 0 0 0 2 0v-7a1 1 0 0 1 2 0v7a1 1 0 0 0 2 0v-3a1 1 0 0 1 2 0zm4-8.723h-2v-1a3 3 0 0 0 -4-2.829v-1.171a3 3 0 0 0 -4.472-2.614 3 3 0 0 0 -5.056 0 3 3 0 0 0 -4.472 2.614v1h-16v-1a3 3 0 0 0 -4.472-2.614 3 3 0 0 0 -5.056 0 3 3 0 0 0 -4.472 2.614v1.171a3 3 0 0 0 -4 2.829v1h-2v-18h56z"/><path d="m25 23h2v2h-2z"/><path d="m29 23h2v2h-2z"/><path d="m33 23h2v2h-2z"/><path d="m37 23h2v2h-2z"/><path d="m17 19h2v2h-2z"/><path d="m13 19h2v2h-2z"/><path d="m21 19h2v2h-2z"/><path d="m25 19h2v2h-2z"/><path d="m29 19h2v2h-2z"/><path d="m33 19h2v2h-2z"/><path d="m37 19h2v2h-2z"/><path d="m41 19h2v2h-2z"/><path d="m45 19h2v2h-2z"/><path d="m49 19h2v2h-2z"/><path d="m17 15h2v2h-2z"/><path d="m13 15h2v2h-2z"/><path d="m9 19h2v2h-2z"/><path d="m9 15h2v2h-2z"/><path d="m21 15h2v2h-2z"/><path d="m25 15h2v2h-2z"/><path d="m29 15h2v2h-2z"/><path d="m33 15h2v2h-2z"/><path d="m37 15h2v2h-2z"/><path d="m41 15h2v2h-2z"/><path d="m45 15h2v2h-2z"/><path d="m49 15h2v2h-2z"/><path d="m53 19h2v2h-2z"/><path d="m53 15h2v2h-2z"/><path d="m50 56h2v2h-2z"/><path d="m12 56h2v2h-2z"/></g></svg>