<?xml version="1.0" encoding="iso-8859-1"?>
<!-- Generator: Adobe Illustrator 17.1.0, SVG Export Plug-In . SVG Version: 6.00 Build 0)  -->
<!DOCTYPE svg PUBLIC "-//W3C//DTD SVG 1.1//EN" "http://www.w3.org/Graphics/SVG/1.1/DTD/svg11.dtd">
<svg version="1.1" id="Capa_1" xmlns="http://www.w3.org/2000/svg" xmlns:xlink="http://www.w3.org/1999/xlink" x="0px" y="0px"
	 viewBox="0 0 460.659 460.659" style="enable-background:new 0 0 460.659 460.659;" xml:space="preserve">
<g>
	<path d="M441.078,445.659H422.06c1.696-11.335,3.969-33.719,1.075-60.683c-4.995-46.55-23.459-86.378-53.602-115.973
		c1.321-4.797,0.242-9.984-3.339-13.567l-12.021-12.021c-2.523-2.521-5.935-3.91-9.607-3.91c-3.991,0-7.963,1.683-10.896,4.616
		c-5.848,5.846-6.165,15.043-0.706,20.505l12.022,12.021c2.523,2.522,5.935,3.91,9.606,3.91c1.547,0,3.089-0.259,4.57-0.739
		c27.777,27.189,44.252,62.88,49.007,106.277c2.997,27.36,0.222,50.108-1.307,59.564h-43.775v-15.367
		c0-35.193-9.385-62.355-27.895-80.732c-8.309-8.25-17.361-13.593-25.66-17.063V215.332v-1.606c5.268-1.299,9.851-4.018,13.49-8.047
		c10.618-11.757,10.002-30.306,9.243-37.733c-0.576-5.654-3.134-10.399-7.397-13.723c-4.663-3.635-10.551-4.905-15.336-5.258
		v-24.366c0-42-12.636-74.327-37.557-96.085c-21.02-18.35-50.237-28.184-84.575-28.499C187.302,0.011,187.205,0,187.104,0
		c-0.241,0-0.478,0.005-0.718,0.006C186.158,0.005,185.932,0,185.703,0c-0.094,0-0.186,0.011-0.28,0.015
		c-36.052,0.296-66.855,10.112-89.16,28.447c-28.179,23.163-42.467,58.85-42.467,106.065v238.201c0,0.714,0.106,1.401,0.292,2.056
		c-7.002,15.37-10.549,33.921-10.549,55.508v15.367H19.582c-4.142,0-7.5,3.357-7.5,7.5c0,4.142,3.358,7.5,7.5,7.5h421.496
		c4.143,0,7.5-3.358,7.5-7.5C448.578,449.017,445.22,445.659,441.078,445.659z M309.533,164.037
		c2.325,0.269,4.652,0.866,6.132,2.029c0.716,0.563,1.477,1.408,1.68,3.401c0.892,8.739-0.072,20.2-5.453,26.157
		c-0.721,0.798-1.509,1.456-2.358,2.009V164.037z M235.715,341.086h19.852c-2.912,26.259-25.231,46.751-52.255,46.751
		c-27.022,0-49.34-20.492-52.252-46.751h19.852c4.142,0,7.5-3.357,7.5-7.5v-26.469c7.173,1.836,14.973,3.117,23.472,3.668
		c0.161,0.011,0.323,0.016,0.485,0.016h1.887c0.162,0,0.323-0.005,0.485-0.016c8.501-0.551,16.301-1.832,23.475-3.669v26.47
		C228.215,337.728,231.573,341.086,235.715,341.086z M243.215,326.086v-22.734c0-0.396-0.04-0.783-0.1-1.163
		c24.057-9.941,39.261-26.522,48.519-40.897c1.023-1.589,1.984-3.172,2.898-4.746v71.24c-7.834-1.689-13.243-1.704-13.746-1.7
		H243.215z M279.024,253.17c-16.804,26.092-42.04,40.435-75.015,42.631h-1.395c-32.767-2.185-57.905-16.371-74.713-42.169
		c-11.735-18.011-15.267-35.843-15.808-38.913v-82.62h67.218c4.142,0,7.5-3.357,7.5-7.5v-5.375l10.075,10.554
		c1.415,1.482,3.376,2.321,5.425,2.321h92.221v82.63C294.003,217.788,290.597,235.199,279.024,253.17z M68.796,134.527
		c0-103.177,72.951-119.273,117.249-119.521c31.242,0.063,57.541,8.634,76.065,24.808C282.165,57.321,293,83.3,294.378,117.099
		h-88.857l-20.784-21.771c-2.116-2.219-5.369-2.924-8.214-1.783c-2.845,1.14-4.71,3.896-4.71,6.962v16.593h-67.218
		c-4.142,0-7.5,3.357-7.5,7.5v90.733c0,0.36,0.026,0.72,0.078,1.076c0.131,0.907,3.388,22.474,17.82,44.884
		c9.258,14.375,24.462,30.956,48.519,40.897c-0.059,0.38-0.099,0.767-0.099,1.163v22.734h-37.518
		c-1.218-0.001-30.869,0.051-54.46,23.474c-0.907,0.9-1.774,1.84-2.637,2.782V134.527z M300.351,445.659h-40.349v-19.44h40.349
		V445.659z M348.087,445.659h-32.736v-26.94c0-4.143-3.357-7.5-7.5-7.5h-20.174v-6.215c0-4.143-3.358-7.5-7.5-7.5
		c-4.143,0-7.5,3.357-7.5,7.5v6.215h-20.175c-4.143,0-7.5,3.357-7.5,7.5v26.94H58.54v-15.367c0-88.178,64.527-89.205,67.301-89.206
		h10.157c2.969,34.543,32.016,61.751,67.315,61.751c35.301,0,64.349-27.208,67.317-61.751h10.211
		c0.151-0.009,7.98,0.015,18.224,3.469c0.3,0.13,0.612,0.235,0.932,0.326c7.686,2.712,16.603,7.354,24.629,15.323
		c15.569,15.457,23.463,39.038,23.463,70.088V445.659z"/>
	<circle cx="150.075" cy="166.997" r="8.951"/>
	<circle cx="256.552" cy="166.997" r="8.951"/>
	<path d="M211.669,193.323c-3.993,0-7.257,3.12-7.487,7.056h-1.737c-0.23-3.936-3.494-7.056-7.487-7.056c-4.142,0-7.5,3.357-7.5,7.5
		c0,8.026,6.53,14.556,14.556,14.556h2.6c8.026,0,14.556-6.529,14.556-14.556C219.169,196.681,215.811,193.323,211.669,193.323z"/>
	<path d="M244.963,239.741c2.342-3.417,1.47-8.085-1.946-10.427c-3.419-2.343-8.086-1.47-10.427,1.946
		c-4.076,5.947-7.999,6.316-8.839,6.323c-3.282-0.806-6.394,0.768-8.03,3.755c-1.663,3.034-0.696,6.888,1.861,9.22
		c0.664,0.605,6.824,6.027,18.757,10.127c0.808,0.277,1.63,0.409,2.438,0.409c3.114,0,6.024-1.955,7.093-5.064
		c1.347-3.918-0.738-8.185-4.655-9.53c-0.54-0.186-1.063-0.374-1.571-0.564C241.44,244.296,243.236,242.261,244.963,239.741z"/>
</g>
<g>
</g>
<g>
</g>
<g>
</g>
<g>
</g>
<g>
</g>
<g>
</g>
<g>
</g>
<g>
</g>
<g>
</g>
<g>
</g>
<g>
</g>
<g>
</g>
<g>
</g>
<g>
</g>
<g>
</g>
</svg>
