<svg xmlns="http://www.w3.org/2000/svg" height="639pt" version="1.1" viewBox="0 1 639 639.99878" width="639pt">
<g id="surface1">
<path d="M 448.5 213.335938 L 389.671875 213.335938 C 386.847656 213.335938 384.132812 214.457031 382.128906 216.460938 L 291.628906 306.96875 C 289.625 308.964844 288.503906 311.679688 288.496094 314.507812 L 288.496094 330.667969 C 288.496094 336.558594 293.277344 341.332031 299.167969 341.332031 L 448.5 341.332031 C 454.390625 341.332031 459.164062 336.558594 459.164062 330.667969 L 459.164062 224 C 459.164062 218.109375 454.390625 213.335938 448.5 213.335938 Z M 437.832031 320 L 309.835938 320 L 309.835938 318.933594 L 394.097656 234.667969 L 437.832031 234.667969 Z M 437.832031 320 " style=" stroke:none;fill-rule:nonzero;fill:rgb(0%,0%,0%);fill-opacity:1;" />
<path d="M 576.5 491.519531 L 576.5 437.332031 C 576.5 431.441406 571.722656 426.664062 565.832031 426.664062 L 523.164062 426.664062 L 523.164062 160 C 523.164062 154.105469 518.390625 149.332031 512.5 149.332031 L 363.164062 149.332031 C 360.339844 149.335938 357.628906 150.457031 355.625 152.457031 L 304.5 203.582031 L 104.039062 3.125 C 102.042969 1.128906 99.328125 0 96.5 0 L 32.5 0 C 26.609375 0 21.832031 4.773438 21.832031 10.667969 L 21.832031 149.335938 C 21.832031 155.222656 26.609375 160 32.5 160 L 32.5 234.667969 C 32.5 240.554688 37.277344 245.335938 43.164062 245.335938 C 54.949219 245.335938 64.503906 254.886719 64.503906 266.667969 C 64.503906 278.453125 54.949219 288.003906 43.164062 288.003906 C 31.386719 288.003906 21.832031 278.453125 21.832031 266.667969 C 21.832031 260.777344 17.0625 256 11.167969 256 C 5.273438 256 0.5 260.777344 0.5 266.667969 C 0.410156 290.234375 19.445312 309.402344 43.007812 309.492188 C 66.570312 309.585938 85.742188 290.550781 85.832031 266.988281 C 85.90625 247.46875 72.730469 230.394531 53.835938 225.515625 L 53.835938 160 C 58.214844 160 62.144531 157.324219 63.75 153.246094 L 83.496094 103.199219 L 244.191406 263.890625 L 227.625 280.457031 C 225.625 282.460938 224.5 285.171875 224.5 287.996094 L 224.5 426.664062 L 181.832031 426.664062 C 175.945312 426.664062 171.167969 431.441406 171.167969 437.332031 L 171.167969 491.523438 C 130.398438 497.730469 102.382812 535.808594 108.59375 576.574219 C 114.117188 612.835938 145.15625 639.714844 181.832031 640 L 565.832031 640 C 607.066406 639.679688 640.238281 605.996094 639.921875 564.757812 C 639.640625 528.082031 612.757812 497.039062 576.5 491.519531 Z M 87.082031 76.621094 C 82.917969 72.457031 76.164062 72.457031 72 76.621094 C 70.96875 77.65625 70.15625 78.886719 69.621094 80.242188 L 46.574219 138.667969 L 43.171875 138.667969 L 43.171875 21.332031 L 92.085938 21.332031 L 289.414062 218.667969 L 259.273438 248.808594 Z M 245.835938 292.417969 L 367.585938 170.667969 L 501.835938 170.667969 L 501.835938 426.664062 L 245.835938 426.664062 Z M 192.5 447.996094 L 555.167969 447.996094 L 555.167969 490.664062 L 192.5 490.664062 Z M 565.832031 618.664062 L 181.832031 618.664062 C 152.378906 618.664062 128.503906 594.789062 128.503906 565.332031 C 128.503906 535.878906 152.378906 512 181.832031 512 L 565.835938 512 C 595.289062 512 619.164062 535.878906 619.164062 565.332031 C 619.164062 594.789062 595.289062 618.664062 565.832031 618.664062 Z M 565.832031 618.664062 " style=" stroke:none;fill-rule:nonzero;fill:rgb(0%,0%,0%);fill-opacity:1;" />
<path d="M 373.832031 522.664062 C 350.269531 522.664062 331.167969 541.765625 331.167969 565.332031 C 331.167969 588.894531 350.269531 607.996094 373.832031 607.996094 C 397.398438 607.996094 416.5 588.894531 416.5 565.332031 C 416.5 541.765625 397.398438 522.664062 373.832031 522.664062 Z M 373.832031 586.664062 C 362.050781 586.664062 352.5 577.113281 352.5 565.332031 C 352.5 553.546875 362.050781 544 373.832031 544 C 385.617188 544 395.167969 553.546875 395.167969 565.332031 C 395.167969 577.113281 385.617188 586.664062 373.832031 586.664062 Z M 373.832031 586.664062 " style=" stroke:none;fill-rule:nonzero;fill:rgb(0%,0%,0%);fill-opacity:1;" />
<path d="M 501.832031 522.664062 C 478.265625 522.664062 459.164062 541.765625 459.164062 565.332031 C 459.164062 588.894531 478.265625 607.996094 501.832031 607.996094 C 525.394531 607.996094 544.496094 588.894531 544.496094 565.332031 C 544.496094 541.765625 525.394531 522.664062 501.832031 522.664062 Z M 501.832031 586.664062 C 490.050781 586.664062 480.5 577.113281 480.5 565.332031 C 480.5 553.546875 490.050781 544 501.832031 544 C 513.613281 544 523.164062 553.546875 523.164062 565.332031 C 523.164062 577.113281 513.613281 586.664062 501.832031 586.664062 Z M 501.832031 586.664062 " style=" stroke:none;fill-rule:nonzero;fill:rgb(0%,0%,0%);fill-opacity:1;" />
<path d="M 245.835938 522.664062 C 222.273438 522.664062 203.164062 541.765625 203.164062 565.332031 C 203.164062 588.894531 222.273438 607.996094 245.835938 607.996094 C 269.394531 607.996094 288.503906 588.894531 288.503906 565.332031 C 288.503906 541.765625 269.394531 522.664062 245.835938 522.664062 Z M 245.835938 586.664062 C 234.054688 586.664062 224.5 577.113281 224.5 565.332031 C 224.5 553.546875 234.054688 544 245.835938 544 C 257.613281 544 267.167969 553.546875 267.167969 565.332031 C 267.167969 577.113281 257.613281 586.664062 245.835938 586.664062 Z M 245.835938 586.664062 " style=" stroke:none;fill-rule:nonzero;fill:rgb(0%,0%,0%);fill-opacity:1;" />
</g>
</svg>