<svg id="Layer_3" enable-background="new 0 0 64 64" height="512" viewBox="0 0 64 64" width="512" xmlns="http://www.w3.org/2000/svg"><path d="m32.884 11.128-2.82 7.521c-.071.19-.083.397-.034.594l1.91 7.641-2.649 5.298-2.607.87.633 1.896 3-1c.251-.083.459-.264.578-.501l3-6c.106-.213.133-.458.076-.69l-1.924-7.698 2.891-7.708c.113-.301.074-.638-.104-.906l-1.744-2.613c-.059-.088-.09-.191-.09-.297 0-.295.24-.535.535-.535h.16c2.008 0 4.019.475 5.814 1.373l.048.024c-.519.627-1.203 1.098-1.995 1.362l-.879.293c-.298.1-.533.334-.632.632l-3 9c-.09.27-.061.565.081.812l3.823 6.691-.842 5.055-2.429.81.633 1.896 3-1c.351-.116.609-.419.67-.784l1-6c.038-.228-.004-.46-.118-.661l-3.778-6.612 2.701-8.102.405-.135c1.622-.541 2.935-1.68 3.699-3.208.247-.494.046-1.095-.447-1.342l-1.044-.522c-2.073-1.034-4.393-1.582-6.71-1.582h-.16c-1.398 0-2.535 1.137-2.535 2.535 0 .502.147.988.426 1.406z"/><path d="m40.307 9.5h5.385v2.001h-5.385z" transform="matrix(.371 -.929 .929 .371 17.281 46.525)"/><path d="m43.764 11h4.472v2h-4.472z" transform="matrix(.447 -.894 .894 .447 14.695 47.777)"/><path d="m46.764 13h4.472v2h-4.472z" transform="matrix(.447 -.894 .894 .447 14.565 51.566)"/><path d="m49.379 15.5h4.243v2h-4.243z" transform="matrix(.707 -.707 .707 .707 3.417 41.249)"/><path d="m51.697 19h3.606v2h-3.606z" transform="matrix(.832 -.555 .555 .832 -2.109 33.036)"/><path d="m52.919 22.5h3.162v2h-3.162z" transform="matrix(.949 -.316 .316 .949 -4.635 18.44)"/><path d="m54.882 25.5h2.236v2h-2.236z" transform="matrix(.894 -.447 .447 .894 -5.939 27.842)"/><path d="m57.382 28h2.236v2h-2.236z" transform="matrix(.447 -.894 .894 .447 6.4 68.355)"/><path d="m61 29h2v2h-2z"/><path d="m9.928 12.418-4.481 2.24-.553-1.105-1.789.895 1 2c.176.35.529.552.896.552.15 0 .303-.034.446-.105l5.375-2.688c1.946-.973 3.307-2.755 3.733-4.889l.424-2.123-.009-.002c.025-.128.035-.259.009-.39l-1-5c-.092-.467-.502-.803-.979-.803h-1.111c-1.39 0-2.782.329-4.025.95l-1.889.945c-3.069 1.534-4.975 4.618-4.975 8.105 0 .404.244.769.617.924.124.051.254.076.383.076.26 0 .516-.102.707-.293l1.49-1.49 1.355.678c.495.248 1.095.047 1.342-.447l.553-1.105 1.105.553c.496.248 1.095.047 1.342-.447l.724-1.449h2.162l-.185.926c-.305 1.524-1.277 2.797-2.667 3.492zm.072-6.418c-.379 0-.725.214-.895.553l-.552 1.105-1.106-.553c-.495-.248-1.095-.046-1.342.448l-.552 1.105-1.106-.553c-.142-.07-.295-.105-.447-.105-.135 0-.27.027-.394.081.646-1.449 1.78-2.656 3.264-3.397l1.889-.944c.966-.485 2.049-.74 3.13-.74h.292l.6 3z"/><path d="m17 4h2v6h-2z"/><path d="m31 7.535v-3.535h-2v4h2z"/><path d="m15.949 22.316.892-2.675 2.714-1.81c.278-.185.445-.497.445-.831v-2.333l1.775 2.368-1.607 2.411c-.109.163-.168.357-.168.554v2h2v-1.697l1.832-2.748c.235-.353.222-.815-.032-1.155l-2.325-3.1 2.599-2.079c.605 1.376.926 2.862.926 4.384v1.395h2v-1.395c0-2.45-.695-4.822-2-6.887v-2.718h-2v3.52l-1 .8v-4.32h-2v5.92l-1.625 1.3c-.237.189-.375.476-.375.78v2.465l-2.555 1.703c-.185.124-.324.305-.394.516l-1 3z"/><path d="m27.4 10.2c1.032 1.375 1.6 3.081 1.6 4.8h2c0-2.149-.71-4.28-2-6l-1-1.333v-3.667h-2v4c0 .216.07.427.2.6z"/><path d="m59 39h-3v-3c0-.553-.448-1-1-1h-46c-.552 0-1 .447-1 1v3h-3c-.552 0-1 .447-1 1v4c0 .553.448 1 1 1h1v18h2v-18h48v18h2v-18h1c.552 0 1-.447 1-1v-4c0-.553-.448-1-1-1zm-49-2h44v2h-44zm48 6h-52v-2h52z"/></svg>