<svg width="192" height="270" viewBox="0 0 192 270" fill="none" xmlns="http://www.w3.org/2000/svg">
<path d="M76.1551 178.591C73.9847 178.591 72.2344 180.28 72.2344 182.363C72.2344 184.454 73.9847 186.143 76.1551 186.143C79.3932 186.143 105.306 186.143 108.545 186.143C110.715 186.143 112.465 184.454 112.465 182.363C112.465 180.28 110.715 178.591 108.545 178.591C102.068 178.591 79.3932 178.591 76.1551 178.591Z" fill="black"/>
<path d="M83.0689 189.574C80.9073 189.574 79.1482 191.272 79.1482 193.355C79.1482 195.438 80.9073 197.136 83.0689 197.136C84.9242 197.136 99.7756 197.136 101.631 197.136C103.801 197.136 105.552 195.438 105.552 193.355C105.552 191.272 103.801 189.574 101.631 189.574C97.9203 189.574 84.9242 189.574 83.0689 189.574Z" fill="black"/>
<path d="M105.779 137.345C103.618 137.345 101.858 139.043 101.858 141.126C101.858 143.209 103.618 144.906 105.779 144.906C106.103 144.906 107.704 144.906 110.593 144.906V164.772H74.1073V144.906C82.22 144.906 86.7358 144.906 87.6372 144.906C89.7988 144.906 91.5579 143.209 91.5579 141.126C91.5579 139.043 89.7988 137.345 87.6372 137.345C86.2107 137.345 74.7987 137.345 73.3722 137.345C69.4515 137.345 66.2659 140.417 66.2659 144.189C66.2659 146.324 66.2659 163.355 66.2659 165.49C66.2659 169.262 69.4515 172.334 73.3722 172.334C77.1616 172.334 107.538 172.334 111.336 172.334C115.248 172.334 118.434 169.262 118.434 165.49C118.434 163.355 118.434 146.324 118.434 144.189C118.434 140.417 115.248 137.345 111.336 137.345C110.225 137.345 106.331 137.345 105.779 137.345Z" fill="black"/>
<path d="M117.725 56.8307L118.049 56.857L118.373 56.9007L118.696 56.962L119.012 57.032L119.318 57.1107L119.624 57.1983L119.93 57.3033L120.219 57.417L120.517 57.5483L120.797 57.6796L121.077 57.8284L121.348 57.9771L121.611 58.1434L121.865 58.3185L122.11 58.5022L122.355 58.6948L122.591 58.8961L122.818 59.1061L123.028 59.3249L123.239 59.5437L123.44 59.78L123.632 60.025L123.807 60.2701L123.982 60.5239L124.14 60.7864L124.297 61.0489L124.437 61.3202L124.56 61.6003L124.683 61.8891L124.788 62.1779L124.884 62.4754L124.971 62.773L125.041 63.0793L125.094 63.3856L125.146 63.7007L125.181 64.0157L125.199 64.3308L125.208 64.6546V78.2982L125.199 78.6221L125.181 78.9371L125.146 79.2609L125.094 79.5672L125.041 79.8823L124.971 80.1798L124.884 80.4861L124.788 80.7749L124.683 81.0725L124.56 81.3525L124.437 81.6326L124.297 81.9039L124.14 82.1752L123.982 82.429L123.807 82.6915L123.632 82.9366L123.44 83.1729L123.239 83.4092L123.028 83.6367L122.818 83.8467L122.591 84.0568L122.355 84.2581L122.11 84.4506L121.865 84.6344L121.611 84.8094L121.348 84.9757L121.077 85.1332L120.797 85.2732L120.517 85.4133L120.219 85.5358L119.93 85.6496L119.624 85.7546L119.318 85.8421L119.012 85.9296L118.696 85.9909L118.373 86.0521L118.049 86.0959L117.725 86.1309L117.392 86.1484L117.051 86.1571H67.6487L67.3161 86.1484L66.9835 86.1309L66.651 86.0959L66.3272 86.0521L66.0034 85.9909L65.6883 85.9296L65.382 85.8421L65.0757 85.7546L64.7694 85.6496L64.4806 85.5358L64.1918 85.4133L63.903 85.2732L63.6317 85.1332L63.3604 84.9757L63.0979 84.8094L62.8353 84.6344L62.5903 84.4506L62.3452 84.2581L62.1089 84.0568L61.8901 83.8467L61.6713 83.6367L61.4613 83.4092L61.26 83.1729L61.0675 82.9366L60.8925 82.6915L60.7174 82.429L60.5599 82.1752L60.4111 81.9039L60.2711 81.6326L60.1398 81.3525L60.0173 81.0725L59.9123 80.7749L59.816 80.4861L59.7373 80.1798L59.6585 79.8823L59.606 79.5672L59.5535 79.2609L59.5272 78.9371L59.501 78.6221V78.2982V64.6546V64.3308L59.5272 64.0157L59.5535 63.7007L59.606 63.3856L59.6585 63.0793L59.7373 62.773L59.816 62.4754L59.9123 62.1779L60.0173 61.8891L60.1398 61.6003L60.2711 61.3202L60.4111 61.0489L60.5599 60.7864L60.7174 60.5239L60.8925 60.2701L61.0675 60.025L61.26 59.78L61.4613 59.5437L61.6713 59.3249L61.8901 59.1061L62.1089 58.8961L62.3452 58.6948L62.5903 58.5022L62.8353 58.3185L63.0979 58.1434L63.3604 57.9771L63.6317 57.8284L63.903 57.6796L64.1918 57.5483L64.4806 57.417L64.7782 57.3033L65.0757 57.1983L65.382 57.1107L65.6883 57.032L66.0034 56.962L66.3272 56.9007L66.651 56.857L66.9835 56.8307L67.3161 56.8044H67.6487H117.051H117.392L117.725 56.8307ZM67.6311 64.357H67.6137H67.5962L67.5786 64.3658H67.5611L67.5437 64.3745L67.5349 64.3833H67.5174L67.4999 64.392L67.4824 64.4008L67.4736 64.4095L67.4561 64.4183L67.4474 64.427L67.4299 64.4358L67.4211 64.4533L67.4124 64.4621L67.4036 64.4795L67.3861 64.4883L67.3774 64.5058L67.3686 64.5146V64.5321L67.3599 64.5408L67.3511 64.5583V64.5758L67.3424 64.5933V64.6108L67.3336 64.6283V64.6371V64.6546V78.2982V78.3158V78.3333L67.3424 78.3508V78.3683L67.3511 78.377V78.3945L67.3599 78.412L67.3686 78.4295L67.3774 78.4383V78.4558L67.3861 78.4645L67.4036 78.482L67.4124 78.4908L67.4211 78.5083L67.4299 78.517L67.4474 78.5258L67.4561 78.5345L67.4736 78.5433L67.4824 78.552L67.4999 78.5608L67.5174 78.5696L67.5349 78.5783H67.5437L67.5611 78.5871H67.5786L67.5962 78.5958H67.6137H67.6311H67.6487H117.051H117.069H117.086H117.104L117.121 78.5871H117.139L117.156 78.5783H117.174L117.182 78.5696L117.2 78.5608L117.217 78.552L117.226 78.5433L117.244 78.5345L117.252 78.5258L117.27 78.517L117.279 78.5083L117.287 78.4908L117.305 78.482L117.314 78.4645L117.322 78.4558L117.331 78.4383L117.34 78.4295V78.412L117.349 78.3945L117.357 78.377V78.3683V78.3508L117.366 78.3333V78.3158V78.2982V64.6546V64.6371V64.6283L117.357 64.6108V64.5933V64.5758L117.349 64.5583L117.34 64.5408V64.5321L117.331 64.5146L117.322 64.5058L117.314 64.4883L117.305 64.4795L117.287 64.4621L117.279 64.4533L117.27 64.4358L117.252 64.427L117.244 64.4183L117.226 64.4095L117.217 64.4008L117.2 64.392L117.182 64.3833H117.174L117.156 64.3745L117.139 64.3658H117.121L117.104 64.357H117.086H117.069H117.051H67.6487H67.6311Z" fill="black"/>
<path d="M82.465 72.9073C82.465 72.6098 82.465 70.2293 82.465 69.9318C82.465 67.8402 80.7147 66.1511 78.553 66.1511C76.3826 66.1511 74.6323 67.8402 74.6323 69.9318C74.6323 70.2293 74.6323 72.6098 74.6323 72.9073C74.6323 74.999 76.3826 76.688 78.553 76.688C80.7147 76.688 82.465 74.999 82.465 72.9073Z" fill="black"/>
<path d="M110.067 72.9073C110.067 72.6098 110.067 70.2293 110.067 69.9318C110.067 67.8402 108.317 66.1511 106.155 66.1511C103.985 66.1511 102.235 67.8402 102.235 69.9318C102.235 70.2293 102.235 72.6098 102.235 72.9073C102.235 74.999 103.985 76.688 106.155 76.688C108.317 76.688 110.067 74.999 110.067 72.9073Z" fill="black"/>
<path d="M96.0124 1.63458L96.5287 1.67834L97.0451 1.7571L97.5614 1.84462L98.0603 1.94964L98.5503 2.08092L99.0404 2.22969L99.5218 2.38721L99.9856 2.571L100.449 2.77229L100.896 2.98233L101.342 3.21861L101.771 3.46367L102.191 3.7262L102.594 3.9975L102.996 4.29506L103.372 4.60136L103.749 4.91641L104.108 5.24898L104.449 5.59903L104.781 5.95785L105.097 6.32541L105.403 6.71048L105.692 7.09555L105.963 7.50688L106.217 7.9182L106.453 8.33827L106.681 8.77585L106.882 9.22218L107.074 9.66851L107.241 10.1323L107.398 10.6049L107.529 11.0775L107.643 11.5589L107.731 12.0577L107.809 12.5478L107.862 13.0554L107.897 13.563L107.906 14.0793L107.897 14.4906L107.879 14.9019L107.844 15.3133L107.792 15.7158L107.731 16.1184L107.652 16.521L107.564 16.9148L107.468 17.2999L107.354 17.6849L107.232 18.0613L107.092 18.4288L106.943 18.7964L106.777 19.1639L106.611 19.514L106.427 19.8641L106.234 20.2054L106.024 20.5467L105.814 20.8793L105.587 21.1943L105.35 21.5094L105.105 21.8244L104.851 22.122L104.58 22.4108L104.309 22.6996L104.029 22.9709L103.731 23.2422L103.434 23.5047L103.127 23.7498L102.812 23.9948L102.489 24.2223L102.156 24.4499L101.815 24.6599L101.473 24.8612L101.115 25.0537L100.756 25.2375L100.388 25.4038L100.021 25.5613L99.6443 25.7101L99.2592 25.8501L98.8654 25.9814V29.412L99.6968 29.482L100.519 29.5608L101.342 29.6571L102.165 29.7621L102.987 29.8758L103.801 30.0071L104.624 30.1559L105.438 30.3134L106.243 30.4797L107.057 30.6635L107.862 30.856L108.658 31.0661L109.464 31.2848L110.26 31.5124L111.048 31.7574L111.835 32.02L112.623 32.2913L113.402 32.5713L114.181 32.8689L114.951 33.1752L115.721 33.4902L116.482 33.8228L117.244 34.1729L117.996 34.5317L118.74 34.8992L119.484 35.2843L120.219 35.6781L120.954 36.0807L121.672 36.5008L122.398 36.9296L123.107 37.3759L123.816 37.831L124.516 38.3036L125.208 38.7762L125.89 39.275L126.573 39.7739L127.238 40.2902L127.903 40.824L128.559 41.3666L129.207 41.918L129.618 42.2768L130.021 42.6356L130.423 43.0032L130.817 43.3795L131.211 43.7471L131.596 44.1234L131.973 44.5084L132.349 44.8935L132.725 45.2786L133.093 45.6636L133.452 46.0575L133.81 46.46L134.16 46.8539L134.51 47.2564L134.852 47.6678L135.184 48.0791L135.517 48.4904L135.841 48.9017L136.165 49.3218L136.488 49.7506L136.795 50.1707L137.101 50.5995L137.407 51.0371L137.705 51.4659L137.994 51.9123L138.282 52.3498L138.562 52.7962L138.842 53.2425L139.114 53.6888L139.376 54.1439L139.639 54.599L139.893 55.0628L140.146 55.5266L140.392 55.9905L140.637 56.4631L140.873 56.9356L141.1 57.4082L141.328 57.8808L141.547 58.3622L141.766 58.8435L141.792 58.9047L141.827 58.9923L141.871 59.0973L141.932 59.2286L141.993 59.3773L142.063 59.5524L142.151 59.7449L142.238 59.9637L142.326 60.2L142.431 60.4538L142.536 60.7251L142.641 61.0226L142.754 61.3377L142.877 61.6702L142.999 62.0203L143.122 62.3879L143.253 62.7729L143.385 63.1755L143.516 63.5868L143.647 64.0244L143.778 64.4707L143.918 64.9346L144.05 65.4159L144.181 65.9147L144.312 66.4223L144.443 66.9387L144.575 67.4725L144.697 68.0239L144.82 68.584L144.942 69.1528L145.056 69.7392L145.161 70.3343L145.266 70.9381L145.362 71.5507L145.459 72.1809L145.546 72.811L145.625 73.4586L145.695 74.1149L145.756 74.7713L145.817 75.4452L145.87 76.3816L145.914 77.318L145.94 78.2457V79.1646L145.922 80.0747L145.887 80.9762L145.835 81.8688L145.756 82.7527L145.669 83.6279L145.555 84.4943L145.424 85.352L145.266 86.2008L145.1 87.041L144.916 87.8724L144.706 88.695L144.478 89.5089L144.233 90.3141L143.971 91.1105L143.691 91.8893L143.385 92.6682L143.069 93.4296L142.728 94.1823L142.369 94.9261L141.993 95.6613L141.608 96.3877L141.188 97.1053L140.759 97.8054L140.313 98.4968L139.849 99.1794L139.359 99.8533L138.86 100.51L138.335 101.157L137.792 101.796L137.241 102.417L136.663 103.039L136.068 103.643L135.456 104.229L134.826 104.815L134.178 105.375L133.513 105.936L133.11 106.259L132.699 106.583L132.288 106.898L131.868 107.205L131.439 107.502L131.01 107.8L130.581 108.088L130.143 108.377L129.697 108.649L129.26 108.92L128.804 109.191L128.349 109.445L127.894 109.699L127.43 109.944L126.967 110.18L126.503 110.416L126.03 110.644L125.549 110.863L125.076 111.082L124.586 111.283L124.105 111.484L123.615 111.677L123.125 111.869L122.626 112.044L122.127 112.219L121.628 112.394L121.121 112.552L120.622 112.709L120.105 112.849L119.598 112.998L119.081 113.129L118.565 113.252L118.049 113.374L117.524 113.488L116.999 113.593L116.474 113.698L115.948 113.786L115.423 113.873L114.889 113.952L114.356 114.022V119.063H128.183L128.358 118.678L128.542 118.302L128.734 117.925L128.944 117.558L129.163 117.199L129.382 116.84L129.618 116.49L129.863 116.14L130.117 115.807L130.38 115.475L130.651 115.151L130.931 114.827L131.22 114.521L131.517 114.215L131.824 113.917L132.13 113.628L132.454 113.348L132.786 113.077L133.119 112.814L133.469 112.561L133.819 112.315L134.178 112.07L134.545 111.843L134.913 111.624L135.298 111.414L135.683 111.213L136.068 111.02L136.471 110.836L136.873 110.661L137.285 110.504L137.705 110.355L138.125 110.215L138.554 110.084L138.983 109.961L139.42 109.856L139.866 109.76L140.313 109.673L140.768 109.603L141.223 109.541L141.687 109.489L142.011 109.462L142.334 109.436L142.667 109.427L142.991 109.419L143.315 109.41L143.638 109.419L143.962 109.427L144.277 109.445L144.601 109.462L144.925 109.489L145.24 109.524L145.555 109.559L145.87 109.611L146.185 109.664L146.5 109.716L146.815 109.778L147.121 109.848L147.436 109.926L147.743 110.005L148.049 110.093L148.347 110.18L148.653 110.285L148.951 110.39L149.248 110.495L149.546 110.609L149.843 110.731L150.132 110.863L150.421 110.994L150.71 111.125L150.99 111.274L151.27 111.423L151.55 111.572L151.83 111.738L152.101 111.904L152.372 112.07L152.635 112.245L152.897 112.429L153.16 112.622L153.423 112.814L153.676 113.007L153.79 113.094L153.895 113.191L154.009 113.278L154.114 113.366L154.219 113.462L154.324 113.549L154.429 113.646L154.534 113.742L154.639 113.838L154.744 113.935L154.84 114.031L154.945 114.127L155.042 114.223L155.138 114.32L155.234 114.416L155.33 114.521L155.427 114.617L155.523 114.722L155.619 114.818L155.707 114.923L155.803 115.028L155.891 115.133L155.978 115.239L156.074 115.344L156.162 115.449L156.241 115.554L156.328 115.667L156.416 115.772L156.494 115.877L156.582 115.991L156.661 116.096L156.739 116.21L156.818 116.324L156.897 116.429L156.976 116.542L157.054 116.656L157.133 116.77L157.203 116.884L157.273 116.998L157.352 117.12L157.667 117.54L158.008 117.986L158.367 118.459L158.735 118.958L159.12 119.483L159.522 120.034L159.934 120.612L160.354 121.207L160.791 121.82L161.238 122.459L161.693 123.124L162.148 123.798L162.62 124.498L163.093 125.215L163.574 125.95L164.056 126.703L164.546 127.473L165.027 128.252L165.517 129.048L166.007 129.862L166.497 130.694L166.987 131.534L167.478 132.383L167.959 133.24L168.431 134.116L168.904 135L169.368 135.892L169.823 136.794L170.269 137.704L170.716 138.623L171.144 139.542L171.556 140.469L171.967 141.406L172.361 142.342L172.737 143.287L173.096 144.232L173.446 145.178L173.77 146.123L174.085 147.077L174.383 148.022L174.4 148.039L174.435 148.066L174.444 148.074L174.461 148.083L174.479 148.092L174.698 148.276L174.916 148.459L175.135 148.652L175.345 148.836L175.547 149.037L175.748 149.23L175.949 149.431L176.142 149.641L176.325 149.842L176.509 150.052L176.684 150.271L176.859 150.49L177.025 150.709L177.192 150.927L177.349 151.155L177.507 151.382L177.656 151.619L177.804 151.855L177.944 152.091L178.076 152.328L178.207 152.573L178.338 152.818L178.461 153.063L178.575 153.308L178.68 153.562L178.793 153.815L178.89 154.069L178.986 154.332L179.073 154.585L179.161 154.848L179.24 155.119L179.31 155.382L179.38 155.653L179.45 155.916L179.502 156.187L179.555 156.467L179.607 156.738L179.651 157.018L179.686 157.29L179.712 157.57L179.73 157.736L179.747 157.894L179.756 158.06L179.765 158.226L179.773 158.384L179.782 158.55V158.707V158.874V159.031V159.189V159.355L179.773 159.513L179.765 159.679L179.756 159.836L179.747 159.994L179.73 160.151L179.712 160.318L179.695 160.475L179.677 160.633L179.66 160.79L179.633 160.948L179.607 161.105L179.581 161.263L179.555 161.42L179.528 161.578L179.493 161.736L179.458 161.893L179.423 162.042L179.388 162.199L179.345 162.357L179.31 162.506L179.266 162.663L179.222 162.812L179.17 162.969L179.126 163.118L179.073 163.267L179.021 163.425L178.968 163.573L178.916 163.722L178.855 163.871L178.925 164.282L178.986 164.702L179.056 165.131L179.117 165.569L179.178 166.015L179.24 166.479L179.301 166.943L179.353 167.424L179.406 167.905L179.458 168.404L179.502 168.903L179.546 169.411L179.59 169.927L179.625 170.452L179.66 170.986L179.686 171.52L179.712 172.062L179.738 172.614L179.747 173.165L179.756 173.725L179.765 174.294V174.863L179.756 175.44L179.747 176.018L179.73 176.604L179.703 177.191L179.668 177.786L179.633 178.381L179.59 178.976L179.537 179.58L179.476 180.175L179.406 180.779L179.336 181.391L179.248 181.995L179.152 182.608L179.056 183.221L178.942 183.833L178.828 184.437L178.697 185.05L178.557 185.662L178.618 185.689L178.688 185.715L178.75 185.741L178.811 185.767L178.872 185.794L178.933 185.829L179.003 185.855L179.065 185.881L179.126 185.907L179.187 185.934L179.248 185.96L179.31 185.986L179.38 186.012L179.441 186.039L179.502 186.065L179.563 186.1L179.625 186.126L179.686 186.152L179.756 186.179L179.817 186.205L179.879 186.24L179.94 186.266L180.001 186.292L180.062 186.319L180.124 186.354L180.185 186.38L180.255 186.406L180.316 186.432L180.377 186.467L180.439 186.494L180.5 186.52L180.561 186.555L180.622 186.581L180.684 186.607L180.745 186.642L180.806 186.669L180.876 186.704L180.937 186.73L180.999 186.765L181.06 186.791H181.069L181.077 186.8L181.095 186.809L181.112 186.817L181.139 186.835H181.147L181.156 186.844H181.165L181.182 186.852L181.209 186.87H181.217L181.226 186.879L181.244 186.887L181.253 186.896L181.279 186.905L181.288 186.914L181.305 186.922L181.314 186.931L181.34 186.94L181.349 186.949L181.375 186.966L181.856 187.264L182.32 187.588L182.767 187.911L183.204 188.253L183.633 188.612L184.035 188.979L184.429 189.355L184.814 189.749L185.173 190.143L185.523 190.554L185.856 190.974L186.171 191.403L186.468 191.841L186.757 192.287L187.02 192.742L187.274 193.206L187.51 193.67L187.729 194.151L187.939 194.633L188.122 195.123L188.289 195.622L188.446 196.12L188.578 196.619L188.691 197.136L188.796 197.643L188.875 198.159L188.945 198.685L188.989 199.21L189.015 199.735L189.024 200.26L189.015 200.785L188.989 201.319L188.945 201.853L188.884 202.386L188.796 202.912L188.691 203.445L188.569 203.979L188.429 204.504L188.271 205.029L188.087 205.563L185.558 212.503L185.453 212.775L185.339 213.046L185.217 213.308L185.094 213.571L184.954 213.825L184.806 214.079L184.657 214.324L184.499 214.56L184.333 214.787L184.158 215.015L183.983 215.242L183.79 215.453L183.607 215.663L183.405 215.873L183.204 216.065L182.994 216.258L182.775 216.441L182.556 216.616L182.329 216.792L182.101 216.949L181.865 217.107L181.629 217.255L181.384 217.404L181.13 217.535L180.876 217.667L180.622 217.789L180.36 217.903L180.097 218.008L179.835 218.104L179.563 218.192L179.292 218.271L179.012 218.349L178.741 218.411L178.452 218.472L178.172 218.516L177.892 218.559L177.603 218.586L177.314 218.612L177.025 218.629H176.728H176.702H176.667H176.632H176.605H176.57H176.535H176.509H176.474H176.439L176.413 218.621H176.378H176.343H176.308H176.282H176.247L176.212 218.612H176.185H176.15H176.115H176.089L176.054 218.603H176.019H175.993L175.958 218.594H175.923H175.888L175.862 218.586H175.827H175.792L175.765 218.577H175.73H175.695L175.66 218.568H175.634L175.599 218.559H175.564L175.538 218.551H175.503L175.468 218.542H175.433L175.231 218.507L175.021 218.472L174.811 218.437L174.61 218.384L174.409 218.341L174.208 218.288L174.006 218.227L173.814 218.166L173.621 218.104L173.42 218.034L173.236 217.964L173.044 217.885L172.851 217.807L172.667 217.719L172.483 217.632L172.308 217.535L172.125 217.439L171.95 217.343L171.775 217.238L171.608 217.124L171.433 217.019L171.267 216.905L171.109 216.783L170.943 216.66L170.786 216.538L170.637 216.406L170.479 216.275L170.331 216.135L170.182 215.995L170.042 215.855L169.902 215.715L169.762 215.558L169.63 215.409L169.499 215.251L169.377 215.094L169.254 214.936L169.132 214.77L169.009 214.604L168.904 214.429L168.79 214.262L168.685 214.079L168.58 213.904L168.484 213.728L168.396 213.545L168.309 213.361L168.221 213.177L168.143 212.993L168.073 212.81L168.003 212.626L167.933 212.433L167.871 212.241L167.819 212.057L167.766 211.864L167.714 211.672L167.67 211.479L167.635 211.287L167.6 211.086L167.574 210.893L167.548 210.7L167.521 210.499L167.513 210.307L167.495 210.105L167.486 209.913V209.712V209.519L167.495 209.318L167.504 209.125L167.521 208.924L167.548 208.731L167.565 208.53L167.6 208.338L167.635 208.136L167.67 207.944L167.714 207.742L167.766 207.55L167.819 207.357L167.871 207.165L167.933 206.972L168.003 206.78L168.073 206.587L169.193 203.673L169 203.594L168.808 203.524L168.607 203.454L168.405 203.384L168.213 203.314L168.011 203.253L167.81 203.192L167.609 203.13L167.408 203.069L167.206 203.017L166.996 202.955L166.795 202.903L166.594 202.859L166.384 202.807L166.182 202.763L165.972 202.719L165.771 202.675L165.561 202.64L165.36 202.605L165.15 202.57L164.94 202.535L164.73 202.5L164.528 202.474L164.318 202.448L164.108 202.421L163.898 202.404L163.688 202.378L163.478 202.36L163.268 202.343L163.058 202.334L162.848 202.325L162.638 202.308H162.428L162.218 202.299H162.008H161.798H161.579H161.369L161.159 202.308L160.949 202.316L161.01 205.274V205.467V205.668L161.001 205.861L160.993 206.053L160.975 206.246L160.958 206.438L160.931 206.631L160.905 206.815L160.87 207.007L160.835 207.2L160.8 207.384L160.756 207.567L160.704 207.76L160.66 207.944L160.599 208.127L160.546 208.303L160.476 208.486L160.415 208.67L160.345 208.845L160.266 209.02L160.188 209.195L160.109 209.37L160.021 209.536L159.934 209.712L159.846 209.878L159.75 210.044L159.645 210.202L159.549 210.368L159.435 210.525L159.33 210.683L159.216 210.84L159.094 210.989L158.98 211.147L158.849 211.296L158.726 211.436L158.595 211.584L158.463 211.724L158.323 211.864L158.183 211.996L158.043 212.127L157.895 212.258L157.746 212.381L157.597 212.503L157.448 212.626L157.3 212.74L157.142 212.845L156.984 212.958L156.827 213.063L156.669 213.16L156.503 213.256L156.346 213.352L156.179 213.44L156.013 213.527L155.838 213.615L155.672 213.693L155.497 213.772L155.322 213.842L155.147 213.912L154.972 213.974L154.797 214.044L154.613 214.096L154.438 214.149L154.254 214.201L154.07 214.254L153.886 214.297L153.703 214.332L153.519 214.367L153.326 214.402L153.143 214.437L152.95 214.455L152.757 214.481L152.574 214.499L152.381 214.507L152.189 214.525H151.996H151.795H151.602H151.41L151.217 214.516L151.016 214.499L150.657 214.464L150.307 214.42L149.957 214.359L149.616 214.289L149.274 214.201L148.942 214.105L148.618 214L148.294 213.877L147.97 213.746L147.664 213.606L147.358 213.448L147.06 213.291L146.771 213.116L146.491 212.932L146.211 212.74L145.949 212.538L145.686 212.328L145.432 212.109L145.187 211.882L144.951 211.646L144.724 211.401L144.513 211.147L144.303 210.884L144.102 210.622L143.918 210.35L143.743 210.07L143.577 209.782L143.42 209.493L143.271 209.195L143.14 208.889L143.017 208.574L142.912 208.268L142.807 207.944L142.719 207.62L142.649 207.296L142.588 206.964L142.544 206.622L142.509 206.29L142.483 205.94L142.474 205.598V198.072L142.483 197.521L142.518 196.969L142.562 196.427L142.632 195.893L142.711 195.35L142.816 194.825L142.938 194.3L143.078 193.784L143.236 193.276L143.411 192.777L143.603 192.278L143.805 191.797L144.032 191.316L144.268 190.843L144.522 190.379L144.794 189.933L145.082 189.487L145.38 189.049L145.695 188.629L146.028 188.218L146.369 187.815L146.728 187.421L147.095 187.045L147.48 186.677L147.883 186.319L148.285 185.977L148.714 185.645L149.143 185.33L149.589 185.023L150.044 184.735L150.517 184.463L150.998 184.201L151.488 183.956L151.987 183.719L152.495 183.501L153.02 183.308L153.554 183.124L154.088 182.949L154.639 182.8L155.199 182.669H155.208L155.225 182.66H155.243L155.26 182.652H155.287L155.304 182.643H155.322H155.339L155.357 182.634H155.374H155.383L155.4 182.625H155.418H155.435L155.453 182.617H155.462H155.479H155.497L155.514 182.608H155.54H155.549L155.584 182.599H155.619L155.645 182.59H155.68H155.715L155.75 182.582H155.777L155.812 182.573H155.847L155.873 182.564H155.908L155.943 182.555H155.969H156.004L156.039 182.547H156.074L156.101 182.538H156.136L156.171 182.529H156.197H156.232L156.267 182.52H156.293L156.328 182.512H156.363L156.424 182.503H156.459L156.521 182.494H156.556L156.617 182.485L156.687 182.477H156.722L156.783 182.468L156.844 182.459L156.879 182.127L156.906 181.794L156.932 181.461L156.949 181.12L156.976 180.788L156.993 180.455L157.011 180.114L157.028 179.781L157.046 179.449L157.063 179.116L157.072 178.784L157.081 178.451L157.089 178.118V177.786V177.453V177.129V176.797V176.473L157.081 176.149L157.072 175.825L157.063 175.51L157.046 175.195L157.028 174.88L157.011 174.565L156.993 174.259L156.967 173.944L156.941 173.646L156.906 173.34L156.879 173.043L156.844 172.745L156.801 172.456L156.757 172.167L156.713 171.887L156.669 171.607L156.617 171.327L156.564 171.056L156.512 170.793L156.451 170.522L156.389 170.268L156.319 170.014L156.092 169.839L155.873 169.664L155.645 169.481L155.435 169.297L155.217 169.104L155.007 168.912L154.805 168.711L154.604 168.509L154.411 168.299L154.219 168.089L154.026 167.879L153.843 167.66L153.668 167.442L153.493 167.214L153.318 166.986L153.151 166.75L152.994 166.514L152.836 166.278L152.679 166.041L152.539 165.796L152.39 165.542L152.259 165.289L152.127 165.035L151.996 164.781L151.882 164.518L151.76 164.256L151.655 163.985L151.55 163.722L151.445 163.451L151.357 163.171L151.27 162.891L151.182 162.611L151.103 162.331L151.033 162.051L150.972 161.762L150.911 161.473L150.858 161.175L150.815 160.887L150.78 160.589L150.745 160.291L150.736 160.195L150.727 160.108L150.718 160.02L150.71 159.933L150.701 159.845V159.758L150.692 159.67V159.583L150.683 159.495V159.408L150.675 159.32V159.233V159.145V159.058V158.97V158.882V158.795V158.707V158.62V158.532L150.683 158.445V158.357V158.27L150.692 158.182L150.701 158.095V158.007L150.71 157.92L150.718 157.832V157.745L150.727 157.666L150.736 157.579L150.745 157.491L150.753 157.403L150.762 157.316L150.78 157.228L150.788 157.15L150.797 157.062L150.815 156.975L150.823 156.887L150.841 156.8L150.666 156.511L150.5 156.222L150.325 155.924L150.141 155.618L149.966 155.321L149.782 155.014L149.589 154.699L149.397 154.384L149.204 154.078L149.003 153.754L148.81 153.439L148.6 153.115L148.399 152.791L148.189 152.468L147.979 152.144L147.76 151.82L147.55 151.496L147.331 151.164L147.104 150.84L146.885 150.507L146.658 150.183L146.43 149.851L146.203 149.527L145.966 149.203L145.73 148.879L145.494 148.556L145.257 148.232L145.021 147.908L144.776 147.584L144.531 147.269L144.286 146.954L144.041 146.639L143.796 146.324L143.542 146.018L143.297 145.711L143.043 145.405L142.789 145.108L142.536 144.81L142.282 144.521L142.019 144.232V181.015L142.002 182.442L141.932 183.859L141.818 185.26L141.66 186.66L141.459 188.034L141.214 189.399L140.934 190.756L140.602 192.086L140.234 193.416L139.831 194.72L139.385 196.007L138.895 197.276L138.37 198.536L137.81 199.77L137.215 200.986L136.585 202.176L135.911 203.349L135.211 204.504L134.475 205.633L133.705 206.745L132.9 207.83L132.06 208.898L131.194 209.93L130.301 210.945L129.373 211.926L128.419 212.888L127.43 213.825L126.424 214.726L125.383 215.601L124.315 216.45L123.23 217.264L122.11 218.052L120.972 218.804L119.808 219.531L118.618 220.222L117.41 220.878L116.176 221.509L114.924 222.095L113.647 222.655L112.36 223.171V242.95L112.343 243.641L112.299 244.324L112.229 244.998L112.133 245.672L112.001 246.328L111.853 246.976L111.669 247.614L111.468 248.245L111.24 248.866L110.986 249.479L110.715 250.074L110.409 250.651L110.094 251.22L109.744 251.78L109.385 252.323L108.991 252.857L108.588 253.364L108.16 253.863L107.713 254.344L107.249 254.808L106.768 255.255L106.269 255.683L105.753 256.095L105.228 256.489L104.676 256.856L104.116 257.215L103.539 257.539L102.944 257.854L102.34 258.143L101.718 258.405L101.088 258.65L100.449 258.869L99.793 259.07L99.1279 259.237L98.4541 259.385L97.7714 259.508L97.0801 259.604L96.3799 259.674L95.6623 259.718L94.9534 259.727L94.2358 259.718L93.527 259.674L92.8268 259.604L92.1267 259.508L91.4441 259.385L90.7702 259.237L90.1051 259.07L89.4575 258.869L88.8099 258.65L88.1797 258.405L87.5584 258.143L86.9545 257.854L86.3682 257.539L85.7906 257.215L85.2217 256.856L84.6791 256.489L84.1453 256.095L83.629 255.683L83.1301 255.255L82.6488 254.808L82.1849 254.344L81.7386 253.863L81.3098 253.364L80.9072 252.857L80.5221 252.323L80.1546 251.78L79.8133 251.229L79.4895 250.651L79.1919 250.074L78.9119 249.479L78.6581 248.866L78.4305 248.245L78.2292 247.614L78.0455 246.976L77.8967 246.328L77.7742 245.672L77.6691 244.998L77.5991 244.324L77.5554 243.641L77.5379 242.95V223.171L76.2514 222.655L74.9737 222.095L73.7222 221.509L72.4882 220.878L71.2805 220.222L70.099 219.531L68.9263 218.804L67.7886 218.052L66.6772 217.264L65.5832 216.45L64.5155 215.601L63.4741 214.726L62.4677 213.825L61.4788 212.888L60.5248 211.926L59.5972 210.945L58.7045 209.93L57.8381 208.898L56.998 207.83L56.2016 206.745L55.4315 205.633L54.6876 204.504L53.9874 203.349L53.3223 202.176L52.6835 200.986L52.0884 199.77L51.5282 198.536L51.0031 197.276L50.5218 196.007L50.0755 194.72L49.6642 193.416L49.2966 192.086L48.9728 190.756L48.684 189.399L48.4389 188.034L48.2377 186.66L48.0801 185.26L47.9664 183.859L47.9051 182.442L47.8789 181.015V144.232L47.6251 144.521L47.3625 144.81L47.1087 145.108L46.8549 145.405L46.6099 145.711L46.3561 146.018L46.1023 146.324L45.8573 146.639L45.6122 146.954L45.3672 147.269L45.1221 147.584L44.8771 147.908L44.6408 148.232L44.4045 148.556L44.1682 148.879L43.9319 149.203L43.6956 149.527L43.4681 149.86L43.2405 150.183L43.013 150.516L42.7942 150.84L42.5667 151.164L42.3479 151.496L42.1378 151.82L41.9191 152.144L41.709 152.476L41.499 152.8L41.2977 153.115L41.0876 153.439L40.8951 153.754L40.6938 154.078L40.5013 154.393L40.3088 154.699L40.125 155.014L39.9324 155.321L39.7574 155.618L39.5736 155.924L39.3986 156.222L39.2323 156.511L39.066 156.8L39.0748 156.887L39.0923 156.975L39.1011 157.062L39.1098 157.15L39.1273 157.228L39.136 157.316L39.1448 157.403L39.1536 157.491L39.1623 157.579L39.1711 157.666L39.1798 157.754L39.1885 157.832V157.92L39.1973 158.007L39.2061 158.095V158.182L39.2148 158.27V158.357L39.2236 158.445V158.532V158.62V158.707V158.795V158.882V158.97V159.058V159.145V159.233V159.32L39.2148 159.408V159.495V159.583L39.2061 159.67L39.1973 159.758V159.845L39.1885 159.933L39.1798 160.02L39.1711 160.108L39.1623 160.204V160.291L39.1273 160.589L39.0835 160.887L39.0398 161.175L38.9873 161.473L38.926 161.762L38.8647 162.042L38.7947 162.331L38.716 162.611L38.6372 162.891L38.5497 163.171L38.4534 163.442L38.3572 163.713L38.2522 163.985L38.1384 164.256L38.0246 164.518L37.9021 164.781L37.7796 165.035L37.6483 165.289L37.5083 165.542L37.3682 165.787L37.2194 166.033L37.0707 166.278L36.9132 166.514L36.7469 166.75L36.5806 166.978L36.4143 167.214L36.2393 167.433L36.0643 167.652L35.8805 167.87L35.6879 168.089L35.4954 168.299L35.3029 168.5L35.1016 168.702L34.8916 168.903L34.6815 169.096L34.4715 169.288L34.2527 169.472L34.0339 169.656L33.8151 169.831L33.5876 170.006L33.5176 170.26L33.4563 170.522L33.395 170.785L33.3425 171.056L33.2813 171.327L33.2375 171.599L33.185 171.879L33.1412 172.167L33.0975 172.456L33.0625 172.745L33.0275 173.043L32.9925 173.34L32.9662 173.638L32.94 173.944L32.9137 174.25L32.8874 174.565L32.87 174.872L32.8524 175.187L32.8349 175.51L32.8262 175.825L32.8174 176.149L32.8087 176.473V176.797V177.129V177.453V177.786V178.118L32.8174 178.442L32.8262 178.784L32.8349 179.116L32.8524 179.449L32.8612 179.781L32.8787 180.114L32.9049 180.455L32.9225 180.788L32.94 181.12L32.9662 181.461L32.9925 181.794L33.0187 182.127L33.0537 182.459L33.115 182.468L33.1762 182.477L33.2463 182.485H33.3075L33.3775 182.494L33.4388 182.503H33.4738L33.5351 182.512H33.5701L33.6051 182.52H33.6313L33.6663 182.529H33.7013H33.7276L33.7626 182.538H33.7976L33.8326 182.547H33.8589L33.8939 182.555H33.9289H33.9551L33.9902 182.564H34.0251L34.0514 182.573H34.0864L34.1214 182.582H34.1564L34.1827 182.59H34.2177H34.2527L34.2789 182.599H34.314L34.3489 182.608H34.3665H34.384L34.4102 182.617H34.4277L34.454 182.625H34.4715H34.4977L34.5152 182.634H34.5327L34.5502 182.643H34.559H34.5765L34.594 182.652H34.6115L34.6378 182.66H34.664H34.6815L34.7078 182.669L34.8565 182.704L35.0141 182.739L35.1716 182.783L35.3291 182.818L35.4779 182.862L35.6354 182.905L35.7842 182.949L35.9417 182.993L36.0905 183.037L36.2393 183.089L36.3968 183.133L36.5456 183.186L36.6944 183.238L36.8431 183.291L36.9919 183.343L37.1407 183.404L37.2807 183.457L37.4295 183.518L37.5783 183.579L37.7183 183.641L37.8671 183.702L38.0071 183.772L38.1559 183.833L38.2959 183.903L38.4359 183.973L38.576 184.043L38.716 184.113L38.856 184.183L38.996 184.262L39.136 184.332L39.2761 184.411L39.4073 184.49L39.5474 184.568L39.6787 184.647L39.8187 184.726L39.95 184.813L40.0812 184.901L40.2213 184.98L40.3525 185.067L40.4838 185.155L40.6151 185.251L40.7376 185.347L40.8601 185.443L40.9739 185.548L41.0789 185.662L41.1839 185.767L41.2802 185.89L41.3764 186.004L41.464 186.126L41.5515 186.249L41.6302 186.371L41.7003 186.502L41.7703 186.634L41.8315 186.765L41.884 186.905L41.9365 187.036L41.9803 187.176L42.0241 187.316L42.0591 187.456L42.0853 187.605L42.1028 187.745L42.1203 187.894L42.1378 188.034V188.183V188.323V188.471L42.1203 188.62L42.1028 188.76L42.0766 188.909L42.0503 189.049L42.0153 189.198L41.9716 189.338L41.9278 189.478L41.8753 189.618L41.814 189.758L41.744 189.898L41.674 190.029L41.5952 190.161L41.5165 190.292L41.4202 190.423L41.3239 190.546L41.2277 190.668L41.1227 190.782L41.0176 190.896L40.9039 191.001L40.7901 191.097L40.6676 191.193L40.5451 191.289L40.4225 191.377L40.2913 191.456L40.16 191.526L40.0287 191.596L39.8887 191.666L39.7487 191.718L39.6086 191.78L39.4686 191.823L39.3286 191.867L39.1798 191.911L39.031 191.937L38.8823 191.963L38.7335 191.99L38.5847 192.007L38.4359 192.016L38.2871 192.025H38.1384L37.9809 192.016L37.8321 192.007L37.6833 191.99L37.5345 191.963L37.3857 191.937L37.237 191.902L37.0882 191.858L36.9394 191.815L36.7906 191.762L36.6506 191.71L36.5106 191.64L36.3706 191.57L36.2305 191.5L36.0905 191.421L35.9593 191.333L35.898 191.289L35.828 191.246L35.7667 191.202L35.6967 191.158L35.6354 191.114L35.5654 191.079L35.4954 191.036L35.4342 191.001L35.3641 190.957L35.2941 190.922L35.2241 190.887L35.1541 190.843L35.0928 190.808L35.0228 190.773L34.9528 190.738L34.8828 190.703L34.8128 190.668L34.7428 190.642L34.6728 190.607L34.594 190.572L34.524 190.546L34.454 190.511L34.384 190.484L34.3052 190.449L34.2352 190.423L34.1652 190.397L34.0864 190.371L34.0164 190.344L33.9464 190.318L33.8676 190.292L33.7976 190.266L33.7188 190.239L33.6401 190.222L33.5701 190.196L33.4913 190.169L33.4213 190.152L33.3425 190.134L33.2638 190.108L33.185 190.091L33.115 190.073L32.5811 190.012L32.0473 189.951L31.5222 189.907L30.9883 189.872L30.4545 189.837L29.9294 189.81L29.3956 189.793L28.8705 189.784H28.3454L27.8115 189.793L27.2864 189.802L26.7614 189.828L26.2363 189.854L25.7112 189.889L25.1861 189.933L24.661 189.986L24.1359 190.047L23.6196 190.117L23.0945 190.187L22.5781 190.266L22.0618 190.353L21.5454 190.449L21.0291 190.554L20.5215 190.668L20.0052 190.782L19.4976 190.913L18.99 191.044L18.4824 191.184L17.9748 191.333L17.476 191.491L16.9771 191.648L16.4783 191.823L15.9794 191.998L15.4894 192.182L14.9993 192.375L14.5092 192.576L14.0191 192.777L13.5378 192.996L13.0564 193.215L12.5751 193.442L12.33 193.6L12.0938 193.766L11.8662 193.941L11.6474 194.125L11.4286 194.309L11.2274 194.501L11.0261 194.694L10.8335 194.895L10.6497 195.105L10.4747 195.315L10.3084 195.534L10.1509 195.762L9.99338 195.989L9.85336 196.217L9.72209 196.453L9.59081 196.689L9.47704 196.934L9.36327 197.179L9.25826 197.433L9.17074 197.687L9.08323 197.941L9.00445 198.194L8.9432 198.457L8.88193 198.72L8.82943 198.982L8.79442 199.253L8.75941 199.516L8.74192 199.787L8.72441 200.059V200.33V200.601L8.74192 200.872L8.76817 201.152L8.80317 201.424L8.84693 201.695L8.89944 201.966L8.96071 202.246L9.03071 202.518L9.11823 202.789L9.2145 203.06L11.7349 210L11.7612 210.053L11.7787 210.105L11.805 210.149L11.8312 210.202L11.8487 210.245L11.8837 210.298L11.91 210.342L11.9362 210.385L11.9712 210.429L12.0062 210.473L12.0412 210.517L12.0763 210.552L12.1113 210.595L12.1463 210.63L12.1813 210.665L12.225 210.7L12.26 210.735L12.3038 210.77L12.3476 210.797L12.3913 210.832L12.4351 210.858L12.4788 210.884L12.5226 210.91L12.5663 210.928L12.6101 210.954L12.6538 210.972L12.7064 210.989L12.7501 211.007L12.8026 211.024L12.8464 211.033L12.8989 211.042L12.9427 211.059H12.9952L13.0477 211.068H13.0914L13.1439 211.077H13.1965L13.2402 211.068H13.2927L13.3452 211.059H13.389L13.4327 211.05L13.4678 211.042L13.5115 211.033L13.5465 211.016L13.5903 211.007L13.6253 210.998L13.6603 210.98L13.6953 210.972L13.7303 210.954L13.7653 210.937L13.8003 210.919L13.8353 210.91L13.8616 210.893L13.8966 210.875L13.9228 210.858L13.9491 210.84L13.9753 210.814L14.0016 210.797L14.0278 210.779L14.0541 210.762L14.0804 210.744L14.0979 210.718L14.1241 210.7L14.1416 210.683L14.1679 210.665L14.1854 210.639L14.2029 210.622L14.2204 210.604L14.2379 210.587L14.2554 210.56L14.2729 210.543L14.2816 210.525L14.2991 210.508L14.3167 210.49L14.3254 210.473L14.3342 210.455L14.3517 210.438L14.3604 210.42L14.3692 210.403L14.3779 210.385L14.3867 210.368L14.4042 210.35L14.4129 210.333L14.4217 210.315L14.4304 210.289L14.4392 210.272L14.4479 210.254L14.4654 210.228L14.4742 210.202L14.4829 210.184L14.4917 210.158L14.5004 210.132L14.5092 210.105L14.5179 210.079L14.5267 210.053L14.5354 210.018V209.992L14.5442 209.965L14.5529 209.93V209.904L14.5617 209.869V209.843L14.5704 209.808V209.773V209.738V209.703V209.677V209.642V209.598L14.5617 209.563V209.528L14.5529 209.493V209.458L14.5442 209.414L14.5354 209.379L14.5179 209.335L14.5092 209.3L14.4917 209.256L14.4829 209.221L13.1614 205.791L13.0652 205.528L12.9777 205.266L12.9077 205.003L12.8464 204.741L12.7939 204.469L12.7589 204.207L12.7326 203.944L12.7151 203.682L12.7064 203.419V203.148L12.7239 202.894L12.7414 202.632L12.7764 202.369L12.8201 202.115L12.8726 201.861L12.9339 201.608L13.0127 201.354L13.0914 201.109L13.1789 200.864L13.284 200.627L13.389 200.391L13.5115 200.155L13.634 199.927L13.7741 199.708L13.9228 199.49L14.0716 199.271L14.2379 199.061L14.4042 198.86L14.5792 198.667L14.7717 198.475L14.9643 198.291L15.1656 198.107L15.3756 197.941L15.5944 197.774L15.8219 197.617L16.0495 197.468L16.2858 197.328L16.5395 197.197L16.7933 197.074L17.0471 196.952L17.3622 196.829L17.6685 196.707L17.9748 196.584L18.2899 196.47L18.6049 196.357L18.92 196.243L19.235 196.138L19.5501 196.042L19.8651 195.945L20.1889 195.849L20.504 195.762L20.8278 195.674L21.1516 195.595L21.4754 195.516L21.7992 195.438L22.123 195.368L22.4556 195.298L22.7794 195.236L23.112 195.175L23.4358 195.123L23.7683 195.07L24.1009 195.018L24.4247 194.974L24.7572 194.93L25.0898 194.895L25.4224 194.869L25.7549 194.834L26.0875 194.808L26.4201 194.79L26.7526 194.773L27.0852 194.755L27.4265 194.746H27.759H28.0916H28.4241H28.7567L29.0893 194.764L29.4306 194.773L29.7631 194.79L30.0957 194.816L30.3758 194.843L30.6645 194.878L30.9358 194.921L31.2159 194.983L31.4872 195.044L31.7497 195.123L32.0123 195.21L32.2661 195.306L32.5199 195.403L32.7649 195.516L33.01 195.639L33.2463 195.77L33.4738 195.91L33.7013 196.05L33.9201 196.208L34.1302 196.365L34.3314 196.532L34.5327 196.707L34.7253 196.89L34.9091 197.074L35.0841 197.276L35.2591 197.468L35.4166 197.678L35.5742 197.888L35.7142 198.107L35.8542 198.334L35.9855 198.562L36.108 198.798L36.213 199.035L36.318 199.28L36.4143 199.525L36.4931 199.779L36.5718 200.032L36.6331 200.286L36.6856 200.549L36.7294 200.82L36.7644 201.091L36.7906 201.363L36.7994 201.634V201.905L36.7294 205.414V205.45V205.485V205.52L36.7381 205.555V205.59V205.625L36.7469 205.66V205.695L36.7556 205.73V205.765L36.7644 205.8L36.7731 205.826L36.7819 205.861L36.7906 205.896L36.7994 205.931L36.8082 205.957L36.8169 205.992L36.8344 206.027L36.8431 206.053L36.8519 206.088L36.8694 206.115L36.8782 206.15L36.8956 206.176L36.9132 206.211L36.9307 206.237L36.9394 206.263L36.9569 206.298L36.9744 206.325L36.9919 206.351L37.0094 206.377L37.0357 206.403L37.0532 206.43L37.0707 206.456L37.0969 206.482L37.1144 206.508L37.1407 206.535L37.1582 206.561L37.1845 206.578L37.2107 206.605L37.2282 206.631L37.2545 206.648L37.272 206.666L37.2982 206.683L37.3157 206.701L37.342 206.718L37.3595 206.736L37.3857 206.745L37.412 206.762L37.4295 206.78L37.4558 206.797L37.482 206.806L37.4995 206.824L37.5258 206.832L37.552 206.841L37.5783 206.859L37.6045 206.867L37.622 206.876L37.6483 206.885L37.6745 206.894L37.7008 206.902L37.7271 206.911L37.7533 206.92L37.7796 206.929L37.8058 206.937H37.8321L37.8583 206.946L37.8846 206.955H37.9108L37.9458 206.964H37.9721H37.9984L38.0246 206.972H38.0509H38.0859H38.1121H38.1384H38.1734H38.1996H38.2259H38.2609L38.3134 206.964L38.3747 206.955L38.4272 206.946L38.4797 206.937L38.5322 206.92L38.5847 206.911L38.6372 206.894L38.6897 206.876L38.7335 206.85L38.786 206.832L38.8298 206.806L38.8823 206.78L38.926 206.753L38.9698 206.727L39.0135 206.701L39.0485 206.666L39.0923 206.64L39.1273 206.605L39.1711 206.57L39.2061 206.535L39.2411 206.491L39.2761 206.456L39.3023 206.412L39.3373 206.377L39.3636 206.333L39.3898 206.29L39.4161 206.246L39.4424 206.202L39.4599 206.158L39.4861 206.106L39.5036 206.062L39.5211 206.01L39.5299 205.966L39.5474 205.913L39.5561 205.861L39.5649 205.808L39.5736 205.756L39.5824 205.703V205.651V205.598V204.312L39.5911 204.154L39.5999 204.006L39.6086 203.848L39.6349 203.699L39.6611 203.55L39.6962 203.402L39.7399 203.262L39.7837 203.122L39.8362 202.982L39.8887 202.842L39.95 202.71L40.02 202.579L40.09 202.448L40.1687 202.325L40.2562 202.203L40.3438 202.08L40.4313 201.966L40.5276 201.853L40.6238 201.748L40.7288 201.643L40.8426 201.538L40.9564 201.441L41.0702 201.354L41.1927 201.266L41.3152 201.179L41.4377 201.1L41.569 201.021L41.7003 200.96L41.8403 200.89L41.9803 200.829L42.1203 200.776L42.2604 200.724L42.4091 200.68L42.5579 200.645L42.7154 200.61L42.8642 200.584L43.0217 200.566L43.1793 200.549L43.3455 200.54L43.5031 200.531L43.6694 200.54L43.8269 200.549L43.9844 200.566L44.1419 200.584L44.2907 200.61L44.4482 200.645L44.597 200.68L44.7458 200.724L44.8858 200.776L45.0258 200.829L45.1659 200.89L45.3059 200.96L45.4372 201.03L45.5684 201.1L45.691 201.179L45.8222 201.266L45.936 201.354L46.0585 201.441L46.1635 201.538L46.2773 201.643L46.3823 201.748L46.4786 201.853L46.5749 201.966L46.6711 202.08L46.7499 202.203L46.8374 202.325L46.9162 202.448L46.9862 202.579L47.0562 202.71L47.1175 202.842L47.17 202.982L47.2225 203.122L47.2662 203.262L47.31 203.402L47.345 203.55L47.3713 203.699L47.3975 203.848L47.4063 204.006L47.415 204.154L47.4238 204.312V205.598L47.415 205.94L47.3975 206.29L47.3625 206.622L47.31 206.964L47.2487 207.296L47.1787 207.62L47.0912 207.944L46.9949 208.268L46.8812 208.583L46.7587 208.889L46.6274 209.195L46.4786 209.493L46.3298 209.782L46.1548 210.07L45.9798 210.35L45.796 210.622L45.5947 210.893L45.3934 211.147L45.1746 211.401L44.9471 211.646L44.7108 211.882L44.4658 212.109L44.2207 212.328L43.9582 212.538L43.6869 212.74L43.4156 212.932L43.1267 213.116L42.838 213.291L42.5404 213.448L42.2341 213.606L41.9278 213.746L41.6127 213.877L41.2889 214L40.9564 214.105L40.6238 214.201L40.2825 214.289L39.9412 214.359L39.5911 214.42L39.2411 214.464L38.8823 214.499L38.6897 214.516L38.4884 214.525H38.2959L38.1034 214.534L37.9108 214.525H37.7183L37.5258 214.507L37.3332 214.499L37.1407 214.481L36.9482 214.455L36.7644 214.437L36.5718 214.402L36.3881 214.376L36.1955 214.332L36.0118 214.297L35.828 214.254L35.6442 214.201L35.4604 214.157L35.2854 214.096L35.1016 214.044L34.9265 213.982L34.7515 213.912L34.5765 213.842L34.4015 213.772L34.2264 213.693L34.0602 213.615L33.8939 213.527L33.7276 213.44L33.5613 213.352L33.395 213.256L33.2287 213.16L33.0712 213.063L32.9137 212.958L32.7562 212.853L32.5986 212.74L32.4499 212.626L32.3011 212.503L32.1523 212.381L32.0035 212.258L31.8635 212.127L31.7147 211.996L31.5747 211.864L31.4347 211.724L31.3034 211.584L31.1722 211.436L31.0496 211.296L30.9271 211.147L30.8046 210.998L30.6821 210.84L30.5683 210.683L30.4633 210.525L30.3582 210.368L30.2532 210.21L30.157 210.044L30.0607 209.878L29.9644 209.712L29.8769 209.536L29.7894 209.37L29.7106 209.195L29.6319 209.02L29.5531 208.845L29.4831 208.67L29.4218 208.486L29.3606 208.311L29.2993 208.127L29.2468 207.944L29.1943 207.76L29.1418 207.576L29.098 207.384L29.063 207.2L29.028 207.007L28.993 206.824L28.9667 206.631L28.9492 206.438L28.923 206.246L28.9142 206.053L28.8967 205.861V205.668L28.888 205.467L28.8967 205.274L28.9492 202.316L28.7392 202.308L28.5292 202.299H28.3191H28.1091H27.8991H27.689L27.479 202.308L27.2602 202.316L27.0502 202.325L26.8401 202.334L26.6301 202.351L26.4201 202.36L26.21 202.378L26 202.404L25.7987 202.421L25.5887 202.448L25.3786 202.474L25.1686 202.5L24.9585 202.535L24.7485 202.57L24.5472 202.605L24.3372 202.64L24.1271 202.675L23.9259 202.719L23.7158 202.763L23.5145 202.807L23.3132 202.859L23.1032 202.912L22.9019 202.964L22.7006 203.017L22.4993 203.069L22.2893 203.13L22.0968 203.192L21.8955 203.253L21.6942 203.314L21.4929 203.384L21.2916 203.454L21.0991 203.524L20.8978 203.594L20.7053 203.673L21.8255 206.587L21.8955 206.78L21.9655 206.972L22.0268 207.165L22.088 207.357L22.1405 207.55L22.1843 207.751L22.228 207.944L22.2718 208.136L22.2981 208.338L22.3331 208.53L22.3593 208.731L22.3768 208.924L22.3943 209.125L22.4031 209.318L22.4118 209.519V209.712V209.913L22.4031 210.105L22.3943 210.307L22.3768 210.499L22.3593 210.7L22.3331 210.893L22.2981 211.086L22.2631 211.287L22.228 211.479L22.1843 211.672L22.1405 211.864L22.088 212.057L22.0268 212.241L21.9655 212.433L21.9042 212.626L21.8342 212.81L21.7555 212.993L21.6767 213.177L21.5979 213.361L21.5017 213.545L21.4142 213.728L21.3179 213.904L21.2129 214.087L21.1079 214.262L21.0028 214.429L20.8891 214.604L20.7665 214.77L20.6528 214.936L20.5302 215.094L20.399 215.251L20.2677 215.409L20.1364 215.566L19.9964 215.715L19.8564 215.855L19.7164 215.995L19.5676 216.135L19.4188 216.275L19.27 216.406L19.1125 216.538L18.955 216.66L18.7887 216.783L18.6312 216.905L18.4649 217.019L18.2986 217.124L18.1236 217.238L17.9485 217.343L17.7735 217.439L17.5985 217.535L17.4147 217.632L17.2309 217.719L17.0471 217.807L16.8546 217.885L16.6708 217.964L16.4783 218.034L16.2858 218.104L16.0845 218.166L15.8919 218.227L15.6906 218.288L15.4894 218.341L15.2881 218.393L15.0868 218.437L14.8768 218.472L14.6755 218.507L14.4654 218.542H14.4304L14.3954 218.551H14.3692L14.3342 218.559H14.2991L14.2729 218.568H14.2379L14.2029 218.577H14.1679H14.1416L14.1066 218.586H14.0716H14.0454L14.0103 218.594H13.9753H13.9491L13.9141 218.603H13.8791H13.8441L13.8178 218.612H13.7828H13.7478H13.7215H13.6865L13.6515 218.621H13.6253H13.5903H13.5553H13.5203H13.494L13.459 218.629H13.424H13.3977H13.3627H13.3277H13.3015H13.2665H13.2315H13.2052H13.1702H12.8814L12.5838 218.612L12.3038 218.586L12.015 218.559L11.7262 218.516L11.4461 218.472L11.1661 218.411L10.886 218.349L10.606 218.271L10.3347 218.192L10.0634 218.104L9.80085 218.008L9.5383 217.903L9.27575 217.789L9.02196 217.667L8.76817 217.535L8.52313 217.404L8.27807 217.264L8.03303 217.107L7.79675 216.949L7.5692 216.792L7.34166 216.616L7.12288 216.441L6.91283 216.258L6.7028 216.065L6.49276 215.873L6.30023 215.663L6.10769 215.453L5.92392 215.242L5.74013 215.024L5.5651 214.796L5.39882 214.56L5.2413 214.324L5.09251 214.079L4.94373 213.825L4.81247 213.571L4.68118 213.308L4.55866 213.046L4.4449 212.775L4.33987 212.503L1.81068 205.563L1.63565 205.038L1.46937 204.504L1.32935 203.979L1.20683 203.445L1.1018 202.912L1.02304 202.386L0.953028 201.853L0.909268 201.319L0.883014 200.794L0.874268 200.26L0.883014 199.735L0.909268 199.21L0.961775 198.685L1.02304 198.159L1.1018 197.643L1.20683 197.136L1.32059 196.619L1.46062 196.12L1.60939 195.622L1.77568 195.123L1.96821 194.633L2.16949 194.151L2.38828 193.679L2.62458 193.206L2.87837 192.742L3.14966 192.287L3.42972 191.841L3.72727 191.403L4.05109 190.974L4.38364 190.554L4.72495 190.143L5.09251 189.749L5.46883 189.355L5.86265 188.979L6.27397 188.612L6.69404 188.261L7.13162 187.911L7.57796 187.588L8.05054 187.264L8.53188 186.966L8.54062 186.957L8.55813 186.949L8.56688 186.94L8.59313 186.931L8.60189 186.922L8.62814 186.905L8.63689 186.896H8.64565L8.66314 186.887L8.6719 186.879L8.69816 186.87L8.7069 186.861L8.72441 186.852L8.74192 186.844L8.75941 186.835L8.76817 186.826L8.78566 186.817L8.80317 186.809L8.82068 186.8H8.82943L8.84693 186.791L8.90819 186.765L8.96945 186.73L9.03071 186.704L9.09197 186.669L9.15323 186.642L9.2145 186.607L9.27575 186.581L9.33702 186.555L9.39828 186.52L9.45954 186.494L9.52955 186.467L9.59081 186.432L9.65207 186.406L9.71333 186.38L9.77459 186.354L9.83586 186.319L9.89712 186.292L9.95838 186.266L10.0284 186.24L10.0897 186.205L10.1509 186.179L10.2122 186.152L10.2734 186.126L10.3347 186.1L10.4047 186.065L10.466 186.039L10.5272 186.012L10.5885 185.986L10.6497 185.96L10.7198 185.934L10.781 185.907L10.8423 185.881L10.9035 185.846L10.9648 185.82L11.0261 185.794L11.0961 185.767L11.1573 185.741L11.2186 185.715L11.2799 185.689L11.3499 185.662L11.2098 185.05L11.0786 184.437L10.9561 183.824L10.851 183.221L10.746 182.608L10.6585 181.995L10.571 181.391L10.4922 180.779L10.431 180.175L10.3697 179.571L10.3172 178.976L10.2734 178.381L10.2297 177.786L10.2034 177.191L10.1772 176.604L10.1597 176.018L10.1422 175.44V174.863V174.294V173.725L10.1509 173.165L10.1684 172.614L10.1859 172.062L10.2122 171.52L10.2384 170.986L10.2734 170.452L10.3084 169.927L10.3522 169.411L10.396 168.903L10.4397 168.404L10.4922 167.905L10.5447 167.424L10.606 166.943L10.6585 166.479L10.7198 166.015L10.781 165.569L10.851 165.131L10.9123 164.702L10.9823 164.282L11.0436 163.871L10.9911 163.722L10.9298 163.573L10.8773 163.425L10.8248 163.267L10.781 163.118L10.7285 162.969L10.6848 162.812L10.641 162.663L10.5972 162.506L10.5535 162.357L10.5097 162.199L10.4747 162.042L10.4397 161.893L10.4047 161.736L10.3785 161.578L10.3434 161.42L10.3172 161.263L10.2909 161.105L10.2647 160.948L10.2384 160.79L10.2209 160.633L10.2034 160.475L10.1859 160.318L10.1684 160.151L10.1597 159.994L10.1422 159.836L10.1334 159.679L10.1247 159.513V159.355L10.1159 159.189V159.031V158.874V158.707L10.1247 158.55V158.384L10.1334 158.217L10.1422 158.06L10.1597 157.894L10.1684 157.736L10.1859 157.57L10.2209 157.29L10.2559 157.018L10.2997 156.738L10.3434 156.467L10.396 156.187L10.4572 155.916L10.5185 155.653L10.5885 155.382L10.6585 155.119L10.7373 154.848L10.8248 154.585L10.9123 154.332L11.0086 154.069L11.1136 153.815L11.2186 153.562L11.3236 153.308L11.4461 153.063L11.5599 152.818L11.6912 152.573L11.8225 152.328L11.9537 152.091L12.0938 151.855L12.2425 151.619L12.3913 151.382L12.5488 151.155L12.7064 150.927L12.8726 150.709L13.0389 150.49L13.2139 150.271L13.389 150.052L13.5728 149.842L13.7653 149.641L13.9578 149.431L14.1504 149.23L14.3517 149.037L14.5617 148.836L14.7717 148.652L14.9818 148.459L15.2006 148.276L15.4281 148.092L15.4456 148.083V148.074H15.4544L15.4981 148.048L15.5069 148.031L15.5244 148.022L15.8132 147.068L16.1282 146.123L16.4608 145.178L16.8021 144.232L17.1697 143.287L17.546 142.342L17.9398 141.406L18.3424 140.469L18.7624 139.542L19.1913 138.623L19.6288 137.704L20.0752 136.794L20.5302 135.892L21.0028 135L21.4667 134.116L21.948 133.24L22.4293 132.383L22.9107 131.534L23.4008 130.694L23.8909 129.862L24.3809 129.048L24.871 128.252L25.3611 127.464L25.8424 126.703L26.3325 125.95L26.8051 125.215L27.2777 124.498L27.7503 123.798L28.2141 123.124L28.6692 122.459L29.1068 121.82L29.5443 121.207L29.9644 120.612L30.3845 120.034L30.7783 119.483L31.1634 118.958L31.5397 118.459L31.8898 117.986L32.2311 117.54L32.5549 117.12L32.6249 116.998L32.6949 116.884L32.7737 116.77L32.8437 116.656L32.9225 116.542L33.0012 116.437L33.08 116.324L33.1587 116.21L33.2375 116.096L33.3163 115.991L33.4038 115.877L33.4825 115.772L33.5701 115.667L33.6576 115.554L33.7451 115.449L33.8326 115.344L33.9201 115.239L34.0076 115.133L34.0952 115.028L34.1914 114.923L34.2789 114.827L34.3752 114.722L34.4715 114.617L34.5677 114.521L34.664 114.416L34.7603 114.32L34.8565 114.223L34.9616 114.127L35.0578 114.031L35.1629 113.935L35.2591 113.838L35.3641 113.742L35.4691 113.646L35.5742 113.549L35.6792 113.462L35.7842 113.366L35.898 113.278L36.003 113.191L36.1168 113.103L36.2218 113.007L36.4756 112.814L36.7381 112.622L37.0007 112.429L37.2632 112.254L37.5345 112.07L37.7971 111.904L38.0771 111.738L38.3484 111.58L38.6285 111.423L38.9085 111.274L39.1973 111.125L39.4774 110.994L39.7662 110.863L40.0637 110.731L40.3525 110.609L40.6501 110.495L40.9476 110.39L41.2452 110.285L41.5515 110.189L41.8578 110.093L42.1641 110.005L42.4704 109.926L42.7767 109.848L43.0918 109.778L43.3981 109.716L43.7131 109.664L44.0282 109.611L44.3432 109.567L44.6583 109.524L44.9821 109.489L45.2971 109.462L45.6209 109.445L45.9447 109.427L46.2686 109.419L46.5924 109.41L46.9162 109.419L47.24 109.427L47.5638 109.436L47.8876 109.462L48.2202 109.489L48.6753 109.541L49.1303 109.603L49.5854 109.673L50.0317 109.76L50.4781 109.856L50.9156 109.961L51.3445 110.084L51.7733 110.215L52.2021 110.355L52.6135 110.504L53.0248 110.67L53.4273 110.836L53.8299 111.02L54.2237 111.213L54.6088 111.414L54.9851 111.624L55.3614 111.843L55.7202 112.07L56.0791 112.315L56.4379 112.561L56.7792 112.814L57.1117 113.077L57.4443 113.357L57.7681 113.637L58.0832 113.926L58.3807 114.215L58.6783 114.521L58.9671 114.836L59.2471 115.151L59.5184 115.475L59.781 115.807L60.0348 116.149L60.2798 116.49L60.5161 116.84L60.7436 117.199L60.9537 117.558L61.1637 117.925L61.3562 118.302L61.54 118.678L61.7151 119.063H75.5425V114.022L75.0087 113.952L74.4836 113.873L73.9497 113.786L73.4246 113.698L72.8995 113.593L72.3744 113.488L71.8493 113.374L71.333 113.252L70.8167 113.129L70.3003 112.998L69.7927 112.858L69.2851 112.709L68.7776 112.552L68.27 112.394L67.7711 112.219L67.2723 112.053L66.7735 111.869L66.2834 111.677L65.7933 111.484L65.3119 111.283L64.8306 111.082L64.3493 110.863L63.8679 110.644L63.4041 110.416L62.9315 110.18L62.4677 109.944L62.0039 109.699L61.5488 109.445L61.0937 109.191L60.6474 108.92L60.201 108.649L59.7547 108.377L59.3171 108.088L58.8883 107.8L58.4595 107.502L58.0307 107.205L57.6193 106.898L57.1993 106.583L56.7879 106.259L56.3854 105.936L55.7202 105.384L55.0726 104.815L54.4425 104.229L53.8299 103.643L53.2348 103.039L52.666 102.417L52.1058 101.796L51.5633 101.157L51.0469 100.51L50.5393 99.8533L50.058 99.1794L49.5854 98.4968L49.1391 97.8054L48.7102 97.1053L48.2989 96.3877L47.9051 95.6613L47.5288 94.9349L47.17 94.1823L46.8287 93.4296L46.5136 92.6682L46.2073 91.8893L45.9273 91.1105L45.6647 90.3141L45.4197 89.5089L45.1921 88.695L44.9908 87.8724L44.7983 87.041L44.632 86.2008L44.4833 85.352L44.3432 84.4943L44.2382 83.6279L44.1419 82.7527L44.0632 81.8688L44.0107 80.9762L43.9756 80.0747L43.9582 79.1646V78.2457L43.9844 77.318L44.0282 76.3816L44.0894 75.4452L44.1419 74.7713L44.2032 74.1149L44.2732 73.4586L44.352 72.811L44.4395 72.1809L44.5358 71.5507L44.632 70.9381L44.7371 70.3343L44.8421 69.7392L44.9646 69.1528L45.0784 68.584L45.2009 68.0239L45.3234 67.4725L45.4547 66.9387L45.586 66.4223L45.7172 65.9147L45.8485 65.4159L45.9798 64.9433L46.1198 64.4795L46.2511 64.0244L46.3823 63.5956L46.5136 63.1755L46.6449 62.7729L46.7762 62.3879L46.8987 62.0203L47.0212 61.6702L47.1437 61.3377L47.2575 61.0226L47.3713 60.7338L47.4763 60.4538L47.5726 60.2L47.6688 59.9637L47.7563 59.7536L47.8351 59.5524L47.9051 59.3861L47.9664 59.2286L48.0276 59.0973L48.0714 58.9923L48.1064 58.9135L48.1326 58.8522L48.2727 58.5459L48.404 58.2484L48.544 57.9508L48.6753 57.662L48.8153 57.3645L48.964 57.0669L49.1041 56.7781L49.2528 56.4893L49.4016 56.1918L49.5504 55.903L49.7079 55.6142L49.8567 55.3254L50.0142 55.0453L50.1718 54.7565L50.338 54.4765L50.4956 54.1877L50.6618 53.9076L50.8281 53.6276L50.9944 53.3475L51.1694 53.0675L51.3357 52.7962L51.5107 52.5161L51.6858 52.2448L51.8608 51.9735L52.0446 51.6935L52.2284 51.4222L52.4122 51.1596L52.5959 50.8883L52.7797 50.617L52.9722 50.3545L53.1648 50.0919L53.3573 49.8294L53.5498 49.5668L53.7511 49.3043L53.9437 49.0417L54.145 48.788L54.3462 48.5254L54.5563 48.2716L54.7576 48.0178L54.9676 47.764L55.0726 47.6415L55.1777 47.5277L55.2914 47.4227L55.4052 47.3177L55.5189 47.2214L55.6415 47.1252L55.764 47.0376L55.8953 46.9501L56.0266 46.8714L56.1578 46.8013L56.2978 46.7313L56.4291 46.6701L56.5691 46.6176L56.7092 46.5651L56.8579 46.5125L56.998 46.4775L57.1468 46.4425L57.2955 46.4075L57.4443 46.3813L57.5931 46.3638L57.7418 46.355L57.8906 46.3463H58.0394H58.1969L58.3457 46.355L58.4945 46.3725L58.6433 46.39L58.792 46.4163L58.9408 46.4425L59.0896 46.4863L59.2384 46.5213L59.3784 46.5738L59.5272 46.6263L59.6672 46.6876L59.8072 46.7488L59.9472 46.8189L60.0785 46.8976L60.2186 46.9851L60.3498 47.0726L60.4723 47.1689L60.6036 47.2652L60.7174 47.3702L60.8311 47.4752L60.9362 47.589L61.0412 47.7028L61.1375 47.8165L61.2337 47.9391L61.3212 48.0616L61.4 48.1841L61.4788 48.3154L61.5488 48.4466L61.61 48.5779L61.6713 48.7092L61.7238 48.8492L61.7676 48.9892L61.8113 49.1293L61.8463 49.2693L61.8813 49.4093L61.9076 49.5493L61.9251 49.6981L61.9426 49.8381L61.9513 49.9869V50.1357V50.2757L61.9426 50.4245L61.9251 50.5645L61.9076 50.7133L61.8813 50.8533L61.8463 51.0021L61.8026 51.1421L61.7588 51.2822L61.7151 51.4222L61.6538 51.5622L61.5925 51.6935L61.5225 51.8335L61.4525 51.9648L61.3737 52.096L61.2862 52.2273L61.19 52.3498L61.0937 52.4724L60.9187 52.6912L60.7524 52.9012L60.5773 53.12L60.4023 53.33L60.236 53.5488L60.0698 53.7676L59.9035 53.9864L59.7372 54.2139L59.5797 54.4327L59.4134 54.6515L59.2559 54.879L59.0983 55.1066L58.9408 55.3341L58.792 55.5617L58.6345 55.7892L58.4857 56.0167L58.3369 56.2443L58.1882 56.4806L58.0394 56.7081L57.8994 56.9444L57.7506 57.1807L57.6106 57.417L57.4706 57.6533L57.3305 57.8896L57.1993 58.1259L57.0592 58.3622L56.928 58.6072L56.7967 58.8435L56.6654 59.0885L56.5341 59.3336L56.4116 59.5786L56.2891 59.8237L56.1666 60.0687L56.044 60.3137L55.9215 60.5588L55.799 60.8126L55.6852 61.0576L55.5715 61.3114L55.4577 61.5652L55.3439 61.8103V61.819L55.3264 61.854L55.3177 61.8803L55.3089 61.8978L55.2914 61.9415L55.2652 62.0028L55.2302 62.0816L55.1864 62.1866L55.1339 62.3179L55.0726 62.4579L55.0026 62.6329L54.9238 62.8167L54.8451 63.0267L54.7576 63.2543L54.67 63.4993L54.5738 63.7619L54.4688 64.0419L54.3638 64.3395L54.2587 64.6545L54.145 64.9871L54.0312 65.3371L53.9174 65.6959L53.8037 66.081L53.6811 66.4748L53.5674 66.8774L53.4448 67.2975L53.3223 67.7351L53.2086 68.1901L53.0948 68.6452L52.981 69.1178L52.8672 69.6079L52.7622 70.1067L52.6572 70.6143L52.5522 71.1307L52.4559 71.6558L52.3597 72.1983L52.2721 72.741L52.1934 73.3011L52.1234 73.8612L52.0533 74.4388L51.9921 75.0163L51.9396 75.6027L51.8871 76.1978L51.8433 76.9592L51.8171 77.7031L51.7995 78.447V79.1821L51.8083 79.9085L51.8346 80.6261L51.8783 81.335L51.9396 82.0351L52.0096 82.7352L52.0971 83.4178L52.1934 84.0917L52.3159 84.7656L52.4472 85.4307L52.5872 86.0783L52.7447 86.7259L52.9197 87.3648L53.1123 87.9949L53.3136 88.6163L53.5324 89.2289L53.7599 89.8327L54.0137 90.4278L54.2762 91.0229L54.5475 91.6006L54.8363 92.1694L55.1426 92.7382L55.4664 93.2896L55.799 93.8322L56.1491 94.3748L56.5079 94.8999L56.8842 95.425L57.278 95.9413L57.6806 96.4402L58.1007 96.939L58.5382 97.4291L58.9846 97.9017L59.4484 98.3742L59.9297 98.8381L60.4198 99.2932L60.9274 99.7395L61.4525 100.168L61.8463 100.492L62.2489 100.798L62.6515 101.096L63.0715 101.394L63.4829 101.682L63.9117 101.962L64.3405 102.234L64.7693 102.496L65.2069 102.759L65.6533 103.013L66.0996 103.249L66.5547 103.485L67.0185 103.713L67.4736 103.931L67.9462 104.142L68.41 104.352L68.8913 104.544L69.3639 104.737L69.854 104.912L70.3353 105.087L70.8254 105.253L71.3242 105.411L71.8144 105.551L72.3219 105.691L72.8208 105.831L73.3284 105.953L73.836 106.067L74.3523 106.172L74.8599 106.268L75.385 106.364L75.9013 106.443L76.4264 106.513L76.9515 106.583L77.4766 106.636L78.0017 106.688L78.5355 106.723L79.0606 106.758L79.5945 106.776L80.1371 106.793H80.6709H109.227H109.77L110.304 106.776L110.838 106.758L111.371 106.723L111.896 106.688L112.422 106.636L112.955 106.583L113.48 106.513L113.997 106.443L114.522 106.364L115.038 106.268L115.555 106.172L116.062 106.067L116.57 105.953L117.077 105.831L117.585 105.691L118.084 105.551L118.583 105.411L119.073 105.253L119.563 105.087L120.053 104.912L120.534 104.737L121.007 104.544L121.488 104.352L121.961 104.142L122.425 103.931L122.888 103.713L123.343 103.485L123.799 103.249L124.245 103.013L124.691 102.759L125.129 102.496L125.566 102.234L125.995 101.962L126.415 101.682L126.835 101.394L127.247 101.096L127.649 100.798L128.052 100.492L128.446 100.168L128.971 99.7308L129.487 99.2844L129.977 98.8293L130.458 98.3655L130.931 97.8842L131.377 97.4028L131.815 96.9128L132.244 96.4139L132.646 95.9063L133.04 95.39L133.425 94.8649L133.784 94.331L134.134 93.7884L134.467 93.2371L134.791 92.677L135.097 92.1081L135.386 91.5306L135.666 90.9442L135.928 90.3491L136.173 89.7452L136.401 89.1414L136.62 88.52L136.821 87.8899L137.013 87.2598L137.18 86.6122L137.337 85.9645L137.486 85.2994L137.609 84.6343L137.722 83.9604L137.827 83.2778L137.906 82.5777L137.976 81.8776L138.029 81.1687L138.072 80.4511L138.099 79.7334L138.107 78.9983L138.099 78.2544L138.081 77.5105L138.046 76.7492L137.994 75.9878L137.95 75.3927L137.889 74.8063L137.827 74.2375L137.757 73.6686L137.679 73.1085L137.6 72.5572L137.512 72.0146L137.416 71.4807L137.32 70.9556L137.215 70.448L137.11 69.9405L137.005 69.4504L136.891 68.9778L136.777 68.5052L136.663 68.0501L136.55 67.6125L136.427 67.1837L136.313 66.7724L136.191 66.3698L136.077 65.9848L135.963 65.6084L135.849 65.2584L135.736 64.9171L135.622 64.5933L135.517 64.2782L135.412 63.9894L135.316 63.7181L135.219 63.4556L135.132 63.2193L135.044 63.0005L134.966 62.7904L134.896 62.6154L134.826 62.4491L134.764 62.3004L134.712 62.1778L134.668 62.0816L134.633 61.994L134.607 61.9328L134.589 61.8978L134.58 61.8803V61.8715L134.572 61.8628V61.8453L134.554 61.8103L134.37 61.4077L134.187 61.0051L133.994 60.6026L133.802 60.2L133.6 59.7974L133.399 59.4036L133.189 59.0098L132.979 58.6247L132.769 58.2396L132.541 57.8546L132.323 57.4695L132.095 57.0844L131.859 56.7081L131.622 56.3405L131.377 55.9642L131.132 55.5967L130.879 55.2291L130.625 54.8615L130.371 54.5027L130.108 54.1439L129.837 53.7851L129.566 53.435L129.286 53.0762L129.006 52.7349L128.726 52.3848L128.437 52.0435L128.148 51.7022L127.851 51.3609L127.544 51.0283L127.238 50.6958L126.932 50.372L126.617 50.0394L126.302 49.7156L125.978 49.4006L125.654 49.0768L125.321 48.7617L124.989 48.4554L124.647 48.1403L124.306 47.834L123.965 47.5365L123.352 47.0201L122.74 46.5125L122.118 46.0225L121.488 45.5411L120.849 45.0773L120.21 44.6222L119.554 44.1759L118.898 43.7471L118.233 43.3357L117.559 42.9332L116.876 42.5393L116.193 42.163L115.502 41.7955L114.811 41.4454L114.102 41.1041L113.402 40.7803L112.684 40.4652L111.966 40.1677L111.249 39.8789L110.522 39.5988L109.787 39.3363L109.052 39.0912L108.317 38.8549L107.573 38.6274L106.829 38.4174L106.077 38.2161L105.324 38.0323L104.571 37.866L103.81 37.7085L103.049 37.5597L102.287 37.4284L101.517 37.3059L100.756 37.2009L99.9856 37.1134L99.2067 37.0259L98.4366 36.9646L97.6664 36.9121L96.8876 36.8683L96.1087 36.8421L95.3385 36.8333H95.3298H95.3035H95.286H95.2685H95.251L95.2335 36.8421H95.2072H95.1985H95.181H95.1635H95.146H95.1372H95.111H95.0935L95.076 36.8508H95.0672H95.0497H95.0235H95.006H94.9972H94.9797H94.971H94.9359H94.9185H94.9097H94.8922H94.8747H94.8572H94.8397H94.8222L94.8047 36.8421H94.7872H94.7697H94.7522H94.7347H94.7084H94.6909H94.6734L94.6472 36.8333H94.6296H94.6034H94.5771H94.5684L94.0433 36.8421L93.5182 36.8508L92.9931 36.8683L92.4593 36.8946L91.9342 36.9296L91.4091 36.9646L90.884 37.0084L90.3501 37.0609L89.825 37.1221L89.2999 37.1834L88.7748 37.2534L88.2498 37.3234L87.7247 37.4109L87.1996 37.4985L86.6832 37.586L86.1581 37.691L85.6418 37.796L85.1167 37.9098L84.6004 38.0323L84.084 38.1548L83.5589 38.2861L83.0513 38.4261L82.535 38.5661L82.0186 38.7149L81.5023 38.8724L80.9947 39.0387L80.4871 39.205L79.9795 39.3888L79.472 39.5638L78.9644 39.7563L78.4655 39.9489L77.9667 40.1502L77.4679 40.3602L76.969 40.5702L76.4702 40.7978L75.9801 41.0166L75.49 41.2529L74.9999 41.4979L74.5098 41.743L74.0285 41.9968L73.8797 42.0668L73.7397 42.128L73.5909 42.1893L73.4421 42.2418L73.2933 42.2943L73.1446 42.3293L72.9958 42.3643L72.847 42.3993L72.6895 42.4256L72.5407 42.4431L72.3919 42.4518L72.2344 42.4606H72.0857L71.9369 42.4518L71.7793 42.4431L71.6306 42.4256L71.4818 42.4081L71.333 42.3818L71.1842 42.3468L71.0442 42.303L70.8954 42.268L70.7554 42.2155L70.6154 42.163L70.4841 42.1018L70.3441 42.0405L70.2128 41.9705L70.0815 41.8917L69.9503 41.813L69.8277 41.7342L69.7052 41.6467L69.5915 41.5504L69.4777 41.4541L69.3639 41.3491L69.2589 41.2441L69.1539 41.1303L69.0576 41.0078L68.9613 40.8853L68.8738 40.7628L68.7863 40.6315L68.7075 40.5002L68.6288 40.3602L68.5588 40.2202L68.4975 40.0802L68.445 39.9401L68.3925 39.7914L68.3487 39.6513L68.3137 39.5026L68.2787 39.3625L68.2612 39.2138L68.2437 39.065L68.2262 38.9162L68.2175 38.7762V38.6274L68.2262 38.4786L68.235 38.3386L68.2525 38.1898L68.2787 38.0498L68.305 37.901L68.34 37.761L68.375 37.621L68.4188 37.4809L68.4713 37.3497L68.5238 37.2097L68.585 37.0784L68.655 36.9471L68.725 36.8246L68.8038 36.6933L68.8826 36.5708L68.9701 36.457L69.0664 36.3345L69.1626 36.2207L69.2677 36.1157L69.3727 36.0019L69.4864 35.8969L69.6002 35.8007L69.7227 35.7044L69.8453 35.6169L69.9765 35.5294L70.1166 35.4418L70.2566 35.3718L70.7467 35.1093L71.2368 34.8555L71.7356 34.6104L72.2344 34.3741L72.7333 34.1378L73.2321 33.9103L73.7397 33.6828L74.2473 33.4727L74.7549 33.2539L75.2624 33.0527L75.7701 32.8514L76.2776 32.6501L76.794 32.4663L77.3103 32.2825L77.8267 32.0987L78.343 31.9237L78.8593 31.7574L79.3757 31.5999L79.9008 31.4424L80.4171 31.2848L80.9422 31.1448L81.4673 31.0048L81.9924 30.8648L82.5175 30.7423L83.0426 30.611L83.5764 30.4972L84.1015 30.3834L84.6354 30.2784L85.1605 30.1734L85.6943 30.0771L86.2194 29.9896L86.7532 29.9021L87.2871 29.8233L87.8209 29.7446L88.3548 29.6746L88.8886 29.6133L89.4225 29.552L89.9563 29.4995L90.4902 29.4558L91.0328 29.412V25.9726L90.6389 25.8501L90.2539 25.7101L89.8775 25.5613L89.5012 25.4038L89.1424 25.2288L88.7748 25.0537L88.4248 24.8612L88.0835 24.6599L87.7422 24.4411L87.4096 24.2223L87.0858 23.9948L86.7708 23.7498L86.4644 23.496L86.1669 23.2422L85.8694 22.9709L85.5893 22.6996L85.318 22.4108L85.0467 22.122L84.7929 21.8157L84.5479 21.5094L84.3116 21.1943L84.0928 20.8705L83.874 20.5467L83.6727 20.2054L83.4714 19.8641L83.2876 19.514L83.1214 19.1552L82.9551 18.7964L82.8063 18.4288L82.675 18.0613L82.5437 17.6762L82.43 17.2999L82.3337 16.906L82.2462 16.521L82.1674 16.1184L82.1062 15.7158L82.0624 15.3133L82.0274 14.9019L82.0012 14.4906L81.9924 14.0793L82.0099 13.563L82.0362 13.0554L82.0887 12.5478L82.1674 12.0489L82.255 11.5589L82.3687 11.0775L82.5087 10.6049L82.6575 10.1323L82.8238 9.66851L83.0163 9.22218L83.2176 8.77585L83.4452 8.33827L83.6815 7.9182L83.9352 7.50688L84.2153 7.09555L84.4954 6.71048L84.8017 6.32541L85.1167 5.95785L85.4493 5.59903L85.7906 5.24898L86.1494 4.91641L86.5257 4.60136L86.9108 4.29506L87.3046 3.9975L87.7159 3.7262L88.1272 3.46367L88.5648 3.21861L89.0024 2.98233L89.4487 2.77229L89.9126 2.571L90.3851 2.38721L90.8577 2.22969L91.3478 2.08092L91.8379 1.94964L92.3455 1.84462L92.8531 1.7571L93.3694 1.67834L93.8857 1.63458L94.4196 1.59958L94.9534 1.59082L95.4873 1.59958L96.0124 1.63458ZM103.539 225.631L103.049 225.718L102.55 225.797L102.06 225.867L101.561 225.937L101.062 226.007L100.554 226.068L100.056 226.121L99.548 226.173L99.0492 226.217L98.5416 226.252L98.034 226.287L97.5177 226.322L97.0101 226.348L96.4937 226.366L95.9861 226.374L95.4698 226.383H94.9534H94.4371L93.9208 226.374L93.4044 226.366L92.8881 226.348L92.3805 226.322L91.8729 226.287L91.3566 226.252L90.8577 226.217L90.3501 226.173L89.8425 226.121L89.3437 226.068L88.8449 226.007L88.3373 225.937L87.8472 225.867L87.3484 225.797L86.8495 225.718L86.3594 225.631L85.8694 225.543L85.3793 225.447V242.95L85.4143 243.746L85.5193 244.516L85.6855 245.278L85.9219 246.004L86.2106 246.713L86.5607 247.387L86.9633 248.026L87.4184 248.63L87.9172 249.199L88.4686 249.724L89.0549 250.214L89.685 250.651L90.3501 251.036L91.0503 251.369L91.7766 251.649L92.538 251.877L93.3169 252.043L94.1221 252.139L94.9534 252.174L95.7761 252.139L96.5812 252.043L97.3601 251.877L98.1215 251.649L98.8479 251.369L99.548 251.036L100.213 250.651L100.843 250.214L101.43 249.724L101.981 249.199L102.48 248.63L102.935 248.026L103.337 247.387L103.687 246.713L103.976 246.004L104.213 245.278L104.379 244.516L104.484 243.746L104.519 242.95V225.447L104.029 225.543L103.539 225.631ZM62.9403 126.633V126.659V126.694L62.9315 126.703V126.712V126.729L62.8965 127.044L62.8615 127.359L62.809 127.666L62.7565 127.972L62.6952 128.287L62.634 128.585L62.5552 128.891L62.4852 129.197L62.3977 129.495L62.3102 129.792L62.2139 130.081L62.1089 130.379L62.0039 130.667L61.8901 130.956L61.7763 131.245L61.645 131.525L61.5138 131.805L61.3825 132.085L61.2425 132.357L61.0937 132.628L60.9449 132.899L60.7786 133.17L60.6211 133.433L60.4461 133.696L60.2798 133.949L60.096 134.203L59.9122 134.457L59.7197 134.702L59.5272 134.947L59.3259 135.183L59.1158 135.428L58.9058 135.656L58.687 135.892L58.4682 136.12L58.2407 136.338L58.0131 136.557L57.7769 136.776L57.5318 136.986L57.2868 137.187L57.033 137.397L57.0067 137.415L56.9717 137.441L56.9367 137.467L56.9104 137.494L56.8755 137.52L56.8404 137.546L56.8142 137.572L56.7792 137.59L56.7442 137.616L56.7179 137.642L56.6829 137.669L56.6479 137.695L56.6129 137.712L56.5866 137.739L56.5517 137.765L56.5166 137.791L56.4816 137.809L56.4554 137.835L56.4204 137.861L56.3854 137.879L56.3504 137.905L56.3241 137.931L56.2891 137.949L56.2541 137.975L56.2191 138.001L56.1841 138.019L56.1578 138.045L56.1228 138.071L56.0878 138.089L56.0528 138.115L56.0178 138.133L55.9915 138.159L55.9565 138.176L55.9215 138.203L55.8865 138.229L55.8515 138.246L55.8165 138.273L55.7815 138.29L55.7553 138.316L55.7202 138.334V181.015L55.7465 182.573L55.8515 184.113L56.009 185.636L56.2278 187.141L56.5166 188.629L56.8579 190.091L57.2605 191.535L57.7244 192.952L58.2319 194.353L58.8095 195.718L59.4309 197.066L60.1048 198.378L60.8311 199.665L61.6013 200.916L62.4239 202.141L63.2991 203.332L64.2093 204.487L65.1719 205.607L66.1784 206.692L67.2198 207.742L68.305 208.749L69.4339 209.72L70.5979 210.639L71.7968 211.523L73.0308 212.363L74.2998 213.16L75.6038 213.904L76.934 214.604L78.2992 215.251L79.6908 215.855L81.1172 216.406L82.5613 216.897L84.0315 217.343L85.5368 217.728L87.0508 218.06L88.5911 218.332L90.1576 218.551L91.7329 218.708L93.3344 218.796L94.9534 218.831L96.0299 218.804L97.1063 218.734L98.174 218.621L99.233 218.454L100.292 218.236L101.351 217.982L102.401 217.675L103.442 217.317L104.484 216.914L105.517 216.468L106.541 215.969L107.564 215.426L108.588 214.84L109.604 214.201L110.61 213.51L111.608 212.783L112.614 211.996L113.603 211.173L114.592 210.298L115.572 209.379L116.552 208.408L117.524 207.392L118.495 206.325L119.458 205.213L120.42 204.058L121.366 202.85L122.32 201.599L123.265 200.304L124.201 198.956L125.129 197.556L126.056 196.12L126.984 194.633L127.903 193.092L128.813 191.508L129.723 189.88L130.625 188.2L131.517 186.476L132.41 184.7L133.303 182.879L134.187 181.015V138.334L134.152 138.316L134.117 138.29L134.082 138.273L134.047 138.246L134.012 138.229L133.977 138.203L133.95 138.176L133.915 138.159L133.88 138.133L133.845 138.115L133.81 138.089L133.775 138.071L133.749 138.045L133.714 138.019L133.679 138.001L133.644 137.975L133.609 137.949L133.583 137.931L133.548 137.905L133.513 137.879L133.478 137.861L133.452 137.835L133.417 137.809L133.382 137.791L133.347 137.765L133.32 137.739L133.285 137.712L133.25 137.695L133.215 137.669L133.189 137.642L133.154 137.616L133.119 137.59L133.093 137.572L133.058 137.546L133.023 137.52L132.996 137.494L132.961 137.467L132.926 137.441L132.9 137.415L132.865 137.397L132.611 137.187L132.366 136.986L132.121 136.776L131.885 136.557L131.657 136.338L131.43 136.12L131.211 135.892L130.992 135.656L130.782 135.428L130.581 135.183L130.38 134.947L130.178 134.702L129.986 134.457L129.802 134.203L129.627 133.949L129.452 133.696L129.286 133.433L129.12 133.17L128.962 132.899L128.804 132.628L128.664 132.357L128.516 132.085L128.384 131.805L128.253 131.525L128.131 131.245L128.008 130.956L127.894 130.667L127.789 130.379L127.684 130.081L127.597 129.792L127.5 129.495L127.422 129.197L127.343 128.891L127.273 128.585L127.203 128.287L127.142 127.972L127.089 127.666L127.045 127.359L127.002 127.044L126.967 126.729V126.721V126.703V126.694V126.677V126.668L126.958 126.651V126.633V126.624H62.9403V126.633ZM159.444 189.837L158.56 189.889L157.676 189.968L156.792 190.073L156.319 190.196L155.864 190.344L155.418 190.519L154.989 190.721L154.569 190.939L154.166 191.176L153.781 191.43L153.414 191.71L153.064 191.998L152.731 192.313L152.416 192.646L152.119 192.987L151.847 193.346L151.593 193.722L151.357 194.107L151.147 194.51L150.955 194.921L150.788 195.341L150.648 195.779L150.526 196.217L150.438 196.672L150.368 197.136L150.333 197.599L150.316 198.072V205.598L150.325 205.686L150.333 205.773L150.342 205.861L150.368 205.948L150.386 206.027L150.421 206.106L150.456 206.185L150.491 206.263L150.535 206.333L150.587 206.403L150.64 206.465L150.701 206.535L150.762 206.587L150.823 206.648L150.893 206.701L150.963 206.745L151.042 206.788L151.121 206.832L151.2 206.867L151.278 206.894L151.366 206.92L151.462 206.946L151.55 206.955L151.646 206.964L151.69 206.972H151.742H151.786H151.839H151.882L151.935 206.964L151.979 206.955L152.022 206.946L152.066 206.937L152.11 206.929L152.154 206.92L152.197 206.902L152.241 206.894L152.285 206.876L152.329 206.859L152.364 206.832L152.407 206.815L152.442 206.788L152.486 206.771L152.521 206.745L152.565 206.718L152.6 206.683L152.635 206.657L152.67 206.622L152.714 206.587L152.749 206.552L152.784 206.508L152.819 206.465L152.854 206.421L152.889 206.377L152.915 206.333L152.95 206.281L152.976 206.237L153.002 206.185L153.029 206.141L153.046 206.088L153.064 206.036L153.09 205.983L153.099 205.931L153.116 205.87L153.134 205.817L153.143 205.765L153.151 205.703L153.16 205.651L153.169 205.59V205.528V205.476V205.414L153.108 201.905V201.45L153.151 200.995L153.213 200.549L153.309 200.12L153.431 199.691L153.58 199.28L153.755 198.877L153.956 198.483L154.184 198.107L154.429 197.748L154.7 197.407L154.989 197.074L155.304 196.768L155.637 196.47L155.987 196.199L156.354 195.954L156.739 195.727L157.133 195.516L157.545 195.333L157.973 195.175L158.42 195.044L158.875 194.939L159.339 194.86L159.811 194.816L159.89 194.808L159.977 194.799H160.065L160.144 194.79H160.231L160.319 194.781H160.398L160.485 194.773H160.573L160.651 194.764H160.739L160.826 194.755H160.905H160.993H161.08L161.159 194.746H161.246H161.334H161.413H161.5L161.588 194.738H161.667H161.754H161.842L162.305 194.746L162.778 194.755L163.251 194.773L163.723 194.808L164.196 194.843L164.668 194.878L165.132 194.93L165.605 194.991L166.069 195.053L166.532 195.131L166.996 195.21L167.46 195.298L167.924 195.394L168.379 195.499L168.843 195.613L169.298 195.735L169.744 195.858L170.199 195.989L170.646 196.138L171.092 196.287L171.538 196.435L171.976 196.602L172.413 196.777L172.851 196.952L173.28 197.153L173.691 197.372L174.085 197.617L174.453 197.879L174.803 198.168L175.135 198.475L175.441 198.79L175.722 199.131L175.984 199.481L176.22 199.849L176.43 200.234L176.623 200.627L176.78 201.03L176.92 201.441L177.025 201.861L177.113 202.281L177.166 202.719L177.192 203.148V203.585L177.166 204.032L177.104 204.469L177.017 204.916L176.894 205.353L176.745 205.791L175.424 209.221L175.398 209.283L175.38 209.353L175.363 209.414L175.345 209.475L175.336 209.536L175.328 209.598V209.659V209.72V209.773L175.336 209.825L175.345 209.878V209.93L175.363 209.983L175.371 210.027L175.38 210.079L175.398 210.123L175.415 210.167L175.433 210.202L175.45 210.245L175.468 210.28L175.485 210.315L175.494 210.342L175.511 210.377L175.529 210.403L175.547 210.429L175.564 210.455L175.59 210.49L175.608 210.517L175.634 210.552L175.66 210.578L175.695 210.613L175.722 210.648L175.757 210.683L175.792 210.718L175.835 210.744L175.87 210.779L175.914 210.814L175.958 210.84L176.01 210.875L176.063 210.902L176.115 210.928L176.168 210.954L176.229 210.98L176.29 210.998L176.352 211.016L176.422 211.033L176.483 211.05L176.562 211.059L176.64 211.068L176.728 211.077L176.807 211.068L176.894 211.059L176.973 211.05L177.052 211.033L177.131 211.007L177.209 210.98L177.288 210.954L177.367 210.91L177.446 210.875L177.516 210.823L177.586 210.779L177.656 210.727L177.717 210.665L177.778 210.604L177.839 210.543L177.901 210.473L177.953 210.403L178.006 210.324L178.049 210.245L178.093 210.167L178.128 210.079L178.163 210L180.692 203.06L180.841 202.605L180.964 202.15L181.06 201.695L181.121 201.24L181.165 200.785L181.182 200.33L181.165 199.875L181.13 199.428L181.069 198.982L180.981 198.545L180.867 198.107L180.736 197.678L180.57 197.267L180.386 196.855L180.185 196.453L179.957 196.059L179.703 195.683L179.423 195.315L179.126 194.965L178.811 194.624L178.47 194.309L178.111 194.002L177.726 193.714L177.332 193.442L176.527 193.066L175.722 192.707L174.908 192.375L174.085 192.06L173.262 191.762L172.422 191.491L171.591 191.237L170.742 191.001L169.893 190.782L169.044 190.589L168.186 190.423L167.32 190.266L166.462 190.134L165.587 190.021L164.721 189.933L163.846 189.863L162.971 189.819L162.087 189.793L161.211 189.784L160.328 189.802L159.444 189.837ZM17.9836 174.259L17.9923 175.72L18.0536 177.208L18.1586 178.722L18.3249 180.236L18.5437 181.768L18.8325 183.291L19.6113 183.124L20.399 182.976L21.1866 182.835L21.983 182.713L22.7794 182.599L23.5758 182.503L24.3722 182.424L25.1686 182.354L25.0898 181.225L25.0285 180.07L24.9848 178.897L24.9673 177.716V176.526L25.0023 175.327L25.0723 174.136L25.1686 172.946H25.1073L25.0461 172.955H24.9848H24.9235H24.8623H24.801H24.7398H24.6785H24.5035H24.3284L24.1534 172.946H23.9784L23.7946 172.929L23.6196 172.92L23.4445 172.911L23.2607 172.894L22.5781 172.815L21.9042 172.701L21.2391 172.561L20.5828 172.395L19.9351 172.194L19.305 171.975L18.6837 171.721L18.0798 171.441L18.0098 172.832L17.9836 174.259ZM170.593 171.975L169.963 172.194L169.315 172.395L168.659 172.561L167.994 172.701L167.32 172.815L166.637 172.894L166.462 172.911L166.279 172.92L166.104 172.929L165.929 172.946H165.745L165.57 172.955H165.395H165.22H165.158H165.097H165.036H164.975H164.913H164.852L164.791 172.946H164.73L164.826 174.136L164.896 175.327L164.931 176.526V177.716L164.913 178.897L164.87 180.07L164.808 181.225L164.73 182.354L165.526 182.424L166.322 182.503L167.119 182.599L167.915 182.713L168.712 182.835L169.499 182.976L170.287 183.124L171.066 183.291L171.355 181.768L171.582 180.236L171.74 178.722L171.845 177.208L171.906 175.72L171.915 174.259L171.888 172.832L171.818 171.441L171.214 171.721L170.593 171.975ZM23.637 152.529L23.1382 152.625L22.6481 152.756L22.1668 152.923L21.703 153.124L21.2566 153.352L20.819 153.623L20.4077 153.929L19.9614 154.314L19.5588 154.726L19.2 155.172L18.885 155.636L18.6137 156.134L18.3861 156.651L18.2023 157.185L18.0711 157.736L17.9836 158.305L17.9573 158.874L17.9748 159.443L18.0448 160.003L18.1673 160.545L18.3336 161.079L18.5524 161.604L18.8149 162.103L19.13 162.584L19.4888 163.039L19.8826 163.468L20.3115 163.853L20.7753 164.203L21.2566 164.51L21.773 164.772L22.3068 164.991L22.8582 165.166L23.4358 165.289L24.0221 165.376L25.2298 165.385L26.3938 165.184L27.479 164.807L28.4767 164.256L29.3606 163.556L30.1132 162.716L30.7083 161.762L31.1284 160.703L31.3559 159.556L31.3909 158.988L31.3647 158.419L31.2947 157.859L31.1809 157.307L31.0059 156.773L30.7871 156.257L30.5245 155.758L30.2182 155.277L29.8594 154.813L29.4568 154.393L29.028 153.999L28.5729 153.658L28.0828 153.352L27.5752 153.089L27.0414 152.87L26.4813 152.695L25.9125 152.564L25.3173 152.485L25.2473 152.476H25.1773L25.0986 152.468H25.0285L24.9498 152.459H24.8798H24.8098H24.731H24.661L24.1446 152.476L23.637 152.529ZM165.097 152.459H165.018H164.948L164.87 152.468H164.8L164.73 152.476H164.651L164.581 152.485L163.994 152.564L163.417 152.695L162.865 152.87L162.332 153.089L161.815 153.352L161.325 153.658L160.87 153.999L160.441 154.393L160.039 154.813L159.689 155.277L159.374 155.758L159.111 156.257L158.892 156.773L158.726 157.307L158.603 157.859L158.533 158.419L158.516 158.988L158.542 159.556L158.77 160.703L159.19 161.762L159.785 162.716L160.538 163.556L161.421 164.256L162.419 164.807L163.504 165.184L164.668 165.376H165.876L166.462 165.289L167.04 165.166L167.591 164.991L168.125 164.772L168.642 164.51L169.132 164.203L169.587 163.853L170.016 163.468L170.418 163.039L170.768 162.584L171.083 162.103L171.346 161.604L171.565 161.079L171.731 160.545L171.853 160.003L171.923 159.443L171.941 158.874L171.915 158.305L171.827 157.736L171.696 157.185L171.521 156.651L171.293 156.134L171.013 155.636L170.698 155.172L170.339 154.726L169.937 154.314L169.499 153.929L169.079 153.623L168.65 153.36L168.195 153.124L167.731 152.923L167.25 152.756L166.76 152.625L166.261 152.529L165.754 152.476L165.237 152.459H165.167H165.097ZM30.4458 134.063L29.7806 135.201L29.1243 136.356L28.4679 137.537L27.8291 138.736L27.2077 139.953L26.6038 141.178L26.0175 142.412L25.4574 143.655L24.9235 144.906H25.0285H25.1336L25.2386 144.915H25.3436L25.4486 144.924H25.5536L25.6587 144.933L25.7637 144.941L25.8687 144.95L25.9737 144.959L26.0787 144.968L26.9801 145.081L27.8641 145.239L28.7305 145.458L29.5794 145.72L30.402 146.026L31.2071 146.385L31.986 146.797L32.7387 147.243L33.4563 147.742L34.1477 148.284L34.8128 148.862L35.3116 148.092L35.8367 147.295L36.3793 146.499L36.9307 145.694L37.5083 144.889L38.0946 144.084L38.6985 143.27L39.3111 142.473L39.95 141.677L40.5888 140.889L41.2539 140.11L40.1162 139.682L39.031 139.183L37.9896 138.614L37.0007 137.966L36.073 137.257L35.1978 136.487L34.3752 135.665L33.6313 134.781L32.94 133.853L32.3273 132.882L31.7847 131.858L31.1196 132.943L30.4458 134.063ZM156.958 133.853L156.276 134.781L155.523 135.665L154.709 136.487L153.834 137.257L152.897 137.966L151.909 138.605L150.867 139.183L149.782 139.682L148.653 140.11L149.309 140.889L149.948 141.677L150.587 142.473L151.2 143.27L151.804 144.084L152.399 144.889L152.967 145.694L153.528 146.499L154.061 147.295L154.587 148.083L155.094 148.862L155.75 148.284L156.442 147.742L157.168 147.243L157.921 146.797L158.691 146.385L159.496 146.026L160.319 145.711L161.168 145.449L162.034 145.239L162.918 145.073L163.819 144.968L163.924 144.959L164.029 144.95L164.134 144.941L164.239 144.933L164.345 144.924H164.45L164.555 144.915H164.66L164.765 144.906H164.87H164.975L164.441 143.655L163.881 142.412L163.294 141.169L162.69 139.944L162.069 138.728L161.43 137.537L160.783 136.356L160.126 135.192L159.452 134.054L158.787 132.943L158.113 131.849L157.58 132.873L156.958 133.853ZM141.302 117.19L140.216 117.514L139.201 117.96L138.265 118.529L137.425 119.203L136.681 119.973L136.042 120.831L135.517 121.758L135.114 122.747L134.852 123.798L134.738 124.883L134.773 126.003L134.843 126.545L134.948 127.071L135.097 127.596L135.272 128.103L135.482 128.593L135.727 129.075L136.007 129.539L136.313 129.985L136.655 130.405L137.022 130.816L137.416 131.201L137.845 131.56L138.291 131.893L138.764 132.199L139.245 132.462L139.744 132.707L140.251 132.908L140.777 133.083L141.31 133.223L141.853 133.328L142.413 133.398L142.964 133.433H143.533L144.093 133.398L145.24 133.214L146.325 132.89L147.34 132.444L148.268 131.875L149.117 131.201L149.861 130.431L150.5 129.574L151.025 128.646L151.418 127.657L151.69 126.607L151.804 125.522L151.769 124.401L151.699 123.859L151.585 123.334L151.445 122.809L151.27 122.301L151.051 121.811L150.815 121.33L150.535 120.866L150.228 120.419L149.887 119.999L149.519 119.588L149.126 119.203L148.697 118.844L148.25 118.512L147.778 118.205L147.296 117.943L146.798 117.698L146.281 117.496L145.756 117.321L145.222 117.181L144.68 117.076L144.128 117.006L143.568 116.971H143.008L142.439 117.006L141.302 117.19ZM45.6385 117.024L45.1571 117.094L44.6758 117.181L44.212 117.304L43.7481 117.444L43.293 117.619L42.8555 117.811L42.4266 118.039L42.0065 118.284L41.5952 118.547L41.2014 118.844L40.7813 119.203L40.3788 119.588L40.0112 119.999L39.6699 120.419L39.3636 120.866L39.0923 121.33L38.8473 121.811L38.6285 122.301L38.4534 122.809L38.3134 123.334L38.1996 123.859L38.1296 124.401L38.0946 125.522L38.2171 126.607L38.4797 127.657L38.8735 128.646L39.3986 129.574L40.0374 130.431L40.7813 131.201L41.6302 131.875L42.5667 132.444L43.5731 132.89L44.6583 133.214L45.8047 133.398L46.3648 133.433H46.9337L47.485 133.398L48.0451 133.328L48.5877 133.223L49.1216 133.083L49.6467 132.908L50.1543 132.707L50.6531 132.462L51.1344 132.19L51.607 131.893L52.0533 131.56L52.4822 131.201L52.876 130.816L53.2523 130.405L53.5849 129.985L53.8912 129.539L54.1712 129.075L54.4163 128.593L54.6263 128.103L54.8013 127.596L54.9501 127.071L55.0551 126.537L55.1339 126.003L55.1689 124.883L55.0464 123.798L54.7838 122.747L54.3813 121.758L53.8649 120.831L53.226 119.973L52.4734 119.203L51.6333 118.529L50.6969 117.96L49.6817 117.514L48.6052 117.19L47.4588 117.006H47.3888L47.3187 116.998L47.2487 116.989H47.1787L47.1087 116.98H47.0387H46.9687L46.8899 116.971H46.8199H46.7499H46.6799H46.6186L46.1198 116.98L45.6385 117.024ZM83.3839 119.063H106.514V114.355H83.3839V119.063ZM92.7043 9.65101L91.7504 10.2286L90.9627 10.99L90.3589 11.9089L89.9738 12.9503L89.8338 14.0793L89.9738 15.2082L90.3589 16.2409L90.9627 17.1598L91.7504 17.9212L92.7043 18.5076L93.7807 18.8751L94.9534 19.0064L96.1174 18.8751L97.1939 18.5076L98.1478 17.9212L98.9442 17.1598L99.548 16.2409L99.9331 15.2082L100.064 14.0793L99.9331 12.9503L99.548 11.9089L98.9442 10.99L98.1478 10.2286L97.1939 9.65101L96.1174 9.2747L94.9534 9.14342L93.7807 9.2747L92.7043 9.65101Z" fill="black"/>
<path d="M35.504 231.827L36.6155 232.011L37.7095 232.256L38.7684 232.571L39.8011 232.947L40.8075 233.393L41.7702 233.892L42.7066 234.443L43.5992 235.056L44.4481 235.721L45.262 236.43L46.0234 237.191L46.741 237.997L47.4062 238.845L48.0188 239.729L48.5789 240.657L49.0865 241.62L49.5241 242.617L49.9091 243.641L50.2242 244.7L50.478 245.785L50.6617 246.888L50.7668 248.017L50.8105 249.172L50.7755 250.319L50.6617 251.448L50.478 252.559L50.2329 253.644L49.9091 254.695L49.5328 255.727L49.0865 256.725L48.5876 257.688L48.0275 258.606L47.4149 259.499L46.7498 260.348L46.0322 261.153L45.262 261.915L44.4569 262.623L43.5992 263.289L42.7066 263.892L41.7789 264.453L40.8075 264.951L39.8011 265.389L38.7684 265.765L37.7095 266.08L36.6155 266.334L35.504 266.509L34.3664 266.623L33.2111 266.658L32.0472 266.623L30.9095 266.509L29.798 266.334L28.7041 266.08L27.6452 265.765L26.6125 265.389L25.606 264.951L24.6346 264.453L23.707 263.892L22.8143 263.289L21.9566 262.623L21.1515 261.915L20.3814 261.153L19.6637 260.348L18.9986 259.499L18.386 258.606L17.8259 257.688L17.3271 256.725L16.8807 255.727L16.5044 254.695L16.1894 253.644L15.9356 252.559L15.7518 251.448L15.6468 250.319L15.603 249.172L15.6468 248.017L15.7518 246.888L15.9356 245.777L16.1894 244.692L16.5044 243.641L16.8807 242.609L17.3271 241.611L17.8259 240.648L18.386 239.729L18.9986 238.837L19.6637 237.988L20.3814 237.183L21.1515 236.421L21.9566 235.712L22.8143 235.047L23.707 234.443L24.6346 233.883L25.606 233.385L26.6125 232.947L27.6452 232.571L28.7041 232.256L29.798 232.002L30.9095 231.827L32.0472 231.713L33.2111 231.678L34.3664 231.713L35.504 231.827ZM26.3237 259.735L29.7893 265.135L29.9993 265.179L30.2006 265.223L30.4106 265.258L30.6207 265.293L30.822 265.319L31.032 265.354L31.242 265.38L31.4433 265.398L31.4783 265.406L31.5746 265.415L31.6709 265.424L31.7584 265.433L31.8547 265.441H31.9509L32.0472 265.45L32.1435 265.459L32.2397 265.468H32.2485H32.266H32.2922H32.301H32.3185H32.3272H32.3448L32.4498 265.476L32.5548 265.485H32.6686H32.7736L32.8786 265.494H32.9924H33.0974H33.2111H33.3249H33.4474H33.5612L33.6837 265.485H33.7975L33.92 265.476L34.0338 265.468H34.1476L34.1826 265.459H34.2088H34.2351L34.2963 265.45H34.3226H34.3488H34.3839L34.4714 265.441L34.5589 265.433L34.6551 265.424L34.7427 265.415L34.8389 265.406L34.9264 265.398L35.0227 265.389L35.1102 265.38H35.1365L35.1628 265.371H35.189H35.2153L35.2678 265.363L35.294 265.354H35.3203L35.4165 265.345L35.5128 265.328L35.6091 265.319L35.7053 265.301L35.8016 265.284L35.8979 265.266L35.9941 265.258L36.0904 265.24L36.1079 265.231H36.1254L36.1517 265.223H36.1692H36.1867L36.2042 265.214H36.2217L36.3355 265.196L36.4405 265.17L36.5542 265.153L36.668 265.126L36.7818 265.1L36.8955 265.074L37.0006 265.048L37.1143 265.021L40.1424 259.762L37.2981 256.034H29.1154L26.3237 259.735ZM16.8807 250.94L16.907 251.185L16.942 251.439L16.977 251.684L17.0208 251.929L17.0645 252.174L17.117 252.419L17.1695 252.664V252.673V252.69V252.699L17.1783 252.717V252.725L17.1871 252.734V252.752L17.2133 252.857L17.2396 252.962L17.2658 253.076L17.2921 253.181L17.3183 253.286L17.3446 253.391L17.3708 253.496L17.4058 253.601L17.4321 253.714L17.4671 253.828L17.5021 253.942L17.5371 254.056L17.5721 254.161L17.6071 254.274L17.6509 254.388L17.6859 254.493L17.7209 254.607V254.616L17.8084 254.843L17.8959 255.071L17.9835 255.298L18.0797 255.526L18.1847 255.753L18.281 255.972L18.386 256.2L18.4998 256.419V256.427L18.5523 256.532L18.6048 256.637L18.6573 256.742L18.7186 256.839L18.7711 256.944L18.8324 257.049L18.8849 257.154L18.9461 257.25L18.9811 257.32L19.0424 257.416L19.1036 257.521L19.1649 257.618L19.2262 257.723L19.2874 257.819L19.3487 257.915L19.4099 258.02L19.48 258.116L25.2822 259.027L28.1265 255.272L26.4024 248.393L20.4426 246.416L16.8545 250.695L16.8807 250.94ZM38.287 255.263L41.1488 259.018L46.9423 258.116L47.0036 258.02L47.0736 257.915L47.1349 257.819L47.1961 257.723L47.2574 257.618L47.3186 257.521L47.3799 257.416L47.4324 257.32L47.4762 257.25L47.5287 257.154L47.5899 257.049L47.6424 256.944L47.7037 256.847L47.7562 256.742L47.8087 256.637L47.8612 256.532L47.9137 256.427L47.9225 256.419L48.0275 256.2L48.1325 255.981L48.2376 255.753L48.3338 255.526L48.4301 255.298L48.5264 255.071L48.6139 254.843L48.6926 254.616V254.607L48.7364 254.493L48.7714 254.388L48.8064 254.274L48.8414 254.161L48.8852 254.056L48.9114 253.942L48.9464 253.828L48.9814 253.714L49.0164 253.609L49.0427 253.496L49.0777 253.391L49.104 253.286L49.1302 253.181L49.1565 253.076L49.1827 252.962L49.209 252.857L49.2352 252.752V252.743V252.725L49.244 252.69L49.2527 252.673V252.664L49.3053 252.419L49.349 252.174L49.4015 251.929L49.4365 251.684L49.4715 251.439L49.5065 251.185L49.5328 250.94L49.559 250.686L45.9797 246.416L40.0199 248.393L38.287 255.263ZM33.8413 242.609L39.6173 247.203L45.6208 245.217L46.8373 240.062L46.7761 239.966L46.7061 239.878L46.6448 239.782L46.5748 239.686L46.5048 239.598L46.4348 239.502L46.3735 239.414L46.3035 239.318L46.2335 239.231L46.216 239.213L46.1984 239.187L46.181 239.169L46.1722 239.152L46.1547 239.134L46.1372 239.108L46.1197 239.091L46.0934 239.056L46.0234 238.968L45.9622 238.889L45.8921 238.81L45.8221 238.732L45.7609 238.644L45.6909 238.565L45.6208 238.487L45.5508 238.408L45.4808 238.329L45.4721 238.32L45.4633 238.312L45.4458 238.285L45.4371 238.277H45.4283V238.268L45.3495 238.18L45.262 238.093L45.1833 238.005L45.1045 237.918L45.017 237.839L44.9382 237.752L44.8507 237.664L44.7719 237.585L44.6844 237.498L44.6757 237.489L44.6669 237.48L44.6582 237.471L44.6407 237.463L44.6232 237.445L44.6144 237.428L44.6057 237.419L44.5882 237.41L44.5094 237.331L44.4306 237.261L44.3431 237.183L44.2644 237.104L44.1768 237.034L44.0981 236.955L44.0106 236.885L43.923 236.806L43.8443 236.736L43.7918 236.693L43.5992 236.535L43.4067 236.378L43.2054 236.229L43.0129 236.08L42.8116 235.931L42.6016 235.791L42.4003 235.642L42.1902 235.511L41.9802 235.371L41.9627 235.362L41.7527 235.231L41.5339 235.1L41.3151 234.977L41.0875 234.855L40.8688 234.732L40.6412 234.619L40.4137 234.505L40.1861 234.391L39.9586 234.286L33.8325 236.719L33.8413 242.609ZM25.9736 234.513L25.7461 234.627L25.5273 234.741L25.2997 234.864L25.081 234.986L24.8622 235.109L24.6521 235.24L24.4333 235.371L24.4071 235.389L24.2058 235.52L23.9958 235.66L23.7945 235.8L23.5932 235.94L23.3919 236.089L23.1906 236.238L22.9981 236.386L22.8056 236.544L22.613 236.701L22.5605 236.754L22.473 236.824L22.3855 236.894L22.3067 236.973L22.2192 237.043L22.1404 237.121L22.0617 237.191L21.9742 237.27L21.8954 237.349L21.8166 237.419L21.8079 237.428L21.7904 237.437L21.7816 237.445L21.7729 237.454L21.7641 237.471L21.7554 237.48L21.7379 237.498L21.7291 237.507L21.6416 237.585L21.5541 237.673L21.4753 237.752L21.3878 237.839L21.309 237.927L21.2303 238.014L21.1515 238.093L21.064 238.18L20.9852 238.268L20.9765 238.277V238.285L20.9677 238.294L20.9502 238.312L20.9415 238.329L20.9327 238.338L20.924 238.347L20.854 238.425L20.7839 238.495L20.7227 238.574L20.6527 238.653L20.5827 238.732L20.5214 238.819L20.4514 238.898L20.3901 238.977L20.3201 239.056L20.3114 239.073L20.2939 239.099L20.2764 239.117L20.2588 239.134L20.2501 239.152L20.2326 239.169L20.2151 239.196L20.1976 239.213L20.1888 239.231L20.1188 239.318L20.0488 239.414L19.9788 239.502L19.9088 239.598L19.8388 239.686L19.7775 239.782L19.7075 239.878L19.6375 239.974L19.5762 240.062L20.7927 245.217L26.7963 247.203L32.581 242.609V236.719L26.4287 234.303L26.2012 234.408L25.9736 234.513Z" fill="black"/>
</svg>
