<svg id="Capa_1" enable-background="new 0 0 512.04 512.04" height="512" viewBox="0 0 512.04 512.04" width="512" xmlns="http://www.w3.org/2000/svg"><path d="m317.04 0c-107.523 0-195 87.477-195 195 0 48.374 17.713 92.685 46.984 126.803l-18.704 18.704-21.213-21.213-129.107 129.106 63.64 63.64 129.105-129.105-21.213-21.213 18.704-18.704c34.119 29.269 78.43 46.982 126.804 46.982 107.523 0 195-87.477 195-195s-87.477-195-195-195zm-253.4 469.613-21.213-21.213 86.679-86.679 21.213 21.213zm253.4-109.613c-90.981 0-165-74.019-165-165s74.019-165 165-165 165 74.019 165 165-74.019 165-165 165z"/><path d="m392.04 171.928c17.916-10.391 30-29.769 30-51.928h-30c0 6.365-1.998 12.268-5.392 17.129-6.299-15.675-17.737-28.739-32.226-37.107 4.808-7.16 7.618-15.768 7.618-25.022h-30c0 8.271-6.729 15-15 15s-15-6.729-15-15h-30c0 9.254 2.81 17.862 7.618 25.022-14.489 8.368-25.927 21.432-32.227 37.107-3.394-4.861-5.392-10.764-5.392-17.129h-30c0 22.159 12.084 41.537 30 51.928v53.072c0 7.421 1.1 14.588 3.117 21.363-20.435 10.256-33.116 31.059-33.116 53.637h30c0-11.798 7.026-22.315 17.285-27.162 13.768 16.582 34.528 27.162 57.715 27.162s43.947-10.58 57.715-27.162c10.259 4.847 17.285 15.364 17.285 27.162h30c0-22.594-12.697-43.389-33.117-53.637 2.017-6.775 3.117-13.941 3.117-21.363zm-117.42-21.928c6.192-17.459 22.865-30 42.42-30s36.228 12.541 42.42 30zm-2.58 75v-45h30v87.42c-17.459-6.192-30-22.865-30-42.42zm90 0c0 19.555-12.541 36.228-30 42.42v-87.42h30z"/></svg>