<svg id="Layer_1" data-name="Layer 1" xmlns="http://www.w3.org/2000/svg" viewBox="0 0 595.28 841.89"><title>Artboard 3</title><path d="M287.39,129c.13-10.26,3.15-12.95,18.27-17,1-3.82,1.33-7.46,3-10.3,2.89-4.93,8.34-6.31,13.57-7.27,2.76-.5,4.65-1.11,6.29-3.77A10.22,10.22,0,0,1,335,86.63c13.66-2.06,25.71,1.26,34.71,12.28,1.91,2.35,2.56,5.74,3.36,8.84,7.66,6.68,18.2,11.72,14.16,25.39,12.13,6.82,22.31,14.71,17,31.16a59.67,59.67,0,0,0,5.13,3.09c5.82,2.77,9.14,7.51,10.71,13.54a11.93,11.93,0,0,1,.34,5.73c-.82,3.12.53,4.65,2.64,6.71,7.58,7.35,15.33,14.62,22,22.73,9.9,12,18.89,24.77,25.82,38.69A416,416,0,0,1,490,298.23c4.14,11.4,6.59,23.52,8.78,35.5,3.52,19.26,2.17,38.51-2.53,57.48-.93,3.72-.31,6.14,2.25,9.24,8.82,10.69,18.12,21.22,25.24,33C533.5,449.58,541,466.85,543.49,486c2.77,21.32,3.78,42.61-1.58,63.52-6.52,25.45-18.21,48.47-36.16,68-5.56,6-11.24,12-17.21,17.64-12.66,11.91-27.89,19.49-44.36,24.37-9.62,2.85-19.7,4.13-29.45,6.6-17.29,4.38-34.55,8.93-51.72,13.79-10.79,3-21.63,6.15-32,10.36-11.15,4.54-21.93,10.13-30.18,19.42a4.07,4.07,0,0,1-2,1.27c-4.79,1-9.61,2-15.41,3.17,5.33-5.62-1.87-8.68-.87-13.14l-1-.47-6.17,7c4.37,3.22,4.4,4,1.42,8.14-.69,1-.63,2.45-1.13,4.66l4.64-2.11c.18.43.35.87.54,1.29,4,8.77-1,15.7-4.74,22.88-4.31,8.38-8.86,16.64-12.9,25.15-3.32,7-5.87,14.37-9.08,21.42-4,8.71-8.2,17.29-12.43,25.87a18.7,18.7,0,0,1-9.92,9.31c-6.29,2.56-11.24-.1-11.36-6.9a114.22,114.22,0,0,1,1.78-20.1c4.3-26.57,9.19-53,13.2-79.64,2.76-18.31,4.37-36.83,3.23-55.36-.73-12-2.83-23.92-4.17-35.88-2.37-21-12.66-38.71-23.3-56.23q-9.53-15.66-20.09-30.68c-7.3-10.38-15.14-20.39-22.84-30.49-8.3-10.9-16.6-21.78-22.68-34.15-6-12.14-12.64-24-18-36.38-7.18-16.68-13.38-33.82-15-52.14-1.22-14.29-2.8-28.63-2.74-42.94.1-23.44,3.37-46.48,13.5-68.06a211.69,211.69,0,0,1,28.53-45.05,269.16,269.16,0,0,1,37.44-37.5c10.46-8.53,21.95-15.89,33.41-23.07,13.61-8.53,28.31-15,43.42-20.48,2.21-.8,3.35-1.79,3.82-4.4,1.39-7.68,6.06-12.63,13.81-14.45,1-.23,1.95-.4,2.92-.63C286.88,129.57,287,129.39,287.39,129Zm80.82,88.51c5.92,4.81,16.79,6.06,22.26,2.27-7.75,2-15.05,0-22.33-2.19-2-2.74-4.4-5.29-5.91-8.28s-2-6.26-3-9.41C356.81,206.22,361.14,213.72,368.21,217.55Zm.28,293.8-4.63-1.1c.29,9.86.29,9.86,2.8,11a75.29,75.29,0,0,1,.09-7.58c.09-.84,1.2-1.58,1.84-2.36v11.89l.74.34c1.72-3.53,3.43-7.06,5.43-11.19Zm-210-45.68-5.37,3.93c6.1,2.17,14.36-3.5,14.39-9.42l-9.16,5.62a52.83,52.83,0,0,0,5.1-4.93c.72-.88.64-2.41.93-3.64l-3.26.63c-.3.06-.61.1-.91.15l.67-5.35L148.73,459c.26,2.59,1.87,3.22,4.13,2.32,2.56-1,5-2.3,7.52-3.47l-9.18,6.82c.48,1.69,1.6,2.78,4.06,1.81A25.66,25.66,0,0,1,158.53,465.67ZM124.3,360.79c2.65-2.81,6.74-4.5,7.15-10a25.33,25.33,0,0,0-3.3,1.69c-1.56,1.14-3,2.43-4.51,3.67-1,.84-2,1.71-3,2.57l3.83,2c-4.12,2.14-4.12,2.14-2.72,5.6,9-2.46,14.69-8.38,12.07-13.35-1.39,1.79-2.42,3.69-4,5S126.16,359.84,124.3,360.79ZM325.38,572.05c5.83-5.77,12.12-11.41,12.19-20.43A128,128,0,0,0,336.33,533c-.79-5.6-1.91-11.31-6.57-15.47a41.46,41.46,0,0,0,1.89,7c4.9,14.14,3.76,27.91-2.6,41.33-1,2.19-2.38,4.24-3.58,6.36l-15.77,13.2,4.62,3ZM225.13,451.89l-8.21-3.42c-5.06,17.11-7.72,33.5-4.15,50.4.48-3.59.28-7.22.52-10.82.8-11.93,3.1-23.5,9.25-34,.56-1,1.78-1.54,2.69-2.29-2.82,7.52-6,14.92-8.37,22.59-2.39,7.94-2.26,16.23-1.8,25.38,2.21-8.62,3.83-16.35,6.22-23.83s5.63-14.94,8.55-22.55c-1-.45-1.83-.93-2.75-1.25A9.63,9.63,0,0,0,225.13,451.89Zm-38.79-70.61c-1.9,1.51-3.73,3.12-5.72,4.49-3.08,2.12-6.27,4.06-9.34,6,1.58,4.43,3.88,2.31,5.56,1.17,14.83-10,30.25-18.88,47.1-25.11a7.3,7.3,0,0,0,1.42-1,7.8,7.8,0,0,0-4.53.22c-8.89,3.53-17.75,7.15-26.6,10.78-2.7,1.11-5.36,2.34-8,3.52,1.36-1.08,2.58-2.51,4.12-3.19,10.27-4.48,20.61-8.8,30.92-13.2,1.31-.56,2.54-1.28,3.82-1.93l-.51-1.38a25,25,0,0,0-4.08.46c-5.86,1.69-11.79,3.21-17.5,5.33-10.87,4-21.22,9.15-30.07,16.83a34.6,34.6,0,0,0-3.69,4.45l1,1.29q2.22-1.23,4.45-2.45ZM205,211.18c-2.49,4.63-5.39,9.09-7.36,13.92-2.21,5.42-1.46,10.89,2.5,15.94,1-1.39,1.85-3,1.52-4.31-1.86-7.26.29-13.78,3.52-20,6-11.53,21.83-16.9,33.27-10.89,4.72,2.48,8.72,6.35,13,9.66,1.48,1.15,2.67,3.2,5.12.65-5.77-5.79-11.5-11.1-19.81-13.3-10.11-2.69-18.92,0-27.52,4.83,1.28-1.22,2.34-2.84,3.85-3.62,12-6.24,26.12-5,36.36,3.29,2.7,2.18,5.11,4.71,7.81,6.89a20.75,20.75,0,0,0,4.11,2.05L262,215c-4.75-6-11-10.2-17.82-13.5-6.35-3.09-12.9-6.07-20.37-5-16.13,2.27-31.58,17.06-31.9,37-.06,3.93,1.23,7.88,2,12.48,3-1.86,4-2.92,2.85-5.7-4.2-10-.3-18.69,5.09-26.95C202.49,212.36,203.92,211.89,205,211.18Zm78.23,149.65c-1.32,0-2.64.1-3.95,0-8-.67-12.55-6.08-11.78-14.06.68-7.09,7.61-14.12,14.92-15.21,10.59-1.58,25.85,6.67,27.92,20.68,2,13.39-6.69,28.84-23.31,33.84-21.11,6.35-38.23.23-49.7-17.72-9.36-14.63-8.88-31.09-.17-46.18a55.71,55.71,0,0,1,21.56-21.48c6.22-3.34,12.71-7.65,19.41-8.37,14.82-1.57,29.64-.55,43.67,6.1,17.81,8.43,29.49,22.08,35.64,40.37s4.67,36.61-2.83,54.25c-6.53,15.35-15.29,29.11-29.4,39-15.77,11.07-33.73,15.07-52.29,16.69-15.22,1.32-29.91-2.7-44.28-7.28-22.48-7.15-40.86-20.1-54-39.85-5.31-8-10.76-15.85-13.25-25.36a118.77,118.77,0,0,1-3.62-39.32c1.48-19.8,4.57-39,16.81-55.65,7.28-9.89,15-19.39,24.12-27.54,13.15-11.72,28.87-19,45.39-24.73,17.24-6,35.18-6.74,53-5.93,18.61.86,37.18,3.52,55.65,6.16,11.64,1.66,23.18,4.15,35,3.13,11.19-1,21.34-4.62,28.53-14,.71-.93,1.23-2,2.24-3.7a8.59,8.59,0,0,0-1.36.54c-.46.47-.89.95-1.34,1.43-7.14,7.66-15.67,13.24-26.31,13.3a191.55,191.55,0,0,1-31.1-2.28c-24.48-3.9-48.62-9.8-73.79-8.53-16.39.83-32.42,3.36-47.67,8.87A130.78,130.78,0,0,0,179,269.3c-14.27,17.55-23.23,36.93-25.49,59.6-2.54,25.42,1.24,49.23,14.6,71.34a99.85,99.85,0,0,0,34.39,34.28c18.71,11.29,39.33,16.9,61.15,18.57,18.76,1.43,36.27-3.29,52.81-11.07,24.13-11.36,38.5-31.69,45.43-56.64,5.39-19.46,4.53-39.12-5-57.89-6.27-12.3-14.82-22.15-26.55-29.19-10.58-6.36-22.5-8.43-34.56-9.8a60.91,60.91,0,0,0-30.15,4.43c-10.39,4.24-19,11.33-26.37,19.77-20.8,23.7-14.73,60.39,13.6,74.44,19.21,9.53,45.6,2.94,56.3-14.32,4.53-7.32,7.11-21.63.69-31-6.25-9.08-14.87-12.62-25.48-12.3-9.89.29-16.7,5.51-19.14,14.95-1.36,5.27-.51,10.17,3.82,14.05C273.17,362.28,277.75,363.56,283.21,360.83Zm47.71-74.19c5.5,7.22,11.54,13.75,20.71,16.51a98.78,98.78,0,0,0,39.76,3.62c8.51-1,16.32-4.47,24-8.37-3.51-5.55-4.08-5.8-9.36-4.15-6.3,2-12.45,4.81-18.89,5.77C366.73,303.05,347.77,299.32,330.92,286.64Zm82.15,265.23c3.74,8.22,4.46,16.38.06,24-5.57,9.72-12.75,18.35-23.22,23-6,2.63-7.33,7.13-8.56,13.11a41.09,41.09,0,0,0,4-1.47,92.85,92.85,0,0,0,23-16.17c11.18-10.89,13.91-24.27,11.2-39.1C418.75,550.85,417.88,550.53,413.07,551.87Zm-4.77-261c-3.64-5.8-8.3-3.33-12.57-2-9.08,2.91-18.2,4.55-27.84,3.68-12.24-1.12-24.21-2.85-35.44-10.15C343.69,300.42,384.66,304.66,408.3,290.91Zm-73,152.67c-5.09,11.85-2.78,42.6,4.58,49.55-1.38-8.4-3.2-15.7-3.61-23.09s.57-14.9.91-21.79c20.69,5.84,40.29,5.94,59.35-3.74C376.15,449.81,355.89,448,335.3,443.58ZM450.35,620l1-.6c-.29-1.17-.31-2.52-.93-3.46-4.16-6.27-9.61-11.09-17.13-12.63-14-2.88-26.69.47-37.29,10-8.52,7.68-12.73,17.37-11.44,29.51l5.93-.54c.56-3.69.73-6.87,1.57-9.85,2-7.16,4-14.66,10-19.59,12.06-10,34.83-10,44.92,3.32C448,617.5,449.2,618.69,450.35,620Zm22.49-15.8c1.41-1.24,3.12-2.26,4.16-3.75,3-4.33,5.93-8.74,8.52-13.33,2.33-4.11,4.1-8.54,6.26-12.75,1.87-3.65,4.48-7,5.82-10.83,4.89-13.89,2.93-27.68-1.57-41.27a84,84,0,0,0-3.86-8.5l-1.49.35C497.57,546.66,494,577.06,472.84,604.15ZM333.73,278.59c6,12.4,46.07,16.29,67,6.55-4.1-2.2-7.74-3.95-12.68-2.87a90.19,90.19,0,0,1-42.27-.84C341.83,280.41,337.85,279.55,333.73,278.59Zm136.5,322.52c21-20.46,25.54-63.76,18.31-82-4.09,2-4.22,5.17-3.53,9.3,1.24,7.47,3.06,15.22,2.27,22.6-1.87,17.38-6.69,33.94-20,46.86Zm-124.68-298c4,6.32,9.65,8.45,15.73,9.84,11.89,2.72,23.72,1.73,35.47-.84,7.7-1.68,15.32-3.69,21.94-8.09-.51-3.13-2.39-3.31-4.51-2.74a30.4,30.4,0,0,0-5.62,2c-10.08,5.07-20.84,6.19-31.91,5.77A102.08,102.08,0,0,1,345.55,303.12ZM327.12,518.6c-4.31,1-2.32,3.78-1.54,5.41,8.23,17.1-1.66,47-21.57,54.53,2.73,4.36,4.24,4.57,8.63,1.83C334.6,566.69,337.43,536.59,327.12,518.6ZM321,520.46c-.57,2.15-1.2,3.37-1.13,4.54a34.34,34.34,0,0,0,1.07,5.83c3.08,13-.29,23.85-10.87,32.2-3.22,2.53-6.69,4.74-10.39,7.35.87,1.91,1.72,3.76,2.5,5.45C320.9,573.72,334.2,536.69,321,520.46Zm-.68-89.32c-13.07-10.58-20.35-24.7-26.23-39.44-4.54.55-3.58,3.39-3.13,5.69,2.68,13.55,9.35,25,19.14,34.58C314.36,436.16,315.11,436,320.31,431.14ZM419.73,307c-21.07,8.31-42.51,12.3-65.2,7.28,1.61,1.91,3.31,3.7,5.38,4.38a53.07,53.07,0,0,0,11.47,2.52c13.2,1.24,26.14,0,38.32-5.61C413.61,313.77,417.85,312,419.73,307ZM278.49,458.4a51.2,51.2,0,0,0,1.24,6.11c1.64,4.84,3.4,9.64,5.24,14.42,5.69,14.82,15.9,26.45,26.75,37.65,1.61,1.66,2.47,1.62,3.52-.41-15.43-16.79-25.48-36.37-31.33-58.46Zm33.69-8.13c-3.23.76-6.82.6-6.66,5.53.55,16.3,2.14,32.31,12,46.19,1,1.48,1.92,3.08,3,4.57.93,1.32,2,2.57,3,3.85l1.11-.61C314.74,491.16,312.15,471.07,312.18,450.27Zm-.83,186.8c-.91,5.93-1.37,11-2.5,15.94-3.32,14.54-19.16,24.87-33.57,21.82-4.92-1-5.2-.66-6.39,5.69,10.26,1.5,19.7-.08,28.14-6,13.21-9.34,19.73-22.14,19.39-38.93ZM481.57,525.83c-3.95,4.14-3.71,4.1-2.41,11.88,3.24,19.33.64,37.21-14,51.71-2.38,2.36-1.69,3.76.61,5.23C481.41,584.63,490.7,544.49,481.57,525.83ZM341.68,411l5.24-7.85c-7.16-3.6-13.92-6.39-20-10.24s-11.54-8.79-17.33-13.3C309.7,389.4,326.84,406.3,341.68,411Zm-125.45-167c15.7,15.42,24,34.79,32.24,54.42a10.17,10.17,0,0,0,.68-5.5c-3.51-18.55-13.77-33.82-24.23-48.94C222.11,240,221.15,240.18,216.23,244.05ZM261.59,459c6.48,26.33,32.28,57.39,45.2,62.49C287.4,504.65,275.9,483,267.68,459Zm3.75,16.45c-5.11,6.5-4,7.94-.28,14,5.71,9.4,13.47,17.19,21.87,24.21,5.35,4.48,11.36,8.18,17.07,12.23l1.12-1.25A151.92,151.92,0,0,1,265.34,475.41ZM420.47,316.9c-7.22,6.85-15.24,12.8-24.82,15.62-9.41,2.77-19.22,4.15-29.11,6.2.56,1.64,1.23,3.64,2.18,6.45C390.66,344.19,408.3,335.69,420.47,316.9Zm-256.06-6c22.27-.93,43.75,2.18,65,7.58a63.17,63.17,0,0,0-13.9-6.31c-14.73-4.43-29.56-8.57-45.18-8.07C165.06,304.28,164.77,304.65,164.41,310.92Zm146.82,209c-16.75-17.48-29.65-37.06-34.86-60.69h-5.68C272,476.44,299.72,518.47,311.23,519.92Zm9-7.88c-4.68-10-10-18.73-12.83-28.19-2.89-9.66-3.35-20-4.91-30.33l-8.64,2.67C298.14,477,305,496,320.2,512ZM298.45,284.21l1.5.38a34.82,34.82,0,0,0,2.16-4.32c5.44-15.91,6.08-32.38,5.34-48.95-.28-6.22-.84-6.38-7.89-5.2C304.09,245.49,300.62,264.84,298.45,284.21Zm-66.86,30.66.61-1.2c-1.37-1.14-2.66-2.41-4.13-3.41a161.56,161.56,0,0,0-48-22.11c-6.46-1.79-7.14-1.34-9.8,5.74C191.9,297.42,212.84,302.94,231.59,314.87ZM230.33,508l5.61-.38c3.27-8.53,5.81-17.12,9.79-25s9.36-14.91,14.13-22.32C247.26,464.68,229.56,493.93,230.33,508Zm21.26-213c3.41-2.47,3.39-2.47,2.76-5.49-3.43-16.4-11.14-30.95-19.66-45.12-1.5-2.49-3.63-4.59-5.53-7l-4.94,2.25C235.78,256.94,247.51,273.75,251.59,295Zm-28.12,64.19,0-1.71c-1.76-.18-3.62-.8-5.27-.45a134.76,134.76,0,0,0-16.8,4.18c-11.58,4-22.92,8.66-32.26,17-3.63,3.24-3.68,3.72-.4,7.52C184.42,371.8,203.57,364.76,223.47,359.23ZM238.39,234c12,17.52,19.69,36,21.19,57.18,3.16-2.3,3.16-2.3,3.09-5.58-.42-18.76-7.16-35.4-17.21-50.9a25.35,25.35,0,0,0-2.53-2.87c-.89.36-1.5.58-2.09.87S239.4,233.47,238.39,234Zm-.51,149.18c-18,8.08-32.53,20.12-42.71,37.25,1.16,1.07,1.84,1.79,2.62,2.39s1.81,1.23,3.07,2.07C210.41,408.27,223.54,395.23,237.88,383.19ZM227.6,321.46c-1.22-.55-2.5-1.24-3.85-1.73-12.88-4.61-26.41-5.73-39.88-7a104.23,104.23,0,0,0-16.29,0c-4.89.31-5.2,1.05-4.53,6.59.94-.07,1.89-.08,2.84-.21,11.51-1.56,23.06-2.26,34.57-.3,7.8,1.33,15.52,3.09,23.28,4.64C225.4,323.82,227.48,325,227.6,321.46Zm54.78,74.9c-3.1,14.89.57,28.42,7.9,41.13,3.74,6.48,5.39,6.64,12.34,2.09C292.75,426.7,284.27,413.12,282.38,396.36Zm-52-87.1c-11-12.32-30.67-24.5-46.1-29-5.75-1.68-6.36-1.37-8.85,4.88A183.1,183.1,0,0,1,230.37,309.26Zm23.32-80.17c10.1,17.59,15.18,36.77,17.78,56.87a17,17,0,0,0,1.21-7c-.35-16.3-2.91-32.16-9.91-47.06C260.34,226.69,259.5,226.48,253.69,229.09ZM416.25,414.41c.14-3.77.15-3.79-1.89-4.82-2.8-1.41-5.62-2.78-8.43-4.18a71,71,0,0,1-31.36-30c-1.44-2.64-2.51-5.49-3.76-8.25a24.51,24.51,0,0,0,.36,8.45c1.75,7.87,6.37,14.07,12.1,19.49A80.18,80.18,0,0,0,416.25,414.41ZM245.58,231.18c11.14,17.71,18.9,36,19.07,56.84,3.94-.12,3.88-2.34,3.71-4.54-1.33-17-5.42-33.15-13.46-48.24-1.07-2-2.29-3.9-3.5-5.93ZM160.7,343c20.28-6.05,40.84-7.5,62-7.7-.57-.76-.63-1-.74-1a138.62,138.62,0,0,0-57.47,1C159.68,336.37,159.57,336.89,160.7,343Zm82.56,43.32c-9.33-.14-33.54,24.26-40.87,40.15l5.64,2.84C217.69,413.23,228.48,398.65,243.26,386.29Zm30.22,11-1.47-.13c-5.09,14.13-6.08,28.45-1.19,42.9,2.24,6.64,3.28,7,10.28,5.07a1.75,1.75,0,0,0,.7-.37c-2.82-7.79-6.66-15.17-8-23S273.48,405.44,273.48,397.26ZM165.14,379.14c4.53-3.22,8.59-6.67,13.15-9.21,12.61-7,25.74-12.75,40.25-14.75,1.28-.17,3.34-1.52,3.4-2.43.2-2.8-2.34-2.31-4-2.09a85.75,85.75,0,0,0-10.67,2,116.35,116.35,0,0,0-40.95,20.51C164.31,374.73,162.76,376.26,165.14,379.14Zm58.58-46.69.37-1.91a22.87,22.87,0,0,0-4.38-1.6c-7.68-1.17-15.38-3-23.08-3.06-10.38-.07-20.79,1.08-31.15,2.07-4.83.46-5.59,2.05-4.11,6.52C181.92,329.26,202.75,329.34,223.72,332.45Zm-62-5.31c21.36-4.41,42.49-3.7,63.74.23a7.64,7.64,0,0,0-4-2.77c-18.35-4.93-36.89-7.1-55.84-3.76C162.28,321.42,160.92,322.83,161.68,327.14ZM369.4,378.43c-2.58,5.95-1.06,10.33,2.12,14.2A77.84,77.84,0,0,0,412,418.81a15.31,15.31,0,0,0,3.95.05l.58-1.46C397.06,409.22,379,399.36,369.4,378.43Zm-32-148.68c-.86,7.94-1.27,15.51-2.56,22.93-2.08,12-7.34,22.87-12.2,33.88-.43,1-.07,2.26-.08,3.41,1.18-.49,2.88-.63,3.44-1.51a81.68,81.68,0,0,0,5.7-10.38c4.81-10.8,6.77-22.36,8.45-34a97.11,97.11,0,0,0,.8-11.32C341.05,230.39,339.87,229,337.43,229.75ZM325.87,508.28l1.7.18c.41-1.18,1.21-2.4,1.13-3.55a13,13,0,0,0-1.43-4.19,93.28,93.28,0,0,1-7.86-47.8c.2-2.17.57-4.32.88-6.61-5,.84-6.24,3.95-6.16,7.92.28,13.42,1.64,26.73,5.59,39.6C321.25,498.81,323.79,503.47,325.87,508.28Zm-65.8-63.07c-3.45-17.27-.16-33,7.05-49.25a14.54,14.54,0,0,0-2,1.31c-10.1,12.89-13.48,28.06-14.71,43.9-.07,1,1.33,2.71,2.38,3.06C254.84,444.91,257.16,444.87,260.07,445.21Zm2.93-48.6-1.22-1.44c-1.26.87-3,1.45-3.71,2.64-7.16,11.73-14.09,23.59-16.73,37.35-1.23,6.37-.17,7.61,7,8C249.38,426.5,253,410.57,263,396.61Zm68.83,42.84c20,9.16,60.54,7.4,71.81-.28-22.27,3.77-44.66,5.26-66.79-4.45C335.48,436,333.72,437.68,331.83,439.45Zm-52.65-43.28c-3.63,1.35-3.77,1.58-4.32,5.07-2.25,14.11.91,27.17,7.82,39.46,2.54,4.52,2.86,4.54,8.51,1.9C282.46,428.57,277.61,413.44,279.18,396.17Zm114,244.7c3.92,0,4.63-1.72,4.67-4.76.17-11.66,7.09-20.81,17.83-24.09,11.28-3.45,21.65.07,28.59,9.67.36.51.82,1,1.21,1.41,3.05-1,2-2.4.84-4.07-6.67-9.59-15.89-12.71-29.38-10.46-5.13.85-11,3.16-14.49,6.77C395.88,622.08,393,631,393.14,640.87ZM303.92,284.44l1.16.34a18.47,18.47,0,0,0,1.57-2.85c5.82-16.65,9.23-33.72,8.7-51.45-.13-4.38-1-4.9-5.43-4.12-.41,9.84-.35,19.6-1.35,29.25S305.51,274.83,303.92,284.44ZM415.68,407.12c1.33-5.57-2.8-6.16-6-7.67-13.09-6.23-24.87-13.91-30.49-28.19-1.09-2.76-2-5.58-3.26-8.27-.49-1.07-1.6-1.85-2.93-3.33C371.21,376,394.18,401.9,415.68,407.12ZM293.41,226c1.19,19.3,2.7,38.49-.61,58.09,3.83-.76,4.05-3.37,4.28-5.4,1.2-10.82,2.62-21.64,3-32.5.22-6-1.39-12.08-2.21-18.13C297.59,225.82,296.43,224.81,293.41,226Zm-100,193.48c2.1-3,3.66-5.54,5.51-7.83,8.89-11,19.14-20.42,31.47-27.5a52,52,0,0,0,4.91-3.65l-1.3-1.62c-18,7.92-32.75,20.14-45.8,35.74Zm240.15-87.64c21.63-10.27,39.43-4.51,54.58,13.79.71-4.59-1.2-6.9-3.17-9-8.74-9.46-18.66-15.59-32.54-14.09a59,59,0,0,0-15.57,3.8C434.93,327.06,432.57,328.34,433.52,331.84ZM317,227.14c1.18,20.31-3.45,39.45-8.62,58.75a6.62,6.62,0,0,0,3.44-3c1.49-3.48,2.71-7.09,4-10.66,4.74-13.25,6.12-27,6.21-41C322.06,228.23,321.45,225.88,317,227.14Zm117.3,111.08c19.82-10.3,35.22-3.28,48.55,11.22,2.7-1.29,3.51-2.68,1.41-4.71-3.3-3.21-6.2-7-10-9.52-11.6-7.63-24.05-8.59-36.84-3C435,333.3,432.55,334.75,434.32,338.22ZM287.54,394.64c-2.3,1.12-2.51,1.48-2.07,5,1.69,13.76,8.09,25.36,16.72,35.87,3.59,4.36,4.25,4.29,8.63.82-4.84-6.45-10.4-12.47-14.28-19.42S290.47,402.09,287.54,394.64Zm63.8-1.54c-7.09-2.42-14-4.21-20.41-7.11s-12.26-6.88-18.37-10.38c2.78,9.26,25.33,23.94,35.81,24.24C349.29,397.74,350.27,395.52,351.34,393.1ZM232,236.43c5,8.94,10.31,17.33,14.47,26.25s7.27,18.56,10.75,27.65c-.09.14.19-.1.18-.32-.88-19.39-8.13-36.5-18.79-52.41C236.54,234.46,234.42,234.42,232,236.43Zm-51.28,40.88c19.7,5.81,36.54,16.46,51.73,30.1a8.33,8.33,0,0,0-1.74-3.36,120,120,0,0,0-41.21-30.39C184.15,271.26,184,271.44,180.76,277.31ZM291.82,456.46l-5,1.22a15.49,15.49,0,0,0-.16,1.94,9.21,9.21,0,0,0,.31,2,126,126,0,0,0,27.29,50.63,22.75,22.75,0,0,0,3.44,2.65l1.14-1C304.24,497.58,296.25,478.25,291.82,456.46ZM275.45,284.94l1.32.3c.49-1.69,1.39-3.39,1.39-5.08,0-5.91-.13-11.85-.62-17.74-1-11.44-4.6-22.2-9-32.73-1.15-2.73-2.67-4-4.82-2.51,2.91,9.87,6.33,19.17,8.28,28.76S274.35,275.26,275.45,284.94Zm-43.19,91.21c-19,6.74-35.58,17.07-49.29,32.49l4.33,4.08A170.54,170.54,0,0,1,232.26,376.15ZM209.73,248.58c15.61,15,27.59,32,35.22,52.11a3.21,3.21,0,0,0,.34-2.38c-6.12-18.65-14.31-36.17-28-50.67C214.35,244.5,213.92,244.56,209.73,248.58ZM323.62,228c1.27,20.54-3.31,39.88-10.44,59a4.72,4.72,0,0,0,3-2.2c1.87-4,3.58-8.14,5.3-12.24,5.4-12.85,7.3-26.31,6.94-40.15C328.31,229.83,328.43,227.08,323.62,228ZM302.44,527.72c-16.87-11.27-31.72-24.48-42-42.18-3.23,3.63-3,7.17-.13,10.72a33.59,33.59,0,0,0,3.43,4.22c6.62,6,13.07,12.17,20.1,17.62C289.31,522.36,295.35,526.1,302.44,527.72Zm-82.9-22.09,1,.2c3.79-8.7,6.84-17.83,11.57-26s11-15.13,16.57-22.5c-4.47-1.81-7.69.06-10.62,4A101.09,101.09,0,0,0,219.9,501,34.17,34.17,0,0,0,219.54,505.63ZM371.76,234.74h-4.88c-2.36,8.19-4,16.17-7,23.57s-7.4,13.94-11.4,21.26C357.79,277,372.34,248.7,371.76,234.74Zm-114,382.81c-3.52-1.66-5.29-.5-5.66,2.93-1.42,13.28,4.75,27,18.29,32.48,1.31.53,3.86.21,4.68-.73,1.84-2.1-.68-3-2-4-.65-.49-1.46-.77-2.16-1.2-7.78-4.79-12.56-11.5-13.1-20.81C257.6,623.43,257.74,620.62,257.74,617.55Zm-76.3-211.46c8.13-6.36,15.48-12.75,23.48-18.2s16.58-9.87,24.9-14.75l-.53-.9a157.51,157.51,0,0,0-51.58,29.37C179.25,403.47,180.4,404.84,181.44,406.09ZM400.21,638.46c5.29-1.26,7.28-3.25,7.58-7.83s1.46-8.78,5.39-11.69a17.52,17.52,0,0,1,24.2,3.58,10.72,10.72,0,0,0,1.4,2c.52.43,1.75.88,2,.65a3,3,0,0,0,.95-2.31,10.47,10.47,0,0,0-1.87-3.41c-4.7-6.14-11.51-6.63-18.37-6.37C408.27,613.61,398.23,625.54,400.21,638.46ZM161.58,365.71c18.55-9.31,36.88-18.52,57.6-21.38,1.06-.14,2-1.26,3.84-2.52-2-.47-2.59-.8-3.18-.74-20.25,2.19-38.44,10.65-56.76,18.66C160.4,360.9,160,363,161.58,365.71Zm84.73,23.66c-2.64-1.19-2.62-1.16-5.23,1.08-10.51,9-18.64,20-26.54,31.25a90.68,90.68,0,0,0-4.74,8.53l4.86,2.08c4.86-7.76,9.07-15.43,14.22-22.4C234.14,402.79,240.33,396.35,246.31,389.37ZM257,394c-13.75,12.28-21.15,27.79-24.09,46l6.1,1.8C239.75,423.54,249.74,409.35,257,394Zm133.42-31.35c2.49,5.75,2.82,6,8.25,3.68a54.43,54.43,0,0,0,26.45-23.82c1.22-2.19,1.48-4.91,2.18-7.38l-1.22-.53C418.3,349.34,405.12,357,390.37,362.69Zm-187.9-109.2a117.4,117.4,0,0,1,39.81,49.33c-5.83-21.35-18.34-38.28-34.28-53.4ZM306,595.33l-1.42-1.42c-.37,1.07-.49,2.36-1.17,3.17a32.25,32.25,0,0,1-5.48,5.65A47.92,47.92,0,0,1,263.85,612a11.62,11.62,0,0,0-3.94-.06c-1.31.34-2.46,1.29-4.17,2.25C277.37,622.45,302.44,612,306,595.33Zm1.19-212.75c-2,3.16-2.14,3.59-.39,6.95,6.51,12.51,16.71,21.46,28.44,29.52l4.79-5.81C325.89,406,314.34,396.69,307.17,382.58Zm-121-112.34a133.72,133.72,0,0,1,49.65,36.49,8.06,8.06,0,0,0-1.09-3.16c-10.78-16-25.36-27.58-42.29-36.47C189.12,265.37,187.57,267.13,186.14,270.24Zm223.54,175.2c18.8,9.66,56.41-3.52,61.78-22.16a42.26,42.26,0,0,0-7.23,5.25c-2.28,2.11-4.05,4.84-6.49,6.72-12.17,9.36-25.8,12-40.63,8C414,442.43,411.4,442.12,409.68,445.44ZM302.92,385.77c-2.93,9.57,14.43,33.78,27,39.26l4-4.35C321.08,411.19,309.63,401.29,302.92,385.77ZM284.24,283.53l1.87.14a51.45,51.45,0,0,0,1.31-7,196.89,196.89,0,0,0-3.37-46.35c-1-5.43-1.18-5.47-7.05-4.21C281.94,244.9,286.27,263.79,284.24,283.53Zm.88-58c3.56,19.44,5.56,38.44,4.53,57.71,5.58-19.05,2.78-38.24,1.81-57.71Zm65.22,5.89c-1,8.2-1.35,16.14-3.06,23.78s-4.73,14.69-7.18,22l1,.75a13.51,13.51,0,0,1,.88-1.79c8.15-11.59,13.11-24.35,14-38.56C356.34,232,356,231.75,350.34,231.44ZM327.14,426.8a7.35,7.35,0,0,0-.78-1C315,416.19,305,405.63,300,391.24c-.28-.82-1.37-1.36-2.09-2l-1,.51c.25,1.86.14,3.87.81,5.57,4.92,12.38,11.61,23.64,21.67,32.63C322.69,430.9,323.39,430.71,327.14,426.8ZM166.81,302.54c19.51-.76,37.95,4.43,56.39,9.9a11.62,11.62,0,0,0-3.19-2.36,168.52,168.52,0,0,0-45.82-13.75C168.24,295.4,168,295.71,166.81,302.54ZM317.75,287.7l1,.58c1.13-1.67,2.61-3.2,3.33-5,3.55-9.05,7.17-18.09,10.23-27.31a57.22,57.22,0,0,0,2.21-24c-.24-2.3-.74-3.94-3.3-3-1.19,10.13-1.54,20.28-3.77,30S321.06,278.12,317.75,287.7ZM207.87,236.48c-2.9-8.08-1.07-14.77,3.65-20.84,5.09-6.55,11.93-8.56,19.88-6.89,5.92,1.24,11.33,3.49,15.2,8.53,1,1.35,2.43,2.93,4.11.54-5.33-8.92-18.76-14.92-27.28-12.65-11.24,3-19.39,11.82-20.7,23.31-.36,3.12.42,6.36.73,10.11Zm105.8,62.32c1.72,12-2.08,22.94-6.46,34.18a5.71,5.71,0,0,0,3.84-1.53,48.1,48.1,0,0,0,10.61-20.94c1.73-8.2,1.4-9.11-6.53-11.81C314.86,298.6,314.51,298.73,313.67,298.8ZM191.11,264.33c19.48,10.24,35.66,23.43,47.92,41.16-9.09-20.36-26.1-32.86-43.39-45.36C193.88,261.75,192.71,262.84,191.11,264.33Zm77.42,135.83c-6.93,10.07-9,26.32-7.74,38.08.8,7.71,1.44,8.11,9.18,7.85.26,0,.51-.34,1.16-.8C264.41,430.74,264.83,415.54,268.53,400.16ZM462.28,588.55c15.07-10.79,20-40.92,13-55.45-2.17.89-2,2.32-1.57,4.4,2.16,9.73,1.05,19.4-1.28,29-1.84,7.53-6.81,13-13,17.86ZM360.09,321.74c2.09,6.22,3.83,7.83,10.43,7.74,13.56-.17,26.63-2.67,38.44-9.81a19.75,19.75,0,0,0,2.31-1.9C394.61,324.65,377.64,324.3,360.09,321.74Zm-29.62,182,2.42-.6c-1-6.56-4.61-12.55-5.56-19.12-1-6.83-2.48-13.68-2.52-20.53s1.45-13.48,2.28-20.33c-5,.71-4.87,4.75-5.39,7.94A80.43,80.43,0,0,0,324,485.9C325.63,492,328.26,497.82,330.47,503.77ZM220.1,337.21c-18.9-.15-37.6,1.39-55.89,6.38-4.38,1.2-4.67,2.14-3.23,7.6C180.26,344.79,199.69,339,220.1,337.21ZM256.38,495c-.23,3.68-2.57,6.8,1,9.54,8.67,6.61,17,13.77,26,19.75,5.29,3.49,11.8,5.13,17.77,7.6l.58-1.27C283.7,522.84,269.8,509.87,256.38,495Zm61.85-135c.08,4.49,3.13,5.26,5.47,6.24A63.35,63.35,0,0,0,335,369.81,112.3,112.3,0,0,0,352,372.37c5.88.3,6.87-1.58,5.06-8.05C343.93,367.75,331.39,364,318.23,359.9Zm-2.41,10.87c-.45.49-.9,1-1.36,1.45a24.11,24.11,0,0,0,3.32,3.83,80.6,80.6,0,0,0,31.35,14.07c2.16.49,3.54,0,4.27-2.07.51-1.46,1-2.95,1.6-4.9C340.19,383.26,327.84,377.53,315.82,370.77Zm40.55,3.62c-13.91,1.52-26.3-4-38.83-8.63-2,2.6.38,3.37,1.66,4.25A64.72,64.72,0,0,0,350,381.08C355.62,381.64,356.08,381.07,356.37,374.39Zm22.45-95.77c2.12-.58,4.16-1.23,6.25-1.67,3.31-.7,4.13-2.54,3.38-5.75-1.71-7.39-2.92-14.91-4.83-22.24-1.06-4.08-3.13-7.9-4.75-11.84.24,7,1.46,13.72,1.54,20.41S379.43,271.19,378.82,278.62Zm19.46,157.2a95.89,95.89,0,0,1-48.79-14.31c-.7,1-1.33,1.72-1.82,2.55s-.8,1.69-1.34,2.87C362.78,436.25,379.93,439.39,398.28,435.82Zm24.4-117.26c-12.83,18.55-31.24,27-53.11,29,.08,5.07.32,5.49,4.45,4.38,6.7-1.79,13.62-3.23,19.86-6.11C406.37,340.09,417.16,332.07,422.68,318.56Zm72.37,190.17-1.47.5c2.37,6.68,5.31,13.23,7,20.08s2,14.11,3,21.26a15.57,15.57,0,0,0,4.84-15.08A52.49,52.49,0,0,0,495.05,508.73ZM292,294.47a93,93,0,0,1,5,30.54c0,1.15,1.58,2.3,2.42,3.45l1.24-.41a67.66,67.66,0,0,0,1.51-26.7C301.27,294.67,299.67,293.74,292,294.47Zm86.92,178.19c-1.89,3.85-.53,6,3.08,6.83a21.38,21.38,0,0,0,5.35.55c11.62-.26,20.63-6.37,29.15-13.36,2.07-1.7,3.55-4.11,5.3-6.2C397.8,474.48,392.93,476,378.94,472.66ZM256.23,458.89l-1-1.13c-1.5.64-3.26,1-4.42,2a84.79,84.79,0,0,0-8.41,8.33c-8.74,10.17-14.5,22-18.32,34.75-.75,2.52-1.31,5.14,3.37,4.4C232.61,488.68,240.28,471.37,256.23,458.89Zm154.88,94.36c-3.73,1.88-3.66,1.87-3.12,5.16,1.68,10.25-.29,19.42-8.46,26.5-3.34,2.9-7,5.47-10.51,8.16-1.6,1.22-3.88,2-2.82,4.81a5.71,5.71,0,0,0,1.2,0,8.61,8.61,0,0,0,1.37-.57c10.41-5.29,17.91-13.55,23-23.82A20.67,20.67,0,0,0,411.11,553.25ZM288.71,325.58l1.41-1.21c-2.3-9.79-5.82-19.1-12.32-27-.75-.93-2.85-1.31-4.18-1.08-2.11.37-4.09,1.46-6.85,2.52,8.79,6.89,14.38,15,18.82,24C286.17,323.93,287.65,324.65,288.71,325.58Zm85-82.31c-4,13.41-11.05,25.19-19.94,37.06,3.44,0,5.78.28,8-.1,1.41-.24,3.37-1.16,3.85-2.3C370.24,266.84,374.91,255.71,373.7,243.27ZM294.28,531.74C278.52,526.46,267,515,254.43,504.83c-1.88,4.58-1.9,7.69,2.11,10.84C267.72,524.46,280.56,529.05,294.28,531.74Zm93-174.26c.55,3.14,2.19,3,4.42,2.36,9.76-2.89,17.84-8.62,24.94-15.55,3.33-3.25,5.51-7.74,7.89-11.84.7-1.22.3-3.07.4-4.62C411.63,344.19,406.55,348.3,387.29,357.48ZM163.5,373.32a131.55,131.55,0,0,1,58.33-26,3.58,3.58,0,0,0-2.48-.95c-9.42.32-18.18,3.28-26.68,7q-13.81,6.09-27.5,12.47C162.39,367.16,160.73,369.33,163.5,373.32Zm139.15-77.85c4,11.84,1.32,23.34,1,35,1.86-1.58,3.4-3.2,3.89-5.08,1.73-6.64,3.64-13.31,4.45-20.09C312.9,297.8,311.43,296.64,302.65,295.47ZM260.57,618c-4.62,12.62,5.45,28.16,17.31,29.42l2.8-4.25c-10.14-5-17.09-12-15.88-24.24Zm74.91-118.23c1.79-7.37-2.55-13.13-3.13-19.43-.61-6.55-1.87-13.08-1.92-19.62,0-6.27,1.11-12.54,1.74-18.81C323.44,454.87,326.29,486.39,335.48,499.77ZM230.34,173.43c1.88,8.79,16.19,17.83,29.6,19.6,12.33,1.63,30.7-6.11,36-15.34C272.9,194.91,251,194.84,230.34,173.43Zm114.13,56.7c-2.88,15.51-5.68,30.59-8.49,45.68,1.38-.56,2.46-1.26,2.8-2.21,2.57-7.28,5.56-14.47,7.28-22,1.31-5.68,1-11.74,1.3-17.64C347.45,231.88,346.7,230,344.47,230.13Zm63.8,202.35a121.12,121.12,0,0,1-54.78-16.24L351.06,420C369,431,387.91,435.06,408.27,432.48ZM269.78,226c2.87,9.79,6.36,19.13,8.21,28.77s2,19.31,2.86,29a11,11,0,0,0,1.8-5.33c1.22-17.1-2.76-33.48-6.95-49.84C274.83,225.23,272.63,225.25,269.78,226Zm96.82,163.5c-2.4,3.22-1.4,5.92.75,8.54,11.39,13.88,26.73,20.6,43.82,24.14a4.29,4.29,0,0,0,1.48-.28l.28-1C393.86,415.79,378.23,405.67,366.6,389.52ZM234.67,292.15c-9.16-14.34-18.3-28.67-34.21-36.94-1,.94-1.78,1.57-2.45,2.27a7.85,7.85,0,0,0-.83,1.42C210.75,268.82,223.94,279.1,234.67,292.15Zm84.44,63.79c-.08.37-.16.74-.23,1.1a25.25,25.25,0,0,0,4.17,2.33c9.64,3.26,19.43,5.41,29.7,3.77,5.85-.94,7-3.39,3.77-9.06C344.4,359.5,331.78,358.14,319.11,355.94Zm-88.25,83.44a95.68,95.68,0,0,1,21.79-46,84.29,84.29,0,0,0-27.72,43.68Zm48.94-145,14.4,31.69c1.73-8.28,0-15.46-1.54-22.61-2.23-10.05-2.76-10.36-12.84-9.08C279.68,294.44,279.57,294.58,279.8,294.42Zm-30.59,96.84C235.41,403,224,416.51,217.16,433.48c1.18.75,1.7,1.15,2.28,1.44,1,.51,2.06.95,3.61,1.65C228,419.17,237.4,404.52,249.21,391.26ZM396.08,370c4.67,5.41,5.63,5.51,10.84,1.78,8.76-6.27,15.32-14.45,20.38-23.83,1.15-2.13,1.41-4.73,2.08-7.11l-.93-.36C421.68,354.47,410.43,363.64,396.08,370ZM218.66,513.88c-4.34,12.46,12.08,29.14,27.86,29,.34-3.56-1.23-5.06-4.8-5.86-11.56-2.62-19.2-11-18.95-20.26a3.9,3.9,0,0,0-.33-1ZM344.28,278.64c11.9-12.49,17.92-27.49,19.65-44.83l-5.71-1.63C358.48,249.47,352.12,264.24,344.28,278.64Zm-26.35,73.09c8.46,6.14,29.13,5.53,39.53-.68l-1.37-6.87C344,350,331.57,352,317.93,351.73ZM210.37,502.3c-3.18-18.52-.26-36.52,4.67-54.58l-5.19-2.07C205.7,465,204.13,483.73,210.37,502.3Zm72.7-176.46.8-1.4c-3.37-7.89-7.52-15.22-14.26-20.94-5-4.23-7.3-4.08-11.54,1.6,8.69,4.5,15.51,11.08,21.29,18.85C280.1,325,281.81,325.23,283.07,325.84Zm29,11.62c9.47-6.42,18.36-20.69,19.07-30.59-2-1-4.08-2.13-6.46-3.38-1,11.46-5.48,20.87-12.21,29.34C311.51,334.09,309.38,335.4,312.11,337.46Zm5,187.1c-3.49,1.6-2.51,3.89-1.76,6.38,2.7,8.91,1.46,17-5.5,23.68-2,1.9-4.58,3.19-6.88,4.76-2.63,1.81-5.1,3.69-3.33,7.54C317.34,559.43,325.41,542.05,317.12,524.56Zm36.75,107.53c-4.31,0-4.18,0-6.08,3.71-6.81,13.08-15.57,24.09-30.87,27.72a5.93,5.93,0,0,0-4.88,4.76C327,665.6,347.37,652.25,353.87,632.09Zm-24.53-440.7-1.18-.45c-.83.95-1.6,2-2.51,2.85-4.8,4.69-9.25,9.88-14.62,13.8-3.06,2.22-7.66,3.23-11.55,3.22-10.94,0-20.15-4.33-27-13.11a28.28,28.28,0,0,0-3.51-3.21l-.83,1c4.21,5.36,8.16,11.15,15,13.59a93.64,93.64,0,0,0,15.75,4.22c3.3.56,7.19.65,10.19-.58,8.51-3.47,14.72-9.87,19.33-17.77A14.34,14.34,0,0,0,329.34,191.39ZM426,299l1.08.71c6.14-3.71,10.28-8.78,10.58-16.41.46-11.75-5-20-15-25.71-1.15,2.54-1.15,2.54,1.51,4.83,10.63,9.12,11.9,23.72,3,34.29A10.7,10.7,0,0,0,426,299ZM379,481c.68,5.79,2.06,6.82,7.84,6.32,13.65-1.17,24-8.57,33.28-17.79.68-.67.66-2,1-3.08C408.41,475.79,396.28,484.92,379,481ZM234.6,336.76c8.54.95,16.55,1.92,24.57,2.65,1.37.12,2.83-.77,4.24-1.19-1-1.15-1.76-2.89-3-3.35a134.14,134.14,0,0,0-16.94-5.45C236.31,327.82,234.57,329.67,234.6,336.76ZM382.26,489.38c2.35,6,2.75,6.56,8.24,5.24,12.81-3.1,23.06-10.34,31.38-20.41.39-.48.35-1.31.63-2.5-6.66,4.5-12.63,8.8-18.87,12.68C397.19,488.4,389.86,489.46,382.26,489.38Zm-29.8-154.63c-10.79,7.51-21.95,12.64-35,12.62,7.08,4.67,28.58,1.09,38-5.95-.41-1.12-.81-2.36-1.33-3.54C353.8,337,353.26,336.18,352.46,334.75Zm17.65,19.95c-.41,3.44,1.12,3.82,3.81,3.51,16.23-1.88,29.13-10.19,40.7-20.94,2.5-2.32,4.13-5.58,6.16-8.41l-.91-.77C407.33,344.34,389.84,351.31,370.11,354.7ZM294.7,175.62l-.57-2.23c-20.76,17.64-40.59,14.89-60-1.76,5.58,10.93,15.45,14.77,26.45,16.09C274,189.33,285.29,184.75,294.7,175.62Zm53.77,150.93c-10.11,7.14-20,14.05-31.8,17.54,11.19,1.34,17.82-.47,30.14-7.81C352.05,333.15,352.23,332.35,348.47,326.55Zm42.89-52.46c5.18-1.89,6.1-2.71,4.65-7-3-9-6.51-17.94-10.06-26.79a7.56,7.56,0,0,0-5.9-5.07C387,247.7,387.92,261.24,391.36,274.09ZM340.15,452.18c-.83,3.85-.37,5.05,3.83,5.59,5.72.73,11.59,1.5,17.29,1,8-.7,16-2.2,23.37-6.28-7.65.55-15,1.53-22.36,1.48S347.57,452.83,340.15,452.18ZM479,412.05a1.84,1.84,0,0,0-.63.08c-11,6.78-22.3,11-34.87,3.65-.48-.29-1.72.69-3.86,1.62,3.31,2.12,5.45,3.89,7.9,5,9.1,4.12,17.71,2.15,26.09-2.42C476.7,418.31,479.13,416.34,479,412.05ZM290.66,171.52c-1.4.18-2.53,0-3.29.49a43,43,0,0,0-4.79,3.52c-6.25,5-13.36,6-21.08,5s-13.91-5-19-10.73c-2.07-2.34-3.41-1.81-4.74.49C248.68,186.77,282.14,188,290.66,171.52Zm-55.47,185.3,26.36-6.55c.66-1.71-.09-3.16-2.37-3.48-7.8-1.08-15.55-.93-23,1.95-1.05.41-2,2.35-2.08,3.65C234,353.91,234.84,355.51,235.19,356.82Zm56.87,180.83c-13.87-1.7-26.58-6.29-39-12.5-.19,8,0,8.41,6.44,10.22A83,83,0,0,0,287,538.43C288.68,538.33,290.37,537.92,292.06,537.65Zm33.06-346.81-.76-.81c-2.36,2.28-4.84,4.45-7.05,6.87-8.82,9.62-18.27,11.83-29.93,6.24-3.94-1.9-7.29-5-10.93-7.55-1-.72-2.15-1.36-3.62-2.29-.08,1.27-.21,1.62-.1,1.87a6.32,6.32,0,0,0,.83,1.23c6.06,7.75,14.3,11.73,23.84,12.7a20,20,0,0,0,10.51-1.82A38.22,38.22,0,0,0,325.12,190.84Zm-107,307a120.11,120.11,0,0,1,21.84-42c-1.7-.42-2.64-.65-3.58-.9s-2.18-.58-3.67-1C224.23,467.47,220.88,482.52,218.16,497.86ZM239.05,614.8c3.44-3.65,6.54-7,9.69-10.28a50.2,50.2,0,0,0,12.57-24.25c.48-2.14,0-4.49,0-6.74l-1.35,0a16.59,16.59,0,0,0-.73,2.23c-1.83,10.25-7,18.71-14,26.17-1.91,2-4.11,3.78-6.19,5.65S236.48,611.57,239.05,614.8ZM342.17,317.28c-7.47,9.62-15.51,18.21-26.3,23.9,12.32-2.54,22.36-9,32.16-17.22Zm-205.27-44c14.07,6,38.19-5,43.61-22.51-10.47,13.46-23.16,22-41.5,18.87Zm230.45,6.5c7.23.52,7.81.18,9.5-5.69,3-10.43,2.15-20.84-.28-31.27C376.65,255.76,371.88,267.54,367.35,279.74Zm-71,263.79c-13.61,2.77-27.16,3.27-40.87.47.69,5.73,1,6.26,5.51,6.38a171.15,171.15,0,0,0,18.82-.25C285.84,549.62,291.65,547.94,296.37,543.53Zm-26,39.14c-4.93,7.92-8.54,15-13.38,21.14s-11,11.48-16.53,17.11c.11,0,.43.27.66.2a13.31,13.31,0,0,0,2.3-.88c11.62-6.07,19.74-15.58,26.08-26.75a16.82,16.82,0,0,0,2-6C271.66,586.05,270.81,584.52,270.34,582.67Zm245.72-95.42c4.09-1.39,7.57-2.77,10.3.52s-1.32,4.46-2.68,6.44c3,1.3,4.72.81,5.29-2.34a70.91,70.91,0,0,0,.66-12.72,3.3,3.3,0,0,0-2-2.35c-4-1-8.11-1.78-12.43-2.67C515.45,478.19,515.73,482.39,516.06,487.25ZM277.71,325.75a48.75,48.75,0,0,0-17.48-17.46c-5.73-3.42-7.15-2.94-10.34,3.28,3.61,1.52,7.5,2.61,10.77,4.67,4.28,2.7,8.12,6.12,12.07,9.33C274.28,326.83,275.57,328.71,277.71,325.75ZM455.78,560.47c-11.13,6.22-21.71,10.68-32.69.46.53,5.92,6.89,11.54,12.36,11.91C445.63,573.53,453.91,568.9,455.78,560.47Zm-228-189.87-.55-1c-.31-.07-.66-.26-.93-.18-18.45,5.19-34.44,15.12-50,25.91-2.68,1.86-.71,3.09.76,4.53C192.5,387.14,209.5,377.81,227.76,370.6Zm105.73-61.52a69.92,69.92,0,0,1-17,28.28,14.74,14.74,0,0,0,5.84-2.61c4.48-3.89,8.87-7.89,13-12.12,5.88-6,5.72-7.45-.46-12.91A7.71,7.71,0,0,0,333.49,309.08ZM413,398.66l1.3-1.38a32.22,32.22,0,0,0-4.38-3.14c-11.42-5.69-20.88-13.35-26.2-25.31-1.14-2.56-2.18-5.18-3.45-7.68-.35-.69-1.37-1-2.89-2.12C381.79,380.18,395.1,391.53,413,398.66ZM261.62,464.52l-1.17-.31a87.86,87.86,0,0,0-21.29,42.14c3.68.14,4.71-1.68,5.45-4.1,3.73-12.33,7.71-24.54,16.4-34.55C261.62,467,261.44,465.6,261.62,464.52ZM445.34,627c1.22.64,2.12.81,2.33,1.28.9,2,2.35,4.15,2.18,6.13-.23,2.72-2.81,1.82-4.78,1.72-.66,0-2,1.24-1.95,1.68.19.92,1.07,2.29,1.8,2.38a9.75,9.75,0,0,0,4.82-.55c4.08-1.67,8-3.64,11.82-5.39l-7.8-12.44a1,1,0,0,0-.62.11C450.93,623.29,448.73,624.74,445.34,627ZM384.39,357.72c-4.49,6.75,11.42,30.3,27.77,34.28-2.2-2.62-3.6-4.53-5.25-6.19-6-6-13.94-10.15-17.78-18.27C387.66,364.43,386.14,361.35,384.39,357.72ZM423,569.08c-1.63,3.64-1.16,6.13,1.89,8.09,7.31,4.69,20.81,3.75,27.5-2,2.54-2.17,2.54-2.17,1.66-6C446.49,576.66,431.26,578.25,423,569.08ZM243.4,318.63A50.09,50.09,0,0,1,266.13,329c2,1.55,4.19,3.05,6.07-.85a38.5,38.5,0,0,0-19.15-13.27C247.45,313,247.31,313.17,243.4,318.63ZM276.68,663c-2.1,3.14-2.09,3.61.69,4.51a14.37,14.37,0,0,0,4.87.66c8.5-.33,18.81-8.07,21.39-16.26,1.29-4.09,1.65-8.32-1-13.14-.88,1.32-1.71,2.06-1.88,2.93-.42,2.27-.42,4.61-.82,6.88C297.75,660.78,288.56,666.46,276.68,663ZM254.47,536c-1.41,4-.07,5.69,3.73,6.5a79.48,79.48,0,0,0,29.53.31c3.61-.59,7.08-2.1,10.61-3.18l-.25-1.28C283.36,542.44,269,540.25,254.47,536ZM395.08,233.14l-.69,1.44c8,6.43,12.86,15,16.83,25,2.19-3.37,5.88-5.21,3.9-8.79-3.69-6.67-8.31-12.69-15.27-16.36C398.44,233.66,396.68,233.55,395.08,233.14Zm42.31,60.13c6.28-2.57,12.49-5.33,18.85-7.68,6.95-2.58,13.32.9,20.07,3-1.5-4.72-6.29-7.79-12.08-7.88C453.21,280.56,443.59,283.58,437.39,293.27ZM413.82,425.5c-19.38-4.71-37.28-11.94-50.1-28.53-1.71,3.84.21,6,2.32,7.89C379.63,417.05,395.09,425,413.82,425.5ZM209.6,234.72c3.33-1.82,3.33-1.82,3.09-5.15-.54-7.26,2.38-13.16,7.78-15.75,7.35-3.51,12.46-2.77,18.58,2.73a22.72,22.72,0,0,0,2.92,2.66c.89.55,2.08.6,3.95,1.08-6-9.2-19.73-13.06-27.67-8.59C210,216.34,206,226.77,209.6,234.72Zm28.89,91c8.53,2.88,17,5.79,25.6,8.58.65.21,1.6-.49,2.41-.76-.33-.82-.43-1.91-1-2.41-5.48-4.62-11.51-8.23-18.62-9.87C241.41,320,240.32,320.52,238.49,325.68ZM517.61,518.16c1.91-.36,3.17-1,4.12-.69,1.95.63,4.26,1.35,5.44,2.83,1.53,1.92-.55,3-2.13,4.08-.45.29-.23,1.6-.32,2.45.89-.07,1.94.14,2.62-.27s.75-1.39,1.06-2.14c2.15-5.18,2.11-10.54,1.66-15.89l-11.76-2.4C518.09,509.93,517.87,513.7,517.61,518.16Zm-357-159.88L206.42,341a208.19,208.19,0,0,0-46.22,12.55Zm310,179.84c-3.11,2.85-3.15,3.21-2.45,7.06,2.08,11.54,1.21,22.32-8,31-1,.93-1.18,2.67-1.74,4C470.41,573.72,476.79,549.56,470.64,538.12Zm40.79,4.31c3,3.06,5.49,5.25,7.32,7.9.27.4-2.61,3-4,4.5,4.15,2.47,9.53-4,11.2-13.65l-11.19-6.44C513.64,537.35,512.35,540.31,511.43,542.43Zm2.5,29.67L501.84,561c-1.12,2.49-2.25,5-3.49,7.71a14,14,0,0,1,3,1.49c1.63,1.49,3.72,2.9,4.5,4.81,1.1,2.66-1.44,3.4-3.44,4.39-.65.32-.85,2.33-.57,3.38.14.52,2.09,1.1,2.84.77a9.46,9.46,0,0,0,3.85-2.89C510.56,577.86,512.24,574.82,513.93,572.1Zm-269,99.78c8.51-3.08,16.56-5.58,22-12.63,3.17-4.09,2.81-4.93-2.4-6.64-4.38,7.9-12.17,11-20.37,13.45ZM424.84,451.75c-3.71-3-4.48.12-5.65,1.39-10.38,11.24-22,19-38.28,14.11-.14,0-.32.07-.5.12-1.87,2.15-.56,3.42,1.45,3.85a27.79,27.79,0,0,0,8.28.85c10-1,18.55-5.65,26.35-11.58C419.63,458.1,422,454.75,424.84,451.75ZM307,637.49c-.55.92-.94,1.3-1,1.71a7.53,7.53,0,0,0,0,2.46,21.5,21.5,0,0,1-6.23,20c-6.45,6.52-14.16,10.43-23.63,7.28-3.13-1-3.23.5-3.75,2.43,7.92,4.11,19.63,1.59,26.65-5.52C307.67,657,311.17,645.18,307,637.49ZM253.4,515c-1.84,6.36-1.7,6.83,2.88,9.49,9.29,5.39,19.52,8,30,9.89a23.19,23.19,0,0,0,4.17,0C277.17,529.94,264.23,525.24,253.4,515Zm11.48,172.59c5.95,1.87,11.24,2.21,16.36-.44,5-2.56,9.74-5.47,14.68-8.09,6.13-3.24,10.78-8.06,14.88-13.49a22.74,22.74,0,0,0,1.67-3C301,677.53,287,685.79,267.19,682,266.52,683.64,265.84,685.27,264.88,687.57ZM480.79,351.12c-7.42-11-18-15.66-30.51-15.95-4-.09-8.24,1.94-12.19,3.47-2,.78-3.33,2.66-1.08,4.91,12.6-10.54,24.15-7.86,41,9.35a10.91,10.91,0,0,0,1.27-.56A15.76,15.76,0,0,0,480.79,351.12ZM245.48,546.5l-.09-1.69c-1.92.27-4.07.08-5.72.89-11.57,5.73-23.08,7.19-34.81,0,1.48,4.91,4.86,7.55,9.3,8.14C225.48,555.31,236.1,553.28,245.48,546.5Zm184.73,84.61L422,633.89c.56,1.23.93,2.11,1.37,3,1.1,2.17.93,4.14-.91,5.84s-3.4,2.42-5.73.79c-.65-.46-2.19.36-3.33.59.84.95,1.65,2.68,2.51,2.71,5.49.15,11-.06,16.1-.15C431.33,640.91,430.78,636.12,430.21,631.11ZM272.65,619.47c-5.15-.48-6.59.7-6,4.84a19.92,19.92,0,0,0,10.08,14.47c3.91,2.32,5.58,1.33,6.73-3.57C277.43,631.82,272.34,627.57,272.65,619.47Zm91.5-288.59c.25,3.85,2.53,4.86,5.45,4.72,2.63-.12,5.24-.6,7.86-.93,10.58-1.33,20.8-3.76,29.79-9.9.95-.65,1.93-1.26,2.85-2s1.66-1.43,2.48-2.16C397.58,329.52,381.42,332.12,364.15,330.88ZM511.43,457.59a7,7,0,0,0,1.36-.39c2.36-1.68,5-2.46,7.14-.14,1.58,1.71,3.23,4.11-.1,6.05l2.22,2.84c.75-1.23,2.28-2.58,2.12-3.68-.86-5.85-2.3-11.58-6.17-16.06l-11.36,1.26C508.24,450.84,509.77,454.08,511.43,457.59ZM381.86,439.72c-13.51-.47-25.67-5.31-37.52-11.29-.75.61-1.47,1.29-2.28,1.83s-1.94,1.11-2.92,1.65C353,441.1,367.6,439.26,381.86,439.72ZM205.58,500.06l1.39-.38c-3.48-14.1-2.56-28.34-1.24-42.77-3.59.82-5.42,2.82-5.28,6,.37,8.2.67,16.42,1.62,24.55C202.57,491.73,204.37,495.86,205.58,500.06Zm52.78,52.33c-.07,3.54,1.33,4.9,4.71,5.08,10.27.55,20-1.72,29.44-5.36,1.19-.45,1.94-2,3.4-3.66-7,1.46-12.81,3.2-18.78,3.8C271,552.87,264.65,552.39,258.36,552.39Zm19.58-360.34-.9,1.52c6.29,7.06,14.32,11.33,23.76,10.66,9.87-.71,15.63-8.11,21.07-15.81-3.54-1.79-4.1,1-5.25,2.5-5.74,7.56-12.94,11.56-22.74,9.81A22.66,22.66,0,0,1,280.93,194,14.71,14.71,0,0,0,277.94,192.05ZM481.69,404.78c-4-1.3-6.17,1.58-8.4,3.46-7.91,6.67-16.31,6.9-26.23,2.29l-2.59,2.77C453.62,422.15,476.15,415.36,481.69,404.78Zm-60.32,173c-2.51,3.19-1.32,4.89,1.56,6.44,8.86,4.79,22.79,2,30.22-3,.94-.63,1.24-2.21,1.83-3.34C443.48,584.56,432.57,584.23,421.37,577.81ZM236.05,607.2c11.72-8.43,19.16-18.74,21.66-32.9-3.31.48-5.12,1.21-5.15,4.34a9.46,9.46,0,0,1-1.62,5.12c-4,5.6-8.12,11.1-12.39,16.49C237.05,602.13,234.69,603.44,236.05,607.2Zm128.89-75.77,3.19-2.73c-2.91-3-5.27-6.1-8.25-8.37-6.51-4.94-16.9-5.22-22.32-1.07-1.75,1.34-2.94,2.69-.64,4.54C348.83,518,352.56,519,364.94,531.43Zm146.18,3.82c4.23-12.63,2.92-13.47-6.89-25.05-4.16-4.92-5.06-5.41-9-4.64C503.13,514.26,509.12,523.72,511.12,535.25ZM429.61,349.13a83.73,83.73,0,0,1-25.69,27.33c2.59,2.7,4.57,2.07,6.56.35,3.35-2.91,6.66-5.89,10.12-8.67C426.71,363.25,428.56,356.4,429.61,349.13ZM361,404c-2.47,3.8-2.13,5.07,3.13,8.41,10.41,6.58,21.81,10.92,33.57,14.37a24,24,0,0,0,4.18.47c-7.27-3.23-14.59-5.85-21.25-9.64C373.81,413.72,367.66,408.68,361,404ZM255.47,573l-.19-1.11-10.12.71c-11.26.8-20.29-4.51-25.11-14.67a9.94,9.94,0,0,0-2.06-2.21c-.45,1-1.48,2.25-1.26,3.14,1.58,6.34,4.61,12.12,11.31,13.81,6,1.52,12.37,1.86,18.6,2.13C249.55,575,252.53,573.68,255.47,573Zm-21.11-227.2c8.3-.36,16.48-.7,24.67-1.11A14.11,14.11,0,0,0,262,344c-.82-.8-1.55-2.17-2.48-2.31-6.68-1-13.38-2.2-20.11-2.43C233.83,339,233.25,340.42,234.36,345.84Zm156.43-111.7-.19.67L406.21,265c3.4-3,3.7-3.32,1.74-7.51a84.06,84.06,0,0,0-7.58-13.82C397.77,240,394,237.27,390.79,234.14Zm34,313.86c-.47,1.45-.73,1.82-.64,2,3.8,9.68,16.63,13.34,24.75,7.07a35,35,0,0,0,4.54-3.85,25,25,0,0,0,6.63-14,6.46,6.46,0,0,0-3.26,2.56c-2.5,3.66-4.33,8-7.5,10.94-7.69,7.07-13.54,6.9-20.86-1C427.36,550.69,426.27,549.57,424.77,548ZM177.42,250.53l-1.33-1.22a79.81,79.81,0,0,0-6.85,6.11c-5.52,6.12-12.19,9.4-20.52,9-2.58-.11-5.15-.29-7.7-.44-.41,3.58.78,4.81,4.63,4.77,10.83-.11,19.86-4.44,27.32-12.09A50.9,50.9,0,0,0,177.42,250.53ZM386.1,170.2c-6.27,5.13-12.13,10.9-18.92,15.22-7.13,4.53-15.51,6.06-25,5.49C358.38,196.13,376.84,188.16,386.1,170.2ZM363.06,533a68.77,68.77,0,0,0-4.87-6.23,15.12,15.12,0,0,0-18.27-2.27c-1.64,1-3.6,2.07-2.09,3.79,4.55,0,8.74-.95,12.17.26,3.63,1.29,6.52,4.63,10.24,7.46Zm112.38-178.7c-5-8.82-14.66-14.69-24.12-14.83a14.9,14.9,0,0,0-10.93,3.9c-1.48,1.39-2.38,2.82.08,4.46,1.07-.78,2.12-1.54,3.16-2.32,5.34-4,10.87-4.36,16.7-1.06,4,2.24,7.39,5,9.45,9.17C471.15,356.38,473,356.61,475.44,354.29ZM388.23,236.37l-.61.75c4,10.92,8,21.84,12.05,32.91,3-.7,3.67-2.85,2.95-5.83-2.17-8.95-6.72-16.71-11.93-24.16C389.85,238.83,389.05,237.59,388.23,236.37Zm48.08,390c-2.13-7.8-11.21-10-19.28-7.09-5.56,2-8,7.1-6,13.34,1.66-2.34,3-4.52,4.61-6.44,5.08-6,10.44-6.09,15.71-.15C433.13,628,434.56,627.83,436.31,626.32ZM263.73,578.14c-3,15.62-12.27,27.19-22.68,38.23a53,53,0,0,0,9.88-7.93c6.75-6.92,12.36-14.63,15.24-24C266.84,582.24,267.68,579.85,263.73,578.14Zm53.38,38.21-.3,1.59c2.66.71,5.28,1.61,8,2.1,11,2,22.06,3.9,33.13,5.64,1.6.25,3.38-.62,5.08-1l-.2-.89ZM139.91,434.28c4.78-2.9,4.05-8.27,6.41-11.83s4.46-7.72,7-11.37,5.45-6.93,8.19-10.37C152.24,402.66,139,423.62,139.91,434.28ZM422.2,478.21c-10,8.76-20.57,16.5-34.16,19.43,2.16,3.84,5.17,3.43,8,2.4C407.34,495.92,415.56,488,422.2,478.21ZM261.7,560.66c.8,2.91,2.75,5.05,6.61,4.12,6.1-1.47,12.24-2.89,18.2-4.83,2.8-.91,5.22-3,7.82-4.54l-.43-.54Zm223.37,33c2.17,1.68,4.13,2.74,5.43,4.33,1.65,2,1.94,4.13-1.35,5.3-.91.33-1.5,1.58-2.23,2.4,1.29.07,3.06.72,3.78.11,3.2-2.69,6.1-5.75,8.75-8.32-3.53-4.42-6.54-8.2-9.82-12.33ZM409.89,380.05c4.78,2.91,5.73,3.05,9.09-.15,7.68-7.33,13-15.86,13.27-26.19-2.7,4.56-5.09,10.05-8.78,14.43S414.64,376,409.89,380.05Zm-52,30.41c-2.92,3.24-2.85,4.67,1.26,6.4,8.48,3.58,17.14,6.76,25.75,10a32.55,32.55,0,0,0,5.25,1.42c1.76.35,3.57.47,5.37.69C382.38,423.73,369.09,419.24,357.89,410.46Zm-210-46.55c-3.47,4.53-6.14,9.17-9.91,12.62-4,3.6-9,6-13.44,9.11-.88.63-.95,2.39-1.55,4.05C134.53,388.32,148.85,373.23,147.84,363.91Zm314.94,63-.83-1.13a61.34,61.34,0,0,0-6.12,5,28.93,28.93,0,0,1-14.12,8.63c-7.09,1.73-14.07,1.15-21-.75-2.29-.63-4.21-1.08-5.16,1.78C432.25,447.64,455.79,439.14,462.78,426.89Zm-122.9,32c-.68,4.13,1.69,4.53,4.05,5,8.29,1.53,16.54.69,24.64-1.05,3.7-.79,7.12-2.92,10.66-4.44l-.4-1.17C366.09,460.88,353.26,462.66,339.88,458.91Zm37,150.18c-4.39-3.22-42.06-6.78-47.13-4.33C346.22,605.8,361.24,610.69,376.89,609.09Zm40.76-225c2.72.38,5,3,7.37,0,4.24-5.35,7.91-11,9.56-17.73,1.6-6.55,1.57-10.3-.15-14.3C434.28,365.84,427,375.3,417.65,384.1Zm-75.83,88.82c-.06,2.84.94,4.15,3.78,3.89,1.8-.16,3.7.43,5.44.08,6.59-1.34,13.18-2.75,19.66-4.54,1.9-.52,4.24-1.75,3.91-5.29C364.08,472.6,352.93,472.44,341.82,472.92Zm32.53,6.87-.91-1a53.07,53.07,0,0,1-26.45,7c2.13,5.48,3.36,6.37,8.06,5.37a37,37,0,0,0,17.12-8.48A18.5,18.5,0,0,0,374.35,479.79ZM212.46,511.44c-3.11,10-10.72,14.41-20,16.36.57,3.09,1.78,4.3,4.28,3.56,7.94-2.37,14.22-7,18.31-14.21C216.35,514.93,216.33,512.67,212.46,511.44Zm30.92-345.63c2.39,7.7,13.06,13.47,23,13.37,8.26-.08,14.9-3.21,19.66-10.15-6.79,4.18-13.54,7.47-22,7.31C255.2,176.16,249.39,171.22,243.38,165.81ZM427.28,303c11.19-1.26,18.29,4.83,25.56,10.51,2.17-4.82,2-5.32-3.21-9.39C443.5,299.3,433.07,298.41,427.28,303ZM263.71,469.84l-1.55-.38a67.5,67.5,0,0,0-14.66,32.46,8,8,0,0,0,2.95-3.11c4.25-8.19,8.49-16.39,12.59-24.67C263.66,472.9,263.5,471.29,263.71,469.84ZM302,595.18c-3.67-.93-6.16-.09-8.3,2.57a29.44,29.44,0,0,1-4.8,4.21c-7.05,5.62-15.35,6.37-23.92,6.12a26.8,26.8,0,0,0-3.77.4C277,612.8,293.78,606.84,302,595.18Zm55.48-372.3,1.12-1c-3.07-10.53-17-18.63-29.7-17.25-6.22.68-13.66,6.37-14,11.75a36,36,0,0,0,3.83-3.65A15.81,15.81,0,0,1,331,206.39c10.31-.59,17.59,4.15,22.8,12.73C354.69,220.57,356.22,221.64,357.44,222.88ZM201.17,537.1c.89,5.82,5.74,7.94,10.2,9.79,9.3,3.85,18.27,2.14,26.66-3.32a18.27,18.27,0,0,0-7.87.17C219.37,546.54,209.5,545.91,201.17,537.1Zm167.17,84,0-1.68c-2.75-.31-5.51-.53-8.24-.93-11.79-1.72-23.56-3.54-35.36-5.21a29,29,0,0,0-5.41.23l0,1.38C335.72,616.36,351.61,622.27,368.34,621.06Zm82.59-227.39c-1.69,4.09-2.57,7.57-4.41,10.45a33.9,33.9,0,0,1-18.19,13.82c-2.6.89-4.06,2-2.88,5.36,10.87-4.15,19.6-10.7,25.52-20.7a12.09,12.09,0,0,0,1.24-5.23C452.28,396.35,451.52,395.28,450.93,393.67Zm-69.8,71c13.62,5.11,31.1-1.82,37.21-15.34-2,1-3.3,1.38-4.19,2.18-2,1.77-3.66,3.82-5.57,5.65-6.75,6.43-14.78,7.85-23.41,5.11C382.35,461.33,382.12,462.7,381.13,464.63ZM252.75,379.31c2.75-7.7,8.7-12.64,15.43-17.12a6.8,6.8,0,0,0-4.25.15,135,135,0,0,0-12.57,6.71c-6.28,4-6.17,5.73,0,9.63A14.88,14.88,0,0,0,252.75,379.31Zm-82.48,33.54c-10,5.27-19.14,17.41-18.15,23.61l20-20.53ZM387.48,591.22c15.58-7.1,23.18-24.94,16.59-34.56-.12,1.81-.43,2.81-.2,3.66,1.38,5.12.64,10.06-2.58,14.06a77.59,77.59,0,0,1-10.81,10.55C388.44,586.62,386.63,587.93,387.48,591.22Zm-147-223.61,3.21,4.17L264.38,359C259.05,356.77,247.12,360.82,240.43,367.61ZM271.58,656.1c-4.32,7.32-10.83,11.77-18.53,14.69-2.16.82-4.26,1.83-6.44,2.59-2.37.82-3,2.15-2,4.36C256.45,677,267.94,667.91,271.58,656.1Zm72.27-177.2c.33,3.74,1.72,4.67,4.37,4.63,9.63-.16,18.49-2.26,25.73-9.11C364.26,477.64,354.42,479.57,343.85,478.9Zm57.24,162.3-6.54,2.31c-.14,3.57.22,6.38-.47,8.9-1.18,4.26-6-1.33-7.74,2.35,3.46,3,11.06,1.86,16.48-2.13C402.26,648.94,401.73,645.46,401.09,641.2ZM459.2,320.77c3.52-4.34,6.06-8.36,9.47-11.41s7.91-5.39,11.92-8c-3.75-2-6.92-1.5-12,2C462.79,307.38,458.33,312.13,459.2,320.77Zm-82.43,143-.46-1.35c-11.44,4.78-23.34,4.67-35.35,3.38-1.12,3.71.63,5,3.64,4.75,6.58-.49,13.23-.76,19.69-2C368.6,467.75,372.62,465.43,376.77,463.78ZM315.91,185.44l-1.47-.1c-.49.81-1,1.61-1.46,2.43-4.37,7.56-11,10.45-19.22,7.92-3.26-1-6.25-2.84-9.4-4.23a25.37,25.37,0,0,0-3.44-.86c9.21,12.64,29,11,34.94-2C316.26,187.71,315.91,186.5,315.91,185.44ZM174.25,488.73c1.68-3.57,1.55-6.46-1.13-9.15-3.79-3.81-3.68-8.55-2.84-13.39.23-1.31.55-2.62,1-4.84C163,470.08,164.62,483,174.25,488.73Zm303.89,9.1c-9.7-3.95-11.89,3.66-16.12,8.24,1.89.92,3.44,2,5.16,2.39,1.34.29,3.54.22,4.21-.61C473.87,504.76,475.87,501.28,478.14,497.83Zm36.93,21.31c.72-9.33.6-9.82-2.94-12.57-6.4-5-9.94-6.16-13.49-5ZM239.91,221.62c-3.89-8.78-13-10.05-20.46-5.44-4.81,3-6.54,10.63-2.49,16.21.81-6.53,1.24-12.42,7.49-15S235.26,218.09,239.91,221.62Zm-93.07,135.6c-.6.16-.83.15-.89.25a32.5,32.5,0,0,0-2.32,3.76c-3.91,8.54-9.9,14.69-19.22,17.25-3.5.95-2.1,3.33-1.53,5.5C133.91,381.37,147.77,365.91,146.84,357.22Zm91.61,7,23.94-9.44c-4.78-2.81-18.6-.09-26.14,5.33C237.11,361.72,238,363.39,238.45,364.22Zm180.85,71.4c11.76,5.13,30.38,3.26,36.24-9.29a10.49,10.49,0,0,0-4.66,2.19c-4.75,4.51-10.12,7.42-16.83,6.88-4.32-.35-8.6-1.06-13.69-1.71.47-.43,0-.16-.22.23A12.21,12.21,0,0,0,419.3,435.62ZM311.79,621.4c.07.38.15.77.22,1.15,13.05,2.58,25.89,6.59,39.49,5.59q-17.76-4.47-35.65-8.23C314.66,619.66,313.15,620.87,311.79,621.4Zm164-15.5c-2.34,1.91-2.34,1.91-1.36,6.55,1.32,6.27.06,8.14-6.58,8.88.33,1.36.26,3.08,1.08,3.79.66.57,2.67.34,3.59-.28,3.51-2.36,6.83-5,10.11-7.49C480.08,613.13,477.92,609.51,475.77,605.9ZM443.53,357.82c.51,4.88,1.41,9.58,1.36,14.26-.06,4.83-1.05,9.65-1.65,14.58,2.61.39,4.64,0,5.24-3C450.35,374.42,449.77,365.64,443.53,357.82ZM423.62,295.7l1.57-.05c6.13-5.93,7.56-13.58,4.18-22.27-2.65-6.81-6-10.32-10-10.44a5.94,5.94,0,0,0,.72,1.3c9.48,9.76,10.13,15.22,3.54,27.1C423,292.46,423.6,294.23,423.62,295.7ZM292.84,699c3.66.21,12.05-5,12.73-7.55a2.33,2.33,0,0,0,0-1.43c-1.31-2.87-2.69-5.71-4.82-10.18l-7.41,7.83C298.61,692.89,298.61,692.89,292.84,699ZM282.16,385.15l9.55-4.48c-4.86-4.79-6.83-9.75-6.78-15.59C279.33,371.11,280.3,377.57,282.16,385.15Zm72-185.7c-.71,8.57,2.32,15.48,9.47,20.51,8,5.59,23.18,7.31,31,2.83-9.57,1.13-18.28,2.33-26.37-2.33S356.29,208.3,354.19,199.45Zm101,120.49c.59-.94,1.57-1.82,1.7-2.81,1-7.36,5.52-12.24,11.48-15.8,3.29-2,7.15-3,11.22-4.6-.4-.86-1-2-1.6-3.42C464.5,297.42,455.83,305.15,455.21,319.94ZM312.94,529.78l-1.57.14a40.91,40.91,0,0,1,.38,5.29,32.06,32.06,0,0,1-.94,8c-1.35,4.29-4.55,7.18-8.71,8.9-2.36,1-3.42,2.38-2,5.16,6.66,0,10-4.79,12.55-9.55A19.14,19.14,0,0,0,312.94,529.78Zm-40.73-144,6.45-.65c.32-7.13.6-13.18.86-19C274.58,368.51,270.54,378.22,272.21,385.74ZM245.52,532.31c-4.37-1.65-8.44-2.63-11.92-4.64-3.92-2.25-5.65-6.09-3.95-10.95h-5.34a18.5,18.5,0,0,0,0,4c1.36,6,12.24,14.55,18.53,14.81C245.54,535.6,245.92,534.21,245.52,532.31Zm-41.3,3.42c4.74,7.89,19.51,10.71,27.1,4.48a47.19,47.19,0,0,0-6.06-.9c-6.27,0-12.73.7-17.24-5.58Zm-11.46-67c-3.41,1.7-4.18,3.59-3.47,6.21,1.75,6.53,3.13,13.19,5.31,19.58,1,3,3.55,5.47,5.4,8.18l1.35-.73C196.8,491.55,192.56,481.05,192.76,468.74ZM334.18,131.2c-4.3,7.36-3.18,12.07,3.44,16.25,1,.62,1.91,1.31,2.91,1.89,9.55,5.52,22.78,1.66,27.1-8.37a14.44,14.44,0,0,0-4.37,2.13c-2.26,1.63-4.24,3.74-6.66,5.05-6.34,3.42-12.68,2.29-18.23-1.63C333.12,142.82,331.44,137.52,334.18,131.2ZM264,604.57c12.28,3.07,21.79-.63,29.64-9.54-2.85-2.3-4.49-.85-6.15.93a19.1,19.1,0,0,1-13.16,6,60.63,60.63,0,0,0-7.36.91A11.09,11.09,0,0,0,264,604.57ZM428,452c-7.14,7.8-6.1,20.79,1.52,26.91l3.29-3C427,469,425.4,461.41,428,452ZM172,268.31l-.5-1c-.8.45-1.63.85-2.39,1.37-9.36,6.47-19.5,9.5-30.91,7-3.16-.68-3.34,1.52-3.94,4.08C148.83,281.19,161.35,277.75,172,268.31Zm25.83,195.25c-3.35,2.37-3.47,2.37-3.4,5.48a67.42,67.42,0,0,0,8.61,31.64c.22.39.75.61,2,1.6C198.68,489.43,198.84,476.61,197.84,463.56Zm136-277.25c-17.52-7-21.45-21-22.24-37.6C304.58,163.9,319.72,185.94,333.82,186.31ZM294.48,559.45l-28.76,8.47c2,1.35,3.42,3.13,4.65,3A38.36,38.36,0,0,0,294.48,559.45Zm81.1-75.16-22,10.23c3.51,3.65,4,4.06,10.52.84C368.74,493.06,375,491.76,375.58,484.29ZM197.12,438.74c-4.37-3.26-28.05,3.59-34.08,11Zm159.7-244.51c14,1.58,31.57-11.48,35.37-25.09a7.69,7.69,0,0,0-3.36,2.41C381.35,183,372.11,191.92,356.82,194.23ZM344.69,669.1c-1.71-.59-2.35-1-2.92-1a24.55,24.55,0,0,0-4.81,1c-.29.1-.37,2-.17,2.11,1.44.55,3.14,1.43,4.47,1.09a86.89,86.89,0,0,0,9.06-3.2c.68-4.25,1.24-7.79,1.83-11.53l-7.46,2ZM261,383.45c2.91-6.52,5.56-12.47,8.22-18.45-6.87,3.19-12.28,7.76-14.55,15.78Zm92.63-221.11c4.26,1.68,7.3,2.39,10.62,1.07,6.87-2.73,13-6.57,17.65-12.34,2.06-2.55,3.41-5.68,5.08-8.54l-1-.74C378.34,152.86,368.9,161.14,353.62,162.34Zm47.17,7.26c-8.76,17.18-14.08,21.75-28,27.75C384.62,197.21,403.38,182.22,400.79,169.6ZM222.59,555.75c-.37,7.18,4.88,10,9.67,12.86,6.4,3.74,19.65,3.39,24.83-.69C242.72,570.82,231,567.88,222.59,555.75ZM146.46,351.61c1-2.78-.5-3.55-2.42-4.16-7-2.25-12.64-6.22-16.11-13-.45-.87-1.9-1.23-3.71-2.32C127.54,343.35,137,351.32,146.46,351.61Zm257.41-179.2c-3.77,14.39-13.69,21.56-25.68,26.73,11.41-1.24,20.08-6.37,24.82-17C404.24,179.39,406.65,176.62,403.87,172.41Zm-7.08-3.63c-4.21,5.59-7.74,11.93-12.82,16.57s-11.86,7.74-16.56,10.67C381,194.31,395.34,182.17,396.79,168.78Zm47.49,109.75c0-3.89-.49-7,.1-10,1.42-7.09,7.13-10.32,13-13.2,1.13-.55,2.21-1.18,3.31-1.78-5.7-1.46-14.75,3.54-17.6,8.72C440.37,267.32,440.6,274.28,444.28,278.53Zm-3.56,80.62c.88,9.9-2.55,18.77-6.08,27.52,2.74,1.42,4.69,1.13,5.7-1.38C443.83,376.58,443.5,367.8,440.72,359.15ZM142.85,281.7c-.73,1.08-2,2.11-2.09,3.25-.6,6.94,5.26,15.79,13,18.73-.43-2.1-.22-4.14-1.11-4.92C147.6,294.31,144.82,288.76,142.85,281.7Zm23,126.82c-9.78,6.44-18.54,19.77-17.4,25.87,3.2-4.41,6.37-9.14,9.92-13.58a78.57,78.57,0,0,1,7.63-7.75C167.61,411.57,168.39,410.28,165.88,408.52Zm116.8-242.36c-12.43,9.41-23.81,8.78-34.08-3-1.79,2.74-.75,4.48,3.2,7.5C260.32,177.21,278.65,175.39,282.68,166.16Zm12.24,397c-4.9,2.52-8.61,4.71-12.54,6.38s-7.9,2.76-11.87,4.11l-.36,1c1.75.8,3.68,2.53,5.24,2.25C283.45,575.4,290.14,571.56,294.92,563.15ZM122.59,321.3c-.54,4.07,1.64,5.89,5.91,4a84.7,84.7,0,0,0,14-8.23c1.63-1.14,2.35-3.57,3.48-5.42l-1.11-1.26C138.41,316.24,132.15,322.57,122.59,321.3ZM341.11,188.59c16.16,3.2,32.91-6.71,40.05-18.26-3.35-1-4.86,1.63-6.47,3.49-4.07,4.68-8.55,9-14.54,10.69C353.29,186.47,346.18,187.54,341.11,188.59Zm60,42.54,16.1,17.34c2.47-3.93,1.38-7.15-2-9.84C411.07,235.35,407.55,230.75,401.12,231.13ZM377.26,490.56l-18,9.72c2.47,1.1,5.07,3.36,6.8,2.82a17.68,17.68,0,0,0,11.54-10C377.88,492.36,377.37,491.31,377.26,490.56ZM137.48,430.07c3.14-10.83,9.39-19.8,16.22-28.46C142.51,407.87,136.74,417.2,137.48,430.07Zm11.79-117.6c-1.21.74-1.71.88-2,1.22-5.87,8-13.38,13-23.58,13.49-.85,0-1.63,1.75-2.81,3.1C131.93,331.94,144.57,323.88,149.27,312.47ZM365.82,168.78c-1,.56-2.05,1.11-3.05,1.7-4.23,2.49-8.23,5.57-12.74,7.36-8.22,3.27-19.88,1.14-23.89-8.72-1-2.42-2.14-4.77-3.22-7.15-.76,8.94,6.95,17.78,16.59,18.3C350,180.83,359.18,177.65,365.82,168.78ZM207,445.37c-12.24-1.14-23.56,2.43-34.27,8.28l.37,1.49ZM144.86,433c4.83-9.44,10.15-18.46,18.6-25.27,2.1-1.7.54-3.06-1.2-4.76C154,411.78,147.39,421.17,144.86,433Zm294.05-160c-1-14.19,9.17-19.12,19.55-24a28.41,28.41,0,0,0-15.2,6C436.33,260.27,434.86,264.77,438.91,273.07Zm-4,201.3c1.56-2,4.31-3.19,2.25-6-3.58-4.91-6-10.24-5.56-17.16C426.7,458.35,428.05,466.86,434.92,474.37Zm-313.55-98c12.31-1.57,22-11.29,21.46-19.63-.28.15-.67.22-.81.44-4.52,7.26-9.81,13.54-18.61,15.87C122.5,373.29,122,375.22,121.37,376.37ZM374.32,614l.1-1.86c-15.81-.68-31.2-5.19-47.05-5.42l-.19,1.65ZM371.71,617l.15-1.18-47.43-5.88-.15,1.13C340,613.76,355.65,617,371.71,617ZM250.15,576.12c-.88.54-1.53.69-1.65,1a38.36,38.36,0,0,1-13.89,19.32c-.82.59-.69,2.47-1.19,4.56C243.08,596.07,251.18,583.74,250.15,576.12ZM338.29,535c7.77-3.32,12.08.35,15.44,5.72,4.13-2.45,4.48-3.35,1.72-6.2a20.65,20.65,0,0,0-6.33-4.53C344.77,528.12,340.11,530,338.29,535ZM271,729.76l-5.1-8.21L260.35,731c3.65,2.56,5.16,5.45,1.2,9.36l1.87.44ZM133.86,284.89c-1.51,13.14,8.09,27.16,17.2,24.54C140.63,304.29,136.74,295,133.86,284.89Zm53.55,237.72c1.86,1.54,3.19,3.43,4.12,3.26,7.22-1.36,14.2-3.45,17.64-10.92a18.37,18.37,0,0,0,.85-4.12C202.79,518.39,204,519,187.41,522.61ZM405,599.5c12.51,3.15,24.58-1.68,27.36-11.17-2.15,1.15-3.78,1.69-5,2.72-5.11,4.33-10.22,8.37-17.66,6.88C408.56,597.7,407.17,598.73,405,599.5ZM298.54,641.59c-3.22,2.06-3.22,2.06-3.67,5.74-1.07,8.88-5.79,12.88-14.46,12.35a6.72,6.72,0,0,0-2,.52c4.81,2.85,9.41,1.89,13.3-1C297.38,655.1,299.11,649,298.54,641.59ZM260,649.18A27.86,27.86,0,0,1,246,659.32c-.79.26-1.24,1.53-1.85,2.33.86.52,1.85,1.61,2.57,1.45,6-1.29,11.17-4.05,14.84-9.12C263,652,263.06,650.3,260,649.18ZM205.45,190.12l.15,1.36c14.23,6.4,28.39,2.25,31.7-5.62-.54.1-1.09,0-1.39.26C228,192.46,219.48,194,210,189.64,208.83,189.09,207,189.93,205.45,190.12Zm233.92,94.93.85.92c10.09-6.67,20.88-9.16,33.33-5.2-.92-1.13-1.14-1.7-1.53-1.85-10.36-4.08-20.38-2.95-30,2.26C440.8,281.85,440.24,283.73,439.37,285.05Zm9.08,74.64c1,4.35,2.27,8.4,2.71,12.55.46,4.33.1,8.75.1,13.13l.71.71c1.19-1.39,3.24-2.67,3.44-4.18A26.26,26.26,0,0,0,448.45,359.69ZM287,630l-9.15-11c-3.28.1-3.73.63-3,4.37.78,4.14,3.81,6.49,7,8.55C284.84,633.85,285.72,633.31,287,630Zm28.55,30.06.48.93c11.84-.59,30.85-18.81,29-28.75-2.76,4.56-4.86,8.82-7.69,12.51a45.5,45.5,0,0,1-9.55,9.74C324.16,657,319.66,658.26,315.56,660.06Zm3.31,10.05c3.58,5.42,3.38,6-2.21,8.39-.44.18-1.21.46-1.21.69a16.2,16.2,0,0,0,.41,2.74c3.79-1.57,7.59-3.14,11.36-4.75.14-.06.12-.62.07-.93-.45-2.82-.93-5.62-1.47-8.8ZM141.81,261.42c11.52,4.3,24.33-1.77,30.95-13.08-.13-.06-.32-.21-.38-.17a5.11,5.11,0,0,0-1.13.86c-6.78,8-15.07,12-25.78,10C144.61,258.92,143.48,260.31,141.81,261.42ZM468.63,605.76c-.58-2.56-1.66-3.25-4-2.26a21.46,21.46,0,0,1-16.79.45c-.46-.18-1.13.18-1.76.31C448.53,610.14,460.05,610.86,468.63,605.76ZM274.55,365.33c.07,0-.5-.28-.73-.11a22.86,22.86,0,0,0-9.22,16.32c-.41,3.62,1.59,4.08,3.45,3.68Zm189-105.94c-1.85-3.27-2-3.59-4.38-2.42a46.43,46.43,0,0,0-9.58,5.89c-3.33,2.81-4.28,6.87-3.71,11.22.29,2.18,1.25,2.95,3.39,1.56C446.76,264.12,455,261.47,463.56,259.39ZM202.12,442.15l-.21-1.07c-12,1-23.64,3.54-33.65,11.11,5.64-1.27,10.89-3.71,16.36-5.48C190.34,444.86,196.28,443.64,202.12,442.15ZM190.47,246.69c-17.45-1.06-20.74-3.35-24.93-17.07-1.92,5.35-.95,10,3,13.34C174.58,248.14,181.56,250.51,190.47,246.69ZM178.7,455.91c5.44,2.1,5.75,2,9.67.44,5.06-2,10.22-3.67,15.33-5.51,1-.34,1.9-.77,2.85-1.16l-.33-1C196.8,448.44,188.23,451.61,178.7,455.91Zm132.65-272.2c-6.78,11.46-16.15,9.1-26,5.46,5.12,4.44,10.81,6.71,17.16,5.12C307.46,193.05,311.1,189.81,311.35,183.71ZM390,143.21c-3.55,4.44-6.48,9-10.31,12.67s-8.35,6.07-13.32,9.57c11.38-2,18-8.7,23.13-17.32C390.39,146.59,392.13,144.79,390,143.21ZM374,651.72a15.38,15.38,0,0,0-2.32.31c-1.08.29-2.12.74-3.22,1.13a11.86,11.86,0,0,0,.31,1.61c2.13,5.67,1.09,7.17-4.81,7.26-.81,0-1.61.92-2.42,1.4l.44,1.1c4.94.51,9.75.06,14.22-2.48C375.49,658.66,374.81,655.5,374,651.72ZM194.28,504.53l.37-.8-12-20.62c-2.32,3-2.3,6-.19,8.82,2.46,3.32,4.91,6.65,7.61,9.76C191.14,502.93,192.86,503.6,194.28,504.53Zm280-19.12c3.41-1.13,7-1.33,8.85-3.22s1.51-5.37-.22-8C473.9,476.7,473.9,476.7,474.26,485.41ZM164,469.59c-4,6.31-2.54,12.56.39,18.58,2.06,4.23,3,4.31,8,2.2C166.44,484.68,162.88,478.1,164,469.59ZM382.36,642.05c-9.71-1.65-17.76-4.51-24.14-11.35,1.95,5.2,6.09,7.9,10.23,10.73,3.74,2.56,7.59,3.6,11.94,2.44C381.15,643.66,381.71,642.68,382.36,642.05Zm57.24-39.29c3.17,1.63,3.29,1.72,4.94-.61a79.21,79.21,0,0,0,5.88-9.13c1.18-2.27,1.63-4.93,2.4-7.42l-1.76-.85Zm3.34-251.93c11.7-9.41,18.33-1,25.28,7.6-.21-6.53-6.55-12.59-13.54-14.2C450.29,343.22,445.16,345.73,442.94,350.83Zm31.75-58.23c-8.31-9.12-26.83-5.07-32,2.33,4.34-1.64,7.69-3.32,11.24-4.13a35.3,35.3,0,0,1,10.82-.92C468.11,290.18,471.38,291.65,474.69,292.6ZM344.71,562c-4.84,3.6-2.63,8-3,11.75-.36,4-.08,8.09-.08,12.15C344.9,582.77,345.85,573,344.71,562ZM274.34,204.63c-4.76-.49-9.07.08-12.25-1.54s-5.35-5.47-7.83-8.2c-1.43,2.44-.73,6.07,2.28,9.25C260.42,208.25,267.27,208.69,274.34,204.63ZM356.67,634.8,340,657.32C347,655.84,357.43,641.6,356.67,634.8ZM138.34,353.72c-3.77,7.54-8.91,12-15.88,14.42-.71.25-1,1.83-1.66,3.26C131.15,370.07,140.61,361.05,138.34,353.72Zm326-32.4c7.83-10.21,6.65-8.46,18-13.33.45-2.53-.9-3.17-3.12-3-5.09.47-14.87,9.48-15.63,14.48C463.59,319.9,464,320.36,464.36,321.32ZM438,362a49,49,0,0,1-11.47,23.58c3.38,2,5.36,1.57,6.82-1.58A46.75,46.75,0,0,0,438,362Zm11.23,46.5c8.35,5.94,21.52,3,23.92-4.58-.31,0-.74-.22-.91-.09-5.89,4.65-12.22,6.07-19.39,3.17C452.07,406.66,450.71,407.81,449.22,408.47ZM279.84,164.09c-.54,0-1.1-.11-1.43.11-10.57,6.6-14.15,6.24-23.37-2.07-.77-.7-2.45-.4-4.28-.63C255.81,172.2,274.47,174,279.84,164.09Zm55.73,435.26-.14,1.51c14.17,1.23,28.2,4.13,42.48,4.11l.12-1.41Zm94,28.26a6.56,6.56,0,0,0-7-3.48,9.4,9.4,0,0,0-7.36,7.06C419.19,632.56,424.46,631.23,429.61,627.61Zm3.66-79.77-4.16.93c3.07,4.12,6.35,7,11.39,6.18,6.29-1,11.37-6.24,12.62-12.71-4.48-.32-5.26,3.22-6.26,6.23a7.35,7.35,0,0,1-6.19,5c-3,.52-4.9-1.44-6.25-3.93C434.11,549,433.7,548.49,433.27,547.84ZM201.66,204.6,201,203c-1.4.58-3,.85-4.15,1.78-4.35,3.71-8.14,8.2-14.91,7.13-1.24-.2-2.8,1.61-4.21,2.5l.62,1C188,215.85,195.14,211,201.66,204.6Zm147.25-72.92c11.6,1.07,25.25-8.53,22.39-16.4C365.12,122.79,359.83,131.22,348.91,131.68ZM449.85,426.19l-.4-1.21a15.87,15.87,0,0,0-3.17,1.74C440,432.3,432,432.85,425,428.1a15.46,15.46,0,0,0-1.56-.84c-1.89,2.75-.79,4,1.63,5.13C432.42,435.75,444.14,432.88,449.85,426.19ZM387.79,581.82l1,1.07c9.29-3.32,15.88-15.28,11.65-22.11a10,10,0,0,0-1.11,4.48c.3,4.59-1.65,7.71-5.35,10.32C391.61,577.24,389.83,579.71,387.79,581.82Zm-217.65-336c-4.36,2.74-7.87,5.67-11.9,7.29s-8.44,1.85-12.7,2.7C154.07,260.15,165.16,255.46,170.14,245.83Zm259,59.59c-.48,2.31.36,3.36,2.82,3.17,6.62-.51,11.67,2.76,16.35,6.91,1.12,1,2.32,1.9,3.48,2.85C448.54,310,437.43,304,429.12,305.42Zm-90,260.94c-.84,1-2.15,1.78-2.13,2.55.17,6.88-1.4,13.87,1,21C340.36,585.69,341,572.67,339.1,566.36Zm146.84-51.11c2.81-5.86,5.37-11.21,7.94-16.56l-1.06-1.11c-1.06.35-2.69.38-3.09,1.09-2.76,4.94-5.25,10-7.94,15.25Zm-331.48-78,.87.88c3.22-3,6.39-6,9.67-8.91,3.43-3,7-5.93,10.45-8.88-1-3-2.73-1.95-4.2-.88C164.51,424.33,159.26,430.59,154.46,437.24ZM344,156.18c12.39,5,31.68-4.61,35.4-17.41-4.85,4.7-9.3,10-14.74,14C358.73,157.13,351.32,156.87,344,156.18ZM179.54,424.07c-.79-1.43-2.16-2.87-4.06-1.24-6,5.1-11.75,10.4-17.56,15.66-.19.17.06.8.1,1.22Zm299.92,12.07c-4.2,4.77-4,6.9.94,14.85l4.91-3.37C483.23,443.55,481.39,439.93,479.46,436.14ZM407,229.11l12.75,10.6c2.26-3.46,1-6-1.66-7.88C414.93,229.65,412.09,225.63,407,229.11ZM291,360c-.16,5.23,1.24,8.23,5.7,12,3.09,2.62,4.9,2.05,6.46-1.61ZM215.65,520.36c-5,6.7-12.21,10.31-20.54,14.08C204.31,536.17,214.53,529,215.65,520.36Zm169.61-61.18c9.31,5.21,23.35-.36,26.37-10.51-1.24.69-1.71,2.15-2.68,3.09-5.65,5.46-11.69,9.77-20.24,6.3C387.86,457.71,386.43,458.77,385.26,459.18ZM122,333.28c-1.35,9.88,10.82,20.79,22.71,20.78C133.75,351.06,127,343.45,122,333.28Zm324.66,61.3-1.43.18c-1.58,11.83-11,16.26-20.11,21,8.35-.15,20.69-9.79,22.25-17.14C447.59,397.4,446.88,395.94,446.62,394.58ZM298.06,376.53,288,364.22c-1.31,6.31.81,11.27,5.84,15.42Zm37.36,195c-4.51,3.61-5,15.88-1,22.82C336.39,586.46,334.24,579.22,335.42,571.52ZM304.24,173.4c-4.37-9.74-5.42-19.71-1.93-30C295.48,153.12,297.31,167.23,304.24,173.4ZM141.5,307.61c-4.88,4.35-9.39,7.78-15.42,8.35-1.12.11-2.15,1.21-3.22,1.85,1.27.7,2.68,2.18,3.8,2,6.2-1.07,11.59-3.67,14.67-9.6C141.57,309.72,141.42,309.06,141.5,307.61Zm165.88,54.48L292.75,357c2.6,5.21,6.29,8.89,12.18,10.78C305.85,365.63,306.6,363.88,307.38,362.09Zm76.15-223.32c-3.8,4.29-7.11,9.21-11.54,12.71s-10.1,5.73-14.45,8.1C368.18,159,381.22,149.4,383.53,138.77Zm63.54,394.87,10.23-3.78-4-5.75-9,3.18ZM465,262.71c-11.39-.17-16.17,4.75-12.86,12.37,2,.11,3.58-.31,3.25-2.9-.44-3.59,1.87-5.41,4.5-6.95C461.49,264.27,463.25,263.54,465,262.71ZM427.4,245.34c7.75-2.06,15.14.08,22.58,1.43a41.57,41.57,0,0,0,5.13.29C446.77,241.63,432.87,241.13,427.4,245.34Zm-88,350.92L339.3,598c13.32-.12,26.36,4,39.75,2.8l.06-1ZM148.17,281.09c-1.62-.46-2.68,1.52-2.1,3.84,1.28,5.13,3.58,9.76,8.62,12.41,1.64-1.94,1.56-3,.09-4.92C152.35,289.32,150.73,285.59,148.17,281.09ZM443.05,465.74c-4.49-4.68-6.71-9.7-6.1-16.68-5.05,6.11-3.34,13.2,3.52,19.05ZM495,427.35c1.05,1.28,2.48,3,3.45,4.17l9.82-2.68-3.4-6.45ZM380.79,534.51c-6.69.66-12.78,1.82-17.3,8.76C370.27,541,377.59,542.4,380.79,534.51Zm33.87-266.34c5.94,9.66,5.94,9.66,1.24,18.39,1.79-.23,3.36,0,4.13-.62,3-2.54,3.37-6.09,2.27-9.53C421.14,272.79,419.67,269.05,414.66,268.17ZM142.87,402c-1.29-5.54-12-11.8-16.54-10.2a3,3,0,0,0-1.63,2.38,2.79,2.79,0,0,0,2.17,1.76C133.22,395.28,138.4,397.48,142.87,402ZM338.24,182.2c10.45,4,26.5-2.36,31.73-12.44C360.91,177.87,350.94,183.57,338.24,182.2Zm-32.49-36.56c-6.4,10-2.93,26.36,6.41,32C306.35,167.62,300.7,157.77,305.75,145.64ZM486.48,471l5.27-2.39c-.89-3.48-1.68-6.54-2.62-10.21l-6.3,3.65C484.1,465.21,485.15,467.77,486.48,471ZM137.16,281.77c-.82,11.78,6.57,23.35,14.3,24.58,0-.15.06-.41,0-.46-7.78-5.39-12.26-12.6-12.48-22.25C139,283,137.79,282.39,137.16,281.77ZM341.1,153.1c-3.56-3.39-7.47-6.32-10.36-10-3.45-4.44.77-9.59-.4-14.54-3.54,4-3.62,8.92-2.4,13.38C329.69,148.31,335.3,151,341.1,153.1ZM441.65,394.84c-2.3,3.5-3.95,7.22-6.67,9.81s-6.61,4.13-10.64,6.52C432.61,412.87,443.81,401.55,441.65,394.84ZM295.28,169.46c-.92-3.18-2.31-6.64-2.83-10.23a34.81,34.81,0,0,1,0-10.83c.59-3.46,2.32-6.72,3.59-10.16C288,144.58,287.78,163.08,295.28,169.46ZM483.79,400c-4-.69-7.86-.5-10.73-2.13s-4.93-5.15-7.39-7.9c-.74,3.86,1,8.15,4.46,9.91C474.39,402,478.87,403.9,483.79,400Zm-25-36.93c2.13,5.73,4.24,11.42,6.43,17.29,2.3-.17,2.84-1.92,2.6-4.4C467.37,370.8,462.54,364.05,458.84,363.06Zm-119,270.57c-1.24,2-2.56,3.91-3.71,5.94-3.6,6.33-8.13,11.49-15.61,13.33-.85.21-1.43,1.54-2.59,2.88C327.89,655.06,337.84,644.64,339.88,633.63ZM310.63,143.54c-4.16-8.94-.59-16.53,3.9-24.12-5.21,1.36-6,6-7.06,9.91C306.17,134.29,305.06,139.68,310.63,143.54Zm5,3.15c-5-9.42-2.68-17.81,4.22-25.89C310.82,122.51,308.62,137.53,315.66,146.69Zm31.39,443.86.09,1.85h32.41C368.74,591.46,358,589.2,347.05,590.55Zm-70.41-10.48c1.21.58,2.45,1.71,3.66,1.67,5.11-.14,12.89-7.66,13.58-11.9ZM458.05,383.5c2.78-.13,3.51-2,3.69-4.28.57-7.28-4-12.1-7.84-17.24C457.31,370.4,457.86,372.94,458.05,383.5ZM190.8,242.59c-14.9,0-18.65-1.41-21.62-14.92-2,3.8,0,9.68,4.55,13.42C178.68,245.19,186.56,245.89,190.8,242.59ZM463,477.1l9.71-1.85c-.23-2.85-.39-5-.63-8C468,470.19,462.67,470.21,463,477.1ZM247.9,679.88l-1.49-.29c-.45,1-1.5,2.18-1.24,2.92,2,5.68,4.07,11.42,10.77,14.75.1-1.5.57-3,.15-3.31C251.29,690.49,248.9,685.64,247.9,679.88ZM191.67,497.27l1.41-.54q-2.93-10.55-5.84-21.11l-1.09-.15c-.54,1.57-1.91,3.43-1.47,4.66C186.74,485.93,189.29,491.57,191.67,497.27ZM347.54,129.35c6.57,1.28,16.73-4.32,21.56-16.44-5.24,2.59-6.05,8.1-9.92,10.35S351,127.55,347.54,129.35Zm74.69,423.32c1.3,8.94,10.15,13.79,20.18,10.66C433.25,563.19,427.49,558.52,422.23,552.67Zm46.5-229c3.73-6.53,9.16-9.12,15.68-9.73-1.33-4.6-4-2.93-6.07-2.25C471.44,314,468.09,317.78,468.73,323.67ZM294.24,353.6A14.55,14.55,0,0,0,304.32,359c2.55.29,3.85-.64,3.58-3.26a30.38,30.38,0,0,0-.72-3.49Zm38.6,275.73c-8.1-1.3-15.78-5.56-24.38-3.4C316.34,628.8,324.33,630.89,332.84,629.33Zm157.54-144c-6.37-1.5-5.67.51-7.9,9.05C489.14,495.44,489.89,494.61,490.38,485.33ZM289.11,137.11c-8.31,4.47-9.92,17.28-3,27C283.72,154.09,282.56,145.13,289.11,137.11Zm39.33,460.82c4.48-5.86,1.22-12,.38-18.1C325,585.72,327.85,591.87,328.44,597.93ZM245.6,526.38c-6.41-.73-11.26-2.88-13.31-9-2.09,4.18-1.09,7,3.26,9.65S243.27,529.58,245.6,526.38Zm105,61.4c4.34.39,7.77.73,11.19,1s6.89.58,10.34.71c3.21.12,6.42,0,9.63,0C373.59,586.75,354.56,585.72,350.56,587.78Zm.14-43.4c2.22-1,1.12-2.9-.15-4.81-2.26-3.41-5.78-4.88-8.79-3.59-1.92.81-2.92,2-1.64,4,.22-.28.44-.55.65-.83ZM348,220.93c-1.31-5.73-6.15-9.4-12.39-10.08-5.75-.63-8.64.77-11.27,6.43,2.48-.81,4.33-1,5.62-1.92,4.5-3.3,9.52-3.59,13.53-.11C345.08,216.64,346.19,218.62,348,220.93ZM291.92,624.42,286,617l-4.3,1.29c.24,4.2,2.89,8,6,8.15C289.09,626.49,290.49,625.15,291.92,624.42ZM429.36,312.63a22.26,22.26,0,0,1,16.29,6.76c.81.81,2.43.81,3.68,1.18C443,312,434.77,308.62,429.36,312.63ZM183.61,427.87c-4.21-2.52-16.14,4.3-22.58,12.74Zm116.23-287c-6.89,3.75-7.92,17.53-2.49,26.27C294.32,158.23,296.32,149.75,299.84,140.82ZM244.9,576.7c-1.92,3.12-3.58,6.46-5.85,9.32s-5.24,5.39-7.9,8.05C238.07,593.44,245.7,583.92,244.9,576.7ZM361.69,141.47c-.3-.12-.71-.42-.88-.32a35.73,35.73,0,0,0-3.59,2.35c-6.36,4.86-14.59,4.31-18.82-2-1.56-2.32-1.3-5.87-1.77-8.36-2.81,3.58-2,8.23,2.76,11.89C346.1,150.28,356.46,148.61,361.69,141.47ZM464.37,517.91c5.37,4.67,5.76,4.56,11.6-3C471.13,512,471.13,512,464.37,517.91ZM226,554.9c3.72,9.39,16.13,14.37,27.11,11.29-5.33-.86-10.27-.82-14.46-2.56S230.8,558.31,226,554.9ZM456,306.67c-3.38-8.86-16-13.64-22.6-8.65C442.6,297.36,450.1,300,456,306.67ZM470.42,488c-8.2-1.15-9.46-.42-10.27,5.73C467.63,495.25,468.13,495,470.42,488Zm-293.57-7.51c.44-2,1.21-3.45.89-4.53-1.28-4.17-2.9-8.23-4.27-12C169.58,468,170.31,474.65,176.85,480.52ZM277.32,207.91l-18.1,1.23C263.38,213.93,269.41,214.09,277.32,207.91Zm27.33,136.65-12.53,4.7c6.63,3.59,9.24,3.39,14.18-1.17Zm39.71,249.25c11.75,1.36,23.38,4.66,35.29,3.05,0-.42.05-.84.08-1.25ZM394.6,205c-3.45-.66-4.67.83-3.67,3.17a66.89,66.89,0,0,0,5.87,10.73,4.36,4.36,0,0,0,5.67,1.57C397.57,216.17,393.3,212.06,394.6,205ZM256.93,159.15c1.12,5,4.85,6.79,9.13,7.59a10.65,10.65,0,0,0,11.19-4.52c-3.59.68-7.3,2.29-10.68,1.77S260.13,160.85,256.93,159.15ZM187.81,431.49c-4.95-2-17.76,3.9-24.08,10.38Zm70,215.15c-4.11,2.25-8.15,4.31-12,6.67-1,.61-1.43,2.14-2.49,3.83C251.42,656.51,256.92,652.17,257.8,646.64Zm88.63-64.77,1.93.12c1.74-7.18.44-14.52.29-21.81C345.93,567.26,347.09,574.64,346.43,581.87Zm82.14-341.42L453.94,242C447.31,237.46,433.87,236.5,428.57,240.45Zm3.25,289.38c-8.35,1.15-8.46,1.28-7,7.6,1.26-.1,2.55-.15,3.82-.33s2.78-.51,4.46-.82Zm83.56-24.44c-.17-6.19-8-10.23-15.66-7.95ZM323.15,150.32c-9.37-8.22-5.22-17.49-2.08-26.67C312.92,132.45,313.83,144.67,323.15,150.32Zm27.35,58c-5.13-7.51-18.08-10.39-24.19-5.64C334.94,202.26,343.15,203.21,350.5,208.35Zm-118.82,346-.42,1.24c5.13,7,14.23,10.11,21.71,7.13a5.26,5.26,0,0,0-1.38-.42c-6.39.15-12.09-1-15.94-6.94C235.1,554.51,233,554.65,231.68,554.34Zm94.43-397.71c-1.21,12.71,7.86,22.11,17.65,20-5.45-.94-10.67-1.21-12.8-6.71C329.26,165.54,327.72,161.07,326.11,156.63ZM192.62,435c-3.52-2.71-6.58-.19-9.6.7a74.32,74.32,0,0,0-9.23,3.47c-2.95,1.32-5.75,2.95-8.62,4.45l.33.37ZM147.71,251.81c8.41,2.41,17.09-2.1,18.12-8-6.1,4.76-6.11,4.7-15,6C149.72,249.93,148.75,251.11,147.71,251.81Zm62.74-64.91c7.7,5.75,20.26,3.71,23.76-3.14-.3,0-.74-.23-.89-.1-5.78,5.11-12.06,6.08-19.06,2.59C213.49,185.86,212.17,186.58,210.45,186.9ZM365.23,627.66c5.58,5.75,11.63,7.31,16.73,5-3.89-1.87-7.91-4-12.1-5.69C368.75,626.55,367.13,627.36,365.23,627.66Zm-5.33,10.05L349,655.15C356.19,651.61,361.84,643,359.9,637.71Zm-108,40.84c-.35.19-1.18.36-1.39.82-1.36,3,2.39,10.89,5.52,11.64a2.5,2.5,0,0,0,2.16-.51,3.17,3.17,0,0,0,.32-2.71C256.5,684.69,254.23,681.74,251.91,678.55Zm206-105.23c8.32-5.36,11.65-18.49,7.12-27.45-.5,1.54-.92,3.22-.44,4.6,2.64,7.59.41,13.81-4.86,19.39A14.05,14.05,0,0,0,457.86,573.32ZM138.39,305.47c-4.42,3.11-8.61,6-14.53,5,.36,1.49.85,3.34,1.8,3.61C130.16,315.43,137.14,310.75,138.39,305.47ZM287.73,592.76c-1.56-.22-2.2-.51-2.44-.31a19.58,19.58,0,0,1-14.22,4.75c-.89-.05-1.87,1.41-2.82,2.17l.72,1C275.83,600.3,282.49,599.72,287.73,592.76ZM151.65,392.48c.66-1.86-3.08-8.07-7.76-10.81-2.13-1.25-3.27-.7-4,1.31l1.69-1.41ZM236,222.22c-3.26-4-8.38-5-12.26-2.58-3.61,2.23-4.91,5.86-3.11,9.5,1.84-2.83,3-6.73,5.49-7.84S232.42,221.77,236,222.22Zm22.38,534c3.3-5.43,3.12-5.84-4.3-8.32-1,2.49-2.06,5-3.07,7.45ZM168.78,224c6.15,3.16,17.39,0,21.28-4.87ZM453.52,403.43c2.36,4.44,11.16,4.16,15.74-1.94Zm-5.25-107.92c2.89,2.81,4.75-.33,7-.61,2.43-.32,4.85-.79,7.29-1,2.24-.17,4.58,2.34,6.86-.19C464.15,290.25,454.88,291,448.27,295.51Zm14,59.27c-5.95-7.11-11.46-7.9-16.35-2.15l4.3,2.64C455,351.29,457,351.29,462.25,354.78ZM390,198.34c9.33-1.12,20.63-15.39,17.39-21.15C404.06,186,399.49,193.7,390,198.34ZM184.15,517c2.64,3.7,8,3.82,14.8.82,5.34-2.34,6.9-4.36,6-9C200.45,518.21,192.83,518.4,184.15,517Zm-53.62-185.2c-.74,7.22,10.32,15.5,17.21,12.51C140.08,342.14,134,338.65,130.53,331.76ZM374.59,165.42c7.49-.25,20.13-13.45,17.92-18.59C388.32,154.74,382.79,161.28,374.59,165.42Zm93.17,286.35c-6.71,7.39-6.71,7.39-5.3,11.54C470.62,458.88,470.62,458.88,467.76,451.77ZM374.63,118.19c-3.05,7.53-8.46,11.42-14.59,14.57C368.83,132.52,376.58,125.2,374.63,118.19Zm-75.15,431.3.93.74c8.52-2.79,12.93-12.18,7.75-17.43a12.7,12.7,0,0,0-.25,2.47c.67,6.34,0,7.29-5.55,10.33C301.07,546.3,300.42,548.17,299.48,549.49Zm146.29-85.21c.09-2,.55-3.27.13-4.17-1.64-3.55-3.56-7-5.29-10.29C437.42,454,438.65,458.62,445.77,464.28ZM314.36,150.87c-1,8.36,2.85,20,7.15,23.73-1.26-3.47-2.72-7.24-4-11.07S318.23,155.09,314.36,150.87Zm35.23,363c2-5.64.43-12-3.91-15.29l-1.76,3.06C346,506,347.71,509.75,349.59,513.82ZM289.54,187c3.94,3.85,10.84,4.53,14.73,1.51,3.24-2.52,4.17-4.93,3.12-6.55-2.66,2-5.09,4.9-8.12,5.78S292.85,187.3,289.54,187Zm196,131.66c-3-4.14-10.44-1.49-13.61,4.84.35.3.87.94,1.07.86C477.15,322.47,481.31,320.54,485.49,318.62Zm-261,218.52.54-1.52a34.9,34.9,0,0,0-4.66-2,48.1,48.1,0,0,0-6.21-1.13c-1.13-.17-2.29-.12-3.43-.18.6,1.17.91,2.8,1.87,3.41C216.26,538,220.37,537.94,224.48,537.14ZM292.08,138c-7.49,7.69-7.43,16.4-2.72,27A36.63,36.63,0,0,1,292.08,138Zm-47.9,549A14,14,0,0,0,255.25,702C251.25,696.57,247.76,691.87,244.18,687ZM395.39,151.45l-14.06,15.07C388.53,164.6,395,157.63,395.39,151.45ZM380.64,514.36c-.41-.64-.81-1.28-1.22-1.91-1.1.44-2.76.59-3.2,1.39C374,518,372,522.31,370,526.57l1.1.74ZM356.48,153.78c7.38-.79,15.56-6.87,16.95-13.16ZM148,397c.43-3.56-2.69-8.24-7.19-10.89-1.76-1.05-3.48-2-4.7.21Zm5.1,46.76-9.37,5.6c3,4.07,6.9,3.1,11.39-3Zm306.55,74.12c-6.09-6-7.82-5.76-10.48-1.85C454,521.56,454,521.56,459.61,517.89ZM159.27,288.74c-1.83-3.05-3.46-5.75-5.41-9-1.93,1.91-3,3.73-1.63,6.07,1.26,2.14,2.89,4.06,4.72,6.57Zm286,299.2c-5.33,2.91-7.13,8.66-10.57,13.09C440.37,598.43,443.5,593.75,445.22,587.94ZM386.4,214.36c-10.76,2.56-16.7-2.44-19.5-12.51C365.76,212.54,376.4,219.37,386.4,214.36ZM173.2,227.79a7.92,7.92,0,0,0,1.22,9.13c3.42,3.8,9.86,4.76,15.74,2.35C179.24,240.2,177.16,238.79,173.2,227.79Zm159.69-60.28c2.83,9.08,16.67,9.35,25.38-.09C349.21,171.81,340.89,177.78,332.89,167.51ZM127.52,406,139.65,409c-2.11-4.31-5-6.19-8.73-6.61S126.71,402.86,127.52,406ZM320.66,648.9c7-.13,14.61-8.19,14.59-14.93C331.82,640.34,327.21,645.55,320.66,648.9ZM154.85,391.1c-.9-7.25-7-14.38-11.41-12.72ZM501.1,474.67a42.5,42.5,0,0,1,5.88.06,53.94,53.94,0,0,1,6.45,1.75c-1.4-5.05-4.75-5.31-8-5.32C503.42,471.16,500.81,470.87,501.1,474.67ZM140.8,405.09c-2.39-5.72-8.44-9-13.22-7.39-.72.23-1.18,1.24-1.76,1.89.59.47,1.29,1.42,1.74,1.32C132.82,399.68,136.7,402.52,140.8,405.09Zm15.87,43.6-10.5,5.93c2.46,2.36,6.79,1.93,10.08-1.1C157.89,452,159.38,450.38,156.67,448.69Zm323.64,12.07c-.66-2.2-1.15-3.86-1.67-5.61-7.09,3.7-7.14,3.8-4.62,9.15Zm-156.86,142c3.08-3.22,2.86-12.68,0-17.53C321.29,591.07,323.72,596.45,323.45,602.71ZM214.63,196.44c-9.65-4.18-12-4.23-14.46-.05C205,197.79,209.56,199,214.63,196.44Zm39.94,445.74c-2.33,1.65-4.43,3-6.33,4.53-1.52,1.27-5.45.6-4.12,4.55C251.48,650.37,256.08,646.39,254.57,642.18ZM146.8,340.63,134,331.05C133.73,336.53,141.48,342.39,146.8,340.63ZM327.2,127.17c-5.71,7.54-6.44,14-.37,19.45C324,134.16,325.45,134.54,327.2,127.17Zm144.27,260.4c-3.79,1.17-2.31,3.31-1.28,5.12,2.33,4.09,6.27,5.36,10.86,3.36C476,395,472.81,392.2,471.47,387.57Zm42.08,103.82.25-1c-7.44-5.76-12.09-6.35-13.63-2ZM282.09,333.76,277,336.31l5.49,8.15C284.36,340.78,285.11,337.53,282.09,333.76ZM241.72,635.89c.48,1.27,1.05,3.58,1.38,3.55a18.78,18.78,0,0,0,6.8-1.66c1-.53,1.19-2.62,2-4.67Zm213-139.59c-8.12-1.77-8.22-1.76-10.16,1.15C450.38,502.31,452.34,502.08,454.76,496.3Zm42.52-26.53c-4,1.66-4.66,5.49-2.8,11.91C499.62,478.57,496.23,474.11,497.28,469.77ZM189.69,236.25c-6.52.19-11.11-2.07-12.5-10.06-1.89,4.46-.81,7.07,1.62,9.33C182.16,238.62,185.86,237.72,189.69,236.25Zm257,211.4c-3.3.73-3.12,3.5-2.38,6,.79,2.69,2,5.45,6,5.23C449.07,455.11,448,451.66,446.66,447.65ZM499,493.87l13.3,2.33C509.69,490.92,501.9,489.68,499,493.87ZM250.76,709.16l-1-.74q-5.4,7.11-10.81,14.23l1.18.85C245.19,719.86,248.36,714.8,250.76,709.16Zm52.73-571.65,5.57-18.64C304.47,122.21,301.71,131.4,303.49,137.51ZM235.9,575.71c-2.8,3.58-5,6.26-7,9.07-.45.62-.29,1.67-.41,2.53.86,0,2.29.43,2.5.08,2-3.25,3.76-6.59,5.48-10C236.65,577,236.08,576.22,235.9,575.71Zm204.84-50.56c-1-2-1.89-3.67-2.86-5.55L432.73,521c.52,2.22,1,4.14,1.46,6.2,2-.46,3.38-.77,4.79-1.14A11.82,11.82,0,0,0,440.74,525.15ZM382.9,212c-5.66-1.74-5.6-1.78-9.49-7.57-.57-.86-2-1.14-3.61-2C371.54,210.8,376.32,213.7,382.9,212ZM512.08,469.71c-.81-3.17-2.39-5.34-6-4.95-2.43.27-4.76.86-5.06,4.07ZM360.67,135.65c7.21,1.56,16.38-3.93,17-12.56C373.48,129.64,368.47,134.34,360.67,135.65Zm-2.32,448.61c3.75,1.44,19.1,2.44,23.84,0Zm4.7-29.6h-1v15h1.27A30.36,30.36,0,0,0,363.05,554.66ZM172.51,219.48l.61,1.21c6.62.48,12.38-2.21,18.63-5.06-5.43.52-10.26.82-15,1.52C175.24,217.37,173.91,218.67,172.51,219.48ZM260.42,157c3.49,6.78,10.22,7.57,14.26,2C269.2,163.29,265.11,158.42,260.42,157ZM346.3,514.1c.44-4-.65-7.12-4.73-10.13-.44,2-1.36,4.26-.92,4.56C342.8,510,341.43,515.09,346.3,514.1ZM439,589.73c-2.42,0-7.68,4.76-12,10.57C433.68,599.27,436,594.41,439,589.73ZM331.84,192.36l-.07.95,19.41,7.34c-.3-.73-.51-2.48-1.21-2.7C344,196,338.2,193,331.84,192.36Zm-206.52,114c2.2,3.15,6.86,3,9.71-.48.58-.7.45-2,.65-3-1,0-2.13-.36-3,0C130.3,303.77,128,305,125.32,306.31ZM436.19,547.07l-.36,1.87c1.63.7,3.38,2.17,4.85,1.94,3-.49,4.3-3,4.83-6.47ZM252.24,558.85a19.61,19.61,0,0,1-14.06-7.25C238.36,558.53,245,561.75,252.24,558.85Zm172.47,29.22c-1.57,1.15-3,2.64-4.75,3.35s-3.91.4-5.75,1c-1.12.35-2,1.54-3.51,2.82C417.72,595.9,421.63,593.94,424.71,588.07ZM148.33,336.14,138.46,328l-1.13.27c.38,1.46.34,3.31,1.24,4.31C140.82,335,143.35,337.49,148.33,336.14Zm204,167.62c0,2.72-.11,5.72.07,8.7.05.94.9,1.83,1.38,2.74.74-.44,1.85-.7,2.16-1.34C357.46,510.65,355.12,505.15,352.29,503.76Zm9.82,125.87c3.85,6.22,13.64,9.73,19.53,7.62a83.36,83.36,0,0,1-9.8-2.52C368.72,633.53,365.87,631.64,362.11,629.63Zm107-104.7L461,530.44c3.43,2.51,4,2.32,11-3.46ZM144.13,397c-3.65-7.06-8.69-9.6-13.21-7Zm99.33,249.52a14.43,14.43,0,0,0,10.12-7.41C243.94,641.29,242.8,642.07,243.46,646.54Zm160.13-193c-2.41,0-4.75.63-6.47-.13-3.7-1.64-5.17.31-6.94,2.89C395.69,457.92,398.58,457.33,403.59,453.55ZM285.42,345c3-2.92,5.77-5.58,4.65-9.79-.22-.8-2.5-1.06-3.78-1.55C286,337.7,285.73,341,285.42,345Zm-6.64,3.35-8.38-3.93v8Zm-31.7-156.9c.87,5.53,2.46,9.63,6.27,13.29-.85-4.21-1.56-7.8-2.36-11.8Zm-1.4,331.11c-3.2-2.32-5.66-4.2-8.25-5.88-.41-.27-1.73.18-2.07.67a2.65,2.65,0,0,0,.08,2.23C236.88,522.65,240.68,524,245.68,522.6ZM376.93,618c-1.24,1.31-3.29,3-.92,4.26,2.89,1.47,6.4,1.71,9.64,2.48.13-.47.26-.93.38-1.4Zm66.18-295.67.56-1.27c-4.13-5.17-8.5-6.84-12.26-4.93ZM357.58,651.45a11.85,11.85,0,0,0,8.49-7.25c.23-.54-1.23-1.82-2.35-3.35ZM179.84,491.9c-1.08,5.74,1.41,8.77,8.85,11.21ZM409.6,183.73c-3.26,4.47-6.63,9.09-9.85,13.52A14.41,14.41,0,0,0,409.6,183.73ZM274.3,338.29c-1,1.53-1.8,2.8-2.64,4.09l8,4.38C279.69,342.86,278.44,340.17,274.3,338.29Zm14.13,7.32c4.53-.82,6.73-3.56,7.92-7.05.2-.57-1.6-1.82-2.62-2.9Zm69.38,171,3.13,1.5c2-6,1.09-9.11-2.63-10.3C358.16,510.48,358,513.19,357.81,516.64Zm9.36,37.09H366V566.8h1.23A28.12,28.12,0,0,0,367.17,553.73ZM426.4,425.3c5.29,5.63,10.41,5.59,16.87.33-3,.66-5.9,1.8-8.73,1.74S429.11,426,426.4,425.3ZM250.85,771.51c4.14-4.2-1.58-6-1.32-9l-1-.17-2.53,6.1ZM352.46,558.78l-.95-.06v19.09l.95,0Zm-37.37,97.61c3.93-5.67,6.35-16.8,4.38-21.15Zm98.08-111.7c6.55.57,7.09.29,7.76-3.77C414.23,539.86,413.65,540.12,413.17,544.69Zm86.59-84.19c1.57-1.18,2.87-2.15,4.19-3.12s2.51-1.82,3.9-2.83c-2-2.83-4.12-2-5.87-.79C499.93,455.18,498,456.92,499.76,460.5ZM412.87,284.09c4.49-2.06,5.21-4.65,4.17-8-1.14-3.68-2.59-5-5.77-4.83C414.43,274.87,416.82,278.64,412.87,284.09ZM358.49,114.85c-5,6.28-10.81,10-19.59,6.52C345.33,127,354.93,123.78,358.49,114.85Zm23.91,466.6v-.14L359.36,580l-.06,1.43Zm-2.47-86.05c-3.81,3.38-7.05,6.25-10.27,9.12C373.32,507.55,376.11,505.24,379.93,495.4ZM202,509.09c-3.82,4.22-7.23,6.05-11.86,3.61-.87-.47-2.7.87-4.77,1.63C192.32,517.4,199.07,515.4,202,509.09ZM195.69,199l0,1.83h12.33l0-1.11C203.9,200.58,200,196.09,195.69,199ZM400.53,531.18c6.22.61,6.36.51,8.1-5.19C403.8,524.88,403.32,525.17,400.53,531.18ZM358.23,572l1.23.07V555.89h-1.23Zm25.16,55.72-10.87-4.52C371.08,626.75,375.78,629.12,383.39,627.72ZM258.94,194.61c-.79,4,1.28,6.12,4.26,7.34,2.16.89,4.55,1.57,6.94-1.33-2.78-.45-5.17-.28-6.9-1.26S260.34,196.24,258.94,194.61Zm-43.25-10.83c4.79,4.81,14.15,3.06,15.85-3.59C226.56,184.46,221.68,186.8,215.69,183.78Zm116.17-80.29c-8.48,7.21-8.11,12.73-.36,16.48C325.59,113.89,327.2,108.61,331.86,103.49Zm41.69,444c4.25-.28,8.47.6,9.76-4.94C379.43,542.47,375.83,542.66,373.55,547.49ZM205.48,453.85l-.44-1.53-14,4.37.36,1.14A21.72,21.72,0,0,0,205.48,453.85Zm260.61-189c-2.62,1.25-5.16,2.13-7.3,3.62-1,.67-1.35,2.49-1.55,3.86-.07.52,1,1.44,1.77,1.74.34.14,1.26-.68,1.66-1.24C462.38,270.37,464,267.89,466.09,264.8ZM281.88,584.07c1.46.58,2.86,1.64,3.48,1.3,3.55-2,6.64-4.49,8.23-9.14Zm53.45-375.43c-7.85-1.48-13.82,1.48-14.95,7.68C324.38,211.79,328.89,208.27,335.33,208.64Zm61.31-1.1c.28,5.86,3.94,10.05,9,10.79Zm-66.86-10,16.77,3.77C339.7,196.73,333.3,195.3,329.78,197.53Zm-148.95,28c-2.33,3.21-.69,5.18.95,6.74,2.57,2.44,5.36,2.06,8.08-.19C185.51,232,182.05,230.82,180.83,225.56ZM271.16,594c.24.4.48.79.71,1.19,3.89-.08,7.9.2,10.34-4.4a35.65,35.65,0,0,0-8.68,1.51A9.13,9.13,0,0,0,271.16,594ZM253.23,706l-10-10.45C243.4,701.6,246.33,704.83,253.23,706Zm-14.7,22,.78.72A15.56,15.56,0,0,0,249,717ZM412.32,533.15c-4.58-.58-6,2.11-7,5.51C411.8,539,411.85,539,412.32,533.15Zm92.91-83.45c-.53-3.6-2.29-3.57-4.55-2.34-3.11,1.69-3.71,3.32-2.25,6.27a37.67,37.67,0,0,1,3.13-2.27A38.51,38.51,0,0,1,505.23,449.7Zm-118-245.92c-1.47,6.09.42,10.35,5.25,13.89Zm21.61,11.7c-3.12-3.48-6.28-7-9.11-10.17C399.62,210.92,404.3,216.06,408.85,215.48ZM292.11,184.56c6.28,3.48,10.58,1.45,11.27-4.86C301.61,185.07,296.29,182.94,292.11,184.56Zm120.36,40.6,9.26,6.76C421.85,226.67,418,223.73,412.47,225.16ZM445.12,536.5l-9.2,2.3c1.59,4.16,4.21,2.28,6.28,1.91C444,540.39,446.51,540.4,445.12,536.5ZM250.65,628.57l-10.43,1.17c1.79,1.76,2.71,3.46,3.77,3.55C246.92,633.56,249.36,632.36,250.65,628.57Zm199-27.5a11.33,11.33,0,0,0,14.5-1.35Zm14.72-238,7,13.88A14.78,14.78,0,0,0,464.32,363.08ZM302.54,343.2l0-1.47L299,339.52l-5.65,6.56.73,1ZM319.6,605.34l1.58-.15a38.18,38.18,0,0,0-.64-14.09l-1.71,0ZM454.7,394.06c2.73,3.07,5.29,3.19,7.71,1.37.69-.51.28-2.48.42-4.45Zm-6.79-144.38.17-1c-6.17-1.85-12.36-3.25-18.76-1.32Zm-18.44-13.49,22.8,1.12A39,39,0,0,0,429.47,236.19Zm71.29,226.12.82,1,9.27-1.28c-1.17-1.63-2.49-3.9-2.76-3.78A73.78,73.78,0,0,0,500.76,462.31ZM490,455.14c3.61-2.51,4-4.51,1.88-6.91-2-2.18-2.91-.22-4.17.78C488.54,451.15,489.22,453,490,455.14Zm-224.35,261c-.38-5.55-.81-11.42-4.19-16.77-.67,1-1.26,2.07-1,2.88C262.14,707,264,711.64,265.68,716.12ZM242.19,578.31,240.76,577c-3-.39-2.47,2.88-3.51,4.41a64.09,64.09,0,0,0-3.31,6.11l1.36.8ZM162.53,242.86c-3,3-8.79-.57-11.47,5.19C156.19,248.05,160.05,247.06,162.53,242.86ZM484,332.75c1.68-2.36,5.44-3.84,2.73-6.33-2.11-1.95-4.3.59-6.55,3.2ZM465.3,398l-10.85.56C457.17,402.26,462.14,402.05,465.3,398ZM369.83,574.76l0,.69h15.27l.05-.69Zm-233.7-161.6c-.1-3.56-3.85-6.19-6.75-4.57-.59.33-1.34,1.41-1.18,1.82a3.26,3.26,0,0,0,1.9,1.72C132.07,412.64,134.12,412.84,136.13,413.16ZM451,484.34l.26,1.18c1.93.34,3.86.74,5.8,1a9.73,9.73,0,0,0,2.2-.24l1.28-5Zm-30.7-193.78c6.14-5.5,7.12-10.4,3.67-16.26C427.08,280.71,422.79,285.43,420.32,290.56Zm13.19,104.66-1-.93-7.2,9.38C430.43,402.93,432.42,400.87,433.51,395.22ZM280.72,656.89c4.25,2.33,6.95,1.21,10.11-4.11-1.77.61-3.57,1.38-5.44,1.83S281.21,653.91,280.72,656.89Zm44-532.19c-5.65,6.51-6.63,15.08-2.61,19.39C317.58,136.9,323.37,131.13,324.72,124.7ZM292.61,589.05c4.51.28,7.15-4.2,6.09-9.79C296.65,582.55,294.79,585.53,292.61,589.05Zm81.45-418.77-12.7,11.56C367.33,179.58,371.2,175.51,374.06,170.28Zm-193.93,304c-.16-3.55-.19-5.95-.43-8.32-.07-.64-.79-1.21-1.21-1.81-.71.5-2,.92-2.05,1.52C176,468.67,176.13,471.61,180.13,474.25ZM262.62,680c1.08-3.34,2-6.16,3-9.37C259.45,673.61,257.2,675.51,262.62,680ZM474.09,386.4c0,3.56,1.81,5.66,4.87,6.72,2.39.83,4.13.3,6.51-2C480.25,392.24,476.74,390.29,474.09,386.4ZM133.4,297.84l-1.19-.62-4.27,2.15c-.3.15-.76.2-.86.43a8.15,8.15,0,0,0-.86,2.65c0,.33,1.08,1.14,1.35,1a18.66,18.66,0,0,0,4.61-2.56C132.92,300.28,133,298.88,133.4,297.84ZM501.11,478.93l6.86,1,5,.77c0-.41,0-.82,0-1.23C509.46,478.09,506.05,475.17,501.11,478.93Zm-175-378.71c-7.19,5-8.72,9.23-5.43,15.73C319,108.9,322.87,104.71,326.15,100.22ZM498.2,435.11c-5.91,2-6.6,3.25-4,7.37C495.23,439.81,500.33,439.9,498.2,435.11ZM175.5,263.18l1,.77,10.14-12.88-1.48-1.14Zm246.58,265.9c-.12-2.09-.21-3.66-.3-5.16-4.95-.7-4.75,2.65-5.58,5.85ZM478,328l8.3-5.63c-4.65-.41-8.84.67-9.33,2.48C476.76,325.62,477.55,326.68,478,328Zm35.72,158.38c-2.35-4.09-7.41-5.51-12.17-3.78Zm-88.21-7.89L416,489.83a61.4,61.4,0,0,0,10.56-9.22C426.76,480.42,425.92,479.27,425.52,478.48ZM334.6,104.92c-7,5.87-6.39,10.92,1,14.54C329.32,115.56,331.4,110.67,334.6,104.92ZM299,134.2l1.22.36,4.29-14.93-1.4-.37Zm-66.49,662,1.35.46,5.31-14.81-1.54-.53Q235,788.79,232.46,796.23ZM388.79,618c-6.79-3-6.79-3-8.85-1.35C383.5,619.72,387,620.25,388.79,618ZM126.07,348.24c-.42,3.21-7.24.95-5.11,6.35C125.9,353.82,127.37,352.24,126.07,348.24Zm369.81,99.91,6.54-4.59-2.49-3C497.27,442.41,494.56,443.82,495.88,448.15ZM365,577.08l-.07,1.28,18.4.85.06-1.08ZM256.7,676.22c-3.22,3.15-.74,5.29.59,7.35.43.65,1.85.65,2.82.95.06-1,.47-2.16.09-2.94A49.82,49.82,0,0,0,256.7,676.22ZM397,606.67c2.88.48,2.88.48,10.35-3.19C402.73,600.34,400.22,604,397,606.67Zm-75.13,37.48c5.32-1.29,9-5.51,8.74-9.94Zm90.21-431.81-1.73,1.71-6.93-7.57C403.31,209.23,406.31,212.14,412.05,212.34ZM354.82,575.28H356c.72-5.61-.1-11.23,0-16.84h-1.16ZM486.61,387.56,477,384.74C477.47,389.29,480.39,390.47,486.61,387.56ZM449,506.82c4.28,3.67,4.28,3.67,7.65-.31C454,504.69,451.49,503,449,506.82ZM158.88,480.05l.74-.49c.18-2.71.36-5.42.56-8.58l-5.3,1.92C156.41,475.64,157.64,477.85,158.88,480.05ZM464.6,298c-.06-.49-.13-1-.19-1.48-3.9-.9-7.71-1.29-11,1.58l.14,1.16Zm-148,310.73,1.36,0-.81-13-2.09,0A121.25,121.25,0,0,0,316.62,608.73Zm177.09-179.6c-3.91,3.95-3.91,3.95-2.52,7.2l5.21-3.95Zm-35.48,19.69c-1.06-2.2-1.89-3.95-2.73-5.69-1.42,2.82-3.38,5.41-.22,8.51C456.38,450.59,457.3,449.72,458.23,448.82ZM253.44,740.75c.68-4.2-.4-6.87-3.33-9.14C247.15,736.11,250.89,737.71,253.44,740.75Zm94.23-193c-.52-3.32-1.82-5.45-5-5.34-.94,0-1.83,1.62-3,2.78ZM231.33,574.39l-5.79,7.24.33,1c1-.11,2.27.1,3-.41C231.12,580.73,232.43,578.64,231.33,574.39ZM151.49,380.13l.55-.41-2.93-9.84-3.18,5.26ZM428.25,250.57l14.68,1.58A16.21,16.21,0,0,0,428.25,250.57ZM400.4,541.8c-7-.53-7.07-.5-6.91,3.55C396.28,545.13,399.66,546.15,400.4,541.8ZM307.91,149.67c-1.8,5-3.1,10.07,0,15Zm31.55,405.12,1.35,1a22.79,22.79,0,0,0,2.77-4c.42-1,0-2.25,0-3.4-1.25.51-3.12.69-3.6,1.61C339.26,551.34,339.58,553.18,339.46,554.79Zm-64,149.06c1.42-8,.26-11.34-3.44-12C273.1,695.54,274.21,699.4,275.48,703.85ZM442.33,224.18c-5.6.09-7.38,3-5.21,7.79ZM141.8,445.64c4.63,2,7.86.08,8.31-5ZM288,587c3.66.86,7.36-3.72,7.82-9ZM159.44,278.71c-3.24,3.08-2.82,4.61,1.5,6.84C163.82,282.55,159.57,281.11,159.44,278.71Zm60.71,253.14.52-1c-1-1.79-1.91-3.58-3.12-5.87l-4.19,5.47ZM322.49,112.74l7.06-11.41C325.36,104.27,321.83,107.57,322.49,112.74Zm-9.33,499.53,2-.31-1.35-11.07C310.18,604.9,313.86,608.46,313.16,612.27Z"/></svg>