<svg height="512pt" viewBox="-41 0 512 512.00069" width="512pt" xmlns="http://www.w3.org/2000/svg"><path d="m251 133.355469c-4.753906 0-8.605469 3.851562-8.605469 8.605469v8.605468c0 4.753906 3.851563 8.605469 8.605469 8.605469 4.75 0 8.605469-3.851563 8.605469-8.605469v-8.605468c0-4.753907-3.855469-8.605469-8.605469-8.605469zm0 0"/><path d="m352.828125 322.675781h-51.632813v-43.027343c0-2.980469-1.542968-5.753907-4.078124-7.324219-.644532-.394531-1.339844-.703125-2.066407-.910157-.320312-.347656-.667969-.664062-1.042969-.945312l-19.988281-11.988281 27.175781-45.292969v-19.59375h8.605469c14.257813 0 25.816407-11.558594 25.816407-25.816406v-8.605469c-.023438-6.371094-2.414063-12.507813-6.710938-17.210937h41.132812c14.257813 0 25.816407-11.558594 25.816407-25.816407 0-14.257812-11.558594-25.816406-25.816407-25.816406h-68.84375v-25.871094c-.027343-.988281-.226562-1.964843-.585937-2.890625-.09375-.25-.179687-.480468-.292969-.722656-.109375-.242188-.136718-.414062-.25-.601562l-27.003906-47.234376c-6.410156-11.15625-20.03125-15.917968-31.996094-11.1875l-16.347656 6.539063c-6.152344 2.46875-13.023438 2.46875-19.175781 0l-16.347657-6.539063c-11.96875-4.722656-25.585937.039063-32.007812 11.1875l-26.96875 47.199219c-.109375.191407-.152344.40625-.25.601563-.09375.199218-.195312.476562-.292969.722656-.363281.933594-.566406 1.925781-.59375 2.929688v25.867187h-68.84375c-14.257812 0-25.816406 11.558594-25.816406 25.816406 0 14.257813 11.558594 25.816407 25.816406 25.816407h41.136719c-4.296875 4.703124-6.691406 10.839843-6.714844 17.210937v8.605469c0 14.257812 11.558594 25.816406 25.816406 25.816406h8.605469v19.59375l27.167969 45.285156-22.992188 13.769532h-.070312c-.824219.535156-1.550781 1.210937-2.148438 1.996093-.15625.195313-.292968.378907-.433593.585938-.550781.785156-.960938 1.65625-1.21875 2.578125v.207031c-.1875.664063-.285157 1.351563-.304688 2.039063v43.03125h-51.632812c-42.753907.046874-77.402344 34.695312-77.449219 77.449218v103.265625c0 4.753907 3.851562 8.605469 8.605469 8.605469h413.066406c4.753906 0 8.605469-3.851562 8.605469-8.605469v-103.265625c-.046875-42.757812-34.695313-77.402344-77.449219-77.453125zm-99.507813 50.363281 26.292969 26.28125-47.332031 36.804688zm-12.363281-77.195312-1.050781.527344-48.585938.488281-2-1.011719v-16.199218h51.636719zm9.664063 15.277344c.398437-.425782.75-.890625 1.046875-1.386719l32.316406-16.160156v32.839843l-28.011719 16.804688zm24.09375-32.160156-16.546875 8.277343v-17.328125l.695312-.457031zm9.269531-80.089844-8.605469-2.875v-11.007813c0-.066406 0-.121093 0-.1875 3.265625-2.472656 6.160156-5.398437 8.605469-8.683593zm-34.421875-22.488282c-14.257812 0-25.816406-11.558593-25.816406-25.816406 0-14.257812 11.558594-25.816406 25.816406-25.816406s25.816406 11.558594 25.816406 25.816406c0 14.257813-11.558594 25.816406-25.816406 25.816406zm68.84375-8.605468c0 4.753906-3.851562 8.605468-8.605469 8.605468h-8.605469v-25.816406h8.605469c4.753907 0 8.605469 3.851563 8.605469 8.605469zm-146.25-146.234375c2.128906-3.722657 6.675781-5.308594 10.660156-3.71875l16.351563 6.542969c10.253906 4.113281 21.699219 4.113281 31.953125 0l16.347656-6.542969c3.984375-1.589844 8.53125-.003907 10.664062 3.71875l19.628907 34.363281h-125.246094zm-25.863281 51.574219h137.691406v17.210937h-137.691406zm-86.054688 51.632812c-4.753906 0-8.605469-3.851562-8.605469-8.605469 0-4.753906 3.851563-8.605469 8.605469-8.605469h309.800781c4.753907 0 8.605469 3.851563 8.605469 8.605469 0 4.753907-3.851562 8.605469-8.605469 8.605469 0 0-85.261718.242188-85.933593.414062-13.808594-19.066406-40.457031-23.332031-59.523438-9.523437-3.519531 2.546875-6.628906 5.621094-9.21875 9.109375zm68.84375 51.632812h-8.605469c-4.75 0-8.605468-3.851562-8.605468-8.605468v-8.605469c0-4.753906 3.855468-8.605469 8.605468-8.605469h8.605469zm17.210938 32.039063v-66.460937h27.253906v8.605468c0 4.753906 3.855469 8.605469 8.605469 8.605469 4.753906 0 8.605468-3.851563 8.605468-8.605469v-8.605468h16.636719c-.574219 2.832031-.863281 5.714843-.859375 8.605468 0 1.085938.238282 2.101563.316406 3.160156l-16.273437 26.789063c-2.472656 4.058594-1.1875 9.351563 2.871094 11.824219.207031.125.417969.242187.632812.351562l17.210938 8.605469c4.253906 2.125 9.425781.398437 11.546875-3.855469 2.125-4.253906.398437-9.425781-3.851563-11.550781l-8.855469-4.421875 4-6.574219c9.75 14.265625 27.105469 21.296875 44.035157 17.839844v9.464844c.003906 3.703125 2.375 6.988281 5.886719 8.160156l15.636718 5.214844-19.304687 32.175781-22.011719 14.6875h-46.46875l-22.039062-14.6875zm25.121093 61.023437.699219.464844v17.328125l-16.550781-8.277343zm-25.121093 24.128907 33.496093 16.746093-5.484374 32.898438-28.011719-16.804688zm51.695312 142.550781-47.332031-36.804688 26.292969-26.28125zm8.546875 58.664062h-120.480468v-51.632812c0-4.753906-3.851563-8.605469-8.605469-8.605469-4.75 0-8.605469 3.851563-8.605469 8.605469v51.632812h-51.632812v-94.660156c.039062-33.253906 26.984374-60.203125 60.238281-60.242187h57.855469l31.53125 18.933593-35.230469 35.230469c-3.371094 3.351563-3.386719 8.800781-.035157 12.171875.261719.261719.539063.511719.835938.738282l74.128906 57.613281zm-16.980468-138.386718 7.066406-42.398438 37.003906-.363281 7.125 42.761719-25.609375 76.746094zm223.511718 138.386718h-43.027344v-51.632812c0-4.753906-3.851562-8.605469-8.605468-8.605469s-8.605469 3.851563-8.605469 8.605469v51.632812h-129.082031v-30.214843l74.125-57.65625c3.761718-2.910157 4.449218-8.316407 1.539062-12.074219-.226562-.292969-.472656-.574219-.738281-.835938l-35.230469-35.1875 31.730469-19.0625c.214844 0 .402344.128907.625.128907h57.03125c33.253906.039062 60.199219 26.988281 60.238281 60.242187zm0 0"/><path d="m240.957031 460.367188h17.210938v17.210937h-17.210938zm0 0"/><path d="m197.929688 236.621094h7.992187c13.703125.042968 26.847656-5.40625 36.503906-15.128906l4.613281-4.601563c3.417969-3.304687 3.515626-8.75.210938-12.167969-3.300781-3.417968-8.75-3.515625-12.167969-.210937-.070312.066406-.140625.136719-.210937.210937l-4.613282 4.601563c-6.4375 6.480469-15.199218 10.113281-24.335937 10.085937h-7.992187c-4.753907 0-8.605469 3.855469-8.605469 8.605469 0 4.753906 3.851562 8.605469 8.605469 8.605469zm0 0"/><path d="m327.011719 460.367188h-43.027344c-4.753906 0-8.605469 3.851562-8.605469 8.605468s3.851563 8.605469 8.605469 8.605469h43.027344c4.753906 0 8.605469-3.851563 8.605469-8.605469s-3.851563-8.605468-8.605469-8.605468zm0 0"/></svg>