<svg height="496pt" viewBox="0 0 496 496" width="496pt" xmlns="http://www.w3.org/2000/svg"><path d="m496 176c0-66.167969-53.832031-120-120-120-20.222656 0-39.265625 5.078125-56 13.953125v-69.953125h-243.3125l-76.6875 76.6875v419.3125h320v-213.953125c9.9375 5.265625 20.664062 9.21875 32 11.527344v18.425781h-16v122.425781l40 60 40-60v-122.425781h-16v-18.414062c54.703125-11.152344 96-59.632813 96-117.585938zm-16 0c0 57.34375-46.65625 104-104 104s-104-46.65625-104-104 46.65625-104 104-104 104 46.65625 104 104zm-208 59.617188v12.382812h-224v-128h221.953125c-8.875 16.734375-13.953125 35.777344-13.953125 56 0 21.703125 5.878906 42.023438 16 59.617188zm-200-208.304688v44.6875h-44.6875zm232 452.6875h-288v-392h72v-72h216v64.222656c-9.097656 6.855469-17.167969 14.953125-24 24.082032v-.304688h-248v160h256v-6.6875c4.886719 5.289062 10.238281 10.121094 16 14.464844zm64-152v40h16v-40h16v96h-16v-40h-16v40h-16v-96zm-9.054688 112h34.101563l-17.046875 25.574219zm25.054688-128h-16v-16.40625c2.65625.175781 5.296875.40625 8 .40625s5.34375-.230469 8-.40625zm0 0"/><path d="m376 104c39.695312 0 72 32.296875 72 72 0 16.558594-5.777344 32.742188-16.257812 45.542969l12.386718 10.144531c12.816406-15.664062 19.871094-35.441406 19.871094-55.6875 0-48.519531-39.480469-88-88-88-20.246094 0-40.023438 7.0625-55.6875 19.878906l10.136719 12.378906c12.808593-10.480468 28.992187-16.257812 45.550781-16.257812zm0 0"/><path d="m376 264c20.246094 0 40.023438-7.0625 55.6875-19.878906l-10.136719-12.378906c-12.808593 10.480468-28.992187 16.257812-45.550781 16.257812-39.695312 0-72-32.296875-72-72 0-16.558594 5.777344-32.742188 16.257812-45.542969l-12.386718-10.144531c-12.816406 15.664062-19.871094 35.441406-19.871094 55.6875 0 48.519531 39.480469 88 88 88zm0 0"/><path d="m368 168h16v16h-16zm0 0"/><path d="m400 168h16v16h-16zm0 0"/><path d="m336 168h16v16h-16zm0 0"/><path d="m104 32h16v16h-16zm0 0"/><path d="m136 32h152v16h-152zm0 0"/><path d="m104 64h16v16h-16zm0 0"/><path d="m136 64h152v16h-152zm0 0"/><path d="m32 280h112v16h-112zm0 0"/><path d="m32 312h112v16h-112zm0 0"/><path d="m32 344h256v16h-256zm0 0"/><path d="m32 376h256v16h-256zm0 0"/><path d="m32 408h256v16h-256zm0 0"/><path d="m32 440h64v16h-64zm0 0"/><path d="m112 440h64v16h-64zm0 0"/><path d="m160 280h16v16h-16zm0 0"/><path d="m160 312h16v16h-16zm0 0"/><path d="m192 280h16v16h-16zm0 0"/><path d="m192 312h16v16h-16zm0 0"/><path d="m224 280h16v16h-16zm0 0"/></svg>