<svg xmlns="http://www.w3.org/2000/svg" xmlns:xlink="http://www.w3.org/1999/xlink" xmlns:lucid="lucid" width="2656" height="3456"><g transform="translate(1296 0)" lucid:page-tab-id="YGcM5DNywbTK"><g filter="url(#a)"><path d="M-129.12 20c22.64 0 41 17.9 41 40s-18.36 40-41 40h-123.02c-22.65 0-41-17.9-41-40s18.35-40 41-40z" stroke="#3d4752" stroke-width="4" fill="#ffdba9"/><use xlink:href="#b" transform="matrix(1,0,0,1,-278.1506849315068,34.999999999999886) translate(59.888888888888886 30.708333333333336)"/></g><path d="M-190.63 104V135.26" stroke="#3d4752" stroke-width="4" fill="none"/><path d="M-188.63 104.05h-4V102h4z" fill="#3d4752"/><path d="M-190.63 151.53l-4.64-14.27h9.27z" stroke="#3d4752" stroke-width="4" fill="#3d4752"/><g filter="url(#c)"><path d="M-275.15 160h187.03v120c-31.23-20.04-50.68-20.04-62.47-20.04-18.7 0-43.56 20.04-62.27 20.04-11.6 0-31.23 0-62.28-20.04z" stroke="#3d4752" stroke-width="4" fill="#fff"/><use xlink:href="#d" transform="matrix(1,0,0,1,-270.1486133490978,164.99999999999997) translate(49.07407407407407 49.458333333333336)"/></g><g filter="url(#c)"><path d="M-275.15 742.5h187.03v120c-31.23-20.04-50.68-20.04-62.47-20.04-18.7 0-43.56 20.04-62.27 20.04-11.6 0-31.23 0-62.28-20.04z" stroke="#3d4752" stroke-width="4" fill="#fff"/><use xlink:href="#e" transform="matrix(1,0,0,1,-270.1486133490978,747.5) translate(20.962962962962962 49.458333333333336)"/></g><g filter="url(#c)"><path d="M401.56 742.5H588.6v120c-31.25-20.04-50.7-20.04-62.48-20.04-18.7 0-43.58 20.04-62.28 20.04-11.6 0-31.24 0-62.28-20.04z" stroke="#3d4752" stroke-width="4" fill="#fff"/><use xlink:href="#f" transform="matrix(1,0,0,1,406.55604183436594,747.5) translate(49.85185185185185 49.458333333333336)"/></g><path d="M-279.15 220h-446.5v64.9" stroke="#494949" stroke-width="4" fill="none"/><path d="M-277.15 222h-2.05v-4h2.05z" fill="#494949"/><path d="M-725.66 301.17l-4.64-14.26h9.27z" stroke="#494949" stroke-width="4" fill="#494949"/><path d="M-84.12 220h579.2v497.76" stroke="#494949" stroke-width="4" fill="none"/><path d="M-84.07 222h-2.05v-4h2.05z" fill="#494949"/><path d="M495.07 734.03l-4.63-14.27h9.27z" stroke="#494949" stroke-width="4" fill="#494949"/><g filter="url(#c)"><path d="M-819.18 1180h187.03v120c-31.23-20.04-50.68-20.04-62.46-20.04-18.72 0-43.6 20.04-62.3 20.04-11.6 0-31.23 0-62.28-20.04z" stroke="#3d4752" stroke-width="4" fill="#fff"/><use xlink:href="#g" transform="matrix(1,0,0,1,-814.1780821917808,1185) translate(23.8888888888889 49.458333333333336)"/></g><g filter="url(#c)"><path d="M-1111.42 1390h187.04v120c-31.24-20.04-50.7-20.04-62.47-20.04-18.7 0-43.58 20.04-62.28 20.04-11.6 0-31.24 0-62.3-20.04z" stroke="#3d4752" stroke-width="4" fill="#fff"/><use xlink:href="#h" transform="matrix(1,0,0,1,-1106.4155251141551,1395) translate(51.33333333333333 49.458333333333336)"/></g><path d="M-823.18 1240h-194.72v125.26" stroke="#494949" stroke-width="4" fill="none"/><path d="M-821.18 1242h-2.05v-4h2.05z" fill="#494949"/><path d="M-1017.9 1381.53l-4.63-14.27h9.27z" stroke="#494949" stroke-width="4" fill="#494949"/><g filter="url(#c)"><path d="M401.56 1390H588.6v120c-31.25-20.04-50.7-20.04-62.48-20.04-18.7 0-43.58 20.04-62.28 20.04-11.6 0-31.24 0-62.28-20.04z" stroke="#3d4752" stroke-width="4" fill="#fff"/><use xlink:href="#i" transform="matrix(1,0,0,1,406.55604183436594,1395) translate(54.925925925925924 49.458333333333336)"/></g><g filter="url(#c)"><path d="M-55.74 1620H131.3v120c-31.24-20.04-50.7-20.04-62.47-20.04-18.7 0-43.58 20.04-62.28 20.04-11.6 0-31.24 0-62.3-20.04z" stroke="#3d4752" stroke-width="4" fill="#fff"/><use xlink:href="#j" transform="matrix(1,0,0,1,-50.736618653783694,1625) translate(60.888888888888886 49.458333333333336)"/></g><g filter="url(#c)"><path d="M401.56 1620H588.6v120c-31.25-20.04-50.7-20.04-62.48-20.04-18.7 0-43.58 20.04-62.28 20.04-11.6 0-31.24 0-62.28-20.04z" stroke="#3d4752" stroke-width="4" fill="#fff"/><use xlink:href="#k" transform="matrix(1,0,0,1,406.55604183436594,1625) translate(44.66666666666666 49.458333333333336)"/></g><g filter="url(#c)"><path d="M858.85 1620h187.03v120c-31.23-20.04-50.68-20.04-62.47-20.04-18.7 0-43.57 20.04-62.27 20.04-11.6 0-31.23 0-62.28-20.04z" stroke="#3d4752" stroke-width="4" fill="#fff"/><use xlink:href="#l" transform="matrix(1,0,0,1,863.8487023225156,1625) translate(43.222222222222214 49.458333333333336)"/></g><path d="M397.56 1450H37.78v145.26" stroke="#494949" stroke-width="4" fill="none"/><path d="M399.56 1452h-2.06v-4h2.06z" fill="#494949"/><path d="M37.78 1611.53l-4.64-14.27h9.27z" stroke="#494949" stroke-width="4" fill="#494949"/><path d="M495.07 1503.93v91.33" stroke="#494949" stroke-width="4" fill="none"/><path d="M497.07 1503.98h-4v-1.2l4-1.7z" fill="#494949"/><path d="M495.07 1611.53l-4.63-14.27h9.27z" stroke="#494949" stroke-width="4" fill="#494949"/><path d="M592.6 1450h359.76v145.26" stroke="#494949" stroke-width="4" fill="none"/><path d="M592.64 1452h-2.05v-4h2.04z" fill="#494949"/><path d="M952.36 1611.53l-4.63-14.27H957z" stroke="#494949" stroke-width="4" fill="#494949"/><g filter="url(#m)"><path d="M495.07 2020l125.25 80-125.25 80-125.25-80z" stroke="#3d4752" stroke-width="4" fill="#fff"/><use xlink:href="#n" transform="matrix(1,0,0,1,374.81911680759384,2025) translate(53.33833333333334 82.27083333333334)"/><use xlink:href="#o" transform="matrix(1,0,0,1,374.81911680759384,2025) translate(149.63462962962961 82.27083333333334)"/></g><g filter="url(#p)"><path d="M541.83 1860c0 22.1-20.93 40-46.76 40-25.82 0-46.76-17.9-46.76-40s20.95-40 46.77-40c25.83 0 46.76 17.9 46.76 40z" stroke="#3d4752" stroke-width="4" fill="#fff"/><use xlink:href="#q" transform="matrix(1,0,0,1,453.31403270194585,1825) translate(33.111111111111114 41.020833333333336)"/></g><path d="M952.36 1733.93V1860h-385.8" stroke="#494949" stroke-width="4" fill="none"/><path d="M954.36 1733.98h-4v-1.2l4-1.7z" fill="#494949"/><path d="M550.3 1860l14.27-4.64v9.28z" stroke="#494949" stroke-width="4" fill="#494949"/><path d="M495.07 1733.93v61.33" stroke="#494949" stroke-width="4" fill="none"/><path d="M497.07 1733.98h-4v-1.2l4-1.7z" fill="#494949"/><path d="M495.07 1811.53l-4.63-14.27h9.27z" stroke="#494949" stroke-width="4" fill="#494949"/><path d="M37.78 1733.93V1860h385.8" stroke="#494949" stroke-width="4" fill="none"/><path d="M39.78 1733.98h-4v-1.2l4-1.7z" fill="#494949"/><path d="M439.84 1860l-14.27 4.64v-9.28z" stroke="#494949" stroke-width="4" fill="#494949"/><path d="M495.07 1904v90.9" stroke="#494949" stroke-width="4" fill="none"/><path d="M495.06 1902l2-.07v2.12h-4v-2.15z" fill="#494949"/><path d="M495.07 2011.15l-4.63-14.26h9.27z" stroke="#494949" stroke-width="4" fill="#494949"/><path d="M497.07 2295.26h-4v-29.07h4zm0-61.07h-4v-49.83h4z" fill="#494949"/><path d="M497.07 2184.42h-4v-3.32l2 1.27 2-1.27zM495.07 2311.53l-4.63-14.27h9.27z" fill="#494949"/><path d="M495.07 2318l-7.4-22.74h14.8zm-1.88-18.74l1.87 5.8 1.88-5.8z" fill="#494949"/><use xlink:href="#r" transform="matrix(1,0,0,1,473.331282828785,2234.186569587044) translate(0.004999999999999005 21.333333333333336)"/><g filter="url(#c)"><path d="M401.56 2320H588.6v120H401.55z" stroke="#3d4752" stroke-width="4" fill="#fff"/><use xlink:href="#s" transform="matrix(1,0,0,1,406.55604183436594,2325) translate(55.03703703703703 59.145833333333336)"/></g><path d="M-1238 2098H364.1v4H-1242v-170h4zm357.23-1706H-1238v1508h-4V388h361.23z" fill="#494949"/><path d="M369.1 2098.08l-3 1.92 3 1.92-5.05.08v-4h5.05zM-864.5 390l-14.27 4.64v-9.28z" fill="#494949"/><path d="M-858.03 390l-22.74 7.4v-14.8zm-18.74 1.88l5.8-1.88-5.8-1.88z" fill="#494949"/><use xlink:href="#t" transform="matrix(1,0,0,1,-1257,1899.9971632869724) translate(0.004999999999999005 21.333333333333336)"/><g filter="url(#c)"><path d="M-725.66 940l93.5 60-93.5 60-93.52-60z" stroke="#3d4752" stroke-width="4" fill="#fff"/><use xlink:href="#u" transform="matrix(1,0,0,1,-814.1780821917808,945) translate(38.134629629629615 59.145833333333336)"/></g><path d="M-723.66 1155.26h-4v-19.07h4zm0-51.07h-4v-39.82h4z" fill="#494949"/><path d="M-723.66 1064.43h-4v-3.34l2 1.28 2-1.3zM-725.66 1171.53l-4.64-14.27h9.27z" fill="#494949"/><path d="M-725.66 1178l-7.4-22.74h14.8zm-1.88-18.74l1.88 5.8 1.88-5.8z" fill="#494949"/><use xlink:href="#r" transform="matrix(1,0,0,1,-747.4028411973618,1104.1881297743857) translate(0.004999999999999005 21.333333333333336)"/><g filter="url(#v)"><path d="M-725.66 310l128.58 80-128.58 80-128.6-80z" stroke="#3d4752" stroke-width="4" fill="#fff"/><use xlink:href="#w" transform="matrix(1,0,0,1,-849.2465753424658,315) translate(51.764259259259276 82.27083333333334)"/></g><g filter="url(#c)"><path d="M-819.18 742.5h187.03v120c-31.23-20.04-50.68-20.04-62.46-20.04-18.72 0-43.6 20.04-62.3 20.04-11.6 0-31.23 0-62.28-20.04z" stroke="#3d4752" stroke-width="4" fill="#fff"/><use xlink:href="#x" transform="matrix(1,0,0,1,-814.1780821917808,747.5) translate(56.44444444444444 49.458333333333336)"/></g><path d="M-723.66 717.76h-4v-95.33h4zm0-127.33h-4V474.36h4z" fill="#494949"/><path d="M-723.66 474.4h-4v-3.3l2 1.26 2-1.25zM-725.66 734.03l-4.64-14.27h9.27z" fill="#494949"/><path d="M-725.66 740.5l-7.4-22.74h14.8zm-1.88-18.74l1.88 5.8 1.88-5.8z" fill="#494949"/><use xlink:href="#r" transform="matrix(1,0,0,1,-747.4028411973619,590.4277443908026) translate(0.004999999999999005 21.333333333333336)"/><path d="M-725.66 856.43v58.46" stroke="#494949" stroke-width="4" fill="none"/><path d="M-723.66 856.48h-4v-1.2l4-1.7z" fill="#494949"/><path d="M-725.66 931.15l-4.64-14.26h9.27z" stroke="#494949" stroke-width="4" fill="#494949"/><path d="M-433.22 800.5h133.33v4H-437.2V612.25h4zm0-220.25h-4V392H-591.3v-4h158.08z" fill="#494949"/><path d="M-591.24 392h-5.05v-.13l3-1.87-3-1.87V388h5.06zM-283.62 802.5l-14.27 4.64v-9.28z" fill="#494949"/><path d="M-277.15 802.5l-22.74 7.4v-14.8zm-18.74 1.88l5.8-1.88-5.8-1.88z" fill="#494949"/><use xlink:href="#t" transform="matrix(1,0,0,1,-452.2201237365099,580.25) translate(0.004999999999999005 21.333333333333336)"/><g filter="url(#y)"><path d="M-181.63 340l125.9 75-125.9 75-125.9-75z" stroke="#3d4752" stroke-width="4" fill="#fff"/><use xlink:href="#z" transform="matrix(1,0,0,1,-302.52864457409225,345.00000000000006) translate(55.227222222222224 73.83333333333334)"/><use xlink:href="#A" transform="matrix(1,0,0,1,-302.52864457409225,345.00000000000006) translate(115.81981481481482 73.83333333333334)"/></g><path d="M-179.63 717.76h-4V632.4h4zm0-117.35h-4V494.34h4z" fill="#494949"/><path d="M-179.63 494.38h-4v-3.24l2 1.2 2-1.2zM-181.63 734.03l-4.64-14.27h9.27z" fill="#494949"/><path d="M-181.63 740.5l-7.4-22.74h14.8zm-1.9-18.74l1.9 5.8 1.88-5.8z" fill="#494949"/><use xlink:href="#r" transform="matrix(1,0,0,1,-203.37337235467874,600.4139990996939) translate(0.004999999999999005 21.333333333333336)"/><path d="M-181.63 273.93v41" stroke="#494949" stroke-width="4" fill="none"/><path d="M-179.63 273.98h-4v-1.2l4-1.7z" fill="#494949"/><path d="M-181.63 331.2l-4.64-14.27h9.27z" stroke="#494949" stroke-width="4" fill="#494949"/><path d="M-558 978H85.4v4H-562V804.5h-45.4v-4h49.4zm757.8 4h-80.4v-4h76.4V417H-49.82v-4H199.8z" fill="#494949"/><path d="M-49.78 417h-5.05v-.2l3-1.8-3-1.8v-.2h5.05zM-609.4 807.14l-14.27-4.64 14.26-4.64z" fill="#494949"/><path d="M-607.4 809.9l-22.75-7.4 22.74-7.4zm-9.8-7.4l5.8 1.88v-3.76z" fill="#494949"/><use xlink:href="#t" transform="matrix(1,0,0,1,85.39956423882131,964) translate(0.004999999999999005 21.333333333333336)"/><path d="M-725.66 1293.93v1021.33" stroke="#494949" stroke-width="4" fill="none"/><path d="M-723.66 1293.98h-4v-1.2l4-1.7z" fill="#494949"/><path d="M-725.66 2331.53l-4.64-14.27h9.27z" stroke="#494949" stroke-width="4" fill="#494949"/><g filter="url(#p)"><path d="M-678.9 2380c0 22.1-20.94 40-46.76 40-25.83 0-46.76-17.9-46.76-40s20.93-40 46.76-40c25.82 0 46.76 17.9 46.76 40z" stroke="#3d4752" stroke-width="4" fill="#fff"/><use xlink:href="#q" transform="matrix(1,0,0,1,-767.4200913242009,2345) translate(33.111111111111114 41.020833333333336)"/></g><path d="M-1017.9 1503.93V2380h220.74" stroke="#494949" stroke-width="4" fill="none"/><path d="M-1015.9 1503.98h-4v-1.2l4-1.7z" fill="#494949"/><path d="M-780.9 2380l-14.26 4.64v-9.28z" stroke="#494949" stroke-width="4" fill="#494949"/><path d="M397.56 2380H-654.16" stroke="#494949" stroke-width="4" fill="none"/><path d="M399.56 2382h-2.06v-4h2.06z" fill="#494949"/><path d="M-670.43 2380l14.27-4.64v9.28z" stroke="#494949" stroke-width="4" fill="#494949"/><path d="M-1109.42 998h284.54v4h-288.54V728.58h4zm228.65-606h-228.65v304.58h-4V388h232.65z" fill="#494949"/><path d="M-819.88 998.08l-3 1.92 3 1.92-5.05.08v-4h5.05zM-864.5 390l-14.27 4.64v-9.28z" fill="#494949"/><path d="M-858.03 390l-22.74 7.4v-14.8zm-18.74 1.88l5.8-1.88-5.8-1.88z" fill="#494949"/><use xlink:href="#t" transform="matrix(1,0,0,1,-1128.4155251141553,696.5754233422758) translate(0.004999999999999005 21.333333333333336)"/><path d="M-725.66 2424v91.26" stroke="#494949" stroke-width="4" fill="none"/><path d="M-725.68 2422l2.02-.07v2.12h-4v-2.15z" fill="#494949"/><path d="M-725.66 2531.53l-4.64-14.27h9.27z" stroke="#494949" stroke-width="4" fill="#494949"/><g filter="url(#c)"><path d="M1132.97 490H1320v120c-31.23-20.04-50.7-20.04-62.47-20.04-18.7 0-43.58 20.04-62.28 20.04-11.6 0-31.23 0-62.28-20.04z" stroke="#3d4752" stroke-width="4" fill="#fff"/><use xlink:href="#B" transform="matrix(1,0,0,1,1137.9680365296806,495) translate(40.925925925925924 49.458333333333336)"/></g><g filter="url(#c)"><path d="M1132.97 657.5H1320v120c-31.23-20.04-50.7-20.04-62.47-20.04-18.7 0-43.58 20.04-62.28 20.04-11.6 0-31.23 0-62.28-20.04z" stroke="#3d4752" stroke-width="4" fill="#fff"/><use xlink:href="#C" transform="matrix(1,0,0,1,1137.9680365296806,662.5) translate(56.48148148148148 49.458333333333336)"/></g><g filter="url(#c)"><path d="M1132.97 825H1320v120c-31.23-20.04-50.7-20.04-62.47-20.04-18.7 0-43.58 20.04-62.28 20.04-11.6 0-31.23 0-62.28-20.04z" stroke="#3d4752" stroke-width="4" fill="#fff"/><use xlink:href="#D" transform="matrix(1,0,0,1,1137.9680365296806,830) translate(32.74074074074073 49.458333333333336)"/></g><g filter="url(#c)"><path d="M1132.97 990H1320v120c-31.23-20.04-50.7-20.04-62.47-20.04-18.7 0-43.58 20.04-62.28 20.04-11.6 0-31.23 0-62.28-20.04z" stroke="#3d4752" stroke-width="4" fill="#fff"/><use xlink:href="#E" transform="matrix(1,0,0,1,1137.9680365296806,995) translate(34.22222222222222 49.458333333333336)"/><use xlink:href="#F" transform="matrix(1,0,0,1,1137.9680365296806,995) translate(111.25925925925927 49.458333333333336)"/></g><path d="M592.6 802.5h268.18v-85h247.45" stroke="#494949" stroke-width="4" fill="none"/><path d="M592.64 804.5h-2.05v-4h2.04z" fill="#494949"/><path d="M1124.5 717.5l-14.27 4.64v-9.28z" stroke="#494949" stroke-width="4" fill="#494949"/><path d="M592.6 802.5h268.18V550h247.45" stroke="#494949" stroke-width="4" fill="none"/><path d="M592.64 804.5h-2.05v-4h2.04z" fill="#494949"/><path d="M1124.5 550l-14.27 4.64v-9.28z" stroke="#494949" stroke-width="4" fill="#494949"/><path d="M592.6 802.5h268.18V885h247.45" stroke="#494949" stroke-width="4" fill="none"/><path d="M592.64 804.5h-2.05v-4h2.04z" fill="#494949"/><path d="M1124.5 885l-14.27 4.64v-9.28z" stroke="#494949" stroke-width="4" fill="#494949"/><path d="M592.6 802.5h268.18V1050h247.45" stroke="#494949" stroke-width="4" fill="none"/><path d="M592.64 804.5h-2.05v-4h2.04z" fill="#494949"/><path d="M1124.5 1050l-14.27 4.64v-9.28z" stroke="#494949" stroke-width="4" fill="#494949"/><g filter="url(#p)"><path d="M-143.88 2600c0 22.1-20.93 40-46.75 40-25.83 0-46.76-17.9-46.76-40s20.94-40 46.77-40c25.82 0 46.75 17.9 46.75 40z" stroke="#3d4752" stroke-width="4" fill="#fff"/><use xlink:href="#q" transform="matrix(1,0,0,1,-232.3916582727224,2565) translate(33.111111111111114 41.020833333333336)"/></g><g filter="url(#a)"><path d="M-129.12 2800c22.64 0 41 17.9 41 40s-18.36 40-41 40h-123.02c-22.65 0-41-17.9-41-40s18.35-40 41-40z" stroke="#3d4752" stroke-width="4" fill="#ffdba9"/><use xlink:href="#G" transform="matrix(1,0,0,1,-278.1506849315068,2815) translate(64.29629629629629 30.708333333333336)"/></g><g filter="url(#H)"><path d="M-805.66 2540h160v120h-160z" stroke="#3d4752" stroke-width="4" fill="#fff"/><use xlink:href="#I" transform="matrix(1,0,0,1,-800.662100456621,2545) translate(34.25925925925926 59.145833333333336)"/></g><path d="M-190.63 2644v131.26" stroke="#494949" stroke-width="4" fill="none"/><path d="M-190.65 2642l2.02-.07v2.12h-4v-2.15z" fill="#494949"/><path d="M-190.63 2791.53l-4.64-14.27h9.27z" stroke="#494949" stroke-width="4" fill="#494949"/><path d="M495.07 856.43v508.83" stroke="#494949" stroke-width="4" fill="none"/><path d="M497.07 856.48h-4v-1.2l4-1.7z" fill="#494949"/><path d="M495.07 1381.53l-4.63-14.27h9.27z" stroke="#494949" stroke-width="4" fill="#494949"/><path d="M-181.63 856.43v38H-560V802.5h-47.4" stroke="#494949" stroke-width="4" fill="none"/><path d="M-179.63 856.48h-4v-1.2l4-1.7z" fill="#494949"/><path d="M-623.67 802.5l14.26-4.64v9.28z" stroke="#494949" stroke-width="4" fill="#494949"/><path d="M-628.15 1240H495.07v125.26" stroke="#494949" stroke-width="4" fill="none"/><path d="M-628.1 1242h-2.05v-4h2.06z" fill="#494949"/><path d="M495.07 1381.53l-4.63-14.27h9.27z" stroke="#494949" stroke-width="4" fill="#494949"/><path d="M-641.66 2600h379.53" stroke="#494949" stroke-width="4" fill="none"/><path d="M-641.6 2602h-2.06v-4h2.05z" fill="#494949"/><path d="M-245.87 2600l-14.26 4.64v-9.28z" stroke="#494949" stroke-width="4" fill="#494949"/><defs><path fill="#3d4752" d="M185-189c-5-48-123-54-124 2 14 75 158 14 163 119 3 78-121 87-175 55-17-10-28-26-33-46l33-7c5 56 141 63 141-1 0-78-155-14-162-118-5-82 145-84 179-34 5 7 8 16 11 25" id="J"/><path fill="#3d4752" d="M59-47c-2 24 18 29 38 22v24C64 9 27 4 27-40v-127H5v-23h24l9-43h21v43h35v23H59v120" id="K"/><path fill="#3d4752" d="M141-36C126-15 110 5 73 4 37 3 15-17 15-53c-1-64 63-63 125-63 3-35-9-54-41-54-24 1-41 7-42 31l-33-3c5-37 33-52 76-52 45 0 72 20 72 64v82c-1 20 7 32 28 27v20c-31 9-61-2-59-35zM48-53c0 20 12 33 32 33 41-3 63-29 60-74-43 2-92-5-92 41" id="L"/><path fill="#3d4752" d="M114-163C36-179 61-72 57 0H25l-1-190h30c1 12-1 29 2 39 6-27 23-49 58-41v29" id="M"/><g id="b"><use transform="matrix(0.07407407407407408,0,0,0.07407407407407408,0,0)" xlink:href="#J"/><use transform="matrix(0.07407407407407408,0,0,0.07407407407407408,17.77777777777778,0)" xlink:href="#K"/><use transform="matrix(0.07407407407407408,0,0,0.07407407407407408,25.185185185185187,0)" xlink:href="#L"/><use transform="matrix(0.07407407407407408,0,0,0.07407407407407408,40,0)" xlink:href="#M"/><use transform="matrix(0.07407407407407408,0,0,0.07407407407407408,48.81481481481481,0)" xlink:href="#K"/></g><filter id="a" filterUnits="objectBoundingBox" x="-.05" y="-.05" width="1.1" height="1.25"><feOffset result="offOut" in="SourceAlpha" dy="6"/><feGaussianBlur result="blurOut" in="offOut" stdDeviation="5"/><feColorMatrix result="colorOut" in="blurOut" values="0 0 0 0 0 0 0 0 0 0 0 0 0 0 0 0 0 0 0.16862745098039217 0"/><feBlend in="SourceGraphic" in2="colorOut"/></filter><path fill="#3d4752" d="M197 0v-115H63V0H30v-248h33v105h134v-105h34V0h-34" id="N"/><path fill="#3d4752" d="M140-251c81 0 123 46 123 126C263-46 219 4 140 4 59 4 17-45 17-125s42-126 123-126zm0 227c63 0 89-41 89-101s-29-99-89-99c-61 0-89 39-89 99S79-25 140-24" id="O"/><path fill="#3d4752" d="M240 0l2-218c-23 76-54 145-80 218h-23L58-218 59 0H30v-248h44l77 211c21-75 51-140 76-211h43V0h-30" id="P"/><path fill="#3d4752" d="M30 0v-248h187v28H63v79h144v27H63v87h162V0H30" id="Q"/><g id="d"><use transform="matrix(0.07407407407407408,0,0,0.07407407407407408,0,0)" xlink:href="#N"/><use transform="matrix(0.07407407407407408,0,0,0.07407407407407408,19.185185185185187,0)" xlink:href="#O"/><use transform="matrix(0.07407407407407408,0,0,0.07407407407407408,39.92592592592593,0)" xlink:href="#P"/><use transform="matrix(0.07407407407407408,0,0,0.07407407407407408,62.07407407407408,0)" xlink:href="#Q"/></g><filter id="c" filterUnits="objectBoundingBox" x="-.05" y="-.03" width="1.11" height="1.17"><feOffset result="offOut" in="SourceAlpha" dy="6"/><feGaussianBlur result="blurOut" in="offOut" stdDeviation="5"/><feColorMatrix result="colorOut" in="blurOut" values="0 0 0 0 0 0 0 0 0 0 0 0 0 0 0 0 0 0 0.16862745098039217 0"/><feBlend in="SourceGraphic" in2="colorOut"/></filter><path fill="#3d4752" d="M233-177c-1 41-23 64-60 70L243 0h-38l-65-103H63V0H30v-248c88 3 205-21 203 71zM63-129c60-2 137 13 137-47 0-61-80-42-137-45v92" id="R"/><path fill="#3d4752" d="M143 4C61 4 22-44 18-125c-5-107 100-154 193-111 17 8 29 25 37 43l-32 9c-13-25-37-40-76-40-61 0-88 39-88 99 0 61 29 100 91 101 35 0 62-11 79-27v-45h-74v-28h105v86C228-13 192 4 143 4" id="S"/><path fill="#3d4752" d="M33 0v-248h34V0H33" id="T"/><path fill="#3d4752" d="M127-220V0H93v-220H8v-28h204v28h-85" id="U"/><g id="e"><use transform="matrix(0.07407407407407408,0,0,0.07407407407407408,0,0)" xlink:href="#R"/><use transform="matrix(0.07407407407407408,0,0,0.07407407407407408,19.185185185185187,0)" xlink:href="#Q"/><use transform="matrix(0.07407407407407408,0,0,0.07407407407407408,36.96296296296296,0)" xlink:href="#S"/><use transform="matrix(0.07407407407407408,0,0,0.07407407407407408,57.70370370370371,0)" xlink:href="#T"/><use transform="matrix(0.07407407407407408,0,0,0.07407407407407408,65.11111111111111,0)" xlink:href="#J"/><use transform="matrix(0.07407407407407408,0,0,0.07407407407407408,82.88888888888889,0)" xlink:href="#U"/><use transform="matrix(0.07407407407407408,0,0,0.07407407407407408,99.11111111111111,0)" xlink:href="#Q"/><use transform="matrix(0.07407407407407408,0,0,0.07407407407407408,116.88888888888889,0)" xlink:href="#R"/></g><path fill="#3d4752" d="M190 0L58-211 59 0H30v-248h39L202-35l-2-213h31V0h-41" id="V"/><path fill="#3d4752" d="M232-93c-1 65-40 97-104 97C67 4 28-28 28-90v-158h33c8 89-33 224 67 224 102 0 64-133 71-224h33v155" id="W"/><g id="f"><use transform="matrix(0.07407407407407408,0,0,0.07407407407407408,0,0)" xlink:href="#P"/><use transform="matrix(0.07407407407407408,0,0,0.07407407407407408,22.148148148148152,0)" xlink:href="#Q"/><use transform="matrix(0.07407407407407408,0,0,0.07407407407407408,39.92592592592593,0)" xlink:href="#V"/><use transform="matrix(0.07407407407407408,0,0,0.07407407407407408,59.11111111111111,0)" xlink:href="#W"/></g><path fill="#3d4752" d="M30-248c118-7 216 8 213 122C240-48 200 0 122 0H30v-248zM63-27c89 8 146-16 146-99s-60-101-146-95v194" id="X"/><path fill="#3d4752" d="M135-143c-3-34-86-38-87 0 15 53 115 12 119 90S17 21 10-45l28-5c4 36 97 45 98 0-10-56-113-15-118-90-4-57 82-63 122-42 12 7 21 19 24 35" id="Y"/><path fill="#3d4752" d="M106-169C34-169 62-67 57 0H25v-261h32l-1 103c12-21 28-36 61-36 89 0 53 116 60 194h-32v-121c2-32-8-49-39-48" id="Z"/><path fill="#3d4752" d="M115-194c53 0 69 39 70 98 0 66-23 100-70 100C84 3 66-7 56-30L54 0H23l1-261h32v101c10-23 28-34 59-34zm-8 174c40 0 45-34 45-75 0-40-5-75-45-74-42 0-51 32-51 76 0 43 10 73 51 73" id="aa"/><path fill="#3d4752" d="M100-194c62-1 85 37 85 99 1 63-27 99-86 99S16-35 15-95c0-66 28-99 85-99zM99-20c44 1 53-31 53-75 0-43-8-75-51-75s-53 32-53 75 10 74 51 75" id="ab"/><path fill="#3d4752" d="M85-194c31 0 48 13 60 33l-1-100h32l1 261h-30c-2-10 0-23-3-31C134-8 116 4 85 4 32 4 16-35 15-94c0-66 23-100 70-100zm9 24c-40 0-46 34-46 75 0 40 6 74 45 74 42 0 51-32 51-76 0-42-9-74-50-73" id="ac"/><g id="g"><use transform="matrix(0.07407407407407408,0,0,0.07407407407407408,0,0)" xlink:href="#X"/><use transform="matrix(0.07407407407407408,0,0,0.07407407407407408,19.185185185185187,0)" xlink:href="#L"/><use transform="matrix(0.07407407407407408,0,0,0.07407407407407408,34,0)" xlink:href="#Y"/><use transform="matrix(0.07407407407407408,0,0,0.07407407407407408,47.33333333333334,0)" xlink:href="#Z"/><use transform="matrix(0.07407407407407408,0,0,0.07407407407407408,62.14814814814816,0)" xlink:href="#aa"/><use transform="matrix(0.07407407407407408,0,0,0.07407407407407408,76.96296296296296,0)" xlink:href="#ab"/><use transform="matrix(0.07407407407407408,0,0,0.07407407407407408,91.77777777777777,0)" xlink:href="#L"/><use transform="matrix(0.07407407407407408,0,0,0.07407407407407408,106.59259259259257,0)" xlink:href="#M"/><use transform="matrix(0.07407407407407408,0,0,0.07407407407407408,115.40740740740739,0)" xlink:href="#ac"/></g><path fill="#3d4752" d="M30-248c87 1 191-15 191 75 0 78-77 80-158 76V0H30v-248zm33 125c57 0 124 11 124-50 0-59-68-47-124-48v98" id="ad"/><path fill="#3d4752" d="M101-234c-31-9-42 10-38 44h38v23H63V0H32v-167H5v-23h27c-7-52 17-82 69-68v24" id="ae"/><path fill="#3d4752" d="M24-231v-30h32v30H24zM24 0v-190h32V0H24" id="af"/><path fill="#3d4752" d="M24 0v-261h32V0H24" id="ag"/><path fill="#3d4752" d="M100-194c63 0 86 42 84 106H49c0 40 14 67 53 68 26 1 43-12 49-29l28 8c-11 28-37 45-77 45C44 4 14-33 15-96c1-61 26-98 85-98zm52 81c6-60-76-77-97-28-3 7-6 17-6 28h103" id="ah"/><g id="h"><use transform="matrix(0.07407407407407408,0,0,0.07407407407407408,0,0)" xlink:href="#ad"/><use transform="matrix(0.07407407407407408,0,0,0.07407407407407408,17.77777777777778,0)" xlink:href="#M"/><use transform="matrix(0.07407407407407408,0,0,0.07407407407407408,26.592592592592595,0)" xlink:href="#ab"/><use transform="matrix(0.07407407407407408,0,0,0.07407407407407408,41.40740740740741,0)" xlink:href="#ae"/><use transform="matrix(0.07407407407407408,0,0,0.07407407407407408,48.814814814814824,0)" xlink:href="#af"/><use transform="matrix(0.07407407407407408,0,0,0.07407407407407408,54.666666666666686,0)" xlink:href="#ag"/><use transform="matrix(0.07407407407407408,0,0,0.07407407407407408,60.51851851851853,0)" xlink:href="#ah"/></g><path fill="#3d4752" d="M108 0H70L1-190h34L89-25l56-165h34" id="ai"/><path fill="#3d4752" d="M117-194c89-4 53 116 60 194h-32v-121c0-31-8-49-39-48C34-167 62-67 57 0H25l-1-190h30c1 10-1 24 2 32 11-22 29-35 61-36" id="aj"/><g id="i"><use transform="matrix(0.07407407407407408,0,0,0.07407407407407408,0,0)" xlink:href="#Q"/><use transform="matrix(0.07407407407407408,0,0,0.07407407407407408,17.77777777777778,0)" xlink:href="#ai"/><use transform="matrix(0.07407407407407408,0,0,0.07407407407407408,31.111111111111114,0)" xlink:href="#ah"/><use transform="matrix(0.07407407407407408,0,0,0.07407407407407408,45.92592592592593,0)" xlink:href="#aj"/><use transform="matrix(0.07407407407407408,0,0,0.07407407407407408,60.74074074074075,0)" xlink:href="#K"/></g><path fill="#3d4752" d="M96-169c-40 0-48 33-48 73s9 75 48 75c24 0 41-14 43-38l32 2c-6 37-31 61-74 61-59 0-76-41-82-99-10-93 101-131 147-64 4 7 5 14 7 22l-32 3c-4-21-16-35-41-35" id="ak"/><g id="j"><use transform="matrix(0.07407407407407408,0,0,0.07407407407407408,0,0)" xlink:href="#U"/><use transform="matrix(0.07407407407407408,0,0,0.07407407407407408,13.259259259259261,0)" xlink:href="#ah"/><use transform="matrix(0.07407407407407408,0,0,0.07407407407407408,28.074074074074076,0)" xlink:href="#ak"/><use transform="matrix(0.07407407407407408,0,0,0.07407407407407408,41.40740740740741,0)" xlink:href="#Z"/></g><path fill="#3d4752" d="M30 0v-248h33v221h125V0H30" id="al"/><path fill="#3d4752" d="M179-190L93 31C79 59 56 82 12 73V49c39 6 53-20 64-50L1-190h34L92-34l54-156h33" id="am"/><g id="k"><use transform="matrix(0.07407407407407408,0,0,0.07407407407407408,0,0)" xlink:href="#al"/><use transform="matrix(0.07407407407407408,0,0,0.07407407407407408,14.814814814814817,0)" xlink:href="#af"/><use transform="matrix(0.07407407407407408,0,0,0.07407407407407408,20.666666666666668,0)" xlink:href="#K"/><use transform="matrix(0.07407407407407408,0,0,0.07407407407407408,28.074074074074076,0)" xlink:href="#ah"/><use transform="matrix(0.07407407407407408,0,0,0.07407407407407408,42.8888888888889,0)" xlink:href="#M"/><use transform="matrix(0.07407407407407408,0,0,0.07407407407407408,51.70370370370372,0)" xlink:href="#L"/><use transform="matrix(0.07407407407407408,0,0,0.07407407407407408,66.51851851851853,0)" xlink:href="#M"/><use transform="matrix(0.07407407407407408,0,0,0.07407407407407408,75.33333333333334,0)" xlink:href="#am"/></g><path fill="#3d4752" d="M212-179c-10-28-35-45-73-45-59 0-87 40-87 99 0 60 29 101 89 101 43 0 62-24 78-52l27 14C228-24 195 4 139 4 59 4 22-46 18-125c-6-104 99-153 187-111 19 9 31 26 39 46" id="an"/><path fill="#3d4752" d="M84 4C-5 8 30-112 23-190h32v120c0 31 7 50 39 49 72-2 45-101 50-169h31l1 190h-30c-1-10 1-25-2-33-11 22-28 36-60 37" id="ao"/><g id="l"><use transform="matrix(0.07407407407407408,0,0,0.07407407407407408,0,0)" xlink:href="#an"/><use transform="matrix(0.07407407407407408,0,0,0.07407407407407408,19.185185185185187,0)" xlink:href="#ao"/><use transform="matrix(0.07407407407407408,0,0,0.07407407407407408,34,0)" xlink:href="#ag"/><use transform="matrix(0.07407407407407408,0,0,0.07407407407407408,39.851851851851855,0)" xlink:href="#K"/><use transform="matrix(0.07407407407407408,0,0,0.07407407407407408,47.25925925925927,0)" xlink:href="#ao"/><use transform="matrix(0.07407407407407408,0,0,0.07407407407407408,62.07407407407408,0)" xlink:href="#M"/><use transform="matrix(0.07407407407407408,0,0,0.07407407407407408,70.8888888888889,0)" xlink:href="#L"/><use transform="matrix(0.07407407407407408,0,0,0.07407407407407408,85.70370370370374,0)" xlink:href="#ag"/></g><path fill="#3d4752" d="M177-190C167-65 218 103 67 71c-23-6-38-20-44-43l32-5c15 47 100 32 89-28v-30C133-14 115 1 83 1 29 1 15-40 15-95c0-56 16-97 71-98 29-1 48 16 59 35 1-10 0-23 2-32h30zM94-22c36 0 50-32 50-73 0-42-14-75-50-75-39 0-46 34-46 75s6 73 46 73" id="ap"/><g id="n"><use transform="matrix(0.07407407407407408,0,0,0.07407407407407408,0,0)" xlink:href="#al"/><use transform="matrix(0.07407407407407408,0,0,0.07407407407407408,14.814814814814817,0)" xlink:href="#ab"/><use transform="matrix(0.07407407407407408,0,0,0.07407407407407408,29.629629629629633,0)" xlink:href="#ap"/><use transform="matrix(0.07407407407407408,0,0,0.07407407407407408,44.44444444444445,0)" xlink:href="#ap"/><use transform="matrix(0.07407407407407408,0,0,0.07407407407407408,59.25925925925927,0)" xlink:href="#ah"/><use transform="matrix(0.07407407407407408,0,0,0.07407407407407408,74.07407407407408,0)" xlink:href="#ac"/></g><path fill="#3d4752" d="M103-251c84 0 111 97 45 133-19 10-37 24-39 52H78c0-63 77-55 77-114 0-30-21-42-52-43-32 0-53 17-56 46l-32-2c7-45 34-72 88-72zM77 0v-35h34V0H77" id="aq"/><g id="o"><use transform="matrix(0.07407407407407408,0,0,0.07407407407407408,0,0)" xlink:href="#T"/><use transform="matrix(0.07407407407407408,0,0,0.07407407407407408,7.407407407407408,0)" xlink:href="#aj"/><use transform="matrix(0.07407407407407408,0,0,0.07407407407407408,22.222222222222225,0)" xlink:href="#aq"/></g><filter id="m" filterUnits="objectBoundingBox" x="-.04" y="-.03" width="1.08" height="1.13"><feOffset result="offOut" in="SourceAlpha" dy="6"/><feGaussianBlur result="blurOut" in="offOut" stdDeviation="5"/><feColorMatrix result="colorOut" in="blurOut" values="0 0 0 0 0 0 0 0 0 0 0 0 0 0 0 0 0 0 0.16862745098039217 0"/><feBlend in="SourceGraphic" in2="colorOut"/></filter><path fill="#3d4752" d="M205 0l-28-72H64L36 0H1l101-248h38L239 0h-34zm-38-99l-47-123c-12 45-31 82-46 123h93" id="ar"/><use transform="matrix(0.07407407407407408,0,0,0.07407407407407408,0,0)" xlink:href="#ar" id="q"/><filter id="p" filterUnits="objectBoundingBox" x="-.11" y="-.05" width="1.21" height="1.25"><feOffset result="offOut" in="SourceAlpha" dy="6"/><feGaussianBlur result="blurOut" in="offOut" stdDeviation="5"/><feColorMatrix result="colorOut" in="blurOut" values="0 0 0 0 0 0 0 0 0 0 0 0 0 0 0 0 0 0 0.16862745098039217 0"/><feBlend in="SourceGraphic" in2="colorOut"/></filter><path fill="#3d4752" d="M137-103V0h-34v-103L8-248h37l75 118 75-118h37" id="as"/><g id="r"><use transform="matrix(0.07407407407407408,0,0,0.07407407407407408,0,0)" xlink:href="#as"/><use transform="matrix(0.07407407407407408,0,0,0.07407407407407408,15.333333333333334,0)" xlink:href="#ah"/><use transform="matrix(0.07407407407407408,0,0,0.07407407407407408,30.148148148148152,0)" xlink:href="#Y"/></g><g id="s"><use transform="matrix(0.07407407407407408,0,0,0.07407407407407408,0,0)" xlink:href="#Q"/><use transform="matrix(0.07407407407407408,0,0,0.07407407407407408,17.77777777777778,0)" xlink:href="#aj"/><use transform="matrix(0.07407407407407408,0,0,0.07407407407407408,32.592592592592595,0)" xlink:href="#M"/><use transform="matrix(0.07407407407407408,0,0,0.07407407407407408,41.40740740740741,0)" xlink:href="#ab"/><use transform="matrix(0.07407407407407408,0,0,0.07407407407407408,56.22222222222223,0)" xlink:href="#ag"/><use transform="matrix(0.07407407407407408,0,0,0.07407407407407408,62.07407407407408,0)" xlink:href="#ag"/></g><g id="t"><use transform="matrix(0.07407407407407408,0,0,0.07407407407407408,0,0)" xlink:href="#V"/><use transform="matrix(0.07407407407407408,0,0,0.07407407407407408,19.185185185185187,0)" xlink:href="#ab"/></g><g id="u"><use transform="matrix(0.07407407407407408,0,0,0.07407407407407408,0,0)" xlink:href="#J"/><use transform="matrix(0.07407407407407408,0,0,0.07407407407407408,17.77777777777778,0)" xlink:href="#ao"/><use transform="matrix(0.07407407407407408,0,0,0.07407407407407408,32.592592592592595,0)" xlink:href="#ak"/><use transform="matrix(0.07407407407407408,0,0,0.07407407407407408,45.92592592592593,0)" xlink:href="#ak"/><use transform="matrix(0.07407407407407408,0,0,0.07407407407407408,59.25925925925927,0)" xlink:href="#ah"/><use transform="matrix(0.07407407407407408,0,0,0.07407407407407408,74.07407407407408,0)" xlink:href="#Y"/><use transform="matrix(0.07407407407407408,0,0,0.07407407407407408,87.40740740740742,0)" xlink:href="#Y"/></g><g id="w"><use transform="matrix(0.07407407407407408,0,0,0.07407407407407408,0,0)" xlink:href="#R"/><use transform="matrix(0.07407407407407408,0,0,0.07407407407407408,19.185185185185187,0)" xlink:href="#ah"/><use transform="matrix(0.07407407407407408,0,0,0.07407407407407408,34,0)" xlink:href="#ap"/><use transform="matrix(0.07407407407407408,0,0,0.07407407407407408,48.81481481481481,0)" xlink:href="#af"/><use transform="matrix(0.07407407407407408,0,0,0.07407407407407408,54.66666666666667,0)" xlink:href="#Y"/><use transform="matrix(0.07407407407407408,0,0,0.07407407407407408,68,0)" xlink:href="#K"/><use transform="matrix(0.07407407407407408,0,0,0.07407407407407408,75.4074074074074,0)" xlink:href="#ah"/><use transform="matrix(0.07407407407407408,0,0,0.07407407407407408,90.22222222222223,0)" xlink:href="#M"/><use transform="matrix(0.07407407407407408,0,0,0.07407407407407408,99.03703703703704,0)" xlink:href="#ah"/><use transform="matrix(0.07407407407407408,0,0,0.07407407407407408,113.85185185185185,0)" xlink:href="#ac"/><use transform="matrix(0.07407407407407408,0,0,0.07407407407407408,128.66666666666666,0)" xlink:href="#aq"/></g><filter id="v" filterUnits="objectBoundingBox" x="-.04" y="-.03" width="1.08" height="1.13"><feOffset result="offOut" in="SourceAlpha" dy="6"/><feGaussianBlur result="blurOut" in="offOut" stdDeviation="5"/><feColorMatrix result="colorOut" in="blurOut" values="0 0 0 0 0 0 0 0 0 0 0 0 0 0 0 0 0 0 0.16862745098039217 0"/><feBlend in="SourceGraphic" in2="colorOut"/></filter><g id="x"><use transform="matrix(0.07407407407407408,0,0,0.07407407407407408,0,0)" xlink:href="#al"/><use transform="matrix(0.07407407407407408,0,0,0.07407407407407408,14.814814814814817,0)" xlink:href="#ab"/><use transform="matrix(0.07407407407407408,0,0,0.07407407407407408,29.629629629629633,0)" xlink:href="#ap"/><use transform="matrix(0.07407407407407408,0,0,0.07407407407407408,44.44444444444445,0)" xlink:href="#af"/><use transform="matrix(0.07407407407407408,0,0,0.07407407407407408,50.296296296296305,0)" xlink:href="#aj"/></g><path fill="#3d4752" d="M206 0h-36l-40-164L89 0H53L-1-190h32L70-26l43-164h34l41 164 42-164h31" id="at"/><g id="z"><use transform="matrix(0.07407407407407408,0,0,0.07407407407407408,0,0)" xlink:href="#V"/><use transform="matrix(0.07407407407407408,0,0,0.07407407407407408,19.185185185185187,0)" xlink:href="#ah"/><use transform="matrix(0.07407407407407408,0,0,0.07407407407407408,34,0)" xlink:href="#at"/></g><g id="A"><use transform="matrix(0.07407407407407408,0,0,0.07407407407407408,0,0)" xlink:href="#W"/><use transform="matrix(0.07407407407407408,0,0,0.07407407407407408,19.185185185185187,0)" xlink:href="#Y"/><use transform="matrix(0.07407407407407408,0,0,0.07407407407407408,32.51851851851852,0)" xlink:href="#ah"/><use transform="matrix(0.07407407407407408,0,0,0.07407407407407408,47.33333333333334,0)" xlink:href="#M"/><use transform="matrix(0.07407407407407408,0,0,0.07407407407407408,56.14814814814815,0)" xlink:href="#aq"/></g><filter id="y" filterUnits="objectBoundingBox" x="-.04" y="-.03" width="1.08" height="1.13"><feOffset result="offOut" in="SourceAlpha" dy="6"/><feGaussianBlur result="blurOut" in="offOut" stdDeviation="5"/><feColorMatrix result="colorOut" in="blurOut" values="0 0 0 0 0 0 0 0 0 0 0 0 0 0 0 0 0 0 0.16862745098039217 0"/><feBlend in="SourceGraphic" in2="colorOut"/></filter><g id="B"><use transform="matrix(0.07407407407407408,0,0,0.07407407407407408,0,0)" xlink:href="#P"/><use transform="matrix(0.07407407407407408,0,0,0.07407407407407408,22.148148148148152,0)" xlink:href="#ah"/><use transform="matrix(0.07407407407407408,0,0,0.07407407407407408,36.96296296296297,0)" xlink:href="#aj"/><use transform="matrix(0.07407407407407408,0,0,0.07407407407407408,51.777777777777786,0)" xlink:href="#K"/><use transform="matrix(0.07407407407407408,0,0,0.07407407407407408,59.18518518518519,0)" xlink:href="#ab"/><use transform="matrix(0.07407407407407408,0,0,0.07407407407407408,74,0)" xlink:href="#M"/><use transform="matrix(0.07407407407407408,0,0,0.07407407407407408,82.81481481481481,0)" xlink:href="#Y"/></g><path fill="#3d4752" d="M210-169c-67 3-38 105-44 169h-31v-121c0-29-5-50-35-48C34-165 62-65 56 0H25l-1-190h30c1 10-1 24 2 32 10-44 99-50 107 0 11-21 27-35 58-36 85-2 47 119 55 194h-31v-121c0-29-5-49-35-48" id="au"/><g id="C"><use transform="matrix(0.07407407407407408,0,0,0.07407407407407408,0,0)" xlink:href="#U"/><use transform="matrix(0.07407407407407408,0,0,0.07407407407407408,13.259259259259261,0)" xlink:href="#ah"/><use transform="matrix(0.07407407407407408,0,0,0.07407407407407408,28.074074074074076,0)" xlink:href="#L"/><use transform="matrix(0.07407407407407408,0,0,0.07407407407407408,42.88888888888889,0)" xlink:href="#au"/></g><path fill="#3d4752" d="M115-194c55 1 70 41 70 98S169 2 115 4C84 4 66-9 55-30l1 105H24l-1-265h31l2 30c10-21 28-34 59-34zm-8 174c40 0 45-34 45-75s-6-73-45-74c-42 0-51 32-51 76 0 43 10 73 51 73" id="av"/><g id="D"><use transform="matrix(0.07407407407407408,0,0,0.07407407407407408,0,0)" xlink:href="#J"/><use transform="matrix(0.07407407407407408,0,0,0.07407407407407408,17.77777777777778,0)" xlink:href="#av"/><use transform="matrix(0.07407407407407408,0,0,0.07407407407407408,32.592592592592595,0)" xlink:href="#ab"/><use transform="matrix(0.07407407407407408,0,0,0.07407407407407408,47.40740740740741,0)" xlink:href="#aj"/><use transform="matrix(0.07407407407407408,0,0,0.07407407407407408,62.22222222222223,0)" xlink:href="#Y"/><use transform="matrix(0.07407407407407408,0,0,0.07407407407407408,75.55555555555557,0)" xlink:href="#ab"/><use transform="matrix(0.07407407407407408,0,0,0.07407407407407408,90.37037037037038,0)" xlink:href="#M"/><use transform="matrix(0.07407407407407408,0,0,0.07407407407407408,99.1851851851852,0)" xlink:href="#Y"/></g><g id="E"><use transform="matrix(0.07407407407407408,0,0,0.07407407407407408,0,0)" xlink:href="#ar"/><use transform="matrix(0.07407407407407408,0,0,0.07407407407407408,17.77777777777778,0)" xlink:href="#aa"/><use transform="matrix(0.07407407407407408,0,0,0.07407407407407408,32.592592592592595,0)" xlink:href="#ab"/><use transform="matrix(0.07407407407407408,0,0,0.07407407407407408,47.40740740740741,0)" xlink:href="#ao"/><use transform="matrix(0.07407407407407408,0,0,0.07407407407407408,62.22222222222223,0)" xlink:href="#K"/></g><g id="F"><use transform="matrix(0.07407407407407408,0,0,0.07407407407407408,0,0)" xlink:href="#W"/><use transform="matrix(0.07407407407407408,0,0,0.07407407407407408,19.185185185185187,0)" xlink:href="#Y"/></g><g id="G"><use transform="matrix(0.07407407407407408,0,0,0.07407407407407408,0,0)" xlink:href="#Q"/><use transform="matrix(0.07407407407407408,0,0,0.07407407407407408,17.77777777777778,0)" xlink:href="#aj"/><use transform="matrix(0.07407407407407408,0,0,0.07407407407407408,32.592592592592595,0)" xlink:href="#ac"/></g><g id="I"><use transform="matrix(0.07407407407407408,0,0,0.07407407407407408,0,0)" xlink:href="#al"/><use transform="matrix(0.07407407407407408,0,0,0.07407407407407408,14.814814814814817,0)" xlink:href="#ab"/><use transform="matrix(0.07407407407407408,0,0,0.07407407407407408,29.629629629629633,0)" xlink:href="#ap"/><use transform="matrix(0.07407407407407408,0,0,0.07407407407407408,44.44444444444445,0)" xlink:href="#ab"/><use transform="matrix(0.07407407407407408,0,0,0.07407407407407408,59.25925925925927,0)" xlink:href="#ao"/><use transform="matrix(0.07407407407407408,0,0,0.07407407407407408,74.07407407407408,0)" xlink:href="#K"/></g><filter id="H" filterUnits="objectBoundingBox" x="-.06" y="-.03" width="1.13" height="1.17"><feOffset result="offOut" in="SourceAlpha" dy="6"/><feGaussianBlur result="blurOut" in="offOut" stdDeviation="5"/><feColorMatrix result="colorOut" in="blurOut" values="0 0 0 0 0 0 0 0 0 0 0 0 0 0 0 0 0 0 0.16862745098039217 0"/><feBlend in="SourceGraphic" in2="colorOut"/></filter></defs></g></svg>