<?xml version="1.0" encoding="iso-8859-1"?>
<!-- Generator: Adobe Illustrator 18.0.0, SVG Export Plug-In . SVG Version: 6.00 Build 0)  -->
<!DOCTYPE svg PUBLIC "-//W3C//DTD SVG 1.1//EN" "http://www.w3.org/Graphics/SVG/1.1/DTD/svg11.dtd">
<svg version="1.1" id="Capa_1" xmlns="http://www.w3.org/2000/svg" xmlns:xlink="http://www.w3.org/1999/xlink" x="0px" y="0px"
	 viewBox="0 0 495.618 495.618" style="enable-background:new 0 0 495.618 495.618;" xml:space="preserve">
<g>
	<path d="M481.435,127.07H89.794l-69.048-14.666c-0.973-0.207-1.968-0.312-2.957-0.312c-6.649,0-12.481,4.726-13.863,11.237
		l-3.611,17.002c-0.787,3.705-0.084,7.495,1.98,10.672c2.064,3.177,5.241,5.359,8.946,6.146l73.315,15.573
		c0.29,0.062,0.586,0.093,0.883,0.093h20.818c-1.263,1.273-2.001,3.097-2.001,5.743v4.666c0,7.857,6.393,14.25,14.25,14.25h63.334
		c7.857,0,14.25-6.393,14.25-14.25v-4.666c0-2.646-0.738-4.471-2.001-5.743h172.835c-1.263,1.273-2.001,3.097-2.001,5.743v4.666
		c0,7.857,6.393,14.25,14.25,14.25h63.334c7.857,0,14.25-6.393,14.25-14.25v-4.666c0-2.646-0.738-4.471-2.001-5.743h26.679
		c7.82,0,14.183-6.362,14.183-14.183v-17.381C495.618,133.432,489.256,127.07,481.435,127.07z M187.591,178.559v4.666
		c0,3.171-2.579,5.75-5.75,5.75h-63.334c-3.171,0-5.75-2.579-5.75-5.75v-4.666c0-3.125,2.507-5.67,5.615-5.743h63.604
		C185.084,172.889,187.591,175.434,187.591,178.559z M448.258,178.559v4.666c0,3.171-2.579,5.75-5.75,5.75h-63.334
		c-3.171,0-5.75-2.579-5.75-5.75v-4.666c0-3.125,2.507-5.67,5.615-5.743h63.603C445.751,172.889,448.258,175.434,448.258,178.559z
		 M481.435,164.316H85.886l-72.879-15.48c-1.484-0.316-2.758-1.191-3.585-2.463c-0.826-1.272-1.108-2.791-0.793-4.275l3.611-17.002
		c0.555-2.609,2.888-4.503,5.549-4.503c0.396,0,0.798,0.042,1.191,0.126l69.484,14.759c0.29,0.061,0.586,0.093,0.883,0.093h392.088
		c3.134,0,5.683,2.549,5.683,5.683v0.535H327.072c-2.348,0-4.25,1.902-4.25,4.25c0,2.348,1.902,4.25,4.25,4.25h160.046v8.346
		C487.118,161.767,484.569,164.316,481.435,164.316z"/>
	<path d="M154.424,289.07v-77.333c0-2.348-1.902-4.25-4.25-4.25c-2.348,0-4.25,1.902-4.25,4.25v77.333c0,2.348,1.902,4.25,4.25,4.25
		C152.521,293.32,154.424,291.417,154.424,289.07z"/>
	<path d="M137.758,268.404v-56.667c0-2.348-1.902-4.25-4.25-4.25c-2.348,0-4.25,1.902-4.25,4.25v56.667
		c0,2.348,1.902,4.25,4.25,4.25C135.855,272.654,137.758,270.751,137.758,268.404z"/>
	<path d="M171.09,268.404v-56.667c0-2.348-1.902-4.25-4.25-4.25s-4.25,1.902-4.25,4.25v56.667c0,2.348,1.902,4.25,4.25,4.25
		S171.09,270.751,171.09,268.404z"/>
	<path d="M121.09,250.404v-38.667c0-2.348-1.902-4.25-4.25-4.25s-4.25,1.902-4.25,4.25v38.667c0,2.348,1.902,4.25,4.25,4.25
		S121.09,252.751,121.09,250.404z"/>
	<path d="M187.758,250.404v-38.667c0-2.348-1.902-4.25-4.25-4.25c-2.348,0-4.25,1.902-4.25,4.25v38.667
		c0,2.348,1.902,4.25,4.25,4.25C185.855,254.654,187.758,252.751,187.758,250.404z"/>
	<path d="M415.092,289.07v-77.333c0-2.348-1.902-4.25-4.25-4.25c-2.348,0-4.25,1.902-4.25,4.25v77.333c0,2.348,1.902,4.25,4.25,4.25
		C413.189,293.32,415.092,291.417,415.092,289.07z"/>
	<path d="M398.424,268.404v-56.667c0-2.348-1.902-4.25-4.25-4.25c-2.348,0-4.25,1.902-4.25,4.25v56.667
		c0,2.348,1.902,4.25,4.25,4.25C396.521,272.654,398.424,270.751,398.424,268.404z"/>
	<path d="M431.758,268.404v-56.667c0-2.348-1.902-4.25-4.25-4.25c-2.348,0-4.25,1.902-4.25,4.25v56.667
		c0,2.348,1.902,4.25,4.25,4.25C429.855,272.654,431.758,270.751,431.758,268.404z"/>
	<path d="M381.758,250.404v-38.667c0-2.348-1.902-4.25-4.25-4.25c-2.348,0-4.25,1.902-4.25,4.25v38.667
		c0,2.348,1.902,4.25,4.25,4.25C379.855,254.654,381.758,252.751,381.758,250.404z"/>
	<path d="M448.424,250.404v-38.667c0-2.348-1.902-4.25-4.25-4.25c-2.348,0-4.25,1.902-4.25,4.25v38.667
		c0,2.348,1.902,4.25,4.25,4.25C446.521,254.654,448.424,252.751,448.424,250.404z"/>
	<path d="M491.174,342.816h-480c-2.348,0-4.25,1.902-4.25,4.25c0,2.348,1.902,4.25,4.25,4.25h480c2.348,0,4.25-1.902,4.25-4.25
		C495.424,344.718,493.521,342.816,491.174,342.816z"/>
	<path d="M179.715,375.026H11.722c-2.348,0-4.25,1.902-4.25,4.25s1.902,4.25,4.25,4.25h167.992c2.348,0,4.25-1.902,4.25-4.25
		S182.062,375.026,179.715,375.026z"/>
	<path d="M376.205,375.026H236.712c-2.348,0-4.25,1.902-4.25,4.25s1.902,4.25,4.25,4.25h139.493c2.348,0,4.25-1.902,4.25-4.25
		S378.553,375.026,376.205,375.026z"/>
</g>
<g>
</g>
<g>
</g>
<g>
</g>
<g>
</g>
<g>
</g>
<g>
</g>
<g>
</g>
<g>
</g>
<g>
</g>
<g>
</g>
<g>
</g>
<g>
</g>
<g>
</g>
<g>
</g>
<g>
</g>
</svg>
