<svg height="512pt" viewBox="0 0 512 512" width="512pt" xmlns="http://www.w3.org/2000/svg"><path d="m452 105h-30v-105h-332v105h-30c-33.085938 0-60 26.914062-60 60v347h512v-347c0-33.085938-26.914062-60-60-60zm0 30c16.542969 0 30 13.457031 30 30v2h-60v-32zm-60 32h-30v-137h30zm-60-62h-152v-75h152zm-152 30h152v32h-152zm152 62v127.5h-152v-127.5zm-182 30h-30v-30h30zm-30 30h30v225h-30zm60 97.5h152v127.5h-152zm182-97.5h30v225h-30zm30-30h-30v-30h30zm-242-197v137h-30v-137zm-90 105h30v32h-60v-2c0-16.542969 13.457031-30 30-30zm-30 62h60v285h-60zm392 285v-285h60v285zm0 0"/></svg>