<?xml version="1.0" encoding="UTF-8" standalone="no"?>
<!DOCTYPE svg PUBLIC "-//W3C//DTD SVG 1.1//EN" "http://www.w3.org/Graphics/SVG/1.1/DTD/svg11.dtd">
<svg version="1.1" xmlns="http://www.w3.org/2000/svg" xmlns:xlink="http://www.w3.org/1999/xlink" preserveAspectRatio="xMidYMid meet" viewBox="286.7085214925529 424 254 179" width="250" height="175"><defs><path d="M370.83 483.71L372 484.59L372.86 485.72L373.37 487.01L373.55 488.38L373.37 489.75L372.86 491.04L372 492.17L370.87 493.03L369.58 493.54L368.21 493.72L366.84 493.54L365.55 493.03L364.42 492.17L363.58 491.07L363.07 489.82L362.88 488.5L363.01 487.17L363.47 485.9L364.26 484.76L365.39 483.83L366.7 483.26L368.09 483.05L369.5 483.2L370.83 483.71Z" id="bHckeBgfT"></path><path d="M419.49 572.37L420.58 573.22L421.43 574.31L421.97 575.58L422.17 576.99L421.97 578.4L421.43 579.67L420.58 580.76L419.49 581.61L418.22 582.16L416.81 582.35L415.44 582.17L414.19 581.65L413.12 580.85L412.27 579.81L411.7 578.58L411.46 577.22L411.6 575.77L412.12 574.44L412.96 573.3L414.06 572.41L415.36 571.84L416.81 571.63L418.22 571.83L419.49 572.37Z" id="f2uMHVljBY"></path><path d="M348.15 483.1L348.61 483.19L349.03 483.32L349.43 483.48L349.81 483.67L350.16 483.89L350.48 484.14L350.77 484.41L351.05 484.7L351.29 485.01L351.51 485.34L351.7 485.68L351.87 486.04L352.02 486.41L352.13 486.8L352.22 487.18L352.29 487.58L352.33 487.98L352.34 488.38L352.33 488.78L352.29 489.18L352.22 489.58L352.13 489.97L352.02 490.35L351.87 490.72L351.71 491.08L351.51 491.43L351.29 491.76L351.05 492.07L350.78 492.36L350.48 492.63L350.16 492.87L349.81 493.09L349.43 493.28L349.03 493.44L348.61 493.57L348.16 493.66L347.68 493.72L347.17 493.74L327.47 493.74L326.27 493.77L325.09 493.84L323.92 493.96L322.76 494.12L321.62 494.33L320.5 494.59L319.39 494.88L318.3 495.22L317.23 495.61L316.18 496.03L315.14 496.49L314.13 496.99L313.15 497.53L312.18 498.1L311.24 498.71L310.33 499.35L309.44 500.03L308.58 500.74L307.75 501.48L306.94 502.26L306.17 503.06L305.43 503.89L304.72 504.76L304.04 505.64L303.39 506.56L302.79 507.5L302.21 508.46L301.67 509.45L301.17 510.46L300.71 511.49L300.29 512.54L299.91 513.61L299.57 514.71L299.27 515.81L299.02 516.94L298.81 518.08L298.64 519.24L298.52 520.41L298.45 521.59L298.43 522.78L298.45 523.98L298.52 525.16L298.64 526.33L298.81 527.49L299.02 528.63L299.27 529.75L299.57 530.86L299.91 531.95L300.29 533.02L300.71 534.08L301.17 535.11L301.67 536.12L302.21 537.1L302.79 538.07L303.39 539.01L304.04 539.92L304.72 540.81L305.43 541.67L306.17 542.5L306.94 543.31L307.75 544.08L308.58 544.82L309.44 545.53L310.33 546.21L311.24 546.86L312.18 547.47L313.15 548.04L314.13 548.58L315.14 549.08L316.18 549.54L317.23 549.96L318.3 550.34L319.39 550.68L320.5 550.98L321.62 551.23L322.76 551.44L323.92 551.61L325.09 551.73L326.27 551.8L327.47 551.82L377.61 551.82L377.81 550.98L378.04 550.15L378.29 549.33L378.57 548.52L378.88 547.73L379.21 546.94L379.57 546.17L379.96 545.42L380.37 544.68L380.8 543.96L381.25 543.25L381.73 542.56L382.23 541.88L382.76 541.22L383.3 540.59L383.86 539.96L384.45 539.36L385.05 538.78L385.67 538.22L386.31 537.68L386.97 537.16L387.65 536.66L388.34 536.18L389.05 535.73L389.78 535.3L390.52 534.89L391.27 534.51L392.04 534.16L392.83 533.82L393.62 533.52L394.43 533.24L395.26 532.99L396.09 532.76L396.93 532.57L397.79 532.4L398.65 532.26L399.52 532.15L400.41 532.08L401.3 532.03L402.2 532.01L411.76 532.01L416.64 526.74L417.56 525.77L418.5 524.82L419.46 523.89L420.44 522.98L421.43 522.09L422.44 521.22L423.47 520.38L424.51 519.55L425.57 518.75L426.64 517.98L427.73 517.22L428.84 516.49L429.95 515.78L431.08 515.1L432.23 514.44L433.39 513.8L434.56 513.18L435.74 512.6L436.93 512.03L438.13 511.49L439.35 510.97L440.58 510.48L441.81 510.01L443.06 509.57L444.31 509.16L445.57 508.77L446.84 508.4L448.12 508.06L449.41 507.75L450.7 507.46L452 507.2L453.31 506.97L454.62 506.76L455.94 506.58L457.26 506.43L458.59 506.31L459.92 506.21L461.25 506.14L462.59 506.1L463.93 506.08L495.84 506.08L496.26 506.09L496.67 506.12L497.08 506.16L497.49 506.22L497.89 506.29L498.28 506.38L498.67 506.48L499.05 506.6L499.42 506.73L499.79 506.88L500.15 507.04L500.51 507.22L500.85 507.41L501.19 507.61L501.52 507.82L501.84 508.05L502.15 508.28L502.45 508.53L502.74 508.79L503.02 509.06L503.29 509.34L503.55 509.63L503.8 509.94L504.04 510.25L504.27 510.57L504.48 510.9L504.68 511.23L504.87 511.58L505.04 511.93L505.2 512.29L505.35 512.66L505.49 513.04L505.6 513.42L505.71 513.81L505.8 514.2L505.87 514.6L505.93 515L505.97 515.41L506 515.83L506 516.25L506 532.01L512.54 532.01L513.58 532.03L514.6 532.1L515.61 532.2L516.62 532.34L517.61 532.53L518.58 532.75L519.54 533L520.49 533.3L521.42 533.63L522.33 534L523.22 534.39L524.1 534.83L524.95 535.29L525.79 535.79L526.6 536.32L527.39 536.88L528.16 537.46L528.91 538.08L529.63 538.72L530.33 539.39L531 540.09L531.64 540.81L532.26 541.56L532.85 542.33L533.4 543.12L533.93 543.93L534.43 544.77L534.9 545.63L535.33 546.5L535.73 547.4L536.09 548.31L536.42 549.24L536.72 550.18L536.98 551.14L537.2 552.12L537.38 553.11L537.52 554.11L537.62 555.12L537.69 556.15L537.71 557.18L537.69 558.03L537.65 558.86L537.58 559.7L537.49 560.52L537.36 561.34L537.21 562.14L537.04 562.94L536.84 563.74L536.61 564.52L536.36 565.29L536.09 566.05L535.79 566.8L535.47 567.54L535.12 568.26L534.76 568.98L534.37 569.68L533.96 570.37L533.53 571.04L533.07 571.7L532.6 572.34L532.11 572.97L531.6 573.59L531.07 574.18L530.52 574.76L529.95 575.33L529.37 575.87L528.77 576.4L528.15 576.9L527.51 577.39L526.86 577.86L526.2 578.31L525.52 578.74L524.82 579.14L524.11 579.53L523.39 579.89L522.65 580.23L521.9 580.54L521.14 580.84L520.36 581.1L519.58 581.35L519.41 582.14L519.22 582.92L519 583.69L518.75 584.45L518.48 585.2L518.18 585.93L517.86 586.65L517.52 587.36L517.15 588.06L516.76 588.74L516.35 589.4L515.91 590.06L515.46 590.69L514.98 591.31L514.48 591.91L513.97 592.5L513.43 593.06L512.88 593.61L512.3 594.14L511.71 594.65L511.11 595.14L510.48 595.61L509.84 596.06L509.19 596.49L508.52 596.9L507.83 597.28L507.13 597.64L506.42 597.98L505.69 598.29L504.95 598.58L504.2 598.84L503.44 599.08L502.67 599.29L501.88 599.48L501.09 599.63L500.29 599.76L499.47 599.87L498.65 599.94L497.82 599.99L496.99 600L496.18 599.99L495.37 599.94L494.58 599.87L493.79 599.78L493.01 599.66L492.24 599.51L491.48 599.33L490.73 599.14L489.99 598.91L489.26 598.66L488.54 598.39L487.83 598.1L487.14 597.78L486.45 597.44L485.78 597.08L485.13 596.7L484.48 596.3L483.86 595.87L483.24 595.43L482.64 594.97L482.06 594.49L481.5 593.99L480.95 593.47L480.41 592.93L479.9 592.38L479.4 591.81L478.93 591.22L478.47 590.62L478.03 590.01L477.61 589.37L477.21 588.73L476.83 588.07L476.48 587.4L476.14 586.71L475.83 586.01L475.54 585.3L475.27 584.58L475.03 583.85L474.81 583.11L474.62 582.35L439.18 582.35L438.99 583.11L438.77 583.85L438.53 584.58L438.26 585.3L437.97 586.01L437.66 586.71L437.32 587.4L436.96 588.07L436.59 588.73L436.19 589.37L435.77 590.01L435.33 590.62L434.87 591.22L434.39 591.81L433.9 592.38L433.38 592.93L432.85 593.47L432.3 593.99L431.73 594.49L431.15 594.97L430.55 595.43L429.94 595.87L429.31 596.3L428.67 596.7L428.01 597.08L427.34 597.44L426.66 597.78L425.96 598.1L425.26 598.39L424.54 598.66L423.81 598.91L423.07 599.14L422.31 599.33L421.55 599.51L420.78 599.66L420 599.78L419.22 599.87L418.42 599.94L417.62 599.99L416.81 600L415.96 599.98L415.13 599.94L414.3 599.86L413.48 599.76L412.67 599.63L411.87 599.47L411.08 599.28L410.3 599.06L409.53 598.82L408.77 598.55L408.03 598.26L407.3 597.94L406.58 597.6L405.87 597.23L405.18 596.84L404.51 596.43L403.85 595.99L403.21 595.53L402.58 595.05L401.97 594.56L401.38 594.04L400.8 593.5L400.25 592.94L399.71 592.36L399.19 591.77L398.7 591.16L398.22 590.53L397.77 589.88L397.33 589.22L396.92 588.54L396.54 587.85L396.17 587.14L395.83 586.42L395.52 585.69L395.23 584.94L394.96 584.19L394.72 583.42L394.51 582.63L394.32 581.84L394.17 581.04L393.54 580.82L392.92 580.58L392.31 580.33L391.71 580.07L391.11 579.79L390.53 579.49L389.96 579.18L389.39 578.86L388.84 578.52L388.29 578.17L387.75 577.8L387.23 577.43L386.72 577.04L386.21 576.63L385.72 576.22L385.24 575.79L384.77 575.35L384.31 574.9L383.86 574.43L383.43 573.96L383.01 573.48L382.6 572.98L382.2 572.47L381.82 571.96L381.45 571.43L381.09 570.9L380.75 570.35L380.42 569.8L380.1 569.24L379.8 568.67L379.51 568.09L379.24 567.5L378.98 566.91L378.74 566.3L378.51 565.69L378.3 565.08L378.1 564.45L377.92 563.82L377.75 563.19L377.61 562.54L327.47 562.54L325.83 562.51L324.21 562.41L322.61 562.25L321.03 562.02L319.47 561.73L317.93 561.39L316.41 560.98L314.92 560.51L313.45 559.99L312.01 559.41L310.6 558.78L309.21 558.1L307.86 557.36L306.54 556.58L305.25 555.74L304 554.86L302.79 553.93L301.61 552.96L300.47 551.94L299.37 550.88L298.31 549.78L297.29 548.64L296.32 547.47L295.39 546.25L294.51 545L293.67 543.71L292.89 542.39L292.15 541.04L291.47 539.66L290.84 538.24L290.26 536.8L289.74 535.34L289.27 533.84L288.87 532.33L288.52 530.79L288.23 529.22L288 527.64L287.84 526.04L287.74 524.42L287.71 522.78L287.74 521.15L287.84 519.53L288 517.93L288.23 516.34L288.52 514.78L288.87 513.24L289.27 511.72L289.74 510.23L290.26 508.76L290.84 507.32L291.47 505.91L292.15 504.53L292.89 503.17L293.67 501.85L294.51 500.57L295.39 499.32L296.32 498.1L297.29 496.92L298.31 495.78L299.37 494.68L300.47 493.62L301.61 492.61L302.79 491.63L304 490.7L305.25 489.82L306.54 488.99L307.86 488.2L309.21 487.47L310.6 486.78L312.01 486.15L313.45 485.57L314.92 485.05L316.41 484.59L317.93 484.18L319.47 483.83L321.03 483.54L322.61 483.32L324.21 483.15L325.83 483.05L327.47 483.02L347.17 483.02L347.68 483.04L348.15 483.1ZM414.18 564.99L412.93 565.33L411.74 565.8L410.61 566.38L409.56 567.08L408.58 567.87L407.69 568.76L406.9 569.74L406.2 570.79L405.62 571.92L405.15 573.11L404.81 574.36L404.59 575.65L404.52 576.99L404.59 578.33L404.81 579.62L405.15 580.87L405.62 582.06L406.2 583.19L406.9 584.24L407.69 585.22L408.58 586.11L409.56 586.91L410.61 587.6L411.74 588.18L412.93 588.65L414.18 589L415.47 589.21L416.81 589.28L418.15 589.21L419.44 589L420.69 588.65L421.88 588.18L423.01 587.6L424.06 586.91L425.04 586.11L425.93 585.22L426.72 584.24L427.42 583.19L428 582.06L428.47 580.87L428.81 579.62L429.02 578.33L429.1 576.99L429.02 575.65L428.81 574.36L428.47 573.11L428 571.92L427.42 570.79L426.72 569.74L425.93 568.76L425.04 567.87L424.06 567.08L423.01 566.38L421.88 565.8L420.69 565.33L419.44 564.99L418.15 564.77L416.81 564.7L415.47 564.77L414.18 564.99ZM494.35 564.99L493.11 565.33L491.92 565.8L490.79 566.38L489.73 567.08L488.76 567.87L487.87 568.76L487.07 569.74L486.38 570.79L485.79 571.92L485.33 573.11L484.98 574.36L484.77 575.65L484.7 576.99L484.77 578.33L484.98 579.62L485.33 580.87L485.79 582.06L486.38 583.19L487.07 584.24L487.87 585.22L488.76 586.11L489.73 586.91L490.79 587.6L491.92 588.18L493.11 588.65L494.35 589L495.65 589.21L496.99 589.28L498.32 589.21L499.62 589L500.87 588.65L502.06 588.18L503.18 587.6L504.24 586.91L505.21 586.11L506.1 585.22L506.9 584.24L507.59 583.19L508.18 582.06L508.65 580.87L508.99 579.62L509.2 578.33L509.27 576.99L509.2 575.65L508.99 574.36L508.65 573.11L508.18 571.92L507.59 570.79L506.9 569.74L506.1 568.76L505.21 567.87L504.24 567.08L503.18 566.38L502.06 565.8L500.87 565.33L499.62 564.99L498.32 564.77L496.99 564.7L495.65 564.77L494.35 564.99ZM401.6 542.74L401.01 542.78L400.43 542.84L399.86 542.92L399.29 543.03L398.73 543.15L398.18 543.3L397.63 543.47L397.1 543.66L396.58 543.87L396.06 544.1L395.56 544.35L395.07 544.61L394.59 544.9L394.12 545.2L393.67 545.52L393.23 545.86L392.8 546.21L392.38 546.58L391.98 546.97L391.6 547.37L391.23 547.78L390.88 548.21L390.54 548.65L390.22 549.11L389.91 549.58L389.63 550.06L389.36 550.55L389.11 551.05L388.88 551.56L388.67 552.09L388.48 552.62L388.32 553.16L388.17 553.71L388.04 554.27L387.94 554.84L387.85 555.42L387.79 556L387.76 556.59L387.75 557.18L387.75 557.58L387.77 557.97L387.79 558.36L387.83 558.75L387.88 559.14L387.94 559.52L388 559.9L388.08 560.28L388.17 560.65L388.26 561.02L388.37 561.39L388.49 561.75L388.61 562.11L388.74 562.46L388.89 562.81L389.04 563.15L389.2 563.5L389.37 563.83L389.54 564.16L389.73 564.49L389.92 564.81L390.12 565.12L390.33 565.43L390.55 565.74L390.78 566.04L391.01 566.33L391.25 566.61L391.5 566.89L391.75 567.17L392.01 567.43L392.28 567.7L392.56 567.95L392.84 568.19L393.13 568.43L393.42 568.67L393.72 568.89L394.03 569.11L394.34 569.31L394.66 569.52L394.99 569.71L395.23 569.03L395.49 568.36L395.77 567.7L396.07 567.05L396.39 566.41L396.73 565.79L397.08 565.17L397.46 564.57L397.85 563.98L398.26 563.4L398.69 562.84L399.13 562.29L399.59 561.75L400.07 561.23L400.56 560.72L401.07 560.23L401.59 559.75L402.13 559.29L402.68 558.85L403.24 558.42L403.82 558.01L404.41 557.62L405.01 557.25L405.63 556.89L406.25 556.55L406.89 556.23L407.54 555.93L408.2 555.65L408.87 555.4L409.55 555.16L410.24 554.94L410.94 554.74L411.65 554.57L412.36 554.41L413.08 554.28L413.82 554.18L414.55 554.09L415.3 554.03L416.05 554L416.81 553.98L417.62 554L418.42 554.04L419.22 554.11L420 554.2L420.78 554.33L421.55 554.48L422.31 554.65L423.07 554.85L423.81 555.07L424.54 555.32L425.26 555.59L425.96 555.88L426.66 556.2L427.34 556.54L428.01 556.9L428.67 557.28L429.31 557.69L429.94 558.11L430.55 558.55L431.15 559.02L431.73 559.5L432.3 560L432.85 560.52L433.38 561.05L433.9 561.61L434.39 562.17L434.87 562.76L435.33 563.36L435.77 563.98L436.19 564.61L436.59 565.26L436.96 565.91L437.32 566.59L437.65 567.27L437.97 567.97L438.26 568.68L438.52 569.4L438.77 570.14L438.99 570.88L439.18 571.63L474.62 571.63L474.81 570.88L475.03 570.14L475.27 569.4L475.54 568.68L475.83 567.97L476.14 567.27L476.47 566.59L476.83 565.91L477.21 565.26L477.61 564.61L478.03 563.98L478.47 563.36L478.93 562.76L479.4 562.17L479.9 561.61L480.41 561.05L480.95 560.52L481.5 560L482.06 559.5L482.64 559.02L483.24 558.55L483.86 558.11L484.48 557.69L485.13 557.28L485.78 556.9L486.45 556.54L487.14 556.2L487.83 555.88L488.54 555.59L489.26 555.32L489.99 555.07L490.73 554.85L491.48 554.65L492.24 554.48L493.01 554.33L493.79 554.2L494.58 554.11L495.37 554.04L496.18 554L496.99 553.98L497.75 554L498.52 554.03L499.27 554.1L500.02 554.18L500.77 554.29L501.5 554.43L502.23 554.59L502.94 554.77L503.65 554.97L504.35 555.19L505.04 555.44L505.72 555.7L506.39 555.99L507.04 556.3L507.69 556.63L508.32 556.98L508.94 557.34L509.55 557.73L510.15 558.13L510.73 558.55L511.3 558.99L511.86 559.45L512.4 559.92L512.92 560.41L513.43 560.92L513.92 561.44L514.4 561.97L514.86 562.52L515.31 563.09L515.73 563.67L516.14 564.26L516.53 564.86L516.9 565.48L517.26 566.11L517.59 566.76L517.9 567.41L518.2 568.07L518.47 568.75L518.72 569.44L518.95 570.13L519.31 569.95L519.66 569.76L520 569.55L520.34 569.34L520.67 569.12L521 568.89L521.31 568.66L521.63 568.41L521.93 568.15L522.23 567.89L522.52 567.62L522.8 567.34L523.07 567.06L523.34 566.77L523.6 566.47L523.85 566.16L524.09 565.84L524.32 565.52L524.55 565.2L524.76 564.86L524.97 564.53L525.17 564.18L525.36 563.83L525.54 563.47L525.71 563.11L525.87 562.75L526.02 562.38L526.16 562L526.29 561.62L526.41 561.23L526.51 560.84L526.61 560.45L526.7 560.05L526.77 559.65L526.84 559.25L526.89 558.84L526.93 558.43L526.96 558.02L526.98 557.6L526.99 557.18L526.98 556.59L526.94 556L526.88 555.42L526.8 554.84L526.69 554.27L526.57 553.71L526.42 553.16L526.25 552.62L526.06 552.09L525.85 551.56L525.62 551.05L525.37 550.55L525.11 550.06L524.82 549.58L524.52 549.11L524.2 548.65L523.86 548.21L523.51 547.78L523.14 547.37L522.75 546.97L522.35 546.58L521.94 546.21L521.51 545.86L521.07 545.52L520.61 545.2L520.14 544.9L519.66 544.61L519.17 544.35L518.67 544.1L518.16 543.87L517.63 543.66L517.1 543.47L516.56 543.3L516.01 543.15L515.45 543.03L514.88 542.92L514.3 542.84L513.72 542.78L513.13 542.74L512.54 542.73L500.64 542.73L414.09 542.74L414.08 542.74L414.07 542.74L414.06 542.74L414.05 542.74L414 542.73L413.98 542.73L413.98 542.73L413.97 542.73L413.97 542.73L402.2 542.73L401.6 542.74ZM462.58 516.82L461.23 516.87L459.89 516.96L458.55 517.07L457.22 517.23L455.89 517.41L454.57 517.63L453.26 517.88L451.95 518.16L450.66 518.48L449.37 518.82L448.09 519.2L446.82 519.61L445.57 520.05L444.32 520.52L443.09 521.03L441.87 521.56L440.66 522.12L439.47 522.71L438.29 523.33L437.13 523.98L435.98 524.66L434.85 525.36L433.74 526.1L432.64 526.86L431.56 527.65L430.5 528.47L429.47 529.32L428.45 530.19L427.45 531.09L426.47 532.01L495.28 532.01L495.28 516.8L463.93 516.8L462.58 516.82Z" id="b1sVRHE7ei"></path><path d="M499.67 572.37L500.76 573.22L501.61 574.31L502.15 575.58L502.35 576.99L502.15 578.4L501.61 579.67L500.76 580.76L499.67 581.61L498.4 582.16L496.99 582.35L495.62 582.17L494.37 581.65L493.3 580.85L492.45 579.81L491.88 578.58L491.64 577.22L491.78 575.77L492.3 574.44L493.14 573.3L494.23 572.41L495.54 571.84L496.99 571.63L498.4 571.83L499.67 572.37Z" id="bfcEvwA9W"></path><path d="M430.89 425L430.94 425L431 425.01L431.05 425.01L431.1 425.02L431.16 425.03L431.21 425.03L431.26 425.04L431.32 425.05L431.37 425.07L431.42 425.08L431.47 425.09L431.52 425.11L431.57 425.12L431.62 425.14L431.67 425.16L431.72 425.18L431.77 425.2L431.82 425.22L431.87 425.24L431.92 425.26L431.97 425.29L432.01 425.31L432.06 425.34L432.11 425.37L432.15 425.39L432.2 425.42L432.24 425.46L432.29 425.49L432.33 425.52L432.38 425.55L432.42 425.59L432.46 425.63L432.51 425.66L432.55 425.7L432.59 425.74L432.63 425.78L432.68 425.82L432.72 425.87L432.76 425.91L432.8 425.95L432.84 426L432.87 426.04L432.91 426.09L432.94 426.13L432.98 426.18L433.01 426.22L433.04 426.27L433.08 426.32L433.11 426.37L433.14 426.41L433.16 426.46L433.19 426.51L433.22 426.56L433.24 426.61L433.27 426.66L433.29 426.71L433.31 426.76L433.33 426.81L433.35 426.86L433.37 426.91L433.39 426.97L433.41 427.02L433.42 427.07L433.44 427.13L433.45 427.18L433.46 427.23L433.48 427.29L433.49 427.34L433.5 427.4L433.5 427.46L433.51 427.51L433.52 427.57L433.52 427.63L433.53 427.68L433.53 427.74L433.54 427.8L433.54 427.86L433.54 427.92L433.54 427.98L433.54 428.03L433.53 428.09L433.53 428.15L433.52 428.21L433.52 428.26L433.51 428.32L433.5 428.38L433.5 428.43L433.49 428.49L433.48 428.54L433.46 428.6L433.45 428.65L433.44 428.71L433.42 428.76L433.41 428.81L433.39 428.87L433.37 428.92L433.35 428.97L433.33 429.02L433.31 429.07L433.29 429.12L433.27 429.17L433.24 429.22L433.22 429.27L433.19 429.32L433.16 429.37L433.14 429.42L433.11 429.47L433.08 429.51L433.04 429.56L433.01 429.61L432.98 429.65L432.94 429.7L432.91 429.75L432.87 429.79L432.84 429.84L432.8 429.88L432.76 429.92L432.72 429.97L432.68 430.01L432.63 430.05L432.59 430.09L432.55 430.13L432.51 430.17L432.46 430.21L432.42 430.24L432.38 430.28L432.33 430.31L432.29 430.35L432.24 430.38L432.2 430.41L432.15 430.44L432.11 430.47L432.06 430.49L432.01 430.52L431.96 430.55L431.92 430.57L431.87 430.59L431.82 430.62L431.77 430.64L431.72 430.66L431.67 430.68L431.62 430.69L431.57 430.71L431.52 430.73L431.47 430.74L431.42 430.76L431.37 430.77L431.32 430.78L431.26 430.79L431.21 430.8L431.16 430.81L431.1 430.81L431.05 430.82L431 430.82L430.94 430.83L430.89 430.83L430.83 430.83L430.77 430.83L428.01 430.83L428.01 449.02L449.73 485.16L449.85 485.36L449.96 485.56L450.07 485.76L450.17 485.96L450.27 486.15L450.37 486.35L450.46 486.54L450.54 486.73L450.62 486.92L450.7 487.11L450.76 487.3L450.83 487.49L450.89 487.67L450.94 487.85L450.99 488.03L451.04 488.22L451.08 488.39L451.12 488.57L451.15 488.75L451.17 488.92L451.19 489.09L451.21 489.27L451.22 489.44L451.23 489.61L451.23 489.77L451.22 489.94L451.21 490.1L451.2 490.27L451.18 490.43L451.16 490.59L451.13 490.75L451.1 490.9L451.06 491.06L451.02 491.21L450.97 491.36L450.92 491.52L450.86 491.67L450.8 491.81L450.73 491.96L450.66 492.11L450.58 492.25L450.5 492.39L450.42 492.52L450.33 492.66L450.24 492.78L450.14 492.91L450.04 493.03L449.94 493.15L449.83 493.26L449.72 493.37L449.61 493.48L449.49 493.58L449.36 493.68L449.24 493.78L449.11 493.87L448.97 493.96L448.83 494.04L448.69 494.12L448.55 494.2L448.4 494.28L448.24 494.35L448.09 494.41L447.92 494.48L447.76 494.54L447.59 494.59L447.42 494.65L447.24 494.69L447.06 494.74L446.88 494.78L446.69 494.82L446.49 494.85L446.3 494.88L446.1 494.91L445.9 494.93L445.69 494.95L445.48 494.97L445.26 494.98L445.04 494.99L444.82 495L444.59 495L394.85 495L394.62 495L394.4 494.99L394.18 494.98L393.96 494.97L393.75 494.95L393.54 494.93L393.34 494.91L393.14 494.88L392.94 494.85L392.75 494.82L392.56 494.78L392.38 494.74L392.2 494.69L392.02 494.65L391.85 494.59L391.68 494.54L391.51 494.48L391.35 494.41L391.2 494.35L391.04 494.28L390.89 494.2L390.75 494.12L390.6 494.04L390.47 493.96L390.33 493.87L390.2 493.78L390.07 493.68L389.95 493.58L389.83 493.48L389.72 493.37L389.61 493.26L389.5 493.15L389.4 493.03L389.3 492.91L389.2 492.78L389.11 492.66L389.02 492.52L388.94 492.39L388.86 492.25L388.78 492.11L388.71 491.96L388.64 491.81L388.58 491.67L388.52 491.52L388.47 491.36L388.42 491.21L388.38 491.06L388.34 490.9L388.31 490.75L388.28 490.59L388.26 490.43L388.24 490.27L388.22 490.1L388.22 489.94L388.21 489.77L388.21 489.61L388.22 489.44L388.23 489.27L388.25 489.1L388.27 488.92L388.29 488.75L388.32 488.57L388.36 488.39L388.4 488.22L388.44 488.04L388.49 487.85L388.55 487.67L388.61 487.49L388.67 487.3L388.74 487.11L388.82 486.92L388.9 486.73L388.98 486.54L389.07 486.35L389.16 486.15L389.26 485.96L389.37 485.76L389.48 485.56L389.59 485.36L389.71 485.16L411.43 449.02L411.43 430.83L408.67 430.83L408.61 430.83L408.55 430.83L408.5 430.83L408.44 430.82L408.39 430.82L408.34 430.81L408.28 430.81L408.23 430.8L408.18 430.79L408.12 430.78L408.07 430.77L408.02 430.76L407.97 430.74L407.92 430.73L407.87 430.71L407.82 430.69L407.77 430.68L407.72 430.66L407.67 430.64L407.62 430.62L407.57 430.59L407.52 430.57L407.47 430.55L407.43 430.52L407.38 430.49L407.33 430.47L407.29 430.44L407.24 430.41L407.2 430.38L407.15 430.35L407.11 430.31L407.06 430.28L407.02 430.24L406.98 430.21L406.93 430.17L406.89 430.13L406.85 430.09L406.81 430.05L406.76 430.01L406.72 429.97L406.68 429.92L406.64 429.88L406.6 429.84L406.57 429.79L406.53 429.75L406.49 429.7L406.46 429.65L406.43 429.61L406.39 429.56L406.36 429.51L406.33 429.47L406.3 429.42L406.28 429.37L406.25 429.32L406.22 429.27L406.2 429.22L406.17 429.17L406.15 429.12L406.13 429.07L406.11 429.02L406.09 428.97L406.07 428.92L406.05 428.87L406.03 428.81L406.02 428.76L406 428.71L405.99 428.65L405.98 428.6L405.96 428.54L405.95 428.49L405.94 428.43L405.93 428.38L405.93 428.32L405.92 428.26L405.91 428.21L405.91 428.15L405.91 428.09L405.9 428.03L405.9 427.98L405.9 427.92L405.9 427.86L405.9 427.8L405.91 427.74L405.91 427.68L405.91 427.63L405.92 427.57L405.93 427.51L405.93 427.46L405.94 427.4L405.95 427.34L405.96 427.29L405.98 427.23L405.99 427.18L406 427.13L406.02 427.07L406.03 427.02L406.05 426.97L406.07 426.91L406.09 426.86L406.11 426.81L406.13 426.76L406.15 426.71L406.17 426.66L406.2 426.61L406.22 426.56L406.25 426.51L406.28 426.46L406.3 426.41L406.33 426.37L406.36 426.32L406.39 426.27L406.43 426.22L406.46 426.18L406.49 426.13L406.53 426.09L406.57 426.04L406.6 426L406.64 425.95L406.68 425.91L406.72 425.87L406.76 425.82L406.81 425.78L406.85 425.74L406.89 425.7L406.93 425.66L406.98 425.63L407.02 425.59L407.06 425.55L407.11 425.52L407.15 425.49L407.2 425.45L407.24 425.42L407.29 425.39L407.33 425.37L407.38 425.34L407.43 425.31L407.47 425.29L407.52 425.26L407.57 425.24L407.62 425.22L407.67 425.2L407.72 425.18L407.77 425.16L407.82 425.14L407.87 425.12L407.92 425.11L407.97 425.09L408.02 425.08L408.07 425.07L408.12 425.05L408.18 425.04L408.23 425.03L408.28 425.03L408.34 425.02L408.39 425.01L408.44 425.01L408.5 425L408.55 425L408.61 425L408.67 425L430.77 425L430.83 425L430.89 425ZM416.96 450.7L416.09 452.12L404.35 471.67L435.09 471.67L423.35 452.12L422.48 450.7L422.48 430.83L416.96 430.83L416.96 450.7Z" id="j278TSiolF"></path></defs><g><g><use xlink:href="#bHckeBgfT" opacity="1" fill="#000000" fill-opacity="1"></use><g><use xlink:href="#bHckeBgfT" opacity="1" fill-opacity="0" stroke="#000000" stroke-width="1" stroke-opacity="0"></use></g></g><g><use xlink:href="#f2uMHVljBY" opacity="1" fill="#000000" fill-opacity="1"></use><g><use xlink:href="#f2uMHVljBY" opacity="1" fill-opacity="0" stroke="#000000" stroke-width="1" stroke-opacity="0"></use></g></g><g><use xlink:href="#b1sVRHE7ei" opacity="1" fill="#000000" fill-opacity="1"></use><g><use xlink:href="#b1sVRHE7ei" opacity="1" fill-opacity="0" stroke="#000000" stroke-width="1" stroke-opacity="0"></use></g></g><g><use xlink:href="#bfcEvwA9W" opacity="1" fill="#000000" fill-opacity="1"></use><g><use xlink:href="#bfcEvwA9W" opacity="1" fill-opacity="0" stroke="#000000" stroke-width="1" stroke-opacity="0"></use></g></g><g><use xlink:href="#j278TSiolF" opacity="1" fill="#000000" fill-opacity="1"></use><g><use xlink:href="#j278TSiolF" opacity="1" fill-opacity="0" stroke="#000000" stroke-width="1" stroke-opacity="0"></use></g></g></g></svg>