<svg viewBox="0 0 512 512" xmlns="http://www.w3.org/2000/svg"><path d="m423.085938 124.464844h-334.671876v94.910156h99.902344v172.828125h134.867188v-172.828125h99.902344zm-14.984376 79.921875h-99.902343v172.832031h-104.898438v-172.832031h-99.902343v-64.933594h304.703124zm0 0"/><path d="m15.484375 26.082031 67.132813 67.132813 10.597656-10.597656-67.132813-67.132813h41.851563v-14.984375h-67.433594v67.433594h14.984375zm0 0"/><path d="m444.566406.5v14.984375h41.851563l-67.132813 67.132813 10.597656 10.597656 67.132813-67.132813v41.851563h14.984375v-67.433594zm0 0"/><path d="m497.015625 486.417969-67.132813-67.132813-10.597656 10.597656 67.132813 67.132813h-41.851563v14.984375h67.433594v-67.433594h-14.984375zm0 0"/><path d="m0 124.464844h59.941406v14.988281h-59.941406zm0 0"/><path d="m0 204.386719h59.941406v14.988281h-59.941406zm0 0"/><path d="m451.558594 124.464844h59.941406v14.988281h-59.941406zm0 0"/><path d="m451.558594 204.386719h59.941406v14.988281h-59.941406zm0 0"/><path d="m188.316406 29.972656h14.984375v63.9375h-14.984375zm0 0"/><path d="m188.316406 0h14.984375v14.984375h-14.984375zm0 0"/><path d="m308.199219 0h14.984375v14.984375h-14.984375zm0 0"/><path d="m308.199219 29.972656h14.984375v63.9375h-14.984375zm0 0"/><path d="m188.316406 417.59375h14.984375v63.9375h-14.984375zm0 0"/><path d="m188.316406 496.515625h14.984375v14.984375h-14.984375zm0 0"/><path d="m308.199219 496.515625h14.984375v14.984375h-14.984375zm0 0"/><path d="m308.199219 417.59375h14.984375v63.9375h-14.984375zm0 0"/><path d="m82.617188 419.285156-67.132813 67.132813v-41.851563h-14.984375v67.433594h67.433594v-14.984375h-41.851563l67.132813-67.132813zm0 0"/><path d="m248.257812 237.339844h14.984376v14.984375h-14.984376zm0 0"/><path d="m248.257812 267.308594h14.984376v14.984375h-14.984376zm0 0"/><path d="m248.257812 207.367188h14.984376v14.984374h-14.984376zm0 0"/><path d="m248.257812 177.398438h14.984376v14.984374h-14.984376zm0 0"/></svg>