<?xml version="1.0"?>
<svg xmlns="http://www.w3.org/2000/svg" id="Layer_1" data-name="Layer 1" viewBox="0 0 512 512" width="512" height="512"><title>Exhibition</title><path d="M484.625,454H472V274.369a29.5,29.5,0,1,0-59,0v29.589c-2,18.884-16.843,36.489-43.818,50.465A199.175,199.175,0,0,1,346,364.4V273h49.493c4.419,0,7.507-3.95,7.507-8.369V206.352c0-4.418-3.088-8.352-7.507-8.352H294v-7.5c19.99-12.807,32.765-38.322,32.765-65.884,0-25.249-13.409-50.83-33.765-65.124V49h4a8,8,0,0,0,8-8V22a8,8,0,0,0-8-8H212a8,8,0,0,0-8,8V41a8,8,0,0,0,8,8h4V59.5c-19.567,13.813-31.548,38.012-31.548,64.3,0,25.775,12.814,50.581,32.976,64.744l.19,9.456H116.507c-4.419,0-7.507,3.934-7.507,8.352v58.279c0,4.419,3.088,8.369,7.507,8.369H166v91.418a196.605,196.605,0,0,1-23.057-9.97C118.432,341.748,104,326.033,100,309.1V274.369a30,30,0,0,0-60,0V456H27.375C22.956,456,19,459.152,19,463.57V490a8.328,8.328,0,0,0,8.375,8h84A7.689,7.689,0,0,0,119,490V463.57a7.331,7.331,0,0,0-7.625-7.57H100V341.927c9,9.912,20.577,18.953,35.583,26.728A198.98,198.98,0,0,0,166,381.307v84.315A8.55,8.55,0,0,0,174.254,474H337.746A8.55,8.55,0,0,0,346,465.622V381.307a200.589,200.589,0,0,0,30.543-12.652c15.442-8,27.457-17.344,36.457-27.6V454H400.625A7.334,7.334,0,0,0,393,461.574V488a7.685,7.685,0,0,0,7.625,8h84A8.325,8.325,0,0,0,493,488v-26.43C493,457.156,489.044,454,484.625,454ZM224,33h-4V30h69v3h-4a8,8,0,0,0-8,8V63.816a8,8,0,0,0,3.851,6.84A57.359,57.359,0,0,1,291.46,79H217.73a52.374,52.374,0,0,1,10.419-8.344A8,8,0,0,0,232,63.816V41A8,8,0,0,0,224,33ZM206.766,95h96.46a64.223,64.223,0,0,1,7.539,29.618A71.666,71.666,0,0,1,309.082,140H202.605a63.321,63.321,0,0,1-2.153-16.2A67.75,67.75,0,0,1,206.766,95Zm2.387,61h94.305c-4.421,8.849-10.639,16.241-18.082,21.024A8,8,0,0,0,278,185v12H233.6l-.253-12.812a8,8,0,0,0-3.837-6.674A59.507,59.507,0,0,1,209.153,156ZM70,260.62a13.982,13.982,0,0,1,14,13.749V295H56V274.369A13.982,13.982,0,0,1,70,260.62ZM103,482H35V472h68ZM84,456H56V311H83.863s.137-.346.137-.328Zm41-242H387v43H125Zm57,59H330v96.353a299.683,299.683,0,0,1-148,.016ZM330,458H182V385.908a316.13,316.13,0,0,0,148,0ZM442.5,260.62A13.554,13.554,0,0,1,456,274.369V295H429V274.369A13.554,13.554,0,0,1,442.5,260.62ZM429,311h27V454H429Zm48,169H409V470h68Z"/></svg>
