<svg width="297" height="241" viewBox="0 0 297 241" fill="none" xmlns="http://www.w3.org/2000/svg">
<path d="M253.821 3.73776C267.937 2.29137 281.959 -2.67966 295.941 4.00187C299.276 18.1177 288.265 25.9544 281.966 35.7656C281.54 35.8314 281.15 36.0435 280.864 36.3656C280.577 36.6877 280.412 37.0996 280.396 37.5304C262.114 55.1759 248.063 78.1157 216.731 84.4269C228.025 87.7986 232.527 89.9681 225.236 97.7332C202.119 122.438 184.881 154.853 144.912 157.252L172.475 158.788C169.381 162.73 165.312 165.798 160.67 167.689C156.029 169.579 150.974 170.227 146.006 169.569C122.289 167.328 112.354 180.528 107.185 200.713C105.245 208.389 102.651 215.905 100.62 223.653C98.6971 230.942 95.6439 237.228 88.2787 240.541C84.7491 240.928 79.5979 239.41 81.3676 236.271C87.0668 226.151 85.6376 213.207 94.4493 204.507C96.6098 201.215 98.5722 197.797 100.326 194.271C120.865 145.065 152.228 101.121 192.085 65.7029C197.661 60.6726 204.755 57.0221 210.508 45.8854C174.035 67.485 150.935 96.9533 126.001 125.787C122.718 117.642 126.601 113.446 129.53 108.707C150.599 72.9175 180.828 46.1174 213.86 21.9953L214.055 21.7485C221.114 17.9951 228.143 14.2245 235.141 10.4366L234.154 9.92563L235.09 10.5254L253.821 3.73776Z" fill="#192A56"/>
<path d="M81.1356 125.705C72.1609 125.793 63.1956 125.102 54.3405 123.639C47.1505 122.314 42.9869 120.539 42.6314 118.646C41.4351 117.377 40.7661 115.701 40.7604 113.957V84.6661C40.7602 83.7225 40.9542 82.7888 41.3304 81.9234C41.7067 81.058 42.257 80.2792 42.9472 79.6356C45.4845 76.0443 61.9007 73.3367 81.1332 73.3367C101.459 73.3367 118.357 76.3283 119.601 80.1466C120.714 81.3912 121.341 82.9962 121.366 84.6661L121.296 114.065C121.287 115.664 120.725 117.209 119.707 118.441C119.712 122.45 102.407 125.705 81.1356 125.705ZM63.3867 87.043C68.0649 87.7265 72.7774 88.1498 77.5025 88.3115C79.1859 88.3757 80.9579 88.4079 82.7795 88.4079C85.5192 88.4079 88.4567 88.3363 91.7419 88.1907C96.4723 87.9339 101.185 87.4147 105.858 86.6357C108.238 86.2207 110.594 85.6794 112.917 85.0141C115.248 84.4635 117.407 83.3413 119.196 81.7486C117.345 83.1351 115.203 84.082 112.932 84.5179C110.603 85.0629 108.246 85.4817 105.872 85.7719C100.993 86.4136 96.2461 86.8407 91.7564 87.043C87.5061 87.2578 83.157 87.3612 78.4649 87.3612C73.8123 87.3612 68.8785 87.2578 63.3867 87.043Z" fill="#192A56"/>
<path d="M44.5415 120.624C44.7998 121.895 44.9067 123.192 44.8599 124.489C44.7838 125.84 44.4861 127.169 43.9787 128.423C42.8748 131.081 40.9197 133.296 38.4202 134.722C38.1018 134.897 37.7859 135.075 37.4329 135.233L36.4802 135.658L34.7154 136.398L31.1858 137.879L24.1267 140.772L17.0675 143.578C15.9198 144.055 14.545 144.548 14.0143 144.867C13.3426 145.259 12.7452 145.767 12.2495 146.367C11.2416 147.496 10.6229 148.918 10.4847 150.425C10.4013 151.139 10.443 151.861 10.6081 152.56C10.6367 152.691 10.6722 152.82 10.7142 152.948V153.054C10.7048 153.1 10.7048 153.148 10.7142 153.194L10.8722 153.636L11.5263 155.401C14.9736 164.894 18.2736 174.429 21.4264 184.005C23.0505 188.786 24.5487 193.587 26.1161 198.388L27.2465 201.917L27.8117 203.682C28.024 204.336 28.1129 204.793 28.1992 204.988C28.5587 205.977 29.2345 206.821 30.122 207.387C30.3493 207.542 30.5849 207.683 30.8279 207.812L32.3977 208.518C33.4566 208.994 34.55 209.453 35.6435 209.895C37.8328 210.776 40.0715 211.571 42.3324 212.348C46.8493 213.901 51.4649 215.206 56.1669 216.32C65.5563 218.553 75.1316 219.917 84.7713 220.395C94.506 220.865 104.263 220.356 113.896 218.877C118.749 218.119 123.602 217.112 128.437 215.895C133.272 214.678 138.063 213.126 142.888 211.484C138.738 214.484 134.365 217.163 129.807 219.496C125.188 221.815 120.417 223.819 115.528 225.494C105.598 228.79 95.2712 230.743 84.8231 231.299C74.3181 231.848 63.7853 231.137 53.4493 229.182C48.2621 228.204 43.136 226.925 38.0969 225.353C35.5678 224.565 33.0617 223.683 30.5786 222.707C29.3248 222.231 28.0734 221.72 26.8368 221.172L24.9659 220.343C24.0666 219.936 23.2044 219.452 22.389 218.896C19.0585 216.64 16.5406 213.374 15.2064 209.579L12.9134 201.831C11.5362 196.979 10.0898 192.161 8.7668 187.308C6.06655 177.603 3.47243 167.898 1.019 158.121L0.55992 156.356L0.453778 155.897C0.445834 155.797 0.445834 155.696 0.453778 155.596V155.204C0.363971 154.719 0.298893 154.231 0.258791 153.74C-0.0423833 150.195 0.81949 146.648 2.71399 143.636C4.60849 140.624 7.43251 138.311 10.7587 137.047C11.1635 136.889 11.5707 136.783 11.9755 136.66L12.558 136.484L13.0171 136.378L14.8708 135.954L22.2755 134.312L36.7813 131.225C38.9032 130.543 40.7559 129.21 42.0757 127.414C42.7961 126.471 43.3565 125.416 43.7343 124.291C44.1102 123.094 44.3819 121.866 44.5464 120.621L44.5415 120.624Z" fill="#192A56"/>
</svg>
