<?xml version="1.0" encoding="iso-8859-1"?>
<!-- Generator: Adobe Illustrator 17.1.0, SVG Export Plug-In . SVG Version: 6.00 Build 0)  -->
<!DOCTYPE svg PUBLIC "-//W3C//DTD SVG 1.1//EN" "http://www.w3.org/Graphics/SVG/1.1/DTD/svg11.dtd">
<svg version="1.1" id="Capa_1" xmlns="http://www.w3.org/2000/svg" xmlns:xlink="http://www.w3.org/1999/xlink" x="0px" y="0px"
	 viewBox="0 0 433.335 433.335" style="enable-background:new 0 0 433.335 433.335;" xml:space="preserve">
<g>
	<path d="M280.175,62c17.094,0,31-13.906,31-31c0-17.094-13.906-31-31-31c-17.094,0-31,13.906-31,31
		C249.175,48.094,263.081,62,280.175,62z M280.175,20c6.065,0,11,4.935,11,11s-4.935,11-11,11c-6.065,0-11-4.935-11-11
		S274.109,20,280.175,20z"/>
	<path d="M423.04,41.387c-3.984-7.908-10.542-15.052-14.096-18.606c-8.08-8.08-20.214-17.712-32.13-17.712
		c-5.442,0-10.312,1.993-14.082,5.763L242.927,130.637c-12.172,12.173-12.228,31.942-0.174,44.193l-16.224,16.224l-74.307,5.78
		c-8.587-16.929-20.674-28.063-41.53-28.063c-6.929,0-14.67,1.216-23.661,3.715c-16.158,4.484-38.163,13.273-42.697,37.727
		c-3.052,16.459,2.121,37.147,9.76,64.568c11.548,41.61,25.953,69.323,58.72,69.323c0.413,0,0.836-0.017,1.254-0.026
		c7.647,18.899-0.957,35.616-11.495,44.707c-13.167,11.359-37.349,17.745-62.171-1.649c-2.236-1.748-5.113-2.464-7.907-1.966
		c-2.795,0.497-5.247,2.158-6.745,4.57l-17.588,28.32c-2.914,4.691-1.472,10.856,3.219,13.771c1.643,1.021,3.465,1.506,5.267,1.506
		c3.343,0,6.611-1.676,8.504-4.726l12.076-19.444c29.485,17.542,59.931,10.703,78.409-5.239
		c18.971-16.366,25.667-40.533,18.464-63.134c10.748-3.03,19.085-7.132,25.391-12.255c22.269-6.043,42.527,0.651,54.45,18.107
		c10.678,15.633,15.648,43.485-5.485,70.533c-2.354,3.013-2.784,7.105-1.108,10.541c1.676,3.436,5.165,5.616,8.988,5.616h33.336
		c5.523,0,10-4.478,10-10c0-5.523-4.478-10-10-10h-15.265c5.178-10.488,8.106-21.644,8.594-32.958
		c0.695-16.166-3.761-32.151-12.545-45.013c-13.074-19.141-33.67-29.352-56.573-28.968c4.549-16.528,1.243-37.798-5.853-63.279
		c-2.602-9.374-5.125-18.439-7.932-26.836l44.679-3.475l-0.442,0.442c-3.905,3.905-3.905,10.237,0,14.143
		c1.953,1.952,4.512,2.929,7.071,2.929c2.559,0,5.119-0.977,7.071-2.929l38.417-38.417c5.906,5.814,13.708,9.016,22.005,9.016
		c8.381,0,16.261-3.264,22.188-9.19L420.893,68.991C424.88,65.004,430.46,56.116,423.04,41.387z M148.761,248.474
		c15.007,53.891,6.31,65.694-20.287,73.127c-6.027,1.684-11.15,2.502-15.662,2.502c-14.987,0-26.813-9.146-39.451-54.681
		c-6.914-24.819-11.633-43.332-9.365-55.564c1.444-7.789,5.882-15.857,28.385-22.103c7.227-2.009,13.215-2.985,18.309-2.985
		c8.34,0,14.26,2.695,19.405,9.785l-31.732,2.468c-5.506,0.428-9.623,5.239-9.194,10.745c0.408,5.242,4.788,9.226,9.959,9.226
		c0.26,0,0.522-0.011,0.786-0.031l39.484-3.071C142.304,225.965,145.304,236.021,148.761,248.474z M286.945,174.655
		c-2.148,2.149-5.006,3.333-8.045,3.333c-3.04,0-5.897-1.184-8.046-3.333l-13.788-13.788c-4.434-4.436-4.433-11.653,0.003-16.088
		L376.781,25.068c0.01,0,0.021,0,0.033,0c3.048,0,10.205,4.072,17.987,11.855c8.851,8.85,12.029,15.931,11.865,18.011
		L286.945,174.655z"/>
	<path d="M15.665,135.845c9.529,21.792,30.903,34.809,53.292,34.809c7.755-0.001,15.633-1.563,23.181-4.863
		c14.225-6.22,25.171-17.594,30.821-32.026c4.418-11.284,5.172-23.391,2.326-34.938l28.299-12.374
		c5.06-2.212,7.369-8.108,5.156-13.168c-2.213-5.061-8.108-7.369-13.169-5.156l-28.288,12.369
		c-6.532-9.895-15.936-17.533-27.213-21.957c-14.454-5.669-30.244-5.368-44.46,0.847c-14.198,6.208-25.134,17.592-30.792,32.056
		C9.164,105.895,9.465,121.664,15.665,135.845L15.665,135.845z M104.336,126.473c-3.703,9.458-10.88,16.913-20.21,20.993
		c-16.064,7.023-34.393,2.031-44.901-11.01l67.316-29.435C107.518,113.526,106.794,120.195,104.336,126.473z M33.444,98.729
		c3.711-9.486,10.878-16.951,20.18-21.019c4.882-2.135,10.047-3.204,15.223-3.204c4.701,0,9.41,0.883,13.92,2.652
		c6.271,2.46,11.658,6.434,15.761,11.538L31.2,118.137C30.243,111.661,30.988,105.007,33.444,98.729z"/>
</g>
<g>
</g>
<g>
</g>
<g>
</g>
<g>
</g>
<g>
</g>
<g>
</g>
<g>
</g>
<g>
</g>
<g>
</g>
<g>
</g>
<g>
</g>
<g>
</g>
<g>
</g>
<g>
</g>
<g>
</g>
</svg>
