<svg height="512pt" viewBox="0 0 512 512" width="512pt" xmlns="http://www.w3.org/2000/svg"><path d="m15.03125 371.726562h47.589844v-15.03125h-62.621094v155.304688h32.5625v-15.03125h-17.53125zm0 0"/><path d="m77.652344 371.726562h22.542968v125.242188h-52.601562v15.03125h67.632812v-155.304688h-37.574218zm0 0"/><path d="m135.765625 376.734375h25.046875v15.03125h-25.046875zm0 0"/><path d="m175.84375 391.765625h22.542969v105.203125h-62.621094v15.03125h240.46875v-15.03125h-62.621094v-105.203125h62.621094v-15.03125h-200.390625zm37.574219 0h85.164062v25.046875h-85.164062zm0 40.078125h85.164062v25.046875h-85.164062zm0 40.078125h85.164062v25.046875h-85.164062zm0 0"/><path d="m85.167969 414.308594c0-15.191406-12.363281-27.554688-27.554688-27.554688-15.195312 0-27.554687 12.363282-27.554687 27.554688 0 15.195312 12.359375 27.554687 27.554687 27.554687 15.191407 0 27.554688-12.359375 27.554688-27.554687zm-40.078125 0c0-6.90625 5.617187-12.523438 12.523437-12.523438s12.523438 5.617188 12.523438 12.523438-5.617188 12.523437-12.523438 12.523437-12.523437-5.617187-12.523437-12.523437zm0 0"/><path d="m411.804688 371.726562h47.59375v-15.03125h-62.625v155.304688h32.566406v-15.03125h-17.535156zm0 0"/><path d="m474.425781 356.695312v15.03125h22.542969v125.242188h-52.601562v15.03125h67.632812v-155.304688zm0 0"/><path d="m481.941406 414.308594c0-15.191406-12.359375-27.554688-27.554687-27.554688-15.191407 0-27.554688 12.363282-27.554688 27.554688 0 15.195312 12.363281 27.554687 27.554688 27.554687 15.195312 0 27.554687-12.359375 27.554687-27.554687zm-40.078125 0c0-6.90625 5.617188-12.523438 12.523438-12.523438s12.523437 5.617188 12.523437 12.523438-5.617187 12.523437-12.523437 12.523437-12.523438-5.617187-12.523438-12.523437zm0 0"/><path d="m33.066406 95.1875h25.046875v240.96875h15.03125v-240.96875h59.113281v16.078125c-11.550781 3.28125-20.039062 13.914063-20.039062 26.503906v27.554688h55.109375v-27.554688c0-12.589843-8.488281-23.222656-20.039063-26.503906v-16.078125h101.195313v16.078125c-11.550781 3.28125-20.039063 13.914063-20.039063 26.503906v27.554688h55.109376v-27.554688c0-12.589843-8.488282-23.222656-20.039063-26.503906v-16.078125h101.195313v16.078125c-11.550782 3.28125-20.039063 13.914063-20.039063 26.503906v27.554688h55.109375v-27.554688c0-12.589843-8.488281-23.222656-20.039062-26.503906v-16.078125h59.113281v240.96875h15.03125v-240.96875h25.046875v35.566406h15.03125v-130.753906h-475.929688v278.042969h15.03125zm16.445313-15.03125 33.652343-23.410156 33.648438 23.410156zm102.785156 57.613281v12.523438h-25.046875v-12.523438c0-6.90625 5.617188-12.523437 12.523438-12.523437s12.523437 5.617187 12.523437 12.523437zm12.441406-57.613281 33.648438-23.410156 33.652343 23.410156zm103.785157 57.613281v12.523438h-25.046876v-12.523438c0-6.90625 5.617188-12.523437 12.523438-12.523437s12.523438 5.617187 12.523438 12.523437zm11.4375-57.613281 33.652343-23.410156 33.648438 23.410156zm104.789062 57.613281v12.523438h-25.046875v-12.523438c0-6.90625 5.617187-12.523437 12.523437-12.523437s12.523438 5.617187 12.523438 12.523437zm10.4375-57.613281 33.648438-23.410156 33.652343 23.410156zm83.746094-6.867188-36.9375-25.695312 36.9375-25.695312zm-16.445313-58.257812-33.652343 23.40625-33.648438-23.40625zm-46.808593 32.5625-44.453126 30.921875-44.453124-30.921875 44.453124-30.925781zm-68.417969-32.5625-33.648438 23.40625-33.652343-23.40625zm-46.808594 32.5625-44.453125 30.921875-44.453125-30.921875 44.453125-30.925781zm-68.414063-32.5625-33.652343 23.40625-33.648438-23.40625zm-46.808593 32.5625-44.457031 30.921875-44.453126-30.921875 44.453126-30.925781zm-68.417969-32.5625-33.648438 23.40625-33.652343-23.40625zm-83.746094 6.867188 36.9375 25.695312-36.9375 25.695312zm0 0"/><path d="m18.035156 293.074219h15.03125v43.082031h-15.03125zm0 0"/><path d="m478.933594 145.785156h15.03125v190.371094h-15.03125zm0 0"/><path d="m321.628906 211.414062h15.027344v15.027344h-15.027344zm0 0"/><path d="m321.628906 261.511719h15.027344v15.027343h-15.027344zm0 0"/><path d="m296.578125 236.460938h15.03125v15.03125h-15.03125zm0 0"/><path d="m346.675781 236.460938h15.03125v15.03125h-15.03125zm0 0"/><path d="m171.335938 251.492188h15.027343v15.027343h-15.027343zm0 0"/><path d="m171.335938 301.589844h15.027343v15.027344h-15.027343zm0 0"/><path d="m146.285156 276.539062h15.03125v15.03125h-15.03125zm0 0"/><path d="m196.382812 276.539062h15.03125v15.03125h-15.03125zm0 0"/><path d="m179.851562 481.941406h-15.03125v-15.03125h15.03125zm-30.058593 0h-15.03125v-15.03125h15.03125zm0 0"/><path d="m377.238281 481.941406h-15.03125v-15.03125h15.03125zm-30.058593 0h-15.03125v-15.03125h15.03125zm0 0"/><path d="m50.097656 461.902344h15.03125v15.027344h-15.03125zm0 0"/><path d="m446.871094 461.902344h15.03125v15.027344h-15.03125zm0 0"/></svg>