<?xml version="1.0" encoding="iso-8859-1"?>
<!-- Generator: Adobe Illustrator 17.1.0, SVG Export Plug-In . SVG Version: 6.00 Build 0)  -->
<!DOCTYPE svg PUBLIC "-//W3C//DTD SVG 1.1//EN" "http://www.w3.org/Graphics/SVG/1.1/DTD/svg11.dtd">
<svg version="1.1" id="Capa_1" xmlns="http://www.w3.org/2000/svg" xmlns:xlink="http://www.w3.org/1999/xlink" x="0px" y="0px"
	 viewBox="0 0 209.082 209.082" style="enable-background:new 0 0 209.082 209.082;" xml:space="preserve">
<path d="M183.34,192.153c-1.878,0-3.755-0.714-5.184-2.144l-0.232-0.233c-1.297-1.297-3.41-1.294-4.709,0.003
	c-1.385,1.385-3.226,2.147-5.184,2.147s-3.799-0.763-5.184-2.147l-0.315-0.315c-2.476-2.477-3.588-6.012-2.975-9.457
	c0.018-0.102,0.044-0.202,0.078-0.301l21.956-63.737c-7.368-1.588-30.048-8.154-45.509-30.916
	c-10.199-15.016-14.116-33.54-15.575-47.184c-0.828-0.432-1.581-0.983-2.247-1.65l-0.434-0.434
	c-2.056-2.056-5.401-2.053-7.457,0.001l-0.287,0.289c-3.619,3.617-9.503,3.617-13.118,0.002l-0.158-0.158
	c-2.057-2.057-5.402-2.057-7.459,0l-0.122,0.122c-0.149,0.15-0.308,0.297-0.472,0.438c-1.339,13.756-5.167,33.042-15.717,48.573
	c-15.461,22.762-38.141,29.328-45.509,30.916l21.956,63.737c0.034,0.099,0.061,0.199,0.078,0.302c0.612,3.445-0.5,6.98-2.974,9.456
	l-0.316,0.315c-1.385,1.385-3.226,2.147-5.184,2.147c-1.959,0-3.8-0.763-5.185-2.147c-0.14-0.139-0.288-0.264-0.444-0.373
	c-0.153-0.066-0.298-0.152-0.431-0.256c-1.245-0.614-2.799-0.407-3.836,0.629l-0.23,0.23c-2.857,2.859-7.51,2.859-10.367,0
	l-0.246-0.246c-0.159-0.113-0.303-0.25-0.423-0.406c-1.273-1.075-3.313-0.999-4.503,0.191l-0.409,0.409
	c-2.857,2.859-7.51,2.859-10.367,0l-2.461-2.461c-1.385-1.383-2.147-3.225-2.147-5.184l-0.011-43.907
	c-0.037-0.234-0.031-0.466,0.011-0.687v-32.782c-0.052-0.257-0.054-0.524,0-0.79v-3.781c-0.054-0.266-0.052-0.533,0-0.79v-7.978
	c-0.049-0.252-0.048-0.51,0-0.76v-7.219c-0.047-0.245-0.048-0.5,0-0.75V18.928c0-1.104,0.896-2,2-2h27.693
	c0.009,0.001,0.018,0,0.031,0h91.96c0.014,0,0.025,0,0.039,0h85.318c1.104,0,2,0.896,2,2v163.385c0,1.93-0.782,3.819-2.147,5.184
	l-2.461,2.461c-1.549,1.551-3.618,2.259-5.657,2.129c-0.077-0.002-0.154-0.008-0.233-0.019c-1.635-0.157-3.228-0.86-4.477-2.11
	l-0.409-0.409c-1.299-1.299-3.413-1.301-4.712,0l-0.458,0.46C187.096,191.438,185.218,192.153,183.34,192.153z M175.603,184.807
	c1.867,0.008,3.731,0.723,5.152,2.144l0.232,0.233c1.293,1.292,3.399,1.296,4.698,0.008l16.448-78.347l-6.266,2.712
	c-0.16,0.119-0.339,0.214-0.529,0.281L175.603,184.807z M23.334,187.091l0.09,0.09c1.299,1.299,3.412,1.299,4.711,0l0.23-0.23
	c1.401-1.401,3.232-2.115,5.073-2.144l-19.737-72.97c-0.19-0.066-0.369-0.162-0.53-0.281l-6.264-2.711L23.334,187.091z
	 M163.472,180.851c-0.329,2.113,0.371,4.266,1.89,5.784l0.314,0.315c1.258,1.258,3.453,1.258,4.711,0
	c0.207-0.207,0.424-0.399,0.648-0.577l19.627-72.563l-4.814,2.084L163.472,180.851z M37.986,186.297
	c0.26,0.198,0.51,0.416,0.747,0.653c1.298,1.297,3.412,1.299,4.712,0l0.315-0.315c1.517-1.518,2.217-3.67,1.889-5.784
	l-22.362-64.917l-4.908-2.124L37.986,186.297z M4.04,138.162l7.757,49.302c0.137-0.101,0.268-0.212,0.391-0.335l0.409-0.409
	c1.671-1.672,3.955-2.364,6.137-2.082L4.04,114.652V138.162z M205.082,163.394l-3.782,24.036c0.12-0.091,0.236-0.191,0.346-0.301
	l2.461-2.461c0.62-0.62,0.976-1.479,0.976-2.355V163.394z M191.34,184.573c1.959,0,3.8,0.763,5.185,2.147l0.409,0.409
	c0.102,0.102,0.209,0.195,0.319,0.281l7.809-49.626c0.006-0.036,0.012-0.071,0.02-0.106v-23.403l-14.773,70.369
	C190.647,184.597,190.992,184.573,191.34,184.573z M4.04,163.9v18.413c0,0.877,0.355,1.735,0.975,2.354l2.462,2.462
	c0.081,0.081,0.166,0.158,0.254,0.229L4.04,163.9z M20.833,110.513l4.272,1.85c3.828-0.697,28.649-6.042,44.623-29.559
	c10.108-14.883,13.754-33.867,15.03-47.239c-0.003-0.085,0-0.17,0.008-0.255c0.606-6.537,0.643-11.741,0.604-14.382H75.97
	c0.14,8.285-0.465,38.743-15.634,61.076C47.728,100.567,30.087,107.843,20.833,110.513z M123.711,20.928
	c-0.104,7.997,0.518,39.553,15.681,61.876c15.935,23.459,40.557,28.818,44.565,29.549l4.251-1.84
	c-9.254-2.67-26.896-9.946-39.504-28.509c-15.169-22.333-15.772-52.791-15.633-61.076H123.711z M8.344,105.109l6.361,2.753
	c4.081-0.766,27.308-6.002,42.322-28.105c14.38-21.17,15.023-51.067,14.931-58.828H61.833c0.121,7.94-0.52,36.218-14.627,56.987
	C34.482,96.648,16.277,103.101,8.344,105.109z M137.083,20.928c-0.093,7.761,0.551,37.658,14.93,58.828
	c15.013,22.101,38.236,27.339,42.323,28.105l6.361-2.753c-7.933-2.008-26.138-8.461-38.861-27.193
	c-14.108-20.77-14.748-49.047-14.627-56.987H137.083z M151.221,20.928c-0.078,7.434,0.593,35.113,13.924,54.739
	c14.854,21.87,38.341,26.024,39.937,26.282v-0.655c-8.299-3.73-19.519-10.735-28.106-23.379
	c-14.107-20.77-14.747-49.047-14.626-56.987H151.221z M4.04,101.259v0.677c2.168-0.363,25.209-4.702,39.857-26.269
	c13.33-19.626,14.001-47.306,13.924-54.739H46.693c0.121,7.94-0.52,36.218-14.627,56.987C23.505,90.518,12.331,97.519,4.04,101.259z
	 M166.361,20.928c-0.078,7.434,0.593,35.113,13.923,54.739c7.517,11.066,17.193,17.541,24.798,21.214V92.22
	c-5.106-4.093-9.551-8.901-13.221-14.305c-14.107-20.77-14.748-49.047-14.627-56.987H166.361z M4.04,92.156v4.688
	c7.592-3.681,17.228-10.148,24.718-21.176c13.33-19.626,14.001-47.306,13.924-54.739H31.807c0.121,7.94-0.519,36.218-14.627,56.987
	C13.53,83.29,9.112,88.076,4.04,92.156z M181.246,20.928c-0.077,7.434,0.594,35.113,13.924,54.739
	c2.832,4.17,6.156,7.962,9.912,11.315v-3.135c-1.104-1.976-2.144-4.08-3.092-6.259c-8.989-20.667-9.389-48.803-9.311-56.661H181.246
	z M4.04,83.705v3.205c3.724-3.335,7.02-7.104,9.832-11.243c13.348-19.65,14.006-47.312,13.925-54.739H16.363
	c0.078,7.856-0.322,35.992-9.312,56.661C6.13,79.707,5.119,81.763,4.04,83.705z M196.687,20.928
	c-0.049,7.346,0.367,34.069,8.395,53.699V20.928H196.687z M4.04,20.928v53.503c7.95-19.612,8.364-46.182,8.315-53.503H4.04z
	 M93.078,30.378c2.375,0,4.75,0.903,6.558,2.712l0.158,0.158c2.057,2.055,5.402,2.055,7.459,0l0.287-0.289
	c3.413-3.411,8.84-3.605,12.479-0.585c-0.365-5.139-0.388-9.158-0.354-11.446H89.42c0.038,2.133,0.031,5.736-0.25,10.309
	C90.406,30.664,91.742,30.378,93.078,30.378z"/>
<g>
</g>
<g>
</g>
<g>
</g>
<g>
</g>
<g>
</g>
<g>
</g>
<g>
</g>
<g>
</g>
<g>
</g>
<g>
</g>
<g>
</g>
<g>
</g>
<g>
</g>
<g>
</g>
<g>
</g>
</svg>
