<svg width="40" height="40" viewBox="0 0 40 40" fill="none" xmlns="http://www.w3.org/2000/svg">
<path d="M20 11.9438C18.4064 11.9438 16.8487 12.4164 15.5237 13.3017C14.1987 14.1871 13.166 15.4454 12.5562 16.9177C11.9463 18.3899 11.7868 20.0099 12.0977 21.5729C12.4086 23.1358 13.1759 24.5714 14.3027 25.6983C15.4295 26.8251 16.8652 27.5924 18.4281 27.9033C19.9911 28.2142 21.6111 28.0546 23.0833 27.4448C24.5556 26.835 25.8139 25.8023 26.6993 24.4773C27.5846 23.1523 28.0571 21.5945 28.0571 20.001C28.0553 17.8647 27.2059 15.8163 25.6953 14.3057C24.1846 12.7951 22.1363 11.9457 20 11.9438Z" fill="white"/>
<path d="M31.2408 0H8.75924C6.43687 0.00236994 4.2103 0.925977 2.56814 2.56814C0.925977 4.2103 0.00236994 6.43687 0 8.75924V31.2408C0.00236994 33.5631 0.925977 35.7897 2.56814 37.4319C4.2103 39.074 6.43687 39.9976 8.75924 40H31.2408C33.5631 39.9976 35.7897 39.074 37.4319 37.4319C39.074 35.7897 39.9976 33.5631 40 31.2408V8.75924C39.9976 6.43687 39.074 4.2103 37.4319 2.56814C35.7897 0.925977 33.5631 0.00236994 31.2408 0V0ZM31.2705 10.4762C30.8937 10.4762 30.5255 10.3645 30.2122 10.1552C29.899 9.94588 29.6549 9.6484 29.5107 9.30035C29.3665 8.9523 29.3288 8.56932 29.4023 8.19983C29.4758 7.83034 29.6572 7.49094 29.9236 7.22456C30.19 6.95817 30.5294 6.77676 30.8989 6.70327C31.2684 6.62977 31.6513 6.66749 31.9994 6.81166C32.3474 6.95582 32.6449 7.19996 32.8542 7.5132C33.0635 7.82644 33.1752 8.1947 33.1752 8.57143C33.1752 9.0766 32.9746 9.56109 32.6173 9.9183C32.2601 10.2755 31.7757 10.4762 31.2705 10.4762ZM20 29.9619C18.0297 29.9619 16.1037 29.3776 14.4655 28.283C12.8272 27.1884 11.5504 25.6326 10.7964 23.8123C10.0424 21.992 9.84513 19.9889 10.2295 18.0565C10.6139 16.1241 11.5627 14.3491 12.9559 12.9559C14.3491 11.5627 16.1241 10.6139 18.0565 10.2295C19.9889 9.84513 21.992 10.0424 23.8123 10.7964C25.6326 11.5504 27.1884 12.8272 28.283 14.4655C29.3776 16.1037 29.9619 18.0297 29.9619 20C29.9594 22.6413 28.9091 25.1737 27.0414 27.0414C25.1737 28.9091 22.6413 29.9594 20 29.9619V29.9619Z" fill="white"/>
</svg>
