<svg width="100" height="130" viewBox="0 0 100 130" fill="none" xmlns="http://www.w3.org/2000/svg">
<path d="M99.6795 88.8801C99.5903 88.4359 99.3671 88.0298 99.0399 87.7165C98.7127 87.4031 98.2974 87.1976 97.8498 87.1277L93.1617 86.3795C92.9285 84.4688 92.4756 82.5915 91.8118 80.7847L95.6623 77.9913C96.0294 77.726 96.3064 77.3547 96.4561 76.9273C96.6058 76.4998 96.6211 76.0368 96.4999 75.6005C95.4929 71.924 93.1818 68.7399 89.9983 66.6431C89.621 66.3928 89.1762 66.2637 88.7235 66.2731C88.2707 66.2826 87.8317 66.4301 87.4652 66.696L83.6147 69.4934C82.1035 68.3008 80.4594 67.287 78.7151 66.4724L79.4592 61.7843C79.5301 61.3369 79.463 60.8786 79.2668 60.4704C79.0707 60.0622 78.7549 59.7234 78.3614 59.4992C75.0494 57.6142 71.1651 56.9971 67.432 57.763C66.9884 57.8535 66.583 58.0771 66.2699 58.404C65.9568 58.731 65.7508 59.1456 65.6795 59.5927L64.9314 64.2848C63.0212 64.5186 61.1441 64.9701 59.3366 65.6307L56.5432 61.7802C56.2767 61.4146 55.9052 61.1387 55.4782 60.9891C55.0512 60.8395 54.5888 60.8233 54.1524 60.9426C53.6341 61.0844 53.1237 61.2541 52.6236 61.4508V52.6967H54.3354C54.9263 52.6967 55.4931 52.4619 55.911 52.044C56.3288 51.6262 56.5636 51.0594 56.5636 50.4685C56.5636 49.8775 56.3288 49.3108 55.911 48.8929C55.4931 48.4751 54.9263 48.2403 54.3354 48.2403H45.0364C45.8776 42.2061 48.1562 36.4623 51.6803 31.4924C53.1931 32.7518 54.9357 33.7059 56.8116 34.3021C58.7208 34.9138 60.7147 35.2198 62.7195 35.2088C66.9015 35.1691 70.9982 34.0215 74.5922 31.8828C87.5668 24.2348 95.6744 8.36508 96.0119 7.69419C96.148 7.42588 96.2282 7.13273 96.2476 6.83251C96.2671 6.53229 96.2253 6.23124 96.125 5.94763C96.0246 5.66401 95.8677 5.40373 95.6637 5.18256C95.4598 4.96139 95.2131 4.78393 94.9385 4.66095C94.1741 4.31534 76.0356 -3.69872 60.5686 2.09937C57.8394 3.09138 55.3389 4.62499 53.2176 6.60801C51.0962 8.59103 49.3977 10.9825 48.2242 13.6387C47.3069 15.6664 46.8149 17.8606 46.7785 20.0858C46.7422 22.3111 47.1622 24.5201 48.0127 26.5767C48.2262 27.0735 48.472 27.5557 48.7487 28.0202C45.6339 32.1568 43.3148 36.8363 41.9097 41.8202C40.8896 39.3322 39.5648 36.9803 37.9657 34.8185C38.1269 34.5327 38.2721 34.2381 38.4007 33.9362C39.088 32.2777 39.4284 30.4961 39.4011 28.7011C39.3739 26.906 38.9794 25.1356 38.2421 23.4988C37.3035 21.3751 35.9455 19.463 34.2498 17.877C32.5541 16.2909 30.5555 15.0637 28.374 14.2689C16.176 9.6947 1.91244 16.0011 1.31065 16.2694C1.0369 16.3934 0.791018 16.5713 0.587756 16.7927C0.384495 17.014 0.228044 17.2741 0.127795 17.5574C0.0275462 17.8407 -0.0144336 18.1413 0.00437344 18.4412C0.0231805 18.7411 0.102388 19.0341 0.237242 19.3026C0.505597 19.8312 6.86482 32.2773 17.0623 38.2827C19.9274 39.9925 23.1958 40.9089 26.5321 40.9379C28.1398 40.9465 29.7388 40.6994 31.269 40.206C32.6123 39.7794 33.8722 39.1247 34.9934 38.2706C37.0587 41.2862 38.5247 44.671 39.3115 48.2404H28.0649C27.474 48.2404 26.9072 48.4752 26.4894 48.893C26.0715 49.3109 25.8368 49.8777 25.8368 50.4686C25.8368 51.0596 26.0715 51.6263 26.4894 52.0442C26.9072 52.462 27.474 52.6968 28.0649 52.6968H31.0046V71.8883L7.94637 112.833C6.97441 114.561 6.47174 116.513 6.48833 118.496C6.50493 120.479 7.0402 122.423 8.04095 124.134C9.04169 125.846 10.473 127.266 12.1927 128.253C13.9123 129.239 15.8603 129.759 17.843 129.76H65.7893C67.71 129.76 69.5992 129.272 71.2802 128.343C72.9612 127.414 74.3791 126.074 75.4012 124.448C76.4232 122.822 77.0161 120.963 77.1242 119.045C77.2323 117.128 76.8522 115.214 76.0194 113.483C76.2308 113.41 76.4463 113.337 76.6578 113.26L79.4511 117.11C79.7179 117.476 80.0893 117.751 80.5162 117.901C80.9432 118.051 81.4055 118.067 81.8419 117.948C85.5189 116.94 88.7038 114.629 90.8034 111.446C91.0522 111.068 91.18 110.623 91.1698 110.171C91.1596 109.719 91.012 109.28 90.7465 108.913L87.9531 105.063C89.143 103.551 90.1553 101.907 90.97 100.163L95.6581 100.907C96.1055 100.978 96.5637 100.911 96.972 100.715C97.3802 100.519 97.719 100.203 97.9433 99.8095C99.8282 96.4975 100.445 92.6132 99.6794 88.8801H99.6795ZM52.3227 15.379C53.2593 13.2783 54.6109 11.3886 56.2962 9.82348C57.9815 8.25833 59.9658 7.05 62.1299 6.27107C65.5955 5.02831 69.2561 4.41823 72.9374 4.46988C79.0516 4.59247 85.1029 5.7302 90.844 7.83657C88.2377 12.3051 81.5085 22.6369 72.3315 28.0446C70.2447 29.3468 67.9092 30.1994 65.4743 30.5481C63.0393 30.8967 60.5584 30.7337 58.19 30.0695C56.8383 29.6407 55.5829 28.953 54.494 28.0446C55.6396 26.7983 56.8661 25.6288 58.1656 24.5438C62.5669 20.8566 67.6875 18.1259 73.2017 16.5256C73.7756 16.389 74.2719 16.0301 74.5815 15.5279C74.8911 15.0257 74.9887 14.4211 74.853 13.847C74.7173 13.2728 74.3592 12.776 73.8575 12.4655C73.3558 12.1551 72.7514 12.0565 72.177 12.1913C66.0441 13.9114 60.3466 16.9146 55.4617 21.0022C54.2144 22.0376 53.0266 23.1426 51.9039 24.312C50.89 21.3912 51.04 18.1921 52.3227 15.3789V15.379ZM29.8906 35.9733C28.1199 36.4677 26.2656 36.5875 24.4461 36.325C22.6265 36.0624 20.8817 35.4234 19.3231 34.4486C12.6386 30.5086 7.62517 23.1085 5.42951 19.4532C9.6541 17.9894 18.9449 15.4888 26.8126 18.4407C28.4295 19.0218 29.9122 19.9235 31.172 21.0917C32.4317 22.2599 33.4425 23.6706 34.1436 25.2391C34.9627 27.0592 35.1585 29.0986 34.7007 31.0413C33.9566 30.3013 33.2125 29.6304 32.4807 29.0245C28.6268 25.8051 24.1339 23.4395 19.2986 22.0839C18.7245 21.9497 18.1205 22.0487 17.6192 22.3592C17.1179 22.6696 16.7602 23.1663 16.6245 23.7401C16.4889 24.3139 16.5864 24.9182 16.8956 25.4202C17.2048 25.9223 17.7005 26.2812 18.274 26.4183C22.4945 27.6463 26.4123 29.7416 29.7768 32.5702C30.6191 33.2757 31.4213 34.0277 32.1797 34.8227C31.4834 35.3267 30.7105 35.7152 29.8906 35.9733V35.9733ZM71.803 115.016C72.394 116.067 72.6998 117.254 72.69 118.459C72.6802 119.664 72.3551 120.846 71.747 121.886C71.1389 122.927 70.2691 123.79 69.2239 124.39C68.1787 124.991 66.9946 125.307 65.7894 125.307H17.843C16.6374 125.308 15.4526 124.992 14.4068 124.392C13.361 123.792 12.4906 122.929 11.8823 121.888C11.274 120.847 10.9491 119.665 10.9398 118.459C10.9305 117.254 11.2372 116.067 11.8294 115.016L15.9402 107.714C16.1154 107.76 16.2957 107.783 16.4769 107.783H67.7288L69.1519 110.308L70.3555 112.447L71.5388 114.545L71.803 115.016ZM35.4569 72.4697V52.6968H48.1713V72.4697C48.1711 72.8526 48.2691 73.2292 48.456 73.5635L49.5579 75.5151L50.7573 77.6457L54.5834 84.44L56.1244 87.1805V87.1846L58.2591 90.966L61.6501 96.9877L63.7807 100.773L65.2201 103.331H18.4082L35.1723 73.5635C35.3592 73.2292 35.4572 72.8526 35.4569 72.4697V72.4697ZM68.0663 99.3094L59.5968 84.2693C60.4975 82.808 61.7638 81.607 63.2708 80.785C64.7777 79.963 66.473 79.5485 68.1893 79.5823C69.9055 79.6162 71.5832 80.0973 73.0565 80.9782C74.5298 81.859 75.7478 83.109 76.5901 84.6047C77.4323 86.1004 77.8697 87.79 77.859 89.5065C77.8483 91.223 77.3899 92.9071 76.529 94.3921C75.6682 95.8772 74.4347 97.112 72.9505 97.9744C71.4663 98.8368 69.7828 99.2969 68.0663 99.3094V99.3094ZM95.4061 93.8203C95.2722 94.6534 95.0458 95.4689 94.7312 96.2518L89.9495 95.4914C89.4443 95.411 88.9268 95.507 88.484 95.7632C88.0412 96.0194 87.7001 96.4202 87.5181 96.8983C86.5948 99.3213 85.2237 101.549 83.4765 103.465C83.1327 103.843 82.93 104.328 82.9026 104.839C82.8752 105.349 83.0248 105.853 83.326 106.266L86.1722 110.194C85.6108 110.84 84.9763 111.418 84.2814 111.918C83.6012 112.415 82.8658 112.831 82.0899 113.158L79.2396 109.234C78.939 108.82 78.5051 108.522 78.0106 108.389C77.5161 108.257 76.991 108.298 76.5235 108.507C75.6427 108.901 74.7367 109.237 73.8115 109.511L70.4571 103.554C72.5801 103.184 74.5923 102.34 76.3435 101.084C78.0948 99.8284 79.5399 98.1935 80.5713 96.3013C81.6027 94.4091 82.1937 92.3086 82.3002 90.1562C82.4067 88.0038 82.0259 85.8552 81.1864 83.8705C80.3468 81.8858 79.0701 80.1161 77.4513 78.6936C75.8326 77.271 73.9136 76.2321 71.8375 75.6545C69.7614 75.0768 67.5816 74.9753 65.4608 75.3574C63.3399 75.7395 61.3327 76.5954 59.5887 77.8612C58.7172 78.4939 57.9194 79.2222 57.2101 80.0325L52.6237 71.8883V66.3788C53.0376 66.136 53.4668 65.92 53.9085 65.7323L56.7588 69.6601C57.0595 70.0732 57.493 70.3705 57.9866 70.5022C58.4803 70.634 59.0042 70.5922 59.4708 70.3838C61.8336 69.3175 64.3754 68.7038 66.9644 68.5745C67.4758 68.5507 67.9634 68.3513 68.3449 68.0098C68.7264 67.6683 68.9784 67.2057 69.0584 66.7L69.8187 61.9225C70.6714 61.8628 71.5282 61.901 72.3722 62.0363C73.2054 62.1716 74.0209 62.3994 74.8037 62.7154L74.0433 67.4929C73.9629 67.9981 74.0589 68.5156 74.3151 68.9584C74.5713 69.4012 74.9721 69.7423 75.4502 69.9244C77.8732 70.8477 80.1008 72.2187 82.0167 73.966C82.395 74.3093 82.88 74.512 83.3901 74.5402C83.9002 74.5683 84.4044 74.4201 84.8182 74.1204L88.746 71.2702C89.3932 71.8314 89.9731 72.4659 90.474 73.1609C90.9684 73.844 91.3844 74.5805 91.7142 75.3566L87.7864 78.2068C87.3723 78.5067 87.0743 78.9402 86.9425 79.4342C86.8106 79.9282 86.8531 80.4525 87.0627 80.9188C88.1277 83.2819 88.74 85.8237 88.868 88.4125C88.8924 88.9237 89.0921 89.4109 89.4334 89.7922C89.7748 90.1736 90.237 90.4258 90.7424 90.5065L95.524 91.2668C95.5802 92.1197 95.5406 92.9762 95.4061 93.8203V93.8203Z" fill="white"/>
</svg>
