<svg height="420pt" viewBox="-1 0 420 420.83312" width="420pt" xmlns="http://www.w3.org/2000/svg"><path d="m415.710938 176.917969c-4.152344-10.359375-12.085938-18.484375-22.347657-22.871094-21.191406-9.050781-45.792969.804687-54.847656 21.980469-1.253906 2.933594-2.152344 5.960937-2.710937 9.023437l-28.453126-32.5c-.675781-.769531-1.507812-1.378906-2.449218-1.78125l-3.605469-1.539062-10.414063-104c-1.191406-11.945313-6.972656-22.71875-16.265624-30.320313-9.300782-7.609375-20.980469-11.144531-32.949219-9.9375-1.800781.179688-3.457031 1.070313-4.605469 2.46875-1.148438 1.402344-1.6875 3.203125-1.507812 5.003906l11.371093 113.523438-96.863281-41.433594c-3.472656-1.476562-7.472656.117188-8.957031 3.59375-4.730469 11.042969-4.871094 23.261719-.402344 34.40625 4.46875 11.148438 13.007813 19.886719 24.046875 24.613282l87.742188 37.523437c.722656.308594 1.460937.453125 2.203124.507813l21.089844 34.609374c-3.085937-.386718-6.242187-.441406-9.421875-.128906-11.105469 1.113282-21.113281 6.484375-28.171875 15.121094-7.066406 8.640625-10.347656 19.511719-9.234375 30.617188 1.113281 11.101562 6.480469 21.109374 15.121094 28.175781 7.53125 6.164062 16.765625 9.445312 26.371094 9.445312 1.40625 0 2.820312-.074219 4.242187-.210937 11.105469-1.113282 21.113282-6.484375 28.171875-15.125 7.066407-8.636719 10.347657-19.511719 9.234375-30.613282-.082031-.800781-.191406-1.597656-.316406-2.386718.003906-.257813.027344-.511719 0-.777344l-4.589844-45.832031 50.378906 21.550781c.324219.136719.660157.222656.992188.308594.644531.3125 1.269531.65625 1.933594.941406 5.28125 2.257812 10.84375 3.390625 16.425781 3.390625 5.253906 0 10.519531-1.007813 15.546875-3.023437 10.359375-4.152344 18.480469-12.085938 22.867188-22.347657 4.398437-10.265625 4.53125-21.621093.375-31.976562zm-262.332032-59.460938c-2.246094-5.605469-2.820312-11.597656-1.726562-17.390625l96.828125 41.421875 2.785156 27.808594-81.140625-34.703125c-7.6875-3.292969-13.632812-9.378906-16.746094-17.136719zm96.519532-98.839843c5.855468.695312 11.402343 3.039062 16.074218 6.863281 6.472656 5.292969 10.492188 12.789062 11.328125 21.109375l17.910157 178.832031-29.4375-48.308594zm42.402343 260.421874c-4.753906 5.816407-11.496093 9.433594-18.96875 10.179688-7.464843.753906-14.800781-1.457031-20.613281-6.214844-5.8125-4.757812-9.425781-11.492187-10.171875-18.96875-.753906-7.476562 1.453125-14.796875 6.214844-20.613281 4.75-5.8125 11.492187-9.429687 18.964843-10.175781.953126-.097656 1.90625-.144532 2.851563-.144532 6.46875 0 12.6875 2.210938 17.761719 6.359376 5.8125 4.757812 9.425781 11.492187 10.171875 18.96875.753906 7.476562-1.453125 14.796874-6.210938 20.609374zm10.9375-110.464843 32.136719 36.699219-29.429688-12.585938c-.097656-.042969-.199218-.058594-.300781-.09375zm99.554688 34.945312c-6.105469 14.261719-22.679688 20.890625-36.921875 14.800781-6.914063-2.953124-12.253906-8.421874-15.050782-15.394531-2.796874-6.976562-2.707031-14.621093.246094-21.527343 4.566406-10.664063 14.980469-17.066407 25.90625-17.066407 3.679688 0 7.429688.730469 11.019532 2.265625 6.910156 2.953125 12.253906 8.421875 15.046874 15.394532 2.792969 6.976562 2.707032 14.621093-.246093 21.527343zm0 0"/><path d="m385.90625 171.46875c-5.613281-2.402344-11.820312-2.457031-17.46875-.199219-5.660156 2.269531-10.097656 6.609375-12.492188 12.210938-2.398437 5.605469-2.472656 11.8125-.207031 17.472656 2.273438 5.660156 6.609375 10.097656 12.214844 12.496094h.003906c2.914063 1.246093 5.949219 1.835937 8.941407 1.835937 8.867187 0 17.3125-5.191406 21.015624-13.847656 2.398438-5.605469 2.472657-11.808594.207032-17.472656-2.269532-5.660156-6.601563-10.09375-12.214844-12.496094zm-.546875 24.601562c-1.996094 4.652344-7.414063 6.796876-12.042969 4.828126-2.25-.96875-3.992187-2.75-4.90625-5.023438-.910156-2.273438-.878906-4.769531.089844-7.023438.957031-2.253906 2.738281-3.992187 5.019531-4.90625 2.269531-.914062 4.773438-.882812 7.019531.078126 2.25.964843 3.992188 2.746093 4.90625 5.023437.914063 2.273437.878907 4.765625-.085937 7.023437zm0 0"/><path d="m284.980469 243.558594c-4.714844-3.855469-10.65625-5.640625-16.726563-5.042969-12.527344 1.253906-21.695312 12.464844-20.441406 24.992187.605469 6.066407 3.539062 11.535157 8.265625 15.394532 4.113281 3.367187 9.160156 5.160156 14.414063 5.160156.765624 0 1.539062-.039062 2.3125-.117188 6.066406-.605468 11.53125-3.542968 15.394531-8.261718 3.859375-4.722656 5.652343-10.660156 5.046875-16.726563-.609375-6.070312-3.542969-11.535156-8.265625-15.398437zm-7.347657 23.480468c-1.554687 1.898438-3.746093 3.078126-6.1875 3.320313-2.421874.261719-4.828124-.46875-6.726562-2.027344-1.898438-1.554687-3.078125-3.75-3.320312-6.1875-.503907-5.03125 3.179687-9.539062 8.214843-10.042969.304688-.03125.613281-.046874.917969-.046874 4.65625 0 8.652344 3.539062 9.128906 8.261718.246094 2.441406-.476562 4.824219-2.027344 6.722656zm0 0"/><path d="m164.191406 254.246094c-1.679687-16.667969-11.296875-30.667969-24.894531-38.445313v-33.898437c0-3.769532-3.050781-6.828125-6.824219-6.828125h-1.617187c-2.03125-29.980469-16.921875-68.265625-39.34375-68.265625-22.425781 0-37.3125 38.285156-39.347657 68.265625h-1.613281c-3.773437 0-6.824219 3.058593-6.824219 6.828125v33.898437c-13.597656 7.777344-23.214843 21.777344-24.894531 38.445313l-11.242187 111.511718c-1.410156 14.046876 3.207031 28.117188 12.683594 38.59375 9.472656 10.472657 23.003906 16.480469 37.125 16.480469h68.226562c14.121094 0 27.652344-6.007812 37.128906-16.480469 9.472656-10.480468 14.09375-24.546874 12.679688-38.59375zm-72.679687-133.785156c10.039062 0 23.707031 26.503906 25.695312 54.613281h-51.386719c1.984376-28.109375 15.652344-54.613281 25.691407-54.613281zm-34.132813 88.746093v-20.480469h68.265625v20.480469zm95.246094 185.984375c-6.886719 7.617188-16.726562 11.988282-27 11.988282h-68.226562c-10.273438 0-20.113282-4.371094-27-11.988282-6.890626-7.621094-10.253907-17.847656-9.21875-28.070312l11.238281-111.507813c1.882812-18.671875 17.457031-32.753906 36.222656-32.753906h45.746094c18.765625 0 34.339843 14.082031 36.222656 32.753906l11.238281 111.507813c1.03125 10.222656-2.328125 20.453125-9.222656 28.070312zm0 0"/><path d="m12.585938 165.21875c.710937 0 1.4375-.113281 2.152343-.351562 3.574219-1.1875 5.511719-5.050782 4.328125-8.628907-1.6875-5.078125-3.007812-10.3125-3.921875-15.566406-.644531-3.710937-4.1875-6.195313-7.898437-5.550781-3.714844.648437-6.203125 4.183594-5.554688 7.898437 1.03125 5.914063 2.519532 11.804688 4.414063 17.519531.953125 2.867188 3.621093 4.679688 6.480469 4.679688zm0 0"/><path d="m77.199219 21.933594c.898437 0 1.808593-.179688 2.6875-.554688 8.984375-3.847656 18.445312-6.457031 28.121093-7.761718 3.738282-.507813 6.359376-3.945313 5.851563-7.679688s-3.925781-6.355469-7.679687-5.8554688c-10.894532 1.4726568-21.546876 4.4140628-31.667969 8.7421878-3.464844 1.484375-5.074219 5.496093-3.585938 8.964843 1.105469 2.589844 3.625 4.144532 6.273438 4.144532zm0 0"/><path d="m25.023438 58.867188c1.214843.886718 2.628906 1.316406 4.027343 1.316406 2.097657 0 4.171875-.964844 5.511719-2.789063 5.773438-7.878906 12.585938-14.964843 20.238281-21.054687 2.953125-2.34375 3.441407-6.640625 1.097657-9.589844-2.347657-2.949219-6.640626-3.453125-9.589844-1.09375-8.613282 6.84375-16.265625 14.808594-22.757813 23.664062-2.226562 3.046876-1.566406 7.316407 1.472657 9.546876zm0 0"/><path d="m137.21875 13.59375c9.726562 1.289062 19.199219 3.871094 28.175781 7.667969.867188.367187 1.765625.542969 2.660157.542969 2.652343 0 5.1875-1.566407 6.285156-4.164063 1.46875-3.472656-.152344-7.480469-3.625-8.949219-10.09375-4.277344-20.761719-7.179687-31.691406-8.6328122-3.753907-.4921878-7.175782 2.1328122-7.667969 5.8710942-.496094 3.738281 2.128906 7.167968 5.863281 7.664062zm0 0"/><path d="m6.59375 117.625c.21875.019531.4375.027344.652344.027344 3.480468 0 6.453125-2.644532 6.789062-6.179688.933594-9.769531 3.152344-19.335937 6.605469-28.429687 1.339844-3.523438-.433594-7.46875-3.953125-8.808594-3.519531-1.316406-7.472656.433594-8.804688 3.960937-3.894531 10.234376-6.394531 21-7.433593 31.984376-.3632815 3.753906 2.390625 7.085937 6.144531 7.445312zm0 0"/><path d="m190.59375 36.222656c4.179688 3.316406 8.152344 6.976563 11.804688 10.871094 1.347656 1.433594 3.160156 2.160156 4.980468 2.160156 1.671875 0 3.351563-.613281 4.671875-1.847656 2.746094-2.582031 2.886719-6.898438.308594-9.648438-4.113281-4.382812-8.578125-8.5-13.285156-12.226562-2.949219-2.351562-7.25-1.847656-9.589844 1.101562-2.34375 2.953126-1.84375 7.25 1.109375 9.589844zm0 0"/><path d="m125.644531 263.820312h-68.265625c-3.605468 0-6.585937 2.800782-6.8125 6.394532l-2.148437 34.136718c-.121094 1.882813.546875 3.730469 1.839843 5.101563 1.285157 1.375 3.085938 2.152344 4.972657 2.152344h72.5625c1.882812 0 3.683593-.777344 4.972656-2.152344 1.292969-1.375 1.957031-3.222656 1.839844-5.101563l-2.148438-34.136718c-.222656-3.59375-3.203125-6.394532-6.8125-6.394532zm-63.144531 34.132813 1.292969-20.480469h55.4375l1.292969 20.480469zm0 0"/></svg>