<svg id="Layer_3" enable-background="new 0 0 64 64" height="512" viewBox="0 0 64 64" width="512" xmlns="http://www.w3.org/2000/svg"><path d="m28 13h8v2h-8z"/><path d="m30 27h8v6h-8z"/><path d="m40.586 21-4-4h-9.172l-1 1 3 3z"/><path d="m30 37h12v-14h-12v2h9c.552 0 1 .448 1 1v8c0 .552-.448 1-1 1h-9z"/><path d="m14 13h8v2h-8z"/><path d="m55 44c0-2.045-1.237-3.802-3-4.576v9.152c1.763-.774 3-2.531 3-4.576z"/><path d="m14 51v4h43.09c.203-1.176.756-2.26 1.617-3.121l.879-.879z"/><path d="m9 56c0 2.045 1.237 3.802 3 4.576v-9.152c-1.763.774-3 2.531-3 4.576z"/><path d="m50 49v-4h-43.09c-.203 1.176-.756 2.26-1.617 3.121l-.879.879z"/><path d="m4.414 39 .879.879c.861.861 1.414 1.945 1.617 3.121h43.09v-4z"/><path d="m57.09 57h-43.09v4h45.586l-.879-.879c-.861-.861-1.414-1.945-1.617-3.121z"/><path d="m22.586 17h-9.172l-4 4h17.172z"/><path d="m28 23h-20v14h20zm-2 11c0 .552-.448 1-1 1h-14c-.552 0-1-.448-1-1v-8c0-.552.448-1 1-1h14c.552 0 1 .448 1 1z"/><path d="m12 27h12v6h-12z"/><path d="m57 14c0-4.482-1.78-8.781-4.95-11.95l-.05-.05-.05.05c-3.17 3.169-4.95 7.468-4.95 11.95 0 4.008 1.432 7.863 4 10.901v7.099h2v-7.099c2.568-3.038 4-6.893 4-10.901z"/></svg>