<?xml version="1.0" encoding="iso-8859-1"?>
<!-- Generator: Adobe Illustrator 19.0.0, SVG Export Plug-In . SVG Version: 6.00 Build 0)  -->
<svg version="1.1" id="Capa_1" xmlns="http://www.w3.org/2000/svg" xmlns:xlink="http://www.w3.org/1999/xlink" x="0px" y="0px"
	 viewBox="0 0 383.653 383.653" style="enable-background:new 0 0 383.653 383.653;" xml:space="preserve">
<g id="Microfono">
	<path d="M150.025,371.653v12h83.603v-12h-25.833V103.762h5.166c3.21,0,5.851-2.526,5.994-5.732l3.594-80.522
		c0.178-3.993-1.306-7.94-4.068-10.829c-2.803-2.931-6.58-4.544-10.635-4.544h-32.038c-4.055,0-7.832,1.614-10.635,4.544
		c-2.763,2.889-4.246,6.835-4.068,10.83l3.594,80.521c0.144,3.207,2.784,5.732,5.994,5.732h5.166v267.892h-25.834V371.653z
		 M176.43,91.762l-0.332-7.444h31.457l-0.332,7.444H176.43z M209.121,49.226l-0.248,5.546h-34.094l-0.248-5.546H209.121z
		 M173.996,37.226l-0.247-5.546h36.155l-0.248,5.546H173.996z M208.337,66.772l-0.247,5.546h-32.528l-0.248-5.546H208.337z
		 M173.844,14.973c0.299-0.313,0.953-0.839,1.963-0.839h32.038c1.01,0,1.664,0.526,1.963,0.839c0.301,0.314,0.797,0.991,0.752,2
		l-0.121,2.707h-37.226l-0.121-2.706C173.047,15.964,173.544,15.287,173.844,14.973z M187.858,103.762h7.937v267.892h-7.937V103.762
		z"/>
	<path d="M257.179,80.798l-5.656,5.658l-20.717-20.711l5.656-5.658L257.179,80.798z"/>
	<path d="M236.465,26.368l-5.656-5.658L251.526,0l5.656,5.658L236.465,26.368z"/>
	<rect x="239.694" y="39.226" width="29.294" height="8"/>
	<path d="M147.197,26.378L126.484,5.664l5.657-5.657l20.714,20.714L147.197,26.378z"/>
	<path d="M126.481,80.789l20.714-20.714l5.657,5.657l-20.714,20.714L126.481,80.789z"/>
	<rect x="114.665" y="39.226" width="29.294" height="8"/>
</g>
<g>
</g>
<g>
</g>
<g>
</g>
<g>
</g>
<g>
</g>
<g>
</g>
<g>
</g>
<g>
</g>
<g>
</g>
<g>
</g>
<g>
</g>
<g>
</g>
<g>
</g>
<g>
</g>
<g>
</g>
</svg>
